<?xml version="1.0" encoding="UTF-8" standalone="no"?>
<!DOCTYPE svg PUBLIC "-//W3C//DTD SVG 1.1//EN"
 "http://www.w3.org/Graphics/SVG/1.1/DTD/svg11.dtd">
<!-- Generated by graphviz version 2.43.0 (0)
 -->
<!-- Title: PriorityQueue&lt; T, Compare &gt; Pages: 1 -->
<svg width="241pt" height="478pt"
 viewBox="0.00 0.00 240.50 478.00" xmlns="http://www.w3.org/2000/svg" xmlns:xlink="http://www.w3.org/1999/xlink">
<g id="graph0" class="graph" transform="scale(1 1) rotate(0) translate(4 474)">
<title>PriorityQueue&lt; T, Compare &gt;</title>
<!-- Node1 -->
<g id="Node000001" class="node">
<title>Node1</title>
<g id="a_Node000001"><a xlink:title="A generic binary min&#45;heap priority queue with pointer&#45;based nodes.">
<polygon fill="#999999" stroke="transparent" points="156,-319 0,-319 0,0 156,0 156,-319"/>
<text text-anchor="start" x="5" y="-306.5" font-family="Helvetica,sans-Serif" font-size="10.00">PriorityQueue&lt; T, Compare &gt;</text>
<text text-anchor="start" x="9" y="-291.5" font-family="Helvetica,sans-Serif" font-size="10.00">&#45;</text>
<text text-anchor="start" x="22" y="-291.5" font-family="Helvetica,sans-Serif" font-size="10.00">compare_</text>
<text text-anchor="start" x="9" y="-276.5" font-family="Helvetica,sans-Serif" font-size="10.00">&#45;</text>
<text text-anchor="start" x="22" y="-276.5" font-family="Helvetica,sans-Serif" font-size="10.00">size_</text>
<text text-anchor="start" x="6.5" y="-261.5" font-family="Helvetica,sans-Serif" font-size="10.00">+</text>
<text text-anchor="start" x="22" y="-261.5" font-family="Helvetica,sans-Serif" font-size="10.00">clear()</text>
<text text-anchor="start" x="6.5" y="-246.5" font-family="Helvetica,sans-Serif" font-size="10.00">+</text>
<text text-anchor="start" x="22" y="-246.5" font-family="Helvetica,sans-Serif" font-size="10.00">empty()</text>
<text text-anchor="start" x="6.5" y="-231.5" font-family="Helvetica,sans-Serif" font-size="10.00">+</text>
<text text-anchor="start" x="22" y="-231.5" font-family="Helvetica,sans-Serif" font-size="10.00">operator=()</text>
<text text-anchor="start" x="6.5" y="-216.5" font-family="Helvetica,sans-Serif" font-size="10.00">+</text>
<text text-anchor="start" x="22" y="-216.5" font-family="Helvetica,sans-Serif" font-size="10.00">operator=()</text>
<text text-anchor="start" x="6.5" y="-201.5" font-family="Helvetica,sans-Serif" font-size="10.00">+</text>
<text text-anchor="start" x="22" y="-201.5" font-family="Helvetica,sans-Serif" font-size="10.00">pop()</text>
<text text-anchor="start" x="6.5" y="-186.5" font-family="Helvetica,sans-Serif" font-size="10.00">+</text>
<text text-anchor="start" x="22" y="-186.5" font-family="Helvetica,sans-Serif" font-size="10.00">PriorityQueue()</text>
<text text-anchor="start" x="6.5" y="-171.5" font-family="Helvetica,sans-Serif" font-size="10.00">+</text>
<text text-anchor="start" x="22" y="-171.5" font-family="Helvetica,sans-Serif" font-size="10.00">PriorityQueue()</text>
<text text-anchor="start" x="6.5" y="-156.5" font-family="Helvetica,sans-Serif" font-size="10.00">+</text>
<text text-anchor="start" x="22" y="-156.5" font-family="Helvetica,sans-Serif" font-size="10.00">PriorityQueue()</text>
<text text-anchor="start" x="6.5" y="-141.5" font-family="Helvetica,sans-Serif" font-size="10.00">+</text>
<text text-anchor="start" x="22" y="-141.5" font-family="Helvetica,sans-Serif" font-size="10.00">push()</text>
<text text-anchor="start" x="6.5" y="-126.5" font-family="Helvetica,sans-Serif" font-size="10.00">+</text>
<text text-anchor="start" x="22" y="-126.5" font-family="Helvetica,sans-Serif" font-size="10.00">size()</text>
<text text-anchor="start" x="6.5" y="-111.5" font-family="Helvetica,sans-Serif" font-size="10.00">+</text>
<text text-anchor="start" x="22" y="-111.5" font-family="Helvetica,sans-Serif" font-size="10.00">top()</text>
<text text-anchor="start" x="6.5" y="-96.5" font-family="Helvetica,sans-Serif" font-size="10.00">+</text>
<text text-anchor="start" x="22" y="-96.5" font-family="Helvetica,sans-Serif" font-size="10.00">~PriorityQueue()</text>
<text text-anchor="start" x="9" y="-81.5" font-family="Helvetica,sans-Serif" font-size="10.00">&#45;</text>
<text text-anchor="start" x="22" y="-81.5" font-family="Helvetica,sans-Serif" font-size="10.00">bubbleDown()</text>
<text text-anchor="start" x="9" y="-66.5" font-family="Helvetica,sans-Serif" font-size="10.00">&#45;</text>
<text text-anchor="start" x="22" y="-66.5" font-family="Helvetica,sans-Serif" font-size="10.00">bubbleUp()</text>
<text text-anchor="start" x="9" y="-51.5" font-family="Helvetica,sans-Serif" font-size="10.00">&#45;</text>
<text text-anchor="start" x="22" y="-51.5" font-family="Helvetica,sans-Serif" font-size="10.00">clearSubtree()</text>
<text text-anchor="start" x="9" y="-36.5" font-family="Helvetica,sans-Serif" font-size="10.00">&#45;</text>
<text text-anchor="start" x="22" y="-36.5" font-family="Helvetica,sans-Serif" font-size="10.00">dequeueInsertionNode()</text>
<text text-anchor="start" x="9" y="-21.5" font-family="Helvetica,sans-Serif" font-size="10.00">&#45;</text>
<text text-anchor="start" x="22" y="-21.5" font-family="Helvetica,sans-Serif" font-size="10.00">enqueueInsertionNode()</text>
<text text-anchor="start" x="9" y="-6.5" font-family="Helvetica,sans-Serif" font-size="10.00">&#45;</text>
<text text-anchor="start" x="22" y="-6.5" font-family="Helvetica,sans-Serif" font-size="10.00">findLastNodeLevelOrder()</text>
<polygon fill="#666666" stroke="#666666" points="0,-301.5 0,-301.5 156,-301.5 156,-301.5 0,-301.5"/>
<polygon fill="#666666" stroke="#666666" points="0,-271.5 0,-271.5 20,-271.5 20,-271.5 0,-271.5"/>
<polygon fill="#666666" stroke="#666666" points="20,-271.5 20,-271.5 156,-271.5 156,-271.5 20,-271.5"/>
<polygon fill="none" stroke="#666666" points="0,0 0,-319 156,-319 156,0 0,0"/>
</a>
</g>
</g>
<!-- Node2 -->
<g id="Node000002" class="node">
<title>Node2</title>
<g id="a_Node000002"><a xlink:href="structPriorityQueue_1_1HeapNode.html" target="_top" xlink:title="A node in the binary&#45;heap tree.">
<polygon fill="white" stroke="transparent" points="150.5,-470 5.5,-470 5.5,-410 150.5,-410 150.5,-470"/>
<text text-anchor="start" x="11" y="-458" font-family="Helvetica,sans-Serif" font-size="10.00">PriorityQueue&lt; T, Compare</text>
<text text-anchor="start" x="44" y="-447" font-family="Helvetica,sans-Serif" font-size="10.00"> &gt;::HeapNode</text>
<text text-anchor="start" x="26" y="-432" font-family="Helvetica,sans-Serif" font-size="10.00">+</text>
<text text-anchor="start" x="55" y="-432" font-family="Helvetica,sans-Serif" font-size="10.00">value</text>
<text text-anchor="start" x="26" y="-417" font-family="Helvetica,sans-Serif" font-size="10.00">+</text>
<text text-anchor="start" x="55" y="-417" font-family="Helvetica,sans-Serif" font-size="10.00">HeapNode()</text>
<polygon fill="#666666" stroke="#666666" points="6,-442 6,-442 151,-442 151,-442 6,-442"/>
<polygon fill="#666666" stroke="#666666" points="6,-427 6,-427 53,-427 53,-427 6,-427"/>
<polygon fill="#666666" stroke="#666666" points="53,-427 53,-427 151,-427 151,-427 53,-427"/>
<polygon fill="none" stroke="#666666" points="5.5,-410 5.5,-470 150.5,-470 150.5,-410 5.5,-410"/>
</a>
</g>
</g>
<!-- Node2&#45;&gt;Node1 -->
<g id="edge1_Node000001_Node000002" class="edge">
<title>Node2&#45;&gt;Node1</title>
<g id="a_edge1_Node000001_Node000002"><a xlink:title=" ">
<path fill="none" stroke="#63b8ff" d="M78,-409.98C78,-390.06 78,-361.8 78,-331.42"/>
<polygon fill="none" stroke="#63b8ff" points="78,-331.22 74,-325.22 78,-319.22 82,-325.22 78,-331.22"/>
</a>
</g>
<text text-anchor="start" x="78" y="-384" font-family="Helvetica,sans-Serif" font-size="10.00" fill="grey"> &#45;insertion_queue_head</text>
<text text-anchor="middle" x="135.5" y="-373" font-family="Helvetica,sans-Serif" font-size="10.00" fill="grey">_</text>
<text text-anchor="start" x="78" y="-362" font-family="Helvetica,sans-Serif" font-size="10.00" fill="grey">&#45;insertion_queue</text>
<text text-anchor="middle" x="135.5" y="-351" font-family="Helvetica,sans-Serif" font-size="10.00" fill="grey">_tail_</text>
<text text-anchor="middle" x="135.5" y="-340" font-family="Helvetica,sans-Serif" font-size="10.00" fill="grey">&#45;root_</text>
</g>
<!-- Node2&#45;&gt;Node2 -->
<g id="edge2_Node000002_Node000002" class="edge">
<title>Node2&#45;&gt;Node2</title>
<g id="a_edge2_Node000002_Node000002"><a xlink:title=" ">
<path fill="none" stroke="#63b8ff" d="M150.79,-452.52C161.37,-450.53 168.5,-446.36 168.5,-440 168.5,-436.42 166.24,-433.54 162.39,-431.34"/>
<polygon fill="none" stroke="#63b8ff" points="162.17,-431.27 155.22,-433.17 150.79,-427.48 157.74,-425.58 162.17,-431.27"/>
</a>
</g>
<text text-anchor="middle" x="200.5" y="-454" font-family="Helvetica,sans-Serif" font-size="10.00" fill="grey"> +left</text>
<text text-anchor="middle" x="200.5" y="-443" font-family="Helvetica,sans-Serif" font-size="10.00" fill="grey">+next_insert</text>
<text text-anchor="middle" x="200.5" y="-432" font-family="Helvetica,sans-Serif" font-size="10.00" fill="grey">+parent</text>
<text text-anchor="middle" x="200.5" y="-421" font-family="Helvetica,sans-Serif" font-size="10.00" fill="grey">+right</text>
</g>
</g>
</svg>
