<?xml version="1.0" encoding="UTF-8" standalone="no"?>
<!DOCTYPE svg PUBLIC "-//W3C//DTD SVG 1.1//EN"
 "http://www.w3.org/Graphics/SVG/1.1/DTD/svg11.dtd">
<!-- Generated by graphviz version 2.43.0 (0)
 -->
<!-- Title: Graph Pages: 1 -->
<!--zoomable 702 -->

<svg id="main" version="1.1" xmlns="http://www.w3.org/2000/svg" xmlns:xlink="http://www.w3.org/1999/xlink" xml:space="preserve" onload="init(evt)">
<style type="text/css"><![CDATA[
.node, .edge {opacity: 0.7;}
.node.selected, .edge.selected {opacity: 1;}
.edge:hover path { stroke: red; }
.edge:hover polygon { stroke: red; fill: red; }
]]></style>

<defs>
  <circle id="rim" cx="0" cy="0" r="7"/>
  <circle id="rim2" cx="0" cy="0" r="3.5"/>
  <g id="zoomPlus">
    <use xlink:href="#rim" fill="#404040"><set attributeName="fill" to="#808080" begin="zoomplus.mouseover" end="zoomplus.mouseout"/></use>
    <path d="M-4,0h8M0,-4v8" fill="none" stroke="white" stroke-width="1.5" pointer-events="none"/>
  </g>
  <g id="zoomMin">
    <use xlink:href="#rim" fill="#404040"><set attributeName="fill" to="#808080" begin="zoomminus.mouseover" end="zoomminus.mouseout"/></use>
    <path d="M-4,0h8" fill="none" stroke="white" stroke-width="1.5" pointer-events="none"/>
  </g>
  <g id="arrowUp" transform="translate(30 24)">
    <use xlink:href="#rim"/>
    <path pointer-events="none" fill="none" stroke="white" stroke-width="1.5" d="M0,-3.0v7 M-2.5,-0.5L0,-3.0L2.5,-0.5"/>
  </g>
  <g id="arrowRight" transform="rotate(90) translate(36 -43)">
    <use xlink:href="#rim"/>
    <path pointer-events="none" fill="none" stroke="white" stroke-width="1.5" d="M0,-3.0v7 M-2.5,-0.5L0,-3.0L2.5,-0.5"/>
  </g>
  <g id="arrowDown" transform="rotate(180) translate(-30 -48)">
    <use xlink:href="#rim"/>
    <path pointer-events="none" fill="none" stroke="white" stroke-width="1.5" d="M0,-3.0v7 M-2.5,-0.5L0,-3.0L2.5,-0.5"/>
  </g>
  <g id="arrowLeft" transform="rotate(270) translate(-36 17)">
    <use xlink:href="#rim"/>
    <path pointer-events="none" fill="none" stroke="white" stroke-width="1.5" d="M0,-3.0v7 M-2.5,-0.5L0,-3.0L2.5,-0.5"/>
  </g>
  <g id="resetDef">
    <use xlink:href="#rim2" fill="#404040"><set attributeName="fill" to="#808080" begin="reset.mouseover" end="reset.mouseout"/></use>
  </g>
</defs>
<script type="application/ecmascript">
var viewWidth = 330;
var viewHeight = 702;
var sectionId = 'dynsection-0';
</script>
<script type="application/ecmascript" xlink:href="svg.min.js"/>
<svg id="graph" class="graph">
<g id="viewport">
<title>Graph</title>
<!-- Node1 -->
<g id="Node000001" class="node">
<title>Node1</title>
<g id="a_Node000001"><a xlink:title="Weighted graph with pointer&#45;based adjacency lists and Dijkstra routing.">
<polygon fill="#999999" stroke="transparent" points="157,-349 0,-349 0,0 157,0 157,-349"/>
<text text-anchor="start" x="64" y="-336.5" font-family="Helvetica,sans-Serif" font-size="10.00">Graph</text>
<text text-anchor="start" x="7" y="-321.5" font-family="Helvetica,sans-Serif" font-size="10.00">&#45;</text>
<text text-anchor="start" x="17.5" y="-321.5" font-family="Helvetica,sans-Serif" font-size="10.00">vertex_count_</text>
<text text-anchor="start" x="4.5" y="-306.5" font-family="Helvetica,sans-Serif" font-size="10.00">+</text>
<text text-anchor="start" x="17.5" y="-306.5" font-family="Helvetica,sans-Serif" font-size="10.00">addEdge()</text>
<text text-anchor="start" x="4.5" y="-291.5" font-family="Helvetica,sans-Serif" font-size="10.00">+</text>
<text text-anchor="start" x="17.5" y="-291.5" font-family="Helvetica,sans-Serif" font-size="10.00">addNode()</text>
<text text-anchor="start" x="4.5" y="-276.5" font-family="Helvetica,sans-Serif" font-size="10.00">+</text>
<text text-anchor="start" x="17.5" y="-276.5" font-family="Helvetica,sans-Serif" font-size="10.00">clear()</text>
<text text-anchor="start" x="4.5" y="-261.5" font-family="Helvetica,sans-Serif" font-size="10.00">+</text>
<text text-anchor="start" x="17.5" y="-261.5" font-family="Helvetica,sans-Serif" font-size="10.00">Graph()</text>
<text text-anchor="start" x="4.5" y="-246.5" font-family="Helvetica,sans-Serif" font-size="10.00">+</text>
<text text-anchor="start" x="17.5" y="-246.5" font-family="Helvetica,sans-Serif" font-size="10.00">Graph()</text>
<text text-anchor="start" x="4.5" y="-231.5" font-family="Helvetica,sans-Serif" font-size="10.00">+</text>
<text text-anchor="start" x="17.5" y="-231.5" font-family="Helvetica,sans-Serif" font-size="10.00">Graph()</text>
<text text-anchor="start" x="4.5" y="-216.5" font-family="Helvetica,sans-Serif" font-size="10.00">+</text>
<text text-anchor="start" x="17.5" y="-216.5" font-family="Helvetica,sans-Serif" font-size="10.00">isReachableToAnyExit()</text>
<text text-anchor="start" x="4.5" y="-201.5" font-family="Helvetica,sans-Serif" font-size="10.00">+</text>
<text text-anchor="start" x="17.5" y="-201.5" font-family="Helvetica,sans-Serif" font-size="10.00">nodeCount()</text>
<text text-anchor="start" x="4.5" y="-186.5" font-family="Helvetica,sans-Serif" font-size="10.00">+</text>
<text text-anchor="start" x="17.5" y="-186.5" font-family="Helvetica,sans-Serif" font-size="10.00">operator=()</text>
<text text-anchor="start" x="4.5" y="-171.5" font-family="Helvetica,sans-Serif" font-size="10.00">+</text>
<text text-anchor="start" x="17.5" y="-171.5" font-family="Helvetica,sans-Serif" font-size="10.00">operator=()</text>
<text text-anchor="start" x="4.5" y="-156.5" font-family="Helvetica,sans-Serif" font-size="10.00">+</text>
<text text-anchor="start" x="17.5" y="-156.5" font-family="Helvetica,sans-Serif" font-size="10.00">setEdgeBlocked()</text>
<text text-anchor="start" x="4.5" y="-141.5" font-family="Helvetica,sans-Serif" font-size="10.00">+</text>
<text text-anchor="start" x="17.5" y="-141.5" font-family="Helvetica,sans-Serif" font-size="10.00">setNodeBlocked()</text>
<text text-anchor="start" x="4.5" y="-126.5" font-family="Helvetica,sans-Serif" font-size="10.00">+</text>
<text text-anchor="start" x="17.5" y="-126.5" font-family="Helvetica,sans-Serif" font-size="10.00">shortestPath()</text>
<text text-anchor="start" x="4.5" y="-111.5" font-family="Helvetica,sans-Serif" font-size="10.00">+</text>
<text text-anchor="start" x="17.5" y="-111.5" font-family="Helvetica,sans-Serif" font-size="10.00">shortestPathToNearestExit()</text>
<text text-anchor="start" x="4.5" y="-96.5" font-family="Helvetica,sans-Serif" font-size="10.00">+</text>
<text text-anchor="start" x="17.5" y="-96.5" font-family="Helvetica,sans-Serif" font-size="10.00">~Graph()</text>
<text text-anchor="start" x="7" y="-81.5" font-family="Helvetica,sans-Serif" font-size="10.00">&#45;</text>
<text text-anchor="start" x="17.5" y="-81.5" font-family="Helvetica,sans-Serif" font-size="10.00">buildDistanceTable()</text>
<text text-anchor="start" x="7" y="-66.5" font-family="Helvetica,sans-Serif" font-size="10.00">&#45;</text>
<text text-anchor="start" x="17.5" y="-66.5" font-family="Helvetica,sans-Serif" font-size="10.00">clearEdges()</text>
<text text-anchor="start" x="7" y="-51.5" font-family="Helvetica,sans-Serif" font-size="10.00">&#45;</text>
<text text-anchor="start" x="17.5" y="-51.5" font-family="Helvetica,sans-Serif" font-size="10.00">findEdge()</text>
<text text-anchor="start" x="7" y="-36.5" font-family="Helvetica,sans-Serif" font-size="10.00">&#45;</text>
<text text-anchor="start" x="17.5" y="-36.5" font-family="Helvetica,sans-Serif" font-size="10.00">findVertex()</text>
<text text-anchor="start" x="7" y="-21.5" font-family="Helvetica,sans-Serif" font-size="10.00">&#45;</text>
<text text-anchor="start" x="17.5" y="-21.5" font-family="Helvetica,sans-Serif" font-size="10.00">freeDistanceTable()</text>
<text text-anchor="start" x="7" y="-6.5" font-family="Helvetica,sans-Serif" font-size="10.00">&#45;</text>
<text text-anchor="start" x="17.5" y="-6.5" font-family="Helvetica,sans-Serif" font-size="10.00">recordFor()</text>
<polygon fill="#666666" stroke="#666666" points="0.5,-331.5 0.5,-331.5 157.5,-331.5 157.5,-331.5 0.5,-331.5"/>
<polygon fill="#666666" stroke="#666666" points="0.5,-316.5 0.5,-316.5 15.5,-316.5 15.5,-316.5 0.5,-316.5"/>
<polygon fill="#666666" stroke="#666666" points="15.5,-316.5 15.5,-316.5 157.5,-316.5 157.5,-316.5 15.5,-316.5"/>
<polygon fill="none" stroke="#666666" points="0,0 0,-349 157,-349 157,0 0,0"/>
</a>
</g>
</g>
<!-- Node2 -->
<g id="Node000002" class="node">
<title>Node2</title>
<g id="a_Node000002"><a xlink:href="structGraph_1_1Vertex.html" target="_top" xlink:title="A vertex (node) in the graph.">
<polygon fill="white" stroke="transparent" points="220,-501 143,-501 143,-407 220,-407 220,-501"/>
<text text-anchor="start" x="148.5" y="-489" font-family="Helvetica,sans-Serif" font-size="10.00">Graph::Vertex</text>
<text text-anchor="start" x="149" y="-474" font-family="Helvetica,sans-Serif" font-size="10.00">+</text>
<text text-anchor="start" x="163.5" y="-474" font-family="Helvetica,sans-Serif" font-size="10.00">blocked</text>
<text text-anchor="start" x="149" y="-459" font-family="Helvetica,sans-Serif" font-size="10.00">+</text>
<text text-anchor="start" x="163.5" y="-459" font-family="Helvetica,sans-Serif" font-size="10.00">floor</text>
<text text-anchor="start" x="149" y="-444" font-family="Helvetica,sans-Serif" font-size="10.00">+</text>
<text text-anchor="start" x="163.5" y="-444" font-family="Helvetica,sans-Serif" font-size="10.00">occupants</text>
<text text-anchor="start" x="149" y="-429" font-family="Helvetica,sans-Serif" font-size="10.00">+</text>
<text text-anchor="start" x="163.5" y="-429" font-family="Helvetica,sans-Serif" font-size="10.00">type</text>
<text text-anchor="start" x="149" y="-414" font-family="Helvetica,sans-Serif" font-size="10.00">+</text>
<text text-anchor="start" x="163.5" y="-414" font-family="Helvetica,sans-Serif" font-size="10.00">Vertex()</text>
<polygon fill="#666666" stroke="#666666" points="143.5,-484 143.5,-484 220.5,-484 220.5,-484 143.5,-484"/>
<polygon fill="#666666" stroke="#666666" points="143.5,-424 143.5,-424 161.5,-424 161.5,-424 143.5,-424"/>
<polygon fill="#666666" stroke="#666666" points="161.5,-424 161.5,-424 220.5,-424 220.5,-424 161.5,-424"/>
<polygon fill="none" stroke="#666666" points="143,-407 143,-501 220,-501 220,-407 143,-407"/>
</a>
</g>
</g>
<!-- Node2&#45;&gt;Node1 -->
<g id="edge1_Node000001_Node000002" class="edge">
<title>Node2&#45;&gt;Node1</title>
<g id="a_edge1_Node000001_Node000002"><a xlink:title=" ">
<path fill="none" stroke="#63b8ff" d="M142.71,-434.4C124.87,-423.72 105.31,-408.52 94.5,-389 89.55,-380.06 85.48,-370.58 82.15,-360.77"/>
<polygon fill="none" stroke="#63b8ff" points="82.1,-360.6 76.52,-356.04 78.59,-349.13 84.17,-353.69 82.1,-360.6"/>
</a>
</g>
<text text-anchor="middle" x="134.5" y="-381" font-family="Helvetica,sans-Serif" font-size="10.00" fill="grey"> &#45;vertices_head_</text>
<text text-anchor="middle" x="134.5" y="-370" font-family="Helvetica,sans-Serif" font-size="10.00" fill="grey">&#45;vertices_tail_</text>
</g>
<!-- Node2&#45;&gt;Node2 -->
<g id="edge7_Node000002_Node000002" class="edge">
<title>Node2&#45;&gt;Node2</title>
<g id="a_edge7_Node000002_Node000002"><a xlink:title=" ">
<path fill="none" stroke="#63b8ff" d="M220.06,-467.01C230.27,-466.27 238,-461.93 238,-454 238,-449.66 235.69,-446.4 231.92,-444.21"/>
<polygon fill="none" stroke="#63b8ff" points="231.64,-444.14 224.8,-446.42 220.06,-440.99 226.89,-438.7 231.64,-444.14"/>
</a>
</g>
<text text-anchor="middle" x="255" y="-451.5" font-family="Helvetica,sans-Serif" font-size="10.00" fill="grey"> +next</text>
</g>
<!-- Node5 -->
<g id="Node000005" class="node">
<title>Node5</title>
<g id="a_Node000005"><a xlink:href="structGraph_1_1Edge.html" target="_top" xlink:title="A directed weighted edge between two vertices.">
<polygon fill="white" stroke="transparent" points="270,-214 177,-214 177,-135 270,-135 270,-214"/>
<text text-anchor="start" x="194" y="-201.5" font-family="Helvetica,sans-Serif" font-size="10.00">Graph::Edge</text>
<text text-anchor="start" x="181.5" y="-186.5" font-family="Helvetica,sans-Serif" font-size="10.00">+</text>
<text text-anchor="start" x="194.5" y="-186.5" font-family="Helvetica,sans-Serif" font-size="10.00">blocked</text>
<text text-anchor="start" x="181.5" y="-171.5" font-family="Helvetica,sans-Serif" font-size="10.00">+</text>
<text text-anchor="start" x="194.5" y="-171.5" font-family="Helvetica,sans-Serif" font-size="10.00">capacity</text>
<text text-anchor="start" x="181.5" y="-156.5" font-family="Helvetica,sans-Serif" font-size="10.00">+</text>
<text text-anchor="start" x="194.5" y="-156.5" font-family="Helvetica,sans-Serif" font-size="10.00">traversal_time</text>
<text text-anchor="start" x="181.5" y="-141.5" font-family="Helvetica,sans-Serif" font-size="10.00">+</text>
<text text-anchor="start" x="194.5" y="-141.5" font-family="Helvetica,sans-Serif" font-size="10.00">Edge()</text>
<polygon fill="#666666" stroke="#666666" points="177.5,-196.5 177.5,-196.5 270.5,-196.5 270.5,-196.5 177.5,-196.5"/>
<polygon fill="#666666" stroke="#666666" points="177.5,-151.5 177.5,-151.5 192.5,-151.5 192.5,-151.5 177.5,-151.5"/>
<polygon fill="#666666" stroke="#666666" points="192.5,-151.5 192.5,-151.5 270.5,-151.5 270.5,-151.5 192.5,-151.5"/>
<polygon fill="none" stroke="#666666" points="177,-135 177,-214 270,-214 270,-135 177,-135"/>
</a>
</g>
</g>
<!-- Node2&#45;&gt;Node5 -->
<g id="edge5_Node000005_Node000002" class="edge">
<title>Node2&#45;&gt;Node5</title>
<g id="a_edge5_Node000005_Node000002"><a xlink:title=" ">
<path fill="none" stroke="#63b8ff" d="M179.08,-406.87C178.84,-400.86 178.64,-394.78 178.5,-389 178.27,-379.22 177.37,-376.71 178.5,-367 184.12,-318.48 197.51,-264.4 208.23,-226.12"/>
<polygon fill="none" stroke="#63b8ff" points="208.32,-225.82 206.11,-218.95 211.6,-214.28 213.81,-221.14 208.32,-225.82"/>
</a>
</g>
<text text-anchor="middle" x="189.5" y="-375.5" font-family="Helvetica,sans-Serif" font-size="10.00" fill="grey"> +to</text>
</g>
<!-- Node3 -->
<g id="Node000003" class="node">
<title>Node3</title>
<g id="a_Node000003"><a xlink:title=" ">
<polygon fill="white" stroke="transparent" points="211,-597 152,-597 152,-548 211,-548 211,-597"/>
<text text-anchor="start" x="157.5" y="-584.5" font-family="Helvetica,sans-Serif" font-size="10.00">std::string</text>
<text text-anchor="start" x="180" y="-569.5" font-family="Helvetica,sans-Serif" font-size="10.00"> </text>
<text text-anchor="start" x="180" y="-554.5" font-family="Helvetica,sans-Serif" font-size="10.00"> </text>
<polygon fill="#666666" stroke="#666666" points="152.5,-579.5 152.5,-579.5 211.5,-579.5 211.5,-579.5 152.5,-579.5"/>
<polygon fill="#666666" stroke="#666666" points="152.5,-564.5 152.5,-564.5 211.5,-564.5 211.5,-564.5 152.5,-564.5"/>
<polygon fill="none" stroke="#666666" points="152,-548 152,-597 211,-597 211,-548 152,-548"/>
</a>
</g>
</g>
<!-- Node3&#45;&gt;Node2 -->
<g id="edge2_Node000002_Node000003" class="edge">
<title>Node3&#45;&gt;Node2</title>
<g id="a_edge2_Node000002_Node000003"><a xlink:title=" ">
<path fill="none" stroke="#63b8ff" d="M181.5,-547.92C181.5,-537.85 181.5,-525.6 181.5,-513.35"/>
<polygon fill="none" stroke="#63b8ff" points="181.5,-513.17 177.5,-507.17 181.5,-501.17 185.5,-507.17 181.5,-513.17"/>
</a>
</g>
<text text-anchor="middle" x="192" y="-522" font-family="Helvetica,sans-Serif" font-size="10.00" fill="grey"> +id</text>
</g>
<!-- Node4 -->
<g id="Node000004" class="node">
<title>Node4</title>
<g id="a_Node000004"><a xlink:title=" ">
<polygon fill="white" stroke="transparent" points="230.5,-694 132.5,-694 132.5,-634 230.5,-634 230.5,-694"/>
<text text-anchor="start" x="137.5" y="-682" font-family="Helvetica,sans-Serif" font-size="10.00">std::basic_string&lt;</text>
<text text-anchor="start" x="163" y="-671" font-family="Helvetica,sans-Serif" font-size="10.00"> Char &gt;</text>
<text text-anchor="start" x="179.5" y="-656" font-family="Helvetica,sans-Serif" font-size="10.00"> </text>
<text text-anchor="start" x="179.5" y="-641" font-family="Helvetica,sans-Serif" font-size="10.00"> </text>
<polygon fill="#666666" stroke="#666666" points="132.5,-666 132.5,-666 230.5,-666 230.5,-666 132.5,-666"/>
<polygon fill="#666666" stroke="#666666" points="132.5,-651 132.5,-651 230.5,-651 230.5,-651 132.5,-651"/>
<polygon fill="none" stroke="#666666" points="132.5,-634 132.5,-694 230.5,-694 230.5,-634 132.5,-634"/>
</a>
</g>
</g>
<!-- Node4&#45;&gt;Node3 -->
<g id="edge3_Node000003_Node000004" class="edge">
<title>Node4&#45;&gt;Node3</title>
<g id="a_edge3_Node000003_Node000004"><a xlink:title=" ">
<path fill="none" stroke="#63b8ff" d="M181.5,-623.41C181.5,-614.47 181.5,-605.25 181.5,-597.21"/>
<polygon fill="none" stroke="#63b8ff" points="178,-623.69 181.5,-633.69 185,-623.69 178,-623.69"/>
</a>
</g>
</g>
<!-- Node5&#45;&gt;Node2 -->
<g id="edge4_Node000002_Node000005" class="edge">
<title>Node5&#45;&gt;Node2</title>
<g id="a_edge4_Node000002_Node000005"><a xlink:title=" ">
<path fill="none" stroke="#63b8ff" d="M223.02,-214.13C221.81,-257.25 217.75,-328.86 204.5,-389 204.05,-391.02 203.56,-393.07 203.03,-395.12"/>
<polygon fill="none" stroke="#63b8ff" points="202.95,-395.39 205.14,-402.26 199.63,-406.92 197.45,-400.05 202.95,-395.39"/>
</a>
</g>
<text text-anchor="middle" x="238" y="-375.5" font-family="Helvetica,sans-Serif" font-size="10.00" fill="grey"> +adjacency</text>
</g>
<!-- Node5&#45;&gt;Node5 -->
<g id="edge6_Node000005_Node000005" class="edge">
<title>Node5&#45;&gt;Node5</title>
<g id="a_edge6_Node000005_Node000005"><a xlink:title=" ">
<path fill="none" stroke="#63b8ff" d="M270.17,-211.36C280.49,-207.89 288,-195.61 288,-174.5 288,-160.98 284.92,-151.08 279.99,-144.8"/>
<polygon fill="none" stroke="#63b8ff" points="279.87,-144.71 272.67,-144.41 270.17,-137.64 277.38,-137.94 279.87,-144.71"/>
</a>
</g>
<text text-anchor="middle" x="305" y="-172" font-family="Helvetica,sans-Serif" font-size="10.00" fill="grey"> +next</text>
</g>
</g>
</svg>

<g id="navigator" transform="translate(0 0)" fill="#404254">
  <rect fill="#f2f5e9" fill-opacity="0.5" stroke="#606060" stroke-width=".5" x="0" y="0" width="60" height="60"/>
  <use id="zoomplus" xlink:href="#zoomPlus" x="17" y="9" onmousedown="handleZoom(evt,'in')"/>
  <use id="zoomminus" xlink:href="#zoomMin" x="42" y="9" onmousedown="handleZoom(evt,'out')"/>
  <use id="reset" xlink:href="#resetDef" x="30" y="36" onmousedown="handleReset()"/>
   <use id="arrowup" xlink:href="#arrowUp" x="0" y="0" onmousedown="handlePan(0,-1)"/>
  <use id="arrowright" xlink:href="#arrowRight" x="0" y="0" onmousedown="handlePan(1,0)"/>
  <use id="arrowdown" xlink:href="#arrowDown" x="0" y="0" onmousedown="handlePan(0,1)"/>
  <use id="arrowleft" xlink:href="#arrowLeft" x="0" y="0" onmousedown="handlePan(-1,0)"/>
</g>
<svg viewBox="0 0 15 15" width="100%" height="30px" preserveAspectRatio="xMaxYMin meet">
 <g id="arrow_out" transform="scale(0.3 0.3)">
  <a xlink:href="classGraph__coll__graph_org.svg" target="_base">
   <rect id="button" ry="5" rx="5" y="6" x="6" height="38" width="38"
        fill="#f2f5e9" fill-opacity="0.5" stroke="#606060" stroke-width="1.0"/>
   <path id="arrow"
     d="M 11.500037,31.436501 C 11.940474,20.09759 22.043105,11.32322 32.158766,21.979434 L 37.068811,17.246167 C 37.068811,17.246167 37.088388,32 37.088388,32 L 22.160133,31.978069 C 22.160133,31.978069 26.997745,27.140456 26.997745,27.140456 C 18.528582,18.264221 13.291696,25.230495 11.500037,31.436501 z"
     style="fill:#404040;"/>
  </a>
 </g>
</svg>

<style type='text/css'>
<![CDATA[
[data-mouse-over-selected='false'] { opacity: 0.7; }
[data-mouse-over-selected='true']  { opacity: 1.0; }
]]>
</style>
<script type="application/ecmascript"><![CDATA[
document.addEventListener('DOMContentLoaded', (event) => {
  highlightEdges();
  highlightAdjacentNodes();
});
]]></script>
</svg>
