<?xml version="1.0" encoding="UTF-8" standalone="no"?>
<!DOCTYPE svg PUBLIC "-//W3C//DTD SVG 1.1//EN"
 "http://www.w3.org/Graphics/SVG/1.1/DTD/svg11.dtd">
<!-- Generated by graphviz version 2.43.0 (0)
 -->
<!-- Title: Layout Pages: 1 -->
<svg width="143pt" height="481pt"
 viewBox="0.00 0.00 142.50 481.00" xmlns="http://www.w3.org/2000/svg" xmlns:xlink="http://www.w3.org/1999/xlink">
<g id="graph0" class="graph" transform="scale(1 1) rotate(0) translate(4 477)">
<title>Layout</title>
<!-- Node1 -->
<g id="Node000001" class="node">
<title>Node1</title>
<g id="a_Node000001"><a xlink:title=" ">
<polygon fill="#999999" stroke="transparent" points="88.5,-169 9.5,-169 9.5,0 88.5,0 88.5,-169"/>
<text text-anchor="start" x="32.5" y="-156.5" font-family="Helvetica,sans-Serif" font-size="10.00">Layout</text>
<text text-anchor="start" x="47.5" y="-141.5" font-family="Helvetica,sans-Serif" font-size="10.00"> </text>
<text text-anchor="start" x="14" y="-126.5" font-family="Helvetica,sans-Serif" font-size="10.00">+</text>
<text text-anchor="start" x="27" y="-126.5" font-family="Helvetica,sans-Serif" font-size="10.00">get()</text>
<text text-anchor="start" x="14" y="-111.5" font-family="Helvetica,sans-Serif" font-size="10.00">+</text>
<text text-anchor="start" x="27" y="-111.5" font-family="Helvetica,sans-Serif" font-size="10.00">head()</text>
<text text-anchor="start" x="14" y="-96.5" font-family="Helvetica,sans-Serif" font-size="10.00">+</text>
<text text-anchor="start" x="27" y="-96.5" font-family="Helvetica,sans-Serif" font-size="10.00">Layout()</text>
<text text-anchor="start" x="14" y="-81.5" font-family="Helvetica,sans-Serif" font-size="10.00">+</text>
<text text-anchor="start" x="27" y="-81.5" font-family="Helvetica,sans-Serif" font-size="10.00">Layout()</text>
<text text-anchor="start" x="14" y="-66.5" font-family="Helvetica,sans-Serif" font-size="10.00">+</text>
<text text-anchor="start" x="27" y="-66.5" font-family="Helvetica,sans-Serif" font-size="10.00">operator=()</text>
<text text-anchor="start" x="14" y="-51.5" font-family="Helvetica,sans-Serif" font-size="10.00">+</text>
<text text-anchor="start" x="27" y="-51.5" font-family="Helvetica,sans-Serif" font-size="10.00">set()</text>
<text text-anchor="start" x="14" y="-36.5" font-family="Helvetica,sans-Serif" font-size="10.00">+</text>
<text text-anchor="start" x="27" y="-36.5" font-family="Helvetica,sans-Serif" font-size="10.00">~Layout()</text>
<text text-anchor="start" x="16.5" y="-21.5" font-family="Helvetica,sans-Serif" font-size="10.00">&#45;</text>
<text text-anchor="start" x="27" y="-21.5" font-family="Helvetica,sans-Serif" font-size="10.00">clear()</text>
<text text-anchor="start" x="16.5" y="-6.5" font-family="Helvetica,sans-Serif" font-size="10.00">&#45;</text>
<text text-anchor="start" x="27" y="-6.5" font-family="Helvetica,sans-Serif" font-size="10.00">find()</text>
<polygon fill="#666666" stroke="#666666" points="10,-151.5 10,-151.5 89,-151.5 89,-151.5 10,-151.5"/>
<polygon fill="#666666" stroke="#666666" points="10,-136.5 10,-136.5 89,-136.5 89,-136.5 10,-136.5"/>
<polygon fill="none" stroke="#666666" points="9.5,0 9.5,-169 88.5,-169 88.5,0 9.5,0"/>
</a>
</g>
</g>
<!-- Node2 -->
<g id="Node000002" class="node">
<title>Node2</title>
<g id="a_Node000002"><a xlink:href="structLayout_1_1Pos.html" target="_top" xlink:title=" ">
<polygon fill="white" stroke="transparent" points="82.5,-280 15.5,-280 15.5,-216 82.5,-216 82.5,-280"/>
<text text-anchor="start" x="21" y="-268" font-family="Helvetica,sans-Serif" font-size="10.00">Layout::Pos</text>
<text text-anchor="start" x="25" y="-253" font-family="Helvetica,sans-Serif" font-size="10.00">+</text>
<text text-anchor="start" x="43" y="-253" font-family="Helvetica,sans-Serif" font-size="10.00">x</text>
<text text-anchor="start" x="25" y="-238" font-family="Helvetica,sans-Serif" font-size="10.00">+</text>
<text text-anchor="start" x="43" y="-238" font-family="Helvetica,sans-Serif" font-size="10.00">y</text>
<text text-anchor="start" x="25" y="-223" font-family="Helvetica,sans-Serif" font-size="10.00">+</text>
<text text-anchor="start" x="43" y="-223" font-family="Helvetica,sans-Serif" font-size="10.00">Pos()</text>
<polygon fill="#666666" stroke="#666666" points="16,-263 16,-263 83,-263 83,-263 16,-263"/>
<polygon fill="#666666" stroke="#666666" points="16,-233 16,-233 41,-233 41,-233 16,-233"/>
<polygon fill="#666666" stroke="#666666" points="41,-233 41,-233 83,-233 83,-233 41,-233"/>
<polygon fill="none" stroke="#666666" points="15.5,-216 15.5,-280 82.5,-280 82.5,-216 15.5,-216"/>
</a>
</g>
</g>
<!-- Node2&#45;&gt;Node1 -->
<g id="edge1_Node000001_Node000002" class="edge">
<title>Node2&#45;&gt;Node1</title>
<g id="a_edge1_Node000001_Node000002"><a xlink:title=" ">
<path fill="none" stroke="#63b8ff" d="M49,-215.86C49,-205.65 49,-193.71 49,-181.28"/>
<polygon fill="none" stroke="#63b8ff" points="49,-181.25 45,-175.25 49,-169.25 53,-175.25 49,-181.25"/>
</a>
</g>
<text text-anchor="middle" x="67.5" y="-190" font-family="Helvetica,sans-Serif" font-size="10.00" fill="grey"> &#45;head_</text>
</g>
<!-- Node2&#45;&gt;Node2 -->
<g id="edge4_Node000002_Node000002" class="edge">
<title>Node2&#45;&gt;Node2</title>
<g id="a_edge4_Node000002_Node000002"><a xlink:title=" ">
<path fill="none" stroke="#63b8ff" d="M82.68,-258.1C92.7,-257.8 100.5,-254.43 100.5,-248 100.5,-244.58 98.3,-242.03 94.73,-240.34"/>
<polygon fill="none" stroke="#63b8ff" points="94.44,-240.28 87.77,-243.01 82.68,-237.9 89.36,-235.17 94.44,-240.28"/>
</a>
</g>
<text text-anchor="middle" x="117.5" y="-245.5" font-family="Helvetica,sans-Serif" font-size="10.00" fill="grey"> +next</text>
</g>
<!-- Node3 -->
<g id="Node000003" class="node">
<title>Node3</title>
<g id="a_Node000003"><a xlink:title=" ">
<polygon fill="white" stroke="transparent" points="78.5,-376 19.5,-376 19.5,-327 78.5,-327 78.5,-376"/>
<text text-anchor="start" x="25" y="-363.5" font-family="Helvetica,sans-Serif" font-size="10.00">std::string</text>
<text text-anchor="start" x="47.5" y="-348.5" font-family="Helvetica,sans-Serif" font-size="10.00"> </text>
<text text-anchor="start" x="47.5" y="-333.5" font-family="Helvetica,sans-Serif" font-size="10.00"> </text>
<polygon fill="#666666" stroke="#666666" points="20,-358.5 20,-358.5 79,-358.5 79,-358.5 20,-358.5"/>
<polygon fill="#666666" stroke="#666666" points="20,-343.5 20,-343.5 79,-343.5 79,-343.5 20,-343.5"/>
<polygon fill="none" stroke="#666666" points="19.5,-327 19.5,-376 78.5,-376 78.5,-327 19.5,-327"/>
</a>
</g>
</g>
<!-- Node3&#45;&gt;Node2 -->
<g id="edge2_Node000002_Node000003" class="edge">
<title>Node3&#45;&gt;Node2</title>
<g id="a_edge2_Node000002_Node000003"><a xlink:title=" ">
<path fill="none" stroke="#63b8ff" d="M49,-326.96C49,-316.61 49,-304.13 49,-292.21"/>
<polygon fill="none" stroke="#63b8ff" points="49,-292.11 45,-286.11 49,-280.11 53,-286.11 49,-292.11"/>
</a>
</g>
<text text-anchor="middle" x="59.5" y="-301" font-family="Helvetica,sans-Serif" font-size="10.00" fill="grey"> +id</text>
</g>
<!-- Node4 -->
<g id="Node000004" class="node">
<title>Node4</title>
<g id="a_Node000004"><a xlink:title=" ">
<polygon fill="white" stroke="transparent" points="98,-473 0,-473 0,-413 98,-413 98,-473"/>
<text text-anchor="start" x="5" y="-461" font-family="Helvetica,sans-Serif" font-size="10.00">std::basic_string&lt;</text>
<text text-anchor="start" x="30.5" y="-450" font-family="Helvetica,sans-Serif" font-size="10.00"> Char &gt;</text>
<text text-anchor="start" x="47" y="-435" font-family="Helvetica,sans-Serif" font-size="10.00"> </text>
<text text-anchor="start" x="47" y="-420" font-family="Helvetica,sans-Serif" font-size="10.00"> </text>
<polygon fill="#666666" stroke="#666666" points="0,-445 0,-445 98,-445 98,-445 0,-445"/>
<polygon fill="#666666" stroke="#666666" points="0,-430 0,-430 98,-430 98,-430 0,-430"/>
<polygon fill="none" stroke="#666666" points="0,-413 0,-473 98,-473 98,-413 0,-413"/>
</a>
</g>
</g>
<!-- Node4&#45;&gt;Node3 -->
<g id="edge3_Node000003_Node000004" class="edge">
<title>Node4&#45;&gt;Node3</title>
<g id="a_edge3_Node000003_Node000004"><a xlink:title=" ">
<path fill="none" stroke="#63b8ff" d="M49,-402.41C49,-393.47 49,-384.25 49,-376.21"/>
<polygon fill="none" stroke="#63b8ff" points="45.5,-402.69 49,-412.69 52.5,-402.69 45.5,-402.69"/>
</a>
</g>
</g>
</g>
</svg>
