<?xml version="1.0" encoding="UTF-8" standalone="no"?>
<!DOCTYPE svg PUBLIC "-//W3C//DTD SVG 1.1//EN"
 "http://www.w3.org/Graphics/SVG/1.1/DTD/svg11.dtd">
<!-- Generated by graphviz version 2.43.0 (0)
 -->
<!-- Title: include/simulation/FireSimulator.h Pages: 1 -->
<svg width="490pt" height="280pt"
 viewBox="0.00 0.00 489.50 280.00" xmlns="http://www.w3.org/2000/svg" xmlns:xlink="http://www.w3.org/1999/xlink">

<svg id="main" version="1.1" xmlns="http://www.w3.org/2000/svg" xmlns:xlink="http://www.w3.org/1999/xlink" xml:space="preserve" onload="init(evt)">
<style type="text/css"><![CDATA[
.node, .edge {opacity: 0.7;}
.node.selected, .edge.selected {opacity: 1;}
.edge:hover path { stroke: red; }
.edge:hover polygon { stroke: red; fill: red; }
]]></style>
<script type="application/ecmascript" xlink:href="svg.min.js"/>
<svg id="graph" class="graph">
<g id="graph0" class="graph" transform="scale(1 1) rotate(0) translate(4 276)">
<title>include/simulation/FireSimulator.h</title>
<!-- Node1 -->
<g id="Node000001" class="node">
<title>Node1</title>
<g id="a_Node000001"><a xlink:title="Core fire&#45;evacuation simulation engine.">
<polygon fill="#999999" stroke="#666666" points="316.5,-272 209.5,-272 209.5,-242 316.5,-242 316.5,-272"/>
<text text-anchor="start" x="217.5" y="-260" font-family="Helvetica,sans-Serif" font-size="10.00">include/simulation</text>
<text text-anchor="middle" x="263" y="-249" font-family="Helvetica,sans-Serif" font-size="10.00">/FireSimulator.h</text>
</a>
</g>
</g>
<!-- Node2 -->
<g id="Node000002" class="node">
<title>Node2</title>
<g id="a_Node000002"><a xlink:title=" ">
<polygon fill="#e0e0e0" stroke="#999999" points="113,-79.5 69,-79.5 69,-60.5 113,-60.5 113,-79.5"/>
<text text-anchor="middle" x="91" y="-67.5" font-family="Helvetica,sans-Serif" font-size="10.00">string</text>
</a>
</g>
</g>
<!-- Node1&#45;&gt;Node2 -->
<g id="edge1_Node000001_Node000002" class="edge">
<title>Node1&#45;&gt;Node2</title>
<g id="a_edge1_Node000001_Node000002"><a xlink:title=" ">
<path fill="none" stroke="#63b8ff" d="M214.88,-242C173.44,-227.01 116.55,-198.7 92,-151 82.19,-131.93 83.85,-106.77 86.71,-89.8"/>
<polygon fill="#63b8ff" stroke="#63b8ff" points="90.23,-90.02 88.76,-79.53 83.37,-88.65 90.23,-90.02"/>
</a>
</g>
</g>
<!-- Node3 -->
<g id="Node000003" class="node">
<title>Node3</title>
<g id="a_Node000003"><a xlink:title=" ">
<polygon fill="#e0e0e0" stroke="#999999" points="44,-79.5 0,-79.5 0,-60.5 44,-60.5 44,-79.5"/>
<text text-anchor="middle" x="22" y="-67.5" font-family="Helvetica,sans-Serif" font-size="10.00">limits</text>
</a>
</g>
</g>
<!-- Node1&#45;&gt;Node3 -->
<g id="edge2_Node000001_Node000003" class="edge">
<title>Node1&#45;&gt;Node3</title>
<g id="a_edge2_Node000001_Node000003"><a xlink:title=" ">
<path fill="none" stroke="#63b8ff" d="M209.48,-246.39C179.74,-239.05 143.35,-226.59 116,-206 73.73,-174.18 43.41,-117.72 29.88,-88.94"/>
<polygon fill="#63b8ff" stroke="#63b8ff" points="33,-87.34 25.67,-79.69 26.63,-90.24 33,-87.34"/>
</a>
</g>
</g>
<!-- Node4 -->
<g id="Node000004" class="node">
<title>Node4</title>
<g id="a_Node000004"><a xlink:title=" ">
<polygon fill="#e0e0e0" stroke="#999999" points="481.5,-206 434.5,-206 434.5,-187 481.5,-187 481.5,-206"/>
<text text-anchor="middle" x="458" y="-194" font-family="Helvetica,sans-Serif" font-size="10.00">cmath</text>
</a>
</g>
</g>
<!-- Node1&#45;&gt;Node4 -->
<g id="edge3_Node000001_Node000004" class="edge">
<title>Node1&#45;&gt;Node4</title>
<g id="a_edge3_Node000001_Node000004"><a xlink:title=" ">
<path fill="none" stroke="#63b8ff" d="M309.71,-241.99C345.19,-231.34 393.13,-216.96 424.77,-207.47"/>
<polygon fill="#63b8ff" stroke="#63b8ff" points="425.86,-210.79 434.44,-204.57 423.85,-204.09 425.86,-210.79"/>
</a>
</g>
</g>
<!-- Node5 -->
<g id="Node000005" class="node">
<title>Node5</title>
<g id="a_Node000005"><a xlink:href="LinkedList_8h.html" target="_top" xlink:title="Generic singly&#45;linked list with pointer&#45;based node storage.">
<polygon fill="white" stroke="#666666" points="327.5,-85 226.5,-85 226.5,-55 327.5,-55 327.5,-85"/>
<text text-anchor="start" x="234.5" y="-73" font-family="Helvetica,sans-Serif" font-size="10.00">../data_structures</text>
<text text-anchor="middle" x="277" y="-62" font-family="Helvetica,sans-Serif" font-size="10.00">/LinkedList.h</text>
</a>
</g>
</g>
<!-- Node1&#45;&gt;Node5 -->
<g id="edge4_Node000001_Node000005" class="edge">
<title>Node1&#45;&gt;Node5</title>
<g id="a_edge4_Node000001_Node000005"><a xlink:title=" ">
<path fill="none" stroke="#63b8ff" d="M280.3,-241.83C301.23,-223.45 335.36,-189.17 349,-151 353.49,-138.44 355.18,-132.81 349,-121 342.3,-108.2 330.67,-98.01 318.68,-90.26"/>
<polygon fill="#63b8ff" stroke="#63b8ff" points="320.33,-87.18 309.95,-85.05 316.74,-93.18 320.33,-87.18"/>
</a>
</g>
</g>
<!-- Node8 -->
<g id="Node000008" class="node">
<title>Node8</title>
<g id="a_Node000008"><a xlink:href="Queue_8h.html" target="_top" xlink:title="Generic FIFO queue built on LinkedList.">
<polygon fill="white" stroke="#666666" points="339.5,-151 238.5,-151 238.5,-121 339.5,-121 339.5,-151"/>
<text text-anchor="start" x="246.5" y="-139" font-family="Helvetica,sans-Serif" font-size="10.00">../data_structures</text>
<text text-anchor="middle" x="289" y="-128" font-family="Helvetica,sans-Serif" font-size="10.00">/Queue.h</text>
</a>
</g>
</g>
<!-- Node1&#45;&gt;Node8 -->
<g id="edge7_Node000001_Node000008" class="edge">
<title>Node1&#45;&gt;Node8</title>
<g id="a_edge7_Node000001_Node000008"><a xlink:title=" ">
<path fill="none" stroke="#63b8ff" d="M268.26,-241.74C271.74,-231.83 276.17,-218.26 279,-206 282.38,-191.35 284.84,-174.67 286.47,-161.38"/>
<polygon fill="#63b8ff" stroke="#63b8ff" points="289.98,-161.47 287.64,-151.13 283.03,-160.67 289.98,-161.47"/>
</a>
</g>
</g>
<!-- Node9 -->
<g id="Node000009" class="node">
<title>Node9</title>
<g id="a_Node000009"><a xlink:href="priority__queue_8h.html" target="_top" xlink:title="Pointer&#45;based binary min&#45;heap priority queue.">
<polygon fill="white" stroke="#666666" points="446.5,-85 345.5,-85 345.5,-55 446.5,-55 446.5,-85"/>
<text text-anchor="start" x="353.5" y="-73" font-family="Helvetica,sans-Serif" font-size="10.00">../data_structures</text>
<text text-anchor="middle" x="396" y="-62" font-family="Helvetica,sans-Serif" font-size="10.00">/priority_queue.h</text>
</a>
</g>
</g>
<!-- Node1&#45;&gt;Node9 -->
<g id="edge9_Node000001_Node000009" class="edge">
<title>Node1&#45;&gt;Node9</title>
<g id="a_edge9_Node000001_Node000009"><a xlink:title=" ">
<path fill="none" stroke="#63b8ff" d="M290.04,-241.8C304.96,-232.99 323.02,-220.57 336,-206 365.17,-173.25 382.14,-124.02 390.2,-94.93"/>
<polygon fill="#63b8ff" stroke="#63b8ff" points="393.6,-95.76 392.77,-85.2 386.83,-93.98 393.6,-95.76"/>
</a>
</g>
</g>
<!-- Node11 -->
<g id="Node000011" class="node">
<title>Node11</title>
<g id="a_Node000011"><a xlink:href="Graph_8h.html" target="_top" xlink:title="Adjacency&#45;list directed/undirected graph with Dijkstra shortest&#45;path.">
<polygon fill="white" stroke="#666666" points="220.5,-151 119.5,-151 119.5,-121 220.5,-121 220.5,-151"/>
<text text-anchor="start" x="127.5" y="-139" font-family="Helvetica,sans-Serif" font-size="10.00">../data_structures</text>
<text text-anchor="middle" x="170" y="-128" font-family="Helvetica,sans-Serif" font-size="10.00">/Graph.h</text>
</a>
</g>
</g>
<!-- Node1&#45;&gt;Node11 -->
<g id="edge12_Node000001_Node000011" class="edge">
<title>Node1&#45;&gt;Node11</title>
<g id="a_edge12_Node000001_Node000011"><a xlink:title=" ">
<path fill="none" stroke="#63b8ff" d="M224.94,-241.87C208.54,-233.84 190.7,-222.12 180,-206 171.3,-192.9 168.86,-175.33 168.56,-161.2"/>
<polygon fill="#63b8ff" stroke="#63b8ff" points="172.06,-161.24 168.68,-151.2 165.06,-161.15 172.06,-161.24"/>
</a>
</g>
</g>
<!-- Node12 -->
<g id="Node000012" class="node">
<title>Node12</title>
<g id="a_Node000012"><a xlink:href="SimEntities_8h.html" target="_top" xlink:title="Per&#45;tick simulation entities: CellNode, Corridor, Person, WaitingQueue.">
<polygon fill="white" stroke="#666666" points="269.5,-206 188.5,-206 188.5,-187 269.5,-187 269.5,-206"/>
<text text-anchor="middle" x="229" y="-194" font-family="Helvetica,sans-Serif" font-size="10.00">SimEntities.h</text>
</a>
</g>
</g>
<!-- Node1&#45;&gt;Node12 -->
<g id="edge18_Node000001_Node000012" class="edge">
<title>Node1&#45;&gt;Node12</title>
<g id="a_edge18_Node000001_Node000012"><a xlink:title=" ">
<path fill="none" stroke="#63b8ff" d="M254.77,-241.84C250.09,-233.78 244.18,-223.62 239.2,-215.06"/>
<polygon fill="#63b8ff" stroke="#63b8ff" points="242.15,-213.15 234.09,-206.27 236.09,-216.67 242.15,-213.15"/>
</a>
</g>
</g>
<!-- Node6 -->
<g id="Node000006" class="node">
<title>Node6</title>
<g id="a_Node000006"><a xlink:title=" ">
<polygon fill="#e0e0e0" stroke="#999999" points="330.5,-19 265.5,-19 265.5,0 330.5,0 330.5,-19"/>
<text text-anchor="middle" x="298" y="-7" font-family="Helvetica,sans-Serif" font-size="10.00">stdexcept</text>
</a>
</g>
</g>
<!-- Node5&#45;&gt;Node6 -->
<g id="edge5_Node000005_Node000006" class="edge">
<title>Node5&#45;&gt;Node6</title>
<g id="a_edge5_Node000005_Node000006"><a xlink:title=" ">
<path fill="none" stroke="#63b8ff" d="M282.08,-54.84C284.88,-47.04 288.39,-37.27 291.4,-28.89"/>
<polygon fill="#63b8ff" stroke="#63b8ff" points="294.77,-29.86 294.85,-19.27 288.18,-27.5 294.77,-29.86"/>
</a>
</g>
</g>
<!-- Node7 -->
<g id="Node000007" class="node">
<title>Node7</title>
<g id="a_Node000007"><a xlink:href="Node_8h.html" target="_top" xlink:title="Generic singly&#45;linked node used by LinkedList and Queue.">
<polygon fill="white" stroke="#666666" points="247.5,-19 196.5,-19 196.5,0 247.5,0 247.5,-19"/>
<text text-anchor="middle" x="222" y="-7" font-family="Helvetica,sans-Serif" font-size="10.00">Node.h</text>
</a>
</g>
</g>
<!-- Node5&#45;&gt;Node7 -->
<g id="edge6_Node000005_Node000007" class="edge">
<title>Node5&#45;&gt;Node7</title>
<g id="a_edge6_Node000005_Node000007"><a xlink:title=" ">
<path fill="none" stroke="#63b8ff" d="M263.69,-54.84C255.7,-46.35 245.52,-35.52 237.22,-26.69"/>
<polygon fill="#63b8ff" stroke="#63b8ff" points="239.64,-24.15 230.24,-19.27 234.54,-28.95 239.64,-24.15"/>
</a>
</g>
</g>
<!-- Node8&#45;&gt;Node5 -->
<g id="edge8_Node000008_Node000005" class="edge">
<title>Node8&#45;&gt;Node5</title>
<g id="a_edge8_Node000008_Node000005"><a xlink:title=" ">
<path fill="none" stroke="#63b8ff" d="M286.34,-120.8C284.92,-113.26 283.15,-103.78 281.52,-95.13"/>
<polygon fill="#63b8ff" stroke="#63b8ff" points="284.94,-94.35 279.66,-85.16 278.06,-95.64 284.94,-94.35"/>
</a>
</g>
</g>
<!-- Node9&#45;&gt;Node6 -->
<g id="edge11_Node000009_Node000006" class="edge">
<title>Node9&#45;&gt;Node6</title>
<g id="a_edge11_Node000009_Node000006"><a xlink:title=" ">
<path fill="none" stroke="#63b8ff" d="M372.28,-54.84C356.8,-45.6 336.68,-33.59 321.29,-24.4"/>
<polygon fill="#63b8ff" stroke="#63b8ff" points="322.78,-21.21 312.4,-19.09 319.19,-27.23 322.78,-21.21"/>
</a>
</g>
</g>
<!-- Node10 -->
<g id="Node000010" class="node">
<title>Node10</title>
<g id="a_Node000010"><a xlink:title=" ">
<polygon fill="#e0e0e0" stroke="#999999" points="422.5,-19 369.5,-19 369.5,0 422.5,0 422.5,-19"/>
<text text-anchor="middle" x="396" y="-7" font-family="Helvetica,sans-Serif" font-size="10.00">cstddef</text>
</a>
</g>
</g>
<!-- Node9&#45;&gt;Node10 -->
<g id="edge10_Node000009_Node000010" class="edge">
<title>Node9&#45;&gt;Node10</title>
<g id="a_edge10_Node000009_Node000010"><a xlink:title=" ">
<path fill="none" stroke="#63b8ff" d="M396,-54.84C396,-47.21 396,-37.7 396,-29.45"/>
<polygon fill="#63b8ff" stroke="#63b8ff" points="399.5,-29.27 396,-19.27 392.5,-29.27 399.5,-29.27"/>
</a>
</g>
</g>
<!-- Node11&#45;&gt;Node2 -->
<g id="edge15_Node000011_Node000002" class="edge">
<title>Node11&#45;&gt;Node2</title>
<g id="a_edge15_Node000011_Node000002"><a xlink:title=" ">
<path fill="none" stroke="#63b8ff" d="M152.47,-120.8C139.79,-110.53 122.68,-96.67 109.74,-86.18"/>
<polygon fill="#63b8ff" stroke="#63b8ff" points="111.89,-83.42 101.92,-79.84 107.48,-88.86 111.89,-83.42"/>
</a>
</g>
</g>
<!-- Node11&#45;&gt;Node3 -->
<g id="edge13_Node000011_Node000003" class="edge">
<title>Node11&#45;&gt;Node3</title>
<g id="a_edge13_Node000011_Node000003"><a xlink:title=" ">
<path fill="none" stroke="#63b8ff" d="M137.52,-120.95C111.68,-109.78 75.85,-94.29 50.97,-83.53"/>
<polygon fill="#63b8ff" stroke="#63b8ff" points="52.26,-80.27 41.7,-79.52 49.49,-86.7 52.26,-80.27"/>
</a>
</g>
</g>
<!-- Node11&#45;&gt;Node5 -->
<g id="edge16_Node000011_Node000005" class="edge">
<title>Node11&#45;&gt;Node5</title>
<g id="a_edge16_Node000011_Node000005"><a xlink:title=" ">
<path fill="none" stroke="#63b8ff" d="M193.48,-120.95C208.53,-111.95 228.27,-100.14 244.78,-90.27"/>
<polygon fill="#63b8ff" stroke="#63b8ff" points="246.79,-93.15 253.57,-85.01 243.19,-87.14 246.79,-93.15"/>
</a>
</g>
</g>
<!-- Node11&#45;&gt;Node6 -->
<g id="edge14_Node000011_Node000006" class="edge">
<title>Node11&#45;&gt;Node6</title>
<g id="a_edge14_Node000011_Node000006"><a xlink:title=" ">
<path fill="none" stroke="#63b8ff" d="M175.78,-120.77C183.37,-103.49 198.1,-74.26 218,-55 231.81,-41.64 250.42,-30.97 266.21,-23.43"/>
<polygon fill="#63b8ff" stroke="#63b8ff" points="267.97,-26.48 275.62,-19.15 265.07,-20.11 267.97,-26.48"/>
</a>
</g>
</g>
<!-- Node11&#45;&gt;Node9 -->
<g id="edge17_Node000011_Node000009" class="edge">
<title>Node11&#45;&gt;Node9</title>
<g id="a_edge17_Node000011_Node000009"><a xlink:title=" ">
<path fill="none" stroke="#63b8ff" d="M219.6,-120.95C254.04,-111.2 300.1,-98.16 336.52,-87.84"/>
<polygon fill="#63b8ff" stroke="#63b8ff" points="337.85,-91.1 346.52,-85.01 335.94,-84.37 337.85,-91.1"/>
</a>
</g>
</g>
<!-- Node12&#45;&gt;Node2 -->
<g id="edge19_Node000012_Node000002" class="edge">
<title>Node12&#45;&gt;Node2</title>
<g id="a_edge19_Node000012_Node000002"><a xlink:title=" ">
<path fill="none" stroke="#63b8ff" d="M188.44,-190.22C162.43,-184.73 129.92,-173.57 110,-151 95.05,-134.06 91.32,-107.49 90.66,-89.68"/>
<polygon fill="#63b8ff" stroke="#63b8ff" points="94.16,-89.62 90.57,-79.65 87.16,-89.68 94.16,-89.62"/>
</a>
</g>
</g>
<!-- Node12&#45;&gt;Node8 -->
<g id="edge20_Node000012_Node000008" class="edge">
<title>Node12&#45;&gt;Node8</title>
<g id="a_edge20_Node000012_Node000008"><a xlink:title=" ">
<path fill="none" stroke="#63b8ff" d="M237.85,-186.87C245.54,-179.37 257,-168.2 267.13,-158.33"/>
<polygon fill="#63b8ff" stroke="#63b8ff" points="269.81,-160.6 274.52,-151.11 264.92,-155.59 269.81,-160.6"/>
</a>
</g>
</g>
<!-- Node12&#45;&gt;Node11 -->
<g id="edge21_Node000012_Node000011" class="edge">
<title>Node12&#45;&gt;Node11</title>
<g id="a_edge21_Node000012_Node000011"><a xlink:title=" ">
<path fill="none" stroke="#63b8ff" d="M220.29,-186.87C212.73,-179.37 201.46,-168.2 191.51,-158.33"/>
<polygon fill="#63b8ff" stroke="#63b8ff" points="193.8,-155.67 184.24,-151.11 188.87,-160.64 193.8,-155.67"/>
</a>
</g>
</g>
</g>
</svg>
</svg>

<style type='text/css'>
<![CDATA[
[data-mouse-over-selected='false'] { opacity: 0.7; }
[data-mouse-over-selected='true']  { opacity: 1.0; }
]]>
</style>
<script type="application/ecmascript"><![CDATA[
document.addEventListener('DOMContentLoaded', (event) => {
  highlightEdges();
  highlightAdjacentNodes();
});
]]></script>
</svg>
