<?xml version="1.0" encoding="UTF-8" standalone="no"?>
<!DOCTYPE svg PUBLIC "-//W3C//DTD SVG 1.1//EN"
 "http://www.w3.org/Graphics/SVG/1.1/DTD/svg11.dtd">
<!-- Generated by graphviz version 2.43.0 (0)
 -->
<!-- Title: include/simulation/FireSimulator.h Pages: 1 -->
<svg width="994pt" height="170pt"
 viewBox="0.00 0.00 994.08 170.00" xmlns="http://www.w3.org/2000/svg" xmlns:xlink="http://www.w3.org/1999/xlink">
<g id="graph0" class="graph" transform="scale(1 1) rotate(0) translate(4 166)">
<title>include/simulation/FireSimulator.h</title>
<!-- Node1 -->
<g id="Node000001" class="node">
<title>Node1</title>
<g id="a_Node000001"><a xlink:title="Core fire&#45;evacuation simulation engine.">
<polygon fill="#999999" stroke="#666666" points="523.08,-162 416.08,-162 416.08,-132 523.08,-132 523.08,-162"/>
<text text-anchor="start" x="424.08" y="-150" font-family="Helvetica,sans-Serif" font-size="10.00">include/simulation</text>
<text text-anchor="middle" x="469.58" y="-139" font-family="Helvetica,sans-Serif" font-size="10.00">/FireSimulator.h</text>
</a>
</g>
</g>
<!-- Node2 -->
<g id="Node000002" class="node">
<title>Node2</title>
<g id="a_Node000002"><a xlink:href="Renderer_8h.html" target="_top" xlink:title=" ">
<polygon fill="white" stroke="#666666" points="144.08,-90.5 19.08,-90.5 19.08,-71.5 144.08,-71.5 144.08,-90.5"/>
<text text-anchor="middle" x="81.58" y="-78.5" font-family="Helvetica,sans-Serif" font-size="10.00">include/gui/Renderer.h</text>
</a>
</g>
</g>
<!-- Node1&#45;&gt;Node2 -->
<g id="edge1_Node000001_Node000002" class="edge">
<title>Node1&#45;&gt;Node2</title>
<g id="a_edge1_Node000001_Node000002"><a xlink:title=" ">
<path fill="none" stroke="#63b8ff" d="M405.88,-136.59C341.98,-127 240.81,-111.38 153.58,-96 144.05,-94.32 133.83,-92.4 124.17,-90.54"/>
<polygon fill="#63b8ff" stroke="#63b8ff" points="405.4,-140.06 415.8,-138.08 406.43,-133.14 405.4,-140.06"/>
</a>
</g>
</g>
<!-- Node3 -->
<g id="Node000003" class="node">
<title>Node3</title>
<g id="a_Node000003"><a xlink:href="main__gui_8cpp.html" target="_top" xlink:title="SDL2 graphical frontend for the Fire Evacuation simulator.">
<polygon fill="white" stroke="#666666" points="233.08,-24.5 134.08,-24.5 134.08,-5.5 233.08,-5.5 233.08,-24.5"/>
<text text-anchor="middle" x="183.58" y="-12.5" font-family="Helvetica,sans-Serif" font-size="10.00">src/main_gui.cpp</text>
</a>
</g>
</g>
<!-- Node1&#45;&gt;Node3 -->
<g id="edge9_Node000001_Node000003" class="edge">
<title>Node1&#45;&gt;Node3</title>
<g id="a_edge9_Node000001_Node000003"><a xlink:title=" ">
<path fill="none" stroke="#63b8ff" d="M405.55,-143.69C285.33,-138.7 35.54,-124.94 9.58,-96 -29.95,-51.95 69.61,-30.48 133.95,-21.49"/>
<polygon fill="#63b8ff" stroke="#63b8ff" points="405.59,-147.2 415.72,-144.11 405.87,-140.21 405.59,-147.2"/>
</a>
</g>
</g>
<!-- Node4 -->
<g id="Node000004" class="node">
<title>Node4</title>
<g id="a_Node000004"><a xlink:href="SimulationController_8h.html" target="_top" xlink:title=" ">
<polygon fill="white" stroke="#666666" points="344.58,-90.5 162.58,-90.5 162.58,-71.5 344.58,-71.5 344.58,-90.5"/>
<text text-anchor="middle" x="253.58" y="-78.5" font-family="Helvetica,sans-Serif" font-size="10.00">include/gui/SimulationController.h</text>
</a>
</g>
</g>
<!-- Node1&#45;&gt;Node4 -->
<g id="edge3_Node000001_Node000004" class="edge">
<title>Node1&#45;&gt;Node4</title>
<g id="a_edge3_Node000001_Node000004"><a xlink:title=" ">
<path fill="none" stroke="#63b8ff" d="M412.37,-129.05C370.48,-116.64 315.38,-100.31 282.32,-90.52"/>
<polygon fill="#63b8ff" stroke="#63b8ff" points="411.59,-132.47 422.17,-131.95 413.58,-125.76 411.59,-132.47"/>
</a>
</g>
</g>
<!-- Node5 -->
<g id="Node000005" class="node">
<title>Node5</title>
<g id="a_Node000005"><a xlink:href="SceneLoader_8h.html" target="_top" xlink:title="Builds a FireSimulator (and optional GUI Layout) from a SceneData.">
<polygon fill="white" stroke="#666666" points="538.08,-90.5 401.08,-90.5 401.08,-71.5 538.08,-71.5 538.08,-90.5"/>
<text text-anchor="middle" x="469.58" y="-78.5" font-family="Helvetica,sans-Serif" font-size="10.00">include/io/SceneLoader.h</text>
</a>
</g>
</g>
<!-- Node1&#45;&gt;Node5 -->
<g id="edge5_Node000001_Node000005" class="edge">
<title>Node1&#45;&gt;Node5</title>
<g id="a_edge5_Node000001_Node000005"><a xlink:title=" ">
<path fill="none" stroke="#63b8ff" d="M469.58,-121.6C469.58,-110.8 469.58,-98.78 469.58,-90.84"/>
<polygon fill="#63b8ff" stroke="#63b8ff" points="466.08,-121.8 469.58,-131.8 473.08,-121.8 466.08,-121.8"/>
</a>
</g>
</g>
<!-- Node6 -->
<g id="Node000006" class="node">
<title>Node6</title>
<g id="a_Node000006"><a xlink:href="sim__demo_8cpp.html" target="_top" xlink:title="Command&#45;line entry point for the Fire Evacuation simulator.">
<polygon fill="white" stroke="#666666" points="441.08,-24.5 336.08,-24.5 336.08,-5.5 441.08,-5.5 441.08,-24.5"/>
<text text-anchor="middle" x="388.58" y="-12.5" font-family="Helvetica,sans-Serif" font-size="10.00">src/sim_demo.cpp</text>
</a>
</g>
</g>
<!-- Node1&#45;&gt;Node6 -->
<g id="edge10_Node000001_Node000006" class="edge">
<title>Node1&#45;&gt;Node6</title>
<g id="a_edge10_Node000001_Node000006"><a xlink:title=" ">
<path fill="none" stroke="#63b8ff" d="M424.18,-126.91C411.44,-119.23 399.03,-109.05 391.58,-96 378.48,-73.07 383.17,-40.11 386.46,-24.64"/>
<polygon fill="#63b8ff" stroke="#63b8ff" points="422.57,-130.01 433.01,-131.82 425.97,-123.9 422.57,-130.01"/>
</a>
</g>
</g>
<!-- Node7 -->
<g id="Node000007" class="node">
<title>Node7</title>
<g id="a_Node000007"><a xlink:href="test__scene__io_8cpp.html" target="_top" xlink:title="Unit and integration tests for the data/ input pipeline.">
<polygon fill="white" stroke="#666666" points="610.08,-30 491.08,-30 491.08,0 610.08,0 610.08,-30"/>
<text text-anchor="start" x="499.08" y="-18" font-family="Helvetica,sans-Serif" font-size="10.00">tests/integration/test</text>
<text text-anchor="middle" x="550.58" y="-7" font-family="Helvetica,sans-Serif" font-size="10.00">_scene_io.cpp</text>
</a>
</g>
</g>
<!-- Node1&#45;&gt;Node7 -->
<g id="edge12_Node000001_Node000007" class="edge">
<title>Node1&#45;&gt;Node7</title>
<g id="a_edge12_Node000001_Node000007"><a xlink:title=" ">
<path fill="none" stroke="#63b8ff" d="M514.97,-126.91C527.72,-119.23 540.12,-109.05 547.58,-96 559.3,-75.49 556.77,-46.94 553.76,-30.07"/>
<polygon fill="#63b8ff" stroke="#63b8ff" points="513.18,-123.9 506.15,-131.82 516.58,-130.01 513.18,-123.9"/>
</a>
</g>
</g>
<!-- Node8 -->
<g id="Node000008" class="node">
<title>Node8</title>
<g id="a_Node000008"><a xlink:href="test__boundary_8cpp.html" target="_top" xlink:title="Edge&#45;case and boundary tests for all custom data structures and the simulator.">
<polygon fill="white" stroke="#666666" points="716.58,-96 594.58,-96 594.58,-66 716.58,-66 716.58,-96"/>
<text text-anchor="start" x="602.58" y="-84" font-family="Helvetica,sans-Serif" font-size="10.00">tests/edge_cases/test</text>
<text text-anchor="middle" x="655.58" y="-73" font-family="Helvetica,sans-Serif" font-size="10.00">_boundary.cpp</text>
</a>
</g>
</g>
<!-- Node1&#45;&gt;Node8 -->
<g id="edge11_Node000001_Node000008" class="edge">
<title>Node1&#45;&gt;Node8</title>
<g id="a_edge11_Node000001_Node000008"><a xlink:title=" ">
<path fill="none" stroke="#63b8ff" d="M520.17,-128.59C549.91,-118.36 587.01,-105.59 614.85,-96.01"/>
<polygon fill="#63b8ff" stroke="#63b8ff" points="518.71,-125.39 510.39,-131.95 520.99,-132.01 518.71,-125.39"/>
</a>
</g>
</g>
<!-- Node9 -->
<g id="Node000009" class="node">
<title>Node9</title>
<g id="a_Node000009"><a xlink:href="test__performance_8cpp.html" target="_top" xlink:title="Performance benchmarks for the custom data structures and simulation engine.">
<polygon fill="white" stroke="#666666" points="862.58,-96 734.58,-96 734.58,-66 862.58,-66 862.58,-96"/>
<text text-anchor="start" x="742.58" y="-84" font-family="Helvetica,sans-Serif" font-size="10.00">tests/performance/test</text>
<text text-anchor="middle" x="798.58" y="-73" font-family="Helvetica,sans-Serif" font-size="10.00">_performance.cpp</text>
</a>
</g>
</g>
<!-- Node1&#45;&gt;Node9 -->
<g id="edge13_Node000001_Node000009" class="edge">
<title>Node1&#45;&gt;Node9</title>
<g id="a_edge13_Node000001_Node000009"><a xlink:title=" ">
<path fill="none" stroke="#63b8ff" d="M533.31,-133.6C591.31,-122.32 676.49,-105.75 734.57,-94.45"/>
<polygon fill="#63b8ff" stroke="#63b8ff" points="532.32,-130.23 523.17,-135.57 533.65,-137.1 532.32,-130.23"/>
</a>
</g>
</g>
<!-- Node10 -->
<g id="Node000010" class="node">
<title>Node10</title>
<g id="a_Node000010"><a xlink:href="test__fire__simulator_8cpp.html" target="_top" xlink:title=" ">
<polygon fill="white" stroke="#666666" points="986.08,-96 881.08,-96 881.08,-66 986.08,-66 986.08,-96"/>
<text text-anchor="start" x="889.08" y="-84" font-family="Helvetica,sans-Serif" font-size="10.00">tests/unit/test_fire</text>
<text text-anchor="middle" x="933.58" y="-73" font-family="Helvetica,sans-Serif" font-size="10.00">_simulator.cpp</text>
</a>
</g>
</g>
<!-- Node1&#45;&gt;Node10 -->
<g id="edge14_Node000001_Node000010" class="edge">
<title>Node1&#45;&gt;Node10</title>
<g id="a_edge14_Node000001_Node000010"><a xlink:title=" ">
<path fill="none" stroke="#63b8ff" d="M533.49,-140.01C613.04,-132.1 752.89,-116.73 871.58,-96 874.62,-95.47 877.74,-94.89 880.88,-94.27"/>
<polygon fill="#63b8ff" stroke="#63b8ff" points="532.75,-136.57 523.15,-141.03 533.44,-143.53 532.75,-136.57"/>
</a>
</g>
</g>
<!-- Node2&#45;&gt;Node3 -->
<g id="edge2_Node000002_Node000003" class="edge">
<title>Node2&#45;&gt;Node3</title>
<g id="a_edge2_Node000002_Node000003"><a xlink:title=" ">
<path fill="none" stroke="#63b8ff" d="M103.86,-66.02C123.92,-53.43 152.78,-35.32 169.71,-24.7"/>
<polygon fill="#63b8ff" stroke="#63b8ff" points="101.94,-63.09 95.33,-71.37 105.66,-69.02 101.94,-63.09"/>
</a>
</g>
</g>
<!-- Node4&#45;&gt;Node3 -->
<g id="edge4_Node000004_Node000003" class="edge">
<title>Node4&#45;&gt;Node3</title>
<g id="a_edge4_Node000004_Node000003"><a xlink:title=" ">
<path fill="none" stroke="#63b8ff" d="M236.44,-64.33C222.88,-51.94 204.45,-35.09 193.32,-24.91"/>
<polygon fill="#63b8ff" stroke="#63b8ff" points="234.39,-67.2 244.14,-71.37 239.12,-62.04 234.39,-67.2"/>
</a>
</g>
</g>
<!-- Node5&#45;&gt;Node3 -->
<g id="edge6_Node000005_Node000003" class="edge">
<title>Node5&#45;&gt;Node3</title>
<g id="a_edge6_Node000005_Node000003"><a xlink:title=" ">
<path fill="none" stroke="#63b8ff" d="M421.22,-69.18C364.92,-56.58 273.09,-36.03 221.62,-24.51"/>
<polygon fill="#63b8ff" stroke="#63b8ff" points="420.78,-72.67 431.3,-71.44 422.31,-65.84 420.78,-72.67"/>
</a>
</g>
</g>
<!-- Node5&#45;&gt;Node6 -->
<g id="edge7_Node000005_Node000006" class="edge">
<title>Node5&#45;&gt;Node6</title>
<g id="a_edge7_Node000005_Node000006"><a xlink:title=" ">
<path fill="none" stroke="#63b8ff" d="M450.58,-64.99C434.72,-52.46 412.67,-35.04 399.59,-24.7"/>
<polygon fill="#63b8ff" stroke="#63b8ff" points="448.64,-67.92 458.65,-71.37 452.98,-62.42 448.64,-67.92"/>
</a>
</g>
</g>
<!-- Node5&#45;&gt;Node7 -->
<g id="edge8_Node000005_Node000007" class="edge">
<title>Node5&#45;&gt;Node7</title>
<g id="a_edge8_Node000005_Node000007"><a xlink:title=" ">
<path fill="none" stroke="#63b8ff" d="M488.54,-65.02C501.88,-54.48 519.62,-40.46 532.71,-30.12"/>
<polygon fill="#63b8ff" stroke="#63b8ff" points="486.18,-62.42 480.5,-71.37 490.52,-67.92 486.18,-62.42"/>
</a>
</g>
</g>
</g>
</svg>
