<?xml version="1.0" encoding="UTF-8" standalone="no"?>
<!DOCTYPE svg PUBLIC "-//W3C//DTD SVG 1.1//EN"
 "http://www.w3.org/Graphics/SVG/1.1/DTD/svg11.dtd">
<!-- Generated by graphviz version 2.43.0 (0)
 -->
<!-- Title: include/data_structures/Graph.h Pages: 1 -->
<!--zoomable 302 -->

<svg id="main" version="1.1" xmlns="http://www.w3.org/2000/svg" xmlns:xlink="http://www.w3.org/1999/xlink" xml:space="preserve" onload="init(evt)">
<style type="text/css"><![CDATA[
.node, .edge {opacity: 0.7;}
.node.selected, .edge.selected {opacity: 1;}
.edge:hover path { stroke: red; }
.edge:hover polygon { stroke: red; fill: red; }
]]></style>

<defs>
  <circle id="rim" cx="0" cy="0" r="7"/>
  <circle id="rim2" cx="0" cy="0" r="3.5"/>
  <g id="zoomPlus">
    <use xlink:href="#rim" fill="#404040"><set attributeName="fill" to="#808080" begin="zoomplus.mouseover" end="zoomplus.mouseout"/></use>
    <path d="M-4,0h8M0,-4v8" fill="none" stroke="white" stroke-width="1.5" pointer-events="none"/>
  </g>
  <g id="zoomMin">
    <use xlink:href="#rim" fill="#404040"><set attributeName="fill" to="#808080" begin="zoomminus.mouseover" end="zoomminus.mouseout"/></use>
    <path d="M-4,0h8" fill="none" stroke="white" stroke-width="1.5" pointer-events="none"/>
  </g>
  <g id="arrowUp" transform="translate(30 24)">
    <use xlink:href="#rim"/>
    <path pointer-events="none" fill="none" stroke="white" stroke-width="1.5" d="M0,-3.0v7 M-2.5,-0.5L0,-3.0L2.5,-0.5"/>
  </g>
  <g id="arrowRight" transform="rotate(90) translate(36 -43)">
    <use xlink:href="#rim"/>
    <path pointer-events="none" fill="none" stroke="white" stroke-width="1.5" d="M0,-3.0v7 M-2.5,-0.5L0,-3.0L2.5,-0.5"/>
  </g>
  <g id="arrowDown" transform="rotate(180) translate(-30 -48)">
    <use xlink:href="#rim"/>
    <path pointer-events="none" fill="none" stroke="white" stroke-width="1.5" d="M0,-3.0v7 M-2.5,-0.5L0,-3.0L2.5,-0.5"/>
  </g>
  <g id="arrowLeft" transform="rotate(270) translate(-36 17)">
    <use xlink:href="#rim"/>
    <path pointer-events="none" fill="none" stroke="white" stroke-width="1.5" d="M0,-3.0v7 M-2.5,-0.5L0,-3.0L2.5,-0.5"/>
  </g>
  <g id="resetDef">
    <use xlink:href="#rim2" fill="#404040"><set attributeName="fill" to="#808080" begin="reset.mouseover" end="reset.mouseout"/></use>
  </g>
</defs>
<script type="application/ecmascript">
var viewWidth = 1367;
var viewHeight = 302;
var sectionId = 'dynsection-1';
</script>
<script type="application/ecmascript" xlink:href="svg.min.js"/>
<svg id="graph" class="graph">
<g id="viewport">
<title>include/data_structures/Graph.h</title>
<!-- Node1 -->
<g id="Node000001" class="node">
<title>Node1</title>
<g id="a_Node000001"><a xlink:title="Adjacency&#45;list directed/undirected graph with Dijkstra shortest&#45;path.">
<polygon fill="#999999" stroke="#666666" points="804,-294 673,-294 673,-264 804,-264 804,-294"/>
<text text-anchor="start" x="681" y="-282" font-family="Helvetica,sans-Serif" font-size="10.00">include/data_structures</text>
<text text-anchor="middle" x="738.5" y="-271" font-family="Helvetica,sans-Serif" font-size="10.00">/Graph.h</text>
</a>
</g>
</g>
<!-- Node2 -->
<g id="Node000002" class="node">
<title>Node2</title>
<g id="a_Node000002"><a xlink:href="SceneLoader_8h.html" target="_top" xlink:title="Builds a FireSimulator (and optional GUI Layout) from a SceneData.">
<polygon fill="white" stroke="#666666" points="225,-90.5 88,-90.5 88,-71.5 225,-71.5 225,-90.5"/>
<text text-anchor="middle" x="156.5" y="-78.5" font-family="Helvetica,sans-Serif" font-size="10.00">include/io/SceneLoader.h</text>
</a>
</g>
</g>
<!-- Node1&#45;&gt;Node2 -->
<g id="edge1_Node000001_Node000002" class="edge">
<title>Node1&#45;&gt;Node2</title>
<g id="a_edge1_Node000001_Node000002"><a xlink:title=" ">
<path fill="none" stroke="#63b8ff" d="M681.06,-260.96C649.76,-251.52 610.4,-239.43 575.5,-228 423.96,-178.38 243.54,-113.54 180.02,-90.54"/>
<polygon fill="#63b8ff" stroke="#63b8ff" points="680.34,-264.39 690.92,-263.92 682.35,-257.69 680.34,-264.39"/>
</a>
</g>
</g>
<!-- Node3 -->
<g id="Node000003" class="node">
<title>Node3</title>
<g id="a_Node000003"><a xlink:href="main__gui_8cpp.html" target="_top" xlink:title="SDL2 graphical frontend for the Fire Evacuation simulator.">
<polygon fill="white" stroke="#666666" points="355,-24.5 256,-24.5 256,-5.5 355,-5.5 355,-24.5"/>
<text text-anchor="middle" x="305.5" y="-12.5" font-family="Helvetica,sans-Serif" font-size="10.00">src/main_gui.cpp</text>
</a>
</g>
</g>
<!-- Node1&#45;&gt;Node3 -->
<g id="edge21_Node000001_Node000003" class="edge">
<title>Node1&#45;&gt;Node3</title>
<g id="a_edge21_Node000001_Node000003"><a xlink:title=" ">
<path fill="none" stroke="#63b8ff" d="M662.66,-268.82C504.39,-247.9 147.79,-191.03 78.5,-96 32.28,-32.61 175.95,-19.17 255.84,-16.51"/>
<polygon fill="#63b8ff" stroke="#63b8ff" points="662.43,-272.32 672.8,-270.14 663.34,-265.38 662.43,-272.32"/>
</a>
</g>
</g>
<!-- Node4 -->
<g id="Node000004" class="node">
<title>Node4</title>
<g id="a_Node000004"><a xlink:href="sim__demo_8cpp.html" target="_top" xlink:title="Command&#45;line entry point for the Fire Evacuation simulator.">
<polygon fill="white" stroke="#666666" points="687,-24.5 582,-24.5 582,-5.5 687,-5.5 687,-24.5"/>
<text text-anchor="middle" x="634.5" y="-12.5" font-family="Helvetica,sans-Serif" font-size="10.00">src/sim_demo.cpp</text>
</a>
</g>
</g>
<!-- Node1&#45;&gt;Node4 -->
<g id="edge22_Node000001_Node000004" class="edge">
<title>Node1&#45;&gt;Node4</title>
<g id="a_edge22_Node000001_Node000004"><a xlink:title=" ">
<path fill="none" stroke="#63b8ff" d="M811.61,-261.43C931.37,-231.1 1148.02,-160.95 1063.5,-66 1038.85,-38.31 796.3,-23.56 687.2,-18.29"/>
<polygon fill="#63b8ff" stroke="#63b8ff" points="810.6,-258.08 801.75,-263.9 812.3,-264.87 810.6,-258.08"/>
</a>
</g>
</g>
<!-- Node5 -->
<g id="Node000005" class="node">
<title>Node5</title>
<g id="a_Node000005"><a xlink:href="test__scene__io_8cpp.html" target="_top" xlink:title="Unit and integration tests for the data/ input pipeline.">
<polygon fill="white" stroke="#666666" points="119,-30 0,-30 0,0 119,0 119,-30"/>
<text text-anchor="start" x="8" y="-18" font-family="Helvetica,sans-Serif" font-size="10.00">tests/integration/test</text>
<text text-anchor="middle" x="59.5" y="-7" font-family="Helvetica,sans-Serif" font-size="10.00">_scene_io.cpp</text>
</a>
</g>
</g>
<!-- Node1&#45;&gt;Node5 -->
<g id="edge25_Node000001_Node000005" class="edge">
<title>Node1&#45;&gt;Node5</title>
<g id="a_edge25_Node000001_Node000005"><a xlink:title=" ">
<path fill="none" stroke="#63b8ff" d="M662.67,-275.2C573.65,-270.6 422.08,-258.64 295.5,-228 215.11,-208.54 188.85,-210.01 121.5,-162 90.41,-139.84 81.05,-131.3 66.5,-96 57.57,-74.35 57.35,-46.66 58.25,-30.18"/>
<polygon fill="#63b8ff" stroke="#63b8ff" points="662.52,-278.7 672.68,-275.7 662.87,-271.71 662.52,-278.7"/>
</a>
</g>
</g>
<!-- Node6 -->
<g id="Node000006" class="node">
<title>Node6</title>
<g id="a_Node000006"><a xlink:href="FireSimulator_8h.html" target="_top" xlink:title="Core fire&#45;evacuation simulation engine.">
<polygon fill="white" stroke="#666666" points="628,-162 521,-162 521,-132 628,-132 628,-162"/>
<text text-anchor="start" x="529" y="-150" font-family="Helvetica,sans-Serif" font-size="10.00">include/simulation</text>
<text text-anchor="middle" x="574.5" y="-139" font-family="Helvetica,sans-Serif" font-size="10.00">/FireSimulator.h</text>
</a>
</g>
</g>
<!-- Node1&#45;&gt;Node6 -->
<g id="edge5_Node000001_Node000006" class="edge">
<title>Node1&#45;&gt;Node6</title>
<g id="a_edge5_Node000001_Node000006"><a xlink:title=" ">
<path fill="none" stroke="#63b8ff" d="M662.99,-267.05C637.74,-259.84 611.49,-247.86 593.5,-228 576.92,-209.7 574.07,-179.6 573.97,-162"/>
<polygon fill="#63b8ff" stroke="#63b8ff" points="662.4,-270.52 672.96,-269.68 664.19,-263.75 662.4,-270.52"/>
</a>
</g>
</g>
<!-- Node9 -->
<g id="Node000009" class="node">
<title>Node9</title>
<g id="a_Node000009"><a xlink:href="test__boundary_8cpp.html" target="_top" xlink:title="Edge&#45;case and boundary tests for all custom data structures and the simulator.">
<polygon fill="white" stroke="#666666" points="908.5,-96 786.5,-96 786.5,-66 908.5,-66 908.5,-96"/>
<text text-anchor="start" x="794.5" y="-84" font-family="Helvetica,sans-Serif" font-size="10.00">tests/edge_cases/test</text>
<text text-anchor="middle" x="847.5" y="-73" font-family="Helvetica,sans-Serif" font-size="10.00">_boundary.cpp</text>
</a>
</g>
</g>
<!-- Node1&#45;&gt;Node9 -->
<g id="edge23_Node000001_Node000009" class="edge">
<title>Node1&#45;&gt;Node9</title>
<g id="a_edge23_Node000001_Node000009"><a xlink:title=" ">
<path fill="none" stroke="#63b8ff" d="M751.32,-254.94C774.09,-214 820.94,-129.77 839.59,-96.23"/>
<polygon fill="#63b8ff" stroke="#63b8ff" points="748.14,-253.46 746.34,-263.9 754.26,-256.87 748.14,-253.46"/>
</a>
</g>
</g>
<!-- Node10 -->
<g id="Node000010" class="node">
<title>Node10</title>
<g id="a_Node000010"><a xlink:href="test__performance_8cpp.html" target="_top" xlink:title="Performance benchmarks for the custom data structures and simulation engine.">
<polygon fill="white" stroke="#666666" points="1054.5,-96 926.5,-96 926.5,-66 1054.5,-66 1054.5,-96"/>
<text text-anchor="start" x="934.5" y="-84" font-family="Helvetica,sans-Serif" font-size="10.00">tests/performance/test</text>
<text text-anchor="middle" x="990.5" y="-73" font-family="Helvetica,sans-Serif" font-size="10.00">_performance.cpp</text>
</a>
</g>
</g>
<!-- Node1&#45;&gt;Node10 -->
<g id="edge26_Node000001_Node000010" class="edge">
<title>Node1&#45;&gt;Node10</title>
<g id="a_edge26_Node000001_Node000010"><a xlink:title=" ">
<path fill="none" stroke="#63b8ff" d="M764.57,-257.72C815.73,-217.93 928.08,-130.55 972.2,-96.23"/>
<polygon fill="#63b8ff" stroke="#63b8ff" points="762.37,-255 756.62,-263.9 766.67,-260.53 762.37,-255"/>
</a>
</g>
</g>
<!-- Node11 -->
<g id="Node000011" class="node">
<title>Node11</title>
<g id="a_Node000011"><a xlink:href="test__fire__simulator_8cpp.html" target="_top" xlink:title=" ">
<polygon fill="white" stroke="#666666" points="768,-96 663,-96 663,-66 768,-66 768,-96"/>
<text text-anchor="start" x="671" y="-84" font-family="Helvetica,sans-Serif" font-size="10.00">tests/unit/test_fire</text>
<text text-anchor="middle" x="715.5" y="-73" font-family="Helvetica,sans-Serif" font-size="10.00">_simulator.cpp</text>
</a>
</g>
</g>
<!-- Node1&#45;&gt;Node11 -->
<g id="edge28_Node000001_Node000011" class="edge">
<title>Node1&#45;&gt;Node11</title>
<g id="a_edge28_Node000001_Node000011"><a xlink:title=" ">
<path fill="none" stroke="#63b8ff" d="M735.67,-253.89C730.82,-212.58 721.07,-129.48 717.17,-96.23"/>
<polygon fill="#63b8ff" stroke="#63b8ff" points="732.2,-254.38 736.85,-263.9 739.16,-253.56 732.2,-254.38"/>
</a>
</g>
</g>
<!-- Node12 -->
<g id="Node000012" class="node">
<title>Node12</title>
<g id="a_Node000012"><a xlink:href="SimEntities_8h.html" target="_top" xlink:title="Per&#45;tick simulation entities: CellNode, Corridor, Person, WaitingQueue.">
<polygon fill="white" stroke="#666666" points="710,-228 603,-228 603,-198 710,-198 710,-228"/>
<text text-anchor="start" x="611" y="-216" font-family="Helvetica,sans-Serif" font-size="10.00">include/simulation</text>
<text text-anchor="middle" x="656.5" y="-205" font-family="Helvetica,sans-Serif" font-size="10.00">/SimEntities.h</text>
</a>
</g>
</g>
<!-- Node1&#45;&gt;Node12 -->
<g id="edge17_Node000001_Node000012" class="edge">
<title>Node1&#45;&gt;Node12</title>
<g id="a_edge17_Node000001_Node000012"><a xlink:title=" ">
<path fill="none" stroke="#63b8ff" d="M712.21,-257.48C699.95,-247.91 685.68,-236.77 674.65,-228.16"/>
<polygon fill="#63b8ff" stroke="#63b8ff" points="710.26,-260.4 720.3,-263.8 714.57,-254.88 710.26,-260.4"/>
</a>
</g>
</g>
<!-- Node13 -->
<g id="Node000013" class="node">
<title>Node13</title>
<g id="a_Node000013"><a xlink:href="test__graph__workflow_8cpp.html" target="_top" xlink:title=" ">
<polygon fill="white" stroke="#666666" points="1230,-228 1111,-228 1111,-198 1230,-198 1230,-228"/>
<text text-anchor="start" x="1119" y="-216" font-family="Helvetica,sans-Serif" font-size="10.00">tests/integration/test</text>
<text text-anchor="middle" x="1170.5" y="-205" font-family="Helvetica,sans-Serif" font-size="10.00">_graph_workflow.cpp</text>
</a>
</g>
</g>
<!-- Node1&#45;&gt;Node13 -->
<g id="edge24_Node000001_Node000013" class="edge">
<title>Node1&#45;&gt;Node13</title>
<g id="a_edge24_Node000001_Node000013"><a xlink:title=" ">
<path fill="none" stroke="#63b8ff" d="M814.27,-268.5C886.84,-259.14 999.36,-243.96 1096.5,-228 1101.14,-227.24 1105.95,-226.41 1110.77,-225.56"/>
<polygon fill="#63b8ff" stroke="#63b8ff" points="813.77,-265.03 804.3,-269.78 814.66,-271.97 813.77,-265.03"/>
</a>
</g>
</g>
<!-- Node14 -->
<g id="Node000014" class="node">
<title>Node14</title>
<g id="a_Node000014"><a xlink:href="test__data__structures_8cpp.html" target="_top" xlink:title=" ">
<polygon fill="white" stroke="#666666" points="1359,-228 1248,-228 1248,-198 1359,-198 1359,-228"/>
<text text-anchor="start" x="1256" y="-216" font-family="Helvetica,sans-Serif" font-size="10.00">tests/unit/test_data</text>
<text text-anchor="middle" x="1303.5" y="-205" font-family="Helvetica,sans-Serif" font-size="10.00">_structures.cpp</text>
</a>
</g>
</g>
<!-- Node1&#45;&gt;Node14 -->
<g id="edge27_Node000001_Node000014" class="edge">
<title>Node1&#45;&gt;Node14</title>
<g id="a_edge27_Node000001_Node000014"><a xlink:title=" ">
<path fill="none" stroke="#63b8ff" d="M814.21,-273.19C912.62,-266.31 1089.62,-251.79 1239.5,-228 1242.2,-227.57 1244.95,-227.1 1247.72,-226.6"/>
<polygon fill="#63b8ff" stroke="#63b8ff" points="813.8,-269.71 804.06,-273.89 814.28,-276.69 813.8,-269.71"/>
</a>
</g>
</g>
<!-- Node2&#45;&gt;Node3 -->
<g id="edge2_Node000002_Node000003" class="edge">
<title>Node2&#45;&gt;Node3</title>
<g id="a_edge2_Node000002_Node000003"><a xlink:title=" ">
<path fill="none" stroke="#63b8ff" d="M185.93,-67.36C215.29,-54.75 259.62,-35.71 285.25,-24.7"/>
<polygon fill="#63b8ff" stroke="#63b8ff" points="184.4,-64.21 176.59,-71.37 187.16,-70.64 184.4,-64.21"/>
</a>
</g>
</g>
<!-- Node2&#45;&gt;Node4 -->
<g id="edge3_Node000002_Node000004" class="edge">
<title>Node2&#45;&gt;Node4</title>
<g id="a_edge3_Node000002_Node000004"><a xlink:title=" ">
<path fill="none" stroke="#63b8ff" d="M211.28,-69.65C218.73,-68.36 226.3,-67.1 233.5,-66 357.98,-46.94 505.05,-30.03 581.82,-21.62"/>
<polygon fill="#63b8ff" stroke="#63b8ff" points="210.45,-66.24 201.22,-71.43 211.67,-73.14 210.45,-66.24"/>
</a>
</g>
</g>
<!-- Node2&#45;&gt;Node5 -->
<g id="edge4_Node000002_Node000005" class="edge">
<title>Node2&#45;&gt;Node5</title>
<g id="a_edge4_Node000002_Node000005"><a xlink:title=" ">
<path fill="none" stroke="#63b8ff" d="M134.7,-65.62C118.63,-55.01 96.87,-40.66 80.89,-30.12"/>
<polygon fill="#63b8ff" stroke="#63b8ff" points="133.14,-68.78 143.42,-71.37 137,-62.94 133.14,-68.78"/>
</a>
</g>
</g>
<!-- Node6&#45;&gt;Node2 -->
<g id="edge10_Node000006_Node000002" class="edge">
<title>Node6&#45;&gt;Node2</title>
<g id="a_edge10_Node000006_Node000002"><a xlink:title=" ">
<path fill="none" stroke="#63b8ff" d="M510.75,-137.32C442.17,-127.82 329.96,-111.84 233.5,-96 223.31,-94.33 212.38,-92.41 202.06,-90.55"/>
<polygon fill="#63b8ff" stroke="#63b8ff" points="510.58,-140.83 520.96,-138.73 511.53,-133.89 510.58,-140.83"/>
</a>
</g>
</g>
<!-- Node6&#45;&gt;Node3 -->
<g id="edge11_Node000006_Node000003" class="edge">
<title>Node6&#45;&gt;Node3</title>
<g id="a_edge11_Node000006_Node000003"><a xlink:title=" ">
<path fill="none" stroke="#63b8ff" d="M510.83,-131.48C480.92,-123.3 445.36,-111.55 415.5,-96 396.1,-85.9 394.11,-78.97 376.5,-66 356.22,-51.07 332.19,-34.34 317.93,-24.52"/>
<polygon fill="#63b8ff" stroke="#63b8ff" points="510.18,-134.93 520.74,-134.12 511.98,-128.16 510.18,-134.93"/>
</a>
</g>
</g>
<!-- Node6&#45;&gt;Node4 -->
<g id="edge12_Node000006_Node000004" class="edge">
<title>Node6&#45;&gt;Node4</title>
<g id="a_edge12_Node000006_Node000004"><a xlink:title=" ">
<path fill="none" stroke="#63b8ff" d="M595.74,-124.51C602.94,-116.19 610.44,-106.21 615.5,-96 627.41,-71.95 632.08,-40.08 633.71,-24.84"/>
<polygon fill="#63b8ff" stroke="#63b8ff" points="593.13,-122.18 589.01,-131.94 598.32,-126.88 593.13,-122.18"/>
</a>
</g>
</g>
<!-- Node6&#45;&gt;Node5 -->
<g id="edge14_Node000006_Node000005" class="edge">
<title>Node6&#45;&gt;Node5</title>
<g id="a_edge14_Node000006_Node000005"><a xlink:title=" ">
<path fill="none" stroke="#63b8ff" d="M510.3,-143.63C383.5,-138.37 110.37,-123.9 78.5,-96 59.7,-79.55 57.73,-48.2 58.36,-30.02"/>
<polygon fill="#63b8ff" stroke="#63b8ff" points="510.51,-147.14 520.64,-144.05 510.79,-140.15 510.51,-147.14"/>
</a>
</g>
</g>
<!-- Node7 -->
<g id="Node000007" class="node">
<title>Node7</title>
<g id="a_Node000007"><a xlink:href="Renderer_8h.html" target="_top" xlink:title=" ">
<polygon fill="white" stroke="#666666" points="368,-90.5 243,-90.5 243,-71.5 368,-71.5 368,-90.5"/>
<text text-anchor="middle" x="305.5" y="-78.5" font-family="Helvetica,sans-Serif" font-size="10.00">include/gui/Renderer.h</text>
</a>
</g>
</g>
<!-- Node6&#45;&gt;Node7 -->
<g id="edge6_Node000006_Node000007" class="edge">
<title>Node6&#45;&gt;Node7</title>
<g id="a_edge6_Node000006_Node000007"><a xlink:title=" ">
<path fill="none" stroke="#63b8ff" d="M510.77,-130.84C457.95,-118.27 384.78,-100.86 341.57,-90.58"/>
<polygon fill="#63b8ff" stroke="#63b8ff" points="510.17,-134.29 520.71,-133.2 511.79,-127.48 510.17,-134.29"/>
</a>
</g>
</g>
<!-- Node8 -->
<g id="Node000008" class="node">
<title>Node8</title>
<g id="a_Node000008"><a xlink:href="SimulationController_8h.html" target="_top" xlink:title=" ">
<polygon fill="white" stroke="#666666" points="606.5,-90.5 424.5,-90.5 424.5,-71.5 606.5,-71.5 606.5,-90.5"/>
<text text-anchor="middle" x="515.5" y="-78.5" font-family="Helvetica,sans-Serif" font-size="10.00">include/gui/SimulationController.h</text>
</a>
</g>
</g>
<!-- Node6&#45;&gt;Node8 -->
<g id="edge8_Node000006_Node000008" class="edge">
<title>Node6&#45;&gt;Node8</title>
<g id="a_edge8_Node000006_Node000008"><a xlink:title=" ">
<path fill="none" stroke="#63b8ff" d="M554.47,-124.27C543.93,-112.84 531.58,-99.44 523.65,-90.84"/>
<polygon fill="#63b8ff" stroke="#63b8ff" points="552.05,-126.82 561.41,-131.8 557.2,-122.07 552.05,-126.82"/>
</a>
</g>
</g>
<!-- Node6&#45;&gt;Node9 -->
<g id="edge13_Node000006_Node000009" class="edge">
<title>Node6&#45;&gt;Node9</title>
<g id="a_edge13_Node000006_Node000009"><a xlink:title=" ">
<path fill="none" stroke="#63b8ff" d="M638.06,-131.1C683.09,-120.54 743.12,-106.47 787.36,-96.1"/>
<polygon fill="#63b8ff" stroke="#63b8ff" points="637.05,-127.74 628.11,-133.43 638.65,-134.56 637.05,-127.74"/>
</a>
</g>
</g>
<!-- Node6&#45;&gt;Node10 -->
<g id="edge15_Node000006_Node000010" class="edge">
<title>Node6&#45;&gt;Node10</title>
<g id="a_edge15_Node000006_Node000010"><a xlink:title=" ">
<path fill="none" stroke="#63b8ff" d="M638.35,-137.56C707.34,-128.24 820.42,-112.38 917.5,-96 920.43,-95.51 923.42,-94.99 926.44,-94.45"/>
<polygon fill="#63b8ff" stroke="#63b8ff" points="637.53,-134.14 628.09,-138.94 638.46,-141.08 637.53,-134.14"/>
</a>
</g>
</g>
<!-- Node6&#45;&gt;Node11 -->
<g id="edge16_Node000006_Node000011" class="edge">
<title>Node6&#45;&gt;Node11</title>
<g id="a_edge16_Node000006_Node000011"><a xlink:title=" ">
<path fill="none" stroke="#63b8ff" d="M614.63,-127.78C636.86,-117.69 664.07,-105.34 684.63,-96.01"/>
<polygon fill="#63b8ff" stroke="#63b8ff" points="613.1,-124.63 605.44,-131.95 616,-131.01 613.1,-124.63"/>
</a>
</g>
</g>
<!-- Node7&#45;&gt;Node3 -->
<g id="edge7_Node000007_Node000003" class="edge">
<title>Node7&#45;&gt;Node3</title>
<g id="a_edge7_Node000007_Node000003"><a xlink:title=" ">
<path fill="none" stroke="#63b8ff" d="M305.5,-61.08C305.5,-49.13 305.5,-34.22 305.5,-24.91"/>
<polygon fill="#63b8ff" stroke="#63b8ff" points="302,-61.37 305.5,-71.37 309,-61.37 302,-61.37"/>
</a>
</g>
</g>
<!-- Node8&#45;&gt;Node3 -->
<g id="edge9_Node000008_Node000003" class="edge">
<title>Node8&#45;&gt;Node3</title>
<g id="a_edge9_Node000008_Node000003"><a xlink:title=" ">
<path fill="none" stroke="#63b8ff" d="M477.45,-68.4C436.03,-55.78 370.78,-35.89 333.71,-24.6"/>
<polygon fill="#63b8ff" stroke="#63b8ff" points="476.59,-71.8 487.18,-71.37 478.63,-65.11 476.59,-71.8"/>
</a>
</g>
</g>
<!-- Node12&#45;&gt;Node6 -->
<g id="edge19_Node000012_Node000006" class="edge">
<title>Node12&#45;&gt;Node6</title>
<g id="a_edge19_Node000012_Node000006"><a xlink:title=" ">
<path fill="none" stroke="#63b8ff" d="M630.21,-191.48C617.95,-181.91 603.68,-170.77 592.65,-162.16"/>
<polygon fill="#63b8ff" stroke="#63b8ff" points="628.26,-194.4 638.3,-197.8 632.57,-188.88 628.26,-194.4"/>
</a>
</g>
</g>
<!-- Node12&#45;&gt;Node7 -->
<g id="edge18_Node000012_Node000007" class="edge">
<title>Node12&#45;&gt;Node7</title>
<g id="a_edge18_Node000012_Node000007"><a xlink:title=" ">
<path fill="none" stroke="#63b8ff" d="M604.96,-194.76C577.18,-185.34 542.36,-173.31 511.5,-162 443.6,-137.12 364,-105.5 326.75,-90.56"/>
<polygon fill="#63b8ff" stroke="#63b8ff" points="603.88,-198.09 614.47,-197.98 606.12,-191.46 603.88,-198.09"/>
</a>
</g>
</g>
<!-- Node12&#45;&gt;Node11 -->
<g id="edge20_Node000012_Node000011" class="edge">
<title>Node12&#45;&gt;Node11</title>
<g id="a_edge20_Node000012_Node000011"><a xlink:title=" ">
<path fill="none" stroke="#63b8ff" d="M667.21,-188.39C679.44,-161.46 699.02,-118.31 709.08,-96.14"/>
<polygon fill="#63b8ff" stroke="#63b8ff" points="663.87,-187.29 662.93,-197.84 670.25,-190.18 663.87,-187.29"/>
</a>
</g>
</g>
</g>
</svg>

<g id="navigator" transform="translate(0 0)" fill="#404254">
  <rect fill="#f2f5e9" fill-opacity="0.5" stroke="#606060" stroke-width=".5" x="0" y="0" width="60" height="60"/>
  <use id="zoomplus" xlink:href="#zoomPlus" x="17" y="9" onmousedown="handleZoom(evt,'in')"/>
  <use id="zoomminus" xlink:href="#zoomMin" x="42" y="9" onmousedown="handleZoom(evt,'out')"/>
  <use id="reset" xlink:href="#resetDef" x="30" y="36" onmousedown="handleReset()"/>
   <use id="arrowup" xlink:href="#arrowUp" x="0" y="0" onmousedown="handlePan(0,-1)"/>
  <use id="arrowright" xlink:href="#arrowRight" x="0" y="0" onmousedown="handlePan(1,0)"/>
  <use id="arrowdown" xlink:href="#arrowDown" x="0" y="0" onmousedown="handlePan(0,1)"/>
  <use id="arrowleft" xlink:href="#arrowLeft" x="0" y="0" onmousedown="handlePan(-1,0)"/>
</g>
<svg viewBox="0 0 15 15" width="100%" height="30px" preserveAspectRatio="xMaxYMin meet">
 <g id="arrow_out" transform="scale(0.3 0.3)">
  <a xlink:href="Graph_8h__dep__incl_org.svg" target="_base">
   <rect id="button" ry="5" rx="5" y="6" x="6" height="38" width="38"
        fill="#f2f5e9" fill-opacity="0.5" stroke="#606060" stroke-width="1.0"/>
   <path id="arrow"
     d="M 11.500037,31.436501 C 11.940474,20.09759 22.043105,11.32322 32.158766,21.979434 L 37.068811,17.246167 C 37.068811,17.246167 37.088388,32 37.088388,32 L 22.160133,31.978069 C 22.160133,31.978069 26.997745,27.140456 26.997745,27.140456 C 18.528582,18.264221 13.291696,25.230495 11.500037,31.436501 z"
     style="fill:#404040;"/>
  </a>
 </g>
</svg>

<style type='text/css'>
<![CDATA[
[data-mouse-over-selected='false'] { opacity: 0.7; }
[data-mouse-over-selected='true']  { opacity: 1.0; }
]]>
</style>
<script type="application/ecmascript"><![CDATA[
document.addEventListener('DOMContentLoaded', (event) => {
  highlightEdges();
  highlightAdjacentNodes();
});
]]></script>
</svg>
