<?xml version="1.0" encoding="UTF-8" standalone="no"?>
<!DOCTYPE svg PUBLIC "-//W3C//DTD SVG 1.1//EN"
 "http://www.w3.org/Graphics/SVG/1.1/DTD/svg11.dtd">
<!-- Generated by graphviz version 2.43.0 (0)
 -->
<!-- Title: src/main_gui.cpp Pages: 1 -->
<!--zoomable 379 -->

<svg id="main" version="1.1" xmlns="http://www.w3.org/2000/svg" xmlns:xlink="http://www.w3.org/1999/xlink" xml:space="preserve" onload="init(evt)">
<style type="text/css"><![CDATA[
.node, .edge {opacity: 0.7;}
.node.selected, .edge.selected {opacity: 1;}
.edge:hover path { stroke: red; }
.edge:hover polygon { stroke: red; fill: red; }
]]></style>

<defs>
  <circle id="rim" cx="0" cy="0" r="7"/>
  <circle id="rim2" cx="0" cy="0" r="3.5"/>
  <g id="zoomPlus">
    <use xlink:href="#rim" fill="#404040"><set attributeName="fill" to="#808080" begin="zoomplus.mouseover" end="zoomplus.mouseout"/></use>
    <path d="M-4,0h8M0,-4v8" fill="none" stroke="white" stroke-width="1.5" pointer-events="none"/>
  </g>
  <g id="zoomMin">
    <use xlink:href="#rim" fill="#404040"><set attributeName="fill" to="#808080" begin="zoomminus.mouseover" end="zoomminus.mouseout"/></use>
    <path d="M-4,0h8" fill="none" stroke="white" stroke-width="1.5" pointer-events="none"/>
  </g>
  <g id="arrowUp" transform="translate(30 24)">
    <use xlink:href="#rim"/>
    <path pointer-events="none" fill="none" stroke="white" stroke-width="1.5" d="M0,-3.0v7 M-2.5,-0.5L0,-3.0L2.5,-0.5"/>
  </g>
  <g id="arrowRight" transform="rotate(90) translate(36 -43)">
    <use xlink:href="#rim"/>
    <path pointer-events="none" fill="none" stroke="white" stroke-width="1.5" d="M0,-3.0v7 M-2.5,-0.5L0,-3.0L2.5,-0.5"/>
  </g>
  <g id="arrowDown" transform="rotate(180) translate(-30 -48)">
    <use xlink:href="#rim"/>
    <path pointer-events="none" fill="none" stroke="white" stroke-width="1.5" d="M0,-3.0v7 M-2.5,-0.5L0,-3.0L2.5,-0.5"/>
  </g>
  <g id="arrowLeft" transform="rotate(270) translate(-36 17)">
    <use xlink:href="#rim"/>
    <path pointer-events="none" fill="none" stroke="white" stroke-width="1.5" d="M0,-3.0v7 M-2.5,-0.5L0,-3.0L2.5,-0.5"/>
  </g>
  <g id="resetDef">
    <use xlink:href="#rim2" fill="#404040"><set attributeName="fill" to="#808080" begin="reset.mouseover" end="reset.mouseout"/></use>
  </g>
</defs>
<script type="application/ecmascript">
var viewWidth = 1206;
var viewHeight = 379;
var sectionId = 'dynsection-0';
</script>
<script type="application/ecmascript" xlink:href="svg.min.js"/>
<svg id="graph" class="graph">
<g id="viewport">
<title>src/main_gui.cpp</title>
<!-- Node1 -->
<g id="Node000001" class="node">
<title>Node1</title>
<g id="a_Node000001"><a xlink:title="SDL2 graphical frontend for the Fire Evacuation simulator.">
<polygon fill="#999999" stroke="#666666" points="461.5,-371 362.5,-371 362.5,-352 461.5,-352 461.5,-371"/>
<text text-anchor="middle" x="412" y="-359" font-family="Helvetica,sans-Serif" font-size="10.00">src/main_gui.cpp</text>
</a>
</g>
</g>
<!-- Node2 -->
<g id="Node000002" class="node">
<title>Node2</title>
<g id="a_Node000002"><a xlink:title=" ">
<polygon fill="#e0e0e0" stroke="#999999" points="44,-250 0,-250 0,-231 44,-231 44,-250"/>
<text text-anchor="middle" x="22" y="-238" font-family="Helvetica,sans-Serif" font-size="10.00">SDL.h</text>
</a>
</g>
</g>
<!-- Node1&#45;&gt;Node2 -->
<g id="edge1_Node000001_Node000002" class="edge">
<title>Node1&#45;&gt;Node2</title>
<g id="a_edge1_Node000001_Node000002"><a xlink:title=" ">
<path fill="none" stroke="#63b8ff" d="M362.47,-358.57C261.16,-354.12 37.8,-341.5 15,-316 1.38,-300.76 7.14,-276.11 13.61,-259.38"/>
<polygon fill="#63b8ff" stroke="#63b8ff" points="16.85,-260.7 17.56,-250.13 10.41,-257.95 16.85,-260.7"/>
</a>
</g>
</g>
<!-- Node3 -->
<g id="Node000003" class="node">
<title>Node3</title>
<g id="a_Node000003"><a xlink:title=" ">
<polygon fill="#e0e0e0" stroke="#999999" points="70,-310.5 24,-310.5 24,-291.5 70,-291.5 70,-310.5"/>
<text text-anchor="middle" x="47" y="-298.5" font-family="Helvetica,sans-Serif" font-size="10.00">cstdio</text>
</a>
</g>
</g>
<!-- Node1&#45;&gt;Node3 -->
<g id="edge2_Node000001_Node000003" class="edge">
<title>Node1&#45;&gt;Node3</title>
<g id="a_edge2_Node000001_Node000003"><a xlink:title=" ">
<path fill="none" stroke="#63b8ff" d="M362.33,-358.19C296.48,-354.16 177.16,-343.44 79,-316 77.31,-315.53 75.6,-314.99 73.89,-314.39"/>
<polygon fill="#63b8ff" stroke="#63b8ff" points="74.87,-311.02 64.28,-310.61 72.3,-317.53 74.87,-311.02"/>
</a>
</g>
</g>
<!-- Node4 -->
<g id="Node000004" class="node">
<title>Node4</title>
<g id="a_Node000004"><a xlink:title=" ">
<polygon fill="#e0e0e0" stroke="#999999" points="138,-310.5 88,-310.5 88,-291.5 138,-291.5 138,-310.5"/>
<text text-anchor="middle" x="113" y="-298.5" font-family="Helvetica,sans-Serif" font-size="10.00">cstring</text>
</a>
</g>
</g>
<!-- Node1&#45;&gt;Node4 -->
<g id="edge3_Node000001_Node000004" class="edge">
<title>Node1&#45;&gt;Node4</title>
<g id="a_edge3_Node000001_Node000004"><a xlink:title=" ">
<path fill="none" stroke="#63b8ff" d="M362.16,-355.32C308.56,-349 221.16,-336.54 148,-316 146.06,-315.46 144.09,-314.84 142.11,-314.18"/>
<polygon fill="#63b8ff" stroke="#63b8ff" points="142.96,-310.76 132.37,-310.6 140.55,-317.33 142.96,-310.76"/>
</a>
</g>
</g>
<!-- Node5 -->
<g id="Node000005" class="node">
<title>Node5</title>
<g id="a_Node000005"><a xlink:title=" ">
<polygon fill="#e0e0e0" stroke="#999999" points="193.5,-310.5 156.5,-310.5 156.5,-291.5 193.5,-291.5 193.5,-310.5"/>
<text text-anchor="middle" x="175" y="-298.5" font-family="Helvetica,sans-Serif" font-size="10.00">new</text>
</a>
</g>
</g>
<!-- Node1&#45;&gt;Node5 -->
<g id="edge4_Node000001_Node000005" class="edge">
<title>Node1&#45;&gt;Node5</title>
<g id="a_edge4_Node000001_Node000005"><a xlink:title=" ">
<path fill="none" stroke="#63b8ff" d="M362.27,-352.33C320.54,-344.85 259.64,-332.43 208,-316 206.37,-315.48 204.71,-314.91 203.04,-314.31"/>
<polygon fill="#63b8ff" stroke="#63b8ff" points="204.21,-311.01 193.62,-310.61 201.65,-317.52 204.21,-311.01"/>
</a>
</g>
</g>
<!-- Node6 -->
<g id="Node000006" class="node">
<title>Node6</title>
<g id="a_Node000006"><a xlink:title=" ">
<polygon fill="#e0e0e0" stroke="#999999" points="640,-74 596,-74 596,-55 640,-55 640,-74"/>
<text text-anchor="middle" x="618" y="-62" font-family="Helvetica,sans-Serif" font-size="10.00">string</text>
</a>
</g>
</g>
<!-- Node1&#45;&gt;Node6 -->
<g id="edge5_Node000001_Node000006" class="edge">
<title>Node1&#45;&gt;Node6</title>
<g id="a_edge5_Node000001_Node000006"><a xlink:title=" ">
<path fill="none" stroke="#63b8ff" d="M410.73,-351.94C408.43,-337.78 402.88,-308.78 393,-286 385.45,-268.58 375.32,-268.22 370,-250 360.59,-217.79 363.46,-201.73 385,-176 438,-112.71 535.52,-83.27 585.94,-71.75"/>
<polygon fill="#63b8ff" stroke="#63b8ff" points="586.93,-75.11 595.95,-69.55 585.44,-68.27 586.93,-75.11"/>
</a>
</g>
</g>
<!-- Node7 -->
<g id="Node000007" class="node">
<title>Node7</title>
<g id="a_Node000007"><a xlink:href="Graph_8h.html" target="_top" xlink:title="Adjacency&#45;list directed/undirected graph with Dijkstra shortest&#45;path.">
<polygon fill="white" stroke="#666666" points="972,-140 832,-140 832,-110 972,-110 972,-140"/>
<text text-anchor="start" x="840" y="-128" font-family="Helvetica,sans-Serif" font-size="10.00">../include/data_structures</text>
<text text-anchor="middle" x="902" y="-117" font-family="Helvetica,sans-Serif" font-size="10.00">/Graph.h</text>
</a>
</g>
</g>
<!-- Node1&#45;&gt;Node7 -->
<g id="edge6_Node000001_Node000007" class="edge">
<title>Node1&#45;&gt;Node7</title>
<g id="a_edge6_Node000001_Node000007"><a xlink:title=" ">
<path fill="none" stroke="#63b8ff" d="M461.63,-358.92C545.58,-355.46 711.32,-345.08 761,-316 828.46,-276.51 873.54,-190.73 892.24,-149.31"/>
<polygon fill="#63b8ff" stroke="#63b8ff" points="895.5,-150.58 896.32,-140.02 889.09,-147.77 895.5,-150.58"/>
</a>
</g>
</g>
<!-- Node14 -->
<g id="Node000014" class="node">
<title>Node14</title>
<g id="a_Node000014"><a xlink:href="Layout_8h.html" target="_top" xlink:title=" ">
<polygon fill="white" stroke="#666666" points="207,-250 83,-250 83,-231 207,-231 207,-250"/>
<text text-anchor="middle" x="145" y="-238" font-family="Helvetica,sans-Serif" font-size="10.00">../include/gui/Layout.h</text>
</a>
</g>
</g>
<!-- Node1&#45;&gt;Node14 -->
<g id="edge16_Node000001_Node000014" class="edge">
<title>Node1&#45;&gt;Node14</title>
<g id="a_edge16_Node000001_Node000014"><a xlink:title=" ">
<path fill="none" stroke="#63b8ff" d="M362.18,-353.15C326.99,-346.64 279.46,-335.12 241,-316 221.73,-306.42 219.98,-299.22 203,-286 190.36,-276.16 176.08,-265.2 164.85,-256.62"/>
<polygon fill="#63b8ff" stroke="#63b8ff" points="166.66,-253.6 156.59,-250.32 162.42,-259.17 166.66,-253.6"/>
</a>
</g>
</g>
<!-- Node15 -->
<g id="Node000015" class="node">
<title>Node15</title>
<g id="a_Node000015"><a xlink:href="Renderer_8h.html" target="_top" xlink:title=" ">
<polygon fill="white" stroke="#666666" points="384,-310.5 250,-310.5 250,-291.5 384,-291.5 384,-310.5"/>
<text text-anchor="middle" x="317" y="-298.5" font-family="Helvetica,sans-Serif" font-size="10.00">../include/gui/Renderer.h</text>
</a>
</g>
</g>
<!-- Node1&#45;&gt;Node15 -->
<g id="edge18_Node000001_Node000015" class="edge">
<title>Node1&#45;&gt;Node15</title>
<g id="a_edge18_Node000001_Node000015"><a xlink:title=" ">
<path fill="none" stroke="#63b8ff" d="M397.98,-351.87C382.69,-342.45 357.97,-327.23 339.86,-316.08"/>
<polygon fill="#63b8ff" stroke="#63b8ff" points="341.43,-312.93 331.08,-310.67 337.75,-318.89 341.43,-312.93"/>
</a>
</g>
</g>
<!-- Node17 -->
<g id="Node000017" class="node">
<title>Node17</title>
<g id="a_Node000017"><a xlink:href="FireSimulator_8h.html" target="_top" xlink:title="Core fire&#45;evacuation simulation engine.">
<polygon fill="white" stroke="#666666" points="1055,-250 901,-250 901,-231 1055,-231 1055,-250"/>
<text text-anchor="middle" x="978" y="-238" font-family="Helvetica,sans-Serif" font-size="10.00">../simulation/FireSimulator.h</text>
</a>
</g>
</g>
<!-- Node1&#45;&gt;Node17 -->
<g id="edge53_Node000001_Node000017" class="edge">
<title>Node1&#45;&gt;Node17</title>
<g id="a_edge53_Node000001_Node000017"><a xlink:title=" ">
<path fill="none" stroke="#63b8ff" d="M461.8,-359C565.33,-355.36 800.4,-344.17 875,-316 879.7,-314.23 929.86,-277.26 958.41,-256.08"/>
<polygon fill="#63b8ff" stroke="#63b8ff" points="960.56,-258.84 966.5,-250.07 956.38,-253.22 960.56,-258.84"/>
</a>
</g>
</g>
<!-- Node21 -->
<g id="Node000021" class="node">
<title>Node21</title>
<g id="a_Node000021"><a xlink:href="SimulationController_8h.html" target="_top" xlink:title=" ">
<polygon fill="white" stroke="#666666" points="1061,-316 927,-316 927,-286 1061,-286 1061,-316"/>
<text text-anchor="start" x="935" y="-304" font-family="Helvetica,sans-Serif" font-size="10.00">../include/gui/Simulation</text>
<text text-anchor="middle" x="994" y="-293" font-family="Helvetica,sans-Serif" font-size="10.00">Controller.h</text>
</a>
</g>
</g>
<!-- Node1&#45;&gt;Node21 -->
<g id="edge37_Node000001_Node000021" class="edge">
<title>Node1&#45;&gt;Node21</title>
<g id="a_edge37_Node000001_Node000021"><a xlink:title=" ">
<path fill="none" stroke="#63b8ff" d="M461.57,-357.46C551.68,-351.63 748.27,-337.51 913,-316 914.27,-315.83 915.56,-315.66 916.85,-315.48"/>
<polygon fill="#63b8ff" stroke="#63b8ff" points="917.48,-318.93 926.88,-314.04 916.48,-312 917.48,-318.93"/>
</a>
</g>
</g>
<!-- Node22 -->
<g id="Node000022" class="node">
<title>Node22</title>
<g id="a_Node000022"><a xlink:href="JsonSceneParser_8h.html" target="_top" xlink:title="Minimal, dependency&#45;free JSON parser for evacuation scene files.">
<polygon fill="white" stroke="#666666" points="543,-250 379,-250 379,-231 543,-231 543,-250"/>
<text text-anchor="middle" x="461" y="-238" font-family="Helvetica,sans-Serif" font-size="10.00">../include/io/JsonSceneParser.h</text>
</a>
</g>
</g>
<!-- Node1&#45;&gt;Node22 -->
<g id="edge39_Node000001_Node000022" class="edge">
<title>Node1&#45;&gt;Node22</title>
<g id="a_edge39_Node000001_Node000022"><a xlink:title=" ">
<path fill="none" stroke="#63b8ff" d="M415.52,-351.94C423.43,-332.74 442.73,-285.86 453.48,-259.77"/>
<polygon fill="#63b8ff" stroke="#63b8ff" points="456.8,-260.88 457.38,-250.3 450.33,-258.22 456.8,-260.88"/>
</a>
</g>
</g>
<!-- Node25 -->
<g id="Node000025" class="node">
<title>Node25</title>
<g id="a_Node000025"><a xlink:href="SceneData_8h.html" target="_top" xlink:title="Plain data structures describing a building evacuation scene.">
<polygon fill="white" stroke="#666666" points="657,-195 579,-195 579,-176 657,-176 657,-195"/>
<text text-anchor="middle" x="618" y="-183" font-family="Helvetica,sans-Serif" font-size="10.00">SceneData.h</text>
</a>
</g>
</g>
<!-- Node1&#45;&gt;Node25 -->
<g id="edge46_Node000001_Node000025" class="edge">
<title>Node1&#45;&gt;Node25</title>
<g id="a_edge46_Node000001_Node000025"><a xlink:title=" ">
<path fill="none" stroke="#63b8ff" d="M423.56,-351.99C447.9,-333.91 506.03,-290.09 552,-250 569.67,-234.6 588.87,-215.88 601.98,-202.77"/>
<polygon fill="#63b8ff" stroke="#63b8ff" points="604.73,-204.97 609.29,-195.41 599.76,-200.04 604.73,-204.97"/>
</a>
</g>
</g>
<!-- Node26 -->
<g id="Node000026" class="node">
<title>Node26</title>
<g id="a_Node000026"><a xlink:href="SceneLoader_8h.html" target="_top" xlink:title="Builds a FireSimulator (and optional GUI Layout) from a SceneData.">
<polygon fill="white" stroke="#666666" points="752,-310.5 606,-310.5 606,-291.5 752,-291.5 752,-310.5"/>
<text text-anchor="middle" x="679" y="-298.5" font-family="Helvetica,sans-Serif" font-size="10.00">../include/io/SceneLoader.h</text>
</a>
</g>
</g>
<!-- Node1&#45;&gt;Node26 -->
<g id="edge47_Node000001_Node000026" class="edge">
<title>Node1&#45;&gt;Node26</title>
<g id="a_edge47_Node000001_Node000026"><a xlink:title=" ">
<path fill="none" stroke="#63b8ff" d="M450.82,-351.99C498.28,-341.6 578.63,-323.99 630.21,-312.69"/>
<polygon fill="#63b8ff" stroke="#63b8ff" points="631.11,-316.08 640.13,-310.52 629.61,-309.24 631.11,-316.08"/>
</a>
</g>
</g>
<!-- Node7&#45;&gt;Node6 -->
<g id="edge9_Node000007_Node000006" class="edge">
<title>Node7&#45;&gt;Node6</title>
<g id="a_edge9_Node000007_Node000006"><a xlink:title=" ">
<path fill="none" stroke="#63b8ff" d="M833.97,-109.99C775.79,-98 694.61,-81.28 650.2,-72.13"/>
<polygon fill="#63b8ff" stroke="#63b8ff" points="650.75,-68.67 640.25,-70.08 649.34,-75.53 650.75,-68.67"/>
</a>
</g>
</g>
<!-- Node8 -->
<g id="Node000008" class="node">
<title>Node8</title>
<g id="a_Node000008"><a xlink:title=" ">
<polygon fill="#e0e0e0" stroke="#999999" points="1198,-74 1154,-74 1154,-55 1198,-55 1198,-74"/>
<text text-anchor="middle" x="1176" y="-62" font-family="Helvetica,sans-Serif" font-size="10.00">limits</text>
</a>
</g>
</g>
<!-- Node7&#45;&gt;Node8 -->
<g id="edge7_Node000007_Node000008" class="edge">
<title>Node7&#45;&gt;Node8</title>
<g id="a_edge7_Node000007_Node000008"><a xlink:title=" ">
<path fill="none" stroke="#63b8ff" d="M967.63,-109.99C1023.36,-98.09 1100.94,-81.53 1143.99,-72.33"/>
<polygon fill="#63b8ff" stroke="#63b8ff" points="1144.86,-75.73 1153.9,-70.22 1143.39,-68.88 1144.86,-75.73"/>
</a>
</g>
</g>
<!-- Node9 -->
<g id="Node000009" class="node">
<title>Node9</title>
<g id="a_Node000009"><a xlink:title=" ">
<polygon fill="#e0e0e0" stroke="#999999" points="932.5,-19 867.5,-19 867.5,0 932.5,0 932.5,-19"/>
<text text-anchor="middle" x="900" y="-7" font-family="Helvetica,sans-Serif" font-size="10.00">stdexcept</text>
</a>
</g>
</g>
<!-- Node7&#45;&gt;Node9 -->
<g id="edge8_Node000007_Node000009" class="edge">
<title>Node7&#45;&gt;Node9</title>
<g id="a_edge8_Node000007_Node000009"><a xlink:title=" ">
<path fill="none" stroke="#63b8ff" d="M901.75,-109.63C901.39,-89.21 900.73,-51.81 900.33,-29.24"/>
<polygon fill="#63b8ff" stroke="#63b8ff" points="903.83,-29.17 900.15,-19.23 896.83,-29.29 903.83,-29.17"/>
</a>
</g>
</g>
<!-- Node10 -->
<g id="Node000010" class="node">
<title>Node10</title>
<g id="a_Node000010"><a xlink:href="LinkedList_8h.html" target="_top" xlink:title="Generic singly&#45;linked list with pointer&#45;based node storage.">
<polygon fill="white" stroke="#666666" points="1116,-74 1042,-74 1042,-55 1116,-55 1116,-74"/>
<text text-anchor="middle" x="1079" y="-62" font-family="Helvetica,sans-Serif" font-size="10.00">LinkedList.h</text>
</a>
</g>
</g>
<!-- Node7&#45;&gt;Node10 -->
<g id="edge10_Node000007_Node000010" class="edge">
<title>Node7&#45;&gt;Node10</title>
<g id="a_edge10_Node000007_Node000010"><a xlink:title=" ">
<path fill="none" stroke="#63b8ff" d="M944.4,-109.99C974.68,-99.98 1014.95,-86.67 1043.53,-77.22"/>
<polygon fill="#63b8ff" stroke="#63b8ff" points="1044.72,-80.52 1053.12,-74.05 1042.53,-73.87 1044.72,-80.52"/>
</a>
</g>
</g>
<!-- Node12 -->
<g id="Node000012" class="node">
<title>Node12</title>
<g id="a_Node000012"><a xlink:href="priority__queue_8h.html" target="_top" xlink:title="Pointer&#45;based binary min&#45;heap priority queue.">
<polygon fill="white" stroke="#666666" points="1024,-74 928,-74 928,-55 1024,-55 1024,-74"/>
<text text-anchor="middle" x="976" y="-62" font-family="Helvetica,sans-Serif" font-size="10.00">priority_queue.h</text>
</a>
</g>
</g>
<!-- Node7&#45;&gt;Node12 -->
<g id="edge13_Node000007_Node000012" class="edge">
<title>Node7&#45;&gt;Node12</title>
<g id="a_edge13_Node000007_Node000012"><a xlink:title=" ">
<path fill="none" stroke="#63b8ff" d="M919.91,-109.84C931.09,-101 945.48,-89.63 956.88,-80.62"/>
<polygon fill="#63b8ff" stroke="#63b8ff" points="959.24,-83.21 964.91,-74.27 954.9,-77.72 959.24,-83.21"/>
</a>
</g>
</g>
<!-- Node10&#45;&gt;Node9 -->
<g id="edge11_Node000010_Node000009" class="edge">
<title>Node10&#45;&gt;Node9</title>
<g id="a_edge11_Node000010_Node000009"><a xlink:title=" ">
<path fill="none" stroke="#63b8ff" d="M1050.24,-54.98C1020.06,-46.05 972.43,-31.94 938.9,-22.02"/>
<polygon fill="#63b8ff" stroke="#63b8ff" points="939.57,-18.57 928.98,-19.08 937.58,-25.28 939.57,-18.57"/>
</a>
</g>
</g>
<!-- Node11 -->
<g id="Node000011" class="node">
<title>Node11</title>
<g id="a_Node000011"><a xlink:href="Node_8h.html" target="_top" xlink:title="Generic singly&#45;linked node used by LinkedList and Queue.">
<polygon fill="white" stroke="#666666" points="1104.5,-19 1053.5,-19 1053.5,0 1104.5,0 1104.5,-19"/>
<text text-anchor="middle" x="1079" y="-7" font-family="Helvetica,sans-Serif" font-size="10.00">Node.h</text>
</a>
</g>
</g>
<!-- Node10&#45;&gt;Node11 -->
<g id="edge12_Node000010_Node000011" class="edge">
<title>Node10&#45;&gt;Node11</title>
<g id="a_edge12_Node000010_Node000011"><a xlink:title=" ">
<path fill="none" stroke="#63b8ff" d="M1079,-54.75C1079,-47.8 1079,-37.85 1079,-29.13"/>
<polygon fill="#63b8ff" stroke="#63b8ff" points="1082.5,-29.09 1079,-19.09 1075.5,-29.09 1082.5,-29.09"/>
</a>
</g>
</g>
<!-- Node12&#45;&gt;Node9 -->
<g id="edge15_Node000012_Node000009" class="edge">
<title>Node12&#45;&gt;Node9</title>
<g id="a_edge15_Node000012_Node000009"><a xlink:title=" ">
<path fill="none" stroke="#63b8ff" d="M963.79,-54.98C952.22,-46.92 934.62,-34.65 920.84,-25.03"/>
<polygon fill="#63b8ff" stroke="#63b8ff" points="922.64,-22.02 912.43,-19.17 918.63,-27.76 922.64,-22.02"/>
</a>
</g>
</g>
<!-- Node13 -->
<g id="Node000013" class="node">
<title>Node13</title>
<g id="a_Node000013"><a xlink:title=" ">
<polygon fill="#e0e0e0" stroke="#999999" points="1003.5,-19 950.5,-19 950.5,0 1003.5,0 1003.5,-19"/>
<text text-anchor="middle" x="977" y="-7" font-family="Helvetica,sans-Serif" font-size="10.00">cstddef</text>
</a>
</g>
</g>
<!-- Node12&#45;&gt;Node13 -->
<g id="edge14_Node000012_Node000013" class="edge">
<title>Node12&#45;&gt;Node13</title>
<g id="a_edge14_Node000012_Node000013"><a xlink:title=" ">
<path fill="none" stroke="#63b8ff" d="M976.17,-54.75C976.3,-47.8 976.48,-37.85 976.65,-29.13"/>
<polygon fill="#63b8ff" stroke="#63b8ff" points="980.15,-29.15 976.84,-19.09 973.15,-29.02 980.15,-29.15"/>
</a>
</g>
</g>
<!-- Node14&#45;&gt;Node6 -->
<g id="edge17_Node000014_Node000006" class="edge">
<title>Node14&#45;&gt;Node6</title>
<g id="a_edge17_Node000014_Node000006"><a xlink:title=" ">
<path fill="none" stroke="#63b8ff" d="M150.49,-230.97C166.41,-207.09 215.23,-139.33 275,-110 329.33,-83.33 510.78,-71.07 585.46,-67.06"/>
<polygon fill="#63b8ff" stroke="#63b8ff" points="585.87,-70.55 595.68,-66.53 585.51,-63.56 585.87,-70.55"/>
</a>
</g>
</g>
<!-- Node15&#45;&gt;Node2 -->
<g id="edge19_Node000015_Node000002" class="edge">
<title>Node15&#45;&gt;Node2</title>
<g id="a_edge19_Node000015_Node000002"><a xlink:title=" ">
<path fill="none" stroke="#63b8ff" d="M274.1,-291.49C214.33,-279.64 107.33,-258.42 54.02,-247.85"/>
<polygon fill="#63b8ff" stroke="#63b8ff" points="54.59,-244.4 44.1,-245.88 53.23,-251.26 54.59,-244.4"/>
</a>
</g>
</g>
<!-- Node15&#45;&gt;Node6 -->
<g id="edge21_Node000015_Node000006" class="edge">
<title>Node15&#45;&gt;Node6</title>
<g id="a_edge21_Node000015_Node000006"><a xlink:title=" ">
<path fill="none" stroke="#63b8ff" d="M313.32,-291.48C301.28,-262.11 266.39,-163.91 313,-110 347.96,-69.57 514.05,-65.14 585.35,-65.15"/>
<polygon fill="#63b8ff" stroke="#63b8ff" points="585.54,-68.65 595.56,-65.18 585.57,-61.65 585.54,-68.65"/>
</a>
</g>
</g>
<!-- Node15&#45;&gt;Node14 -->
<g id="edge36_Node000015_Node000014" class="edge">
<title>Node15&#45;&gt;Node14</title>
<g id="a_edge36_Node000015_Node000014"><a xlink:title=" ">
<path fill="none" stroke="#63b8ff" d="M291.99,-291.49C262.44,-281.44 213.09,-264.66 179.81,-253.34"/>
<polygon fill="#63b8ff" stroke="#63b8ff" points="180.63,-249.92 170.04,-250.02 178.38,-256.55 180.63,-249.92"/>
</a>
</g>
</g>
<!-- Node16 -->
<g id="Node000016" class="node">
<title>Node16</title>
<g id="a_Node000016"><a xlink:title=" ">
<polygon fill="#e0e0e0" stroke="#999999" points="285,-250 225,-250 225,-231 285,-231 285,-250"/>
<text text-anchor="middle" x="255" y="-238" font-family="Helvetica,sans-Serif" font-size="10.00">SDL_ttf.h</text>
</a>
</g>
</g>
<!-- Node15&#45;&gt;Node16 -->
<g id="edge20_Node000015_Node000016" class="edge">
<title>Node15&#45;&gt;Node16</title>
<g id="a_edge20_Node000015_Node000016"><a xlink:title=" ">
<path fill="none" stroke="#63b8ff" d="M307.85,-291.37C298.33,-282.38 283.2,-268.11 271.57,-257.14"/>
<polygon fill="#63b8ff" stroke="#63b8ff" points="273.86,-254.48 264.19,-250.17 269.06,-259.58 273.86,-254.48"/>
</a>
</g>
</g>
<!-- Node15&#45;&gt;Node17 -->
<g id="edge22_Node000015_Node000017" class="edge">
<title>Node15&#45;&gt;Node17</title>
<g id="a_edge22_Node000015_Node000017"><a xlink:title=" ">
<path fill="none" stroke="#63b8ff" d="M384.02,-294.07C504.37,-283.42 757.01,-261.06 890.72,-249.22"/>
<polygon fill="#63b8ff" stroke="#63b8ff" points="891.27,-252.69 900.92,-248.32 890.65,-245.72 891.27,-252.69"/>
</a>
</g>
</g>
<!-- Node20 -->
<g id="Node000020" class="node">
<title>Node20</title>
<g id="a_Node000020"><a xlink:href="SimEntities_8h.html" target="_top" xlink:title="Per&#45;tick simulation entities: CellNode, Corridor, Person, WaitingQueue.">
<polygon fill="white" stroke="#666666" points="794.5,-195 713.5,-195 713.5,-176 794.5,-176 794.5,-195"/>
<text text-anchor="middle" x="754" y="-183" font-family="Helvetica,sans-Serif" font-size="10.00">SimEntities.h</text>
</a>
</g>
</g>
<!-- Node15&#45;&gt;Node20 -->
<g id="edge35_Node000015_Node000020" class="edge">
<title>Node15&#45;&gt;Node20</title>
<g id="a_edge35_Node000015_Node000020"><a xlink:title=" ">
<path fill="none" stroke="#63b8ff" d="M363.68,-291.42C411.32,-282.35 487.25,-267.02 552,-250 611.65,-234.32 679.88,-211.91 719.82,-198.34"/>
<polygon fill="#63b8ff" stroke="#63b8ff" points="721.01,-201.63 729.34,-195.09 718.75,-195.01 721.01,-201.63"/>
</a>
</g>
</g>
<!-- Node17&#45;&gt;Node6 -->
<g id="edge23_Node000017_Node000006" class="edge">
<title>Node17&#45;&gt;Node6</title>
<g id="a_edge23_Node000017_Node000006"><a xlink:title=" ">
<path fill="none" stroke="#63b8ff" d="M962.23,-230.88C922.77,-209.41 816.34,-152.29 725,-110 699.83,-98.34 670.73,-86.34 649.24,-77.73"/>
<polygon fill="#63b8ff" stroke="#63b8ff" points="650.53,-74.48 639.94,-74.04 647.94,-80.98 650.53,-74.48"/>
</a>
</g>
</g>
<!-- Node17&#45;&gt;Node7 -->
<g id="edge30_Node000017_Node000007" class="edge">
<title>Node17&#45;&gt;Node7</title>
<g id="a_edge30_Node000017_Node000007"><a xlink:title=" ">
<path fill="none" stroke="#63b8ff" d="M972.29,-230.97C960.73,-213.7 934.22,-174.12 917.27,-148.8"/>
<polygon fill="#63b8ff" stroke="#63b8ff" points="919.97,-146.54 911.5,-140.18 914.15,-150.44 919.97,-146.54"/>
</a>
</g>
</g>
<!-- Node17&#45;&gt;Node8 -->
<g id="edge24_Node000017_Node000008" class="edge">
<title>Node17&#45;&gt;Node8</title>
<g id="a_edge24_Node000017_Node000008"><a xlink:title=" ">
<path fill="none" stroke="#63b8ff" d="M1028.71,-230.97C1056.18,-224.5 1089.6,-213.44 1115,-195 1151.93,-168.19 1167.26,-113.21 1172.98,-84.27"/>
<polygon fill="#63b8ff" stroke="#63b8ff" points="1176.46,-84.71 1174.78,-74.25 1169.57,-83.47 1176.46,-84.71"/>
</a>
</g>
</g>
<!-- Node17&#45;&gt;Node10 -->
<g id="edge26_Node000017_Node000010" class="edge">
<title>Node17&#45;&gt;Node10</title>
<g id="a_edge26_Node000017_Node000010"><a xlink:title=" ">
<path fill="none" stroke="#63b8ff" d="M1010.95,-230.95C1050.72,-218.56 1115.22,-191.27 1139,-140 1144.61,-127.9 1144.99,-121.91 1139,-110 1132.31,-96.71 1119.56,-86.39 1107.53,-79.05"/>
<polygon fill="#63b8ff" stroke="#63b8ff" points="1109.01,-75.87 1098.58,-74.02 1105.58,-81.97 1109.01,-75.87"/>
</a>
</g>
</g>
<!-- Node17&#45;&gt;Node12 -->
<g id="edge29_Node000017_Node000012" class="edge">
<title>Node17&#45;&gt;Node12</title>
<g id="a_edge29_Node000017_Node000012"><a xlink:title=" ">
<path fill="none" stroke="#63b8ff" d="M990.78,-231C1001.39,-223.1 1015.72,-210.27 1022,-195 1025.21,-187.19 1023.65,-184.28 1022,-176 1015.07,-141.35 997.05,-103.97 985.73,-82.78"/>
<polygon fill="#63b8ff" stroke="#63b8ff" points="988.8,-81.1 980.93,-74.01 982.66,-84.46 988.8,-81.1"/>
</a>
</g>
</g>
<!-- Node18 -->
<g id="Node000018" class="node">
<title>Node18</title>
<g id="a_Node000018"><a xlink:title=" ">
<polygon fill="#e0e0e0" stroke="#999999" points="1012.5,-195 965.5,-195 965.5,-176 1012.5,-176 1012.5,-195"/>
<text text-anchor="middle" x="989" y="-183" font-family="Helvetica,sans-Serif" font-size="10.00">cmath</text>
</a>
</g>
</g>
<!-- Node17&#45;&gt;Node18 -->
<g id="edge25_Node000017_Node000018" class="edge">
<title>Node17&#45;&gt;Node18</title>
<g id="a_edge25_Node000017_Node000018"><a xlink:title=" ">
<path fill="none" stroke="#63b8ff" d="M979.82,-230.75C981.26,-223.8 983.32,-213.85 985.13,-205.13"/>
<polygon fill="#63b8ff" stroke="#63b8ff" points="988.61,-205.59 987.22,-195.09 981.76,-204.17 988.61,-205.59"/>
</a>
</g>
</g>
<!-- Node19 -->
<g id="Node000019" class="node">
<title>Node19</title>
<g id="a_Node000019"><a xlink:href="Queue_8h.html" target="_top" xlink:title="Generic FIFO queue built on LinkedList.">
<polygon fill="white" stroke="#666666" points="1129.5,-140 1028.5,-140 1028.5,-110 1129.5,-110 1129.5,-140"/>
<text text-anchor="start" x="1036.5" y="-128" font-family="Helvetica,sans-Serif" font-size="10.00">../data_structures</text>
<text text-anchor="middle" x="1079" y="-117" font-family="Helvetica,sans-Serif" font-size="10.00">/Queue.h</text>
</a>
</g>
</g>
<!-- Node17&#45;&gt;Node19 -->
<g id="edge27_Node000017_Node000019" class="edge">
<title>Node17&#45;&gt;Node19</title>
<g id="a_edge27_Node000017_Node000019"><a xlink:title=" ">
<path fill="none" stroke="#63b8ff" d="M1001.9,-230.94C1018.87,-223.74 1041.03,-211.9 1055,-195 1065.56,-182.22 1071.59,-164.51 1074.97,-150.23"/>
<polygon fill="#63b8ff" stroke="#63b8ff" points="1078.46,-150.62 1077.06,-140.12 1071.61,-149.2 1078.46,-150.62"/>
</a>
</g>
</g>
<!-- Node17&#45;&gt;Node20 -->
<g id="edge31_Node000017_Node000020" class="edge">
<title>Node17&#45;&gt;Node20</title>
<g id="a_edge31_Node000017_Node000020"><a xlink:title=" ">
<path fill="none" stroke="#63b8ff" d="M942.01,-230.98C903.51,-221.87 842.31,-207.4 800.26,-197.45"/>
<polygon fill="#63b8ff" stroke="#63b8ff" points="800.81,-193.98 790.27,-195.08 799.2,-200.79 800.81,-193.98"/>
</a>
</g>
</g>
<!-- Node19&#45;&gt;Node10 -->
<g id="edge28_Node000019_Node000010" class="edge">
<title>Node19&#45;&gt;Node10</title>
<g id="a_edge28_Node000019_Node000010"><a xlink:title=" ">
<path fill="none" stroke="#63b8ff" d="M1079,-109.84C1079,-102.21 1079,-92.7 1079,-84.45"/>
<polygon fill="#63b8ff" stroke="#63b8ff" points="1082.5,-84.27 1079,-74.27 1075.5,-84.27 1082.5,-84.27"/>
</a>
</g>
</g>
<!-- Node20&#45;&gt;Node6 -->
<g id="edge32_Node000020_Node000006" class="edge">
<title>Node20&#45;&gt;Node6</title>
<g id="a_edge32_Node000020_Node000006"><a xlink:title=" ">
<path fill="none" stroke="#63b8ff" d="M749.24,-175.73C740.75,-160.75 721.75,-129.9 699,-110 684.1,-96.97 664.74,-86.16 648.69,-78.46"/>
<polygon fill="#63b8ff" stroke="#63b8ff" points="649.74,-75.09 639.19,-74.07 646.8,-81.44 649.74,-75.09"/>
</a>
</g>
</g>
<!-- Node20&#45;&gt;Node7 -->
<g id="edge34_Node000020_Node000007" class="edge">
<title>Node20&#45;&gt;Node7</title>
<g id="a_edge34_Node000020_Node000007"><a xlink:title=" ">
<path fill="none" stroke="#63b8ff" d="M775.52,-175.99C796.73,-167.61 829.78,-154.55 856.78,-143.87"/>
<polygon fill="#63b8ff" stroke="#63b8ff" points="858.41,-147 866.42,-140.06 855.83,-140.49 858.41,-147"/>
</a>
</g>
</g>
<!-- Node20&#45;&gt;Node19 -->
<g id="edge33_Node000020_Node000019" class="edge">
<title>Node20&#45;&gt;Node19</title>
<g id="a_edge33_Node000020_Node000019"><a xlink:title=" ">
<path fill="none" stroke="#63b8ff" d="M794.5,-177.21C850.71,-167.09 952.81,-148.71 1018.19,-136.95"/>
<polygon fill="#63b8ff" stroke="#63b8ff" points="1019.14,-140.33 1028.36,-135.12 1017.9,-133.44 1019.14,-140.33"/>
</a>
</g>
</g>
<!-- Node21&#45;&gt;Node17 -->
<g id="edge38_Node000021_Node000017" class="edge">
<title>Node21&#45;&gt;Node17</title>
<g id="a_edge38_Node000021_Node000017"><a xlink:title=" ">
<path fill="none" stroke="#63b8ff" d="M990.13,-285.84C988.02,-278.13 985.38,-268.49 983.11,-260.17"/>
<polygon fill="#63b8ff" stroke="#63b8ff" points="986.41,-258.99 980.4,-250.27 979.66,-260.84 986.41,-258.99"/>
</a>
</g>
</g>
<!-- Node22&#45;&gt;Node6 -->
<g id="edge43_Node000022_Node000006" class="edge">
<title>Node22&#45;&gt;Node6</title>
<g id="a_edge43_Node000022_Node000006"><a xlink:title=" ">
<path fill="none" stroke="#63b8ff" d="M479.09,-230.92C494.39,-223.05 516.26,-210.33 532,-195 566.99,-160.92 595.49,-110.31 609.19,-83.57"/>
<polygon fill="#63b8ff" stroke="#63b8ff" points="612.49,-84.78 613.84,-74.27 606.23,-81.65 612.49,-84.78"/>
</a>
</g>
</g>
<!-- Node22&#45;&gt;Node9 -->
<g id="edge42_Node000022_Node000009" class="edge">
<title>Node22&#45;&gt;Node9</title>
<g id="a_edge42_Node000022_Node000009"><a xlink:title=" ">
<path fill="none" stroke="#63b8ff" d="M434.7,-230.87C407.5,-220.39 370.84,-200.98 385,-176 436.6,-84.95 488.35,-89.95 587,-55 679.68,-22.17 795.91,-13.5 857.36,-11.25"/>
<polygon fill="#63b8ff" stroke="#63b8ff" points="857.58,-14.74 867.46,-10.92 857.35,-7.75 857.58,-14.74"/>
</a>
</g>
</g>
<!-- Node23 -->
<g id="Node000023" class="node">
<title>Node23</title>
<g id="a_Node000023"><a xlink:title=" ">
<polygon fill="#e0e0e0" stroke="#999999" points="448.5,-195 393.5,-195 393.5,-176 448.5,-176 448.5,-195"/>
<text text-anchor="middle" x="421" y="-183" font-family="Helvetica,sans-Serif" font-size="10.00">fstream</text>
</a>
</g>
</g>
<!-- Node22&#45;&gt;Node23 -->
<g id="edge40_Node000022_Node000023" class="edge">
<title>Node22&#45;&gt;Node23</title>
<g id="a_edge40_Node000022_Node000023"><a xlink:title=" ">
<path fill="none" stroke="#63b8ff" d="M454.39,-230.75C448.74,-223.26 440.46,-212.28 433.55,-203.13"/>
<polygon fill="#63b8ff" stroke="#63b8ff" points="436.3,-200.96 427.48,-195.09 430.71,-205.18 436.3,-200.96"/>
</a>
</g>
</g>
<!-- Node24 -->
<g id="Node000024" class="node">
<title>Node24</title>
<g id="a_Node000024"><a xlink:title=" ">
<polygon fill="#e0e0e0" stroke="#999999" points="523,-195 467,-195 467,-176 523,-176 523,-195"/>
<text text-anchor="middle" x="495" y="-183" font-family="Helvetica,sans-Serif" font-size="10.00">sstream</text>
</a>
</g>
</g>
<!-- Node22&#45;&gt;Node24 -->
<g id="edge41_Node000022_Node000024" class="edge">
<title>Node22&#45;&gt;Node24</title>
<g id="a_edge41_Node000022_Node000024"><a xlink:title=" ">
<path fill="none" stroke="#63b8ff" d="M466.61,-230.75C471.32,-223.42 478.17,-212.73 483.97,-203.7"/>
<polygon fill="#63b8ff" stroke="#63b8ff" points="487.04,-205.4 489.49,-195.09 481.14,-201.62 487.04,-205.4"/>
</a>
</g>
</g>
<!-- Node22&#45;&gt;Node25 -->
<g id="edge44_Node000022_Node000025" class="edge">
<title>Node22&#45;&gt;Node25</title>
<g id="a_edge44_Node000022_Node000025"><a xlink:title=" ">
<path fill="none" stroke="#63b8ff" d="M486.22,-230.98C512.36,-222.16 553.4,-208.31 582.73,-198.41"/>
<polygon fill="#63b8ff" stroke="#63b8ff" points="584.22,-201.6 592.58,-195.08 581.98,-194.96 584.22,-201.6"/>
</a>
</g>
</g>
<!-- Node25&#45;&gt;Node6 -->
<g id="edge45_Node000025_Node000006" class="edge">
<title>Node25&#45;&gt;Node6</title>
<g id="a_edge45_Node000025_Node000006"><a xlink:title=" ">
<path fill="none" stroke="#63b8ff" d="M618,-175.94C618,-156.91 618,-110.69 618,-84.47"/>
<polygon fill="#63b8ff" stroke="#63b8ff" points="621.5,-84.3 618,-74.3 614.5,-84.3 621.5,-84.3"/>
</a>
</g>
</g>
<!-- Node26&#45;&gt;Node6 -->
<g id="edge48_Node000026_Node000006" class="edge">
<title>Node26&#45;&gt;Node6</title>
<g id="a_edge48_Node000026_Node000006"><a xlink:title=" ">
<path fill="none" stroke="#63b8ff" d="M678.99,-291.42C678.78,-271.04 677.12,-218.29 666,-176 656.95,-141.6 638.74,-104.14 627.54,-82.87"/>
<polygon fill="#63b8ff" stroke="#63b8ff" points="630.62,-81.21 622.8,-74.05 624.45,-84.52 630.62,-81.21"/>
</a>
</g>
</g>
<!-- Node26&#45;&gt;Node7 -->
<g id="edge49_Node000026_Node000007" class="edge">
<title>Node26&#45;&gt;Node7</title>
<g id="a_edge49_Node000026_Node000007"><a xlink:title=" ">
<path fill="none" stroke="#63b8ff" d="M690.06,-291.37C723.95,-264.92 827.05,-184.48 875.86,-146.4"/>
<polygon fill="#63b8ff" stroke="#63b8ff" points="878.03,-149.15 883.76,-140.23 873.72,-143.63 878.03,-149.15"/>
</a>
</g>
</g>
<!-- Node26&#45;&gt;Node17 -->
<g id="edge50_Node000026_Node000017" class="edge">
<title>Node26&#45;&gt;Node17</title>
<g id="a_edge50_Node000026_Node000017"><a xlink:title=" ">
<path fill="none" stroke="#63b8ff" d="M722.48,-291.49C775.95,-281.03 866.72,-263.27 924.45,-251.98"/>
<polygon fill="#63b8ff" stroke="#63b8ff" points="925.33,-255.37 934.47,-250.02 923.98,-248.5 925.33,-255.37"/>
</a>
</g>
</g>
<!-- Node26&#45;&gt;Node22 -->
<g id="edge51_Node000026_Node000022" class="edge">
<title>Node26&#45;&gt;Node22</title>
<g id="a_edge51_Node000026_Node000022"><a xlink:title=" ">
<path fill="none" stroke="#63b8ff" d="M647.3,-291.49C609.04,-281.23 544.59,-263.93 502.42,-252.62"/>
<polygon fill="#63b8ff" stroke="#63b8ff" points="503.3,-249.23 492.74,-250.02 501.49,-255.99 503.3,-249.23"/>
</a>
</g>
</g>
<!-- Node26&#45;&gt;Node25 -->
<g id="edge52_Node000026_Node000025" class="edge">
<title>Node26&#45;&gt;Node25</title>
<g id="a_edge52_Node000026_Node000025"><a xlink:title=" ">
<path fill="none" stroke="#63b8ff" d="M674.42,-291.47C664.48,-272.98 640.79,-228.9 627.48,-204.14"/>
<polygon fill="#63b8ff" stroke="#63b8ff" points="630.46,-202.28 622.64,-195.13 624.29,-205.6 630.46,-202.28"/>
</a>
</g>
</g>
</g>
</svg>

<g id="navigator" transform="translate(0 0)" fill="#404254">
  <rect fill="#f2f5e9" fill-opacity="0.5" stroke="#606060" stroke-width=".5" x="0" y="0" width="60" height="60"/>
  <use id="zoomplus" xlink:href="#zoomPlus" x="17" y="9" onmousedown="handleZoom(evt,'in')"/>
  <use id="zoomminus" xlink:href="#zoomMin" x="42" y="9" onmousedown="handleZoom(evt,'out')"/>
  <use id="reset" xlink:href="#resetDef" x="30" y="36" onmousedown="handleReset()"/>
   <use id="arrowup" xlink:href="#arrowUp" x="0" y="0" onmousedown="handlePan(0,-1)"/>
  <use id="arrowright" xlink:href="#arrowRight" x="0" y="0" onmousedown="handlePan(1,0)"/>
  <use id="arrowdown" xlink:href="#arrowDown" x="0" y="0" onmousedown="handlePan(0,1)"/>
  <use id="arrowleft" xlink:href="#arrowLeft" x="0" y="0" onmousedown="handlePan(-1,0)"/>
</g>
<svg viewBox="0 0 15 15" width="100%" height="30px" preserveAspectRatio="xMaxYMin meet">
 <g id="arrow_out" transform="scale(0.3 0.3)">
  <a xlink:href="main__gui_8cpp__incl_org.svg" target="_base">
   <rect id="button" ry="5" rx="5" y="6" x="6" height="38" width="38"
        fill="#f2f5e9" fill-opacity="0.5" stroke="#606060" stroke-width="1.0"/>
   <path id="arrow"
     d="M 11.500037,31.436501 C 11.940474,20.09759 22.043105,11.32322 32.158766,21.979434 L 37.068811,17.246167 C 37.068811,17.246167 37.088388,32 37.088388,32 L 22.160133,31.978069 C 22.160133,31.978069 26.997745,27.140456 26.997745,27.140456 C 18.528582,18.264221 13.291696,25.230495 11.500037,31.436501 z"
     style="fill:#404040;"/>
  </a>
 </g>
</svg>

<style type='text/css'>
<![CDATA[
[data-mouse-over-selected='false'] { opacity: 0.7; }
[data-mouse-over-selected='true']  { opacity: 1.0; }
]]>
</style>
<script type="application/ecmascript"><![CDATA[
document.addEventListener('DOMContentLoaded', (event) => {
  highlightEdges();
  highlightAdjacentNodes();
});
]]></script>
</svg>
