<?xml version="1.0" encoding="UTF-8" standalone="no"?>
<!DOCTYPE svg PUBLIC "-//W3C//DTD SVG 1.1//EN"
 "http://www.w3.org/Graphics/SVG/1.1/DTD/svg11.dtd">
<!-- Generated by graphviz version 2.43.0 (0)
 -->
<!-- Title: include/data_structures/Node.h Pages: 1 -->
<svg width="1080pt" height="434pt"
 viewBox="0.00 0.00 1080.18 434.00" xmlns="http://www.w3.org/2000/svg" xmlns:xlink="http://www.w3.org/1999/xlink">
<g id="graph0" class="graph" transform="scale(1 1) rotate(0) translate(4 430)">
<title>include/data_structures/Node.h</title>
<!-- Node1 -->
<g id="Node000001" class="node">
<title>Node1</title>
<g id="a_Node000001"><a xlink:title="Generic singly&#45;linked node used by LinkedList and Queue.">
<polygon fill="#999999" stroke="#666666" points="795.68,-426 664.68,-426 664.68,-396 795.68,-396 795.68,-426"/>
<text text-anchor="start" x="672.68" y="-414" font-family="Helvetica,sans-Serif" font-size="10.00">include/data_structures</text>
<text text-anchor="middle" x="730.18" y="-403" font-family="Helvetica,sans-Serif" font-size="10.00">/Node.h</text>
</a>
</g>
</g>
<!-- Node2 -->
<g id="Node000002" class="node">
<title>Node2</title>
<g id="a_Node000002"><a xlink:href="LinkedList_8h.html" target="_top" xlink:title="Generic singly&#45;linked list with pointer&#45;based node storage.">
<polygon fill="white" stroke="#666666" points="795.68,-360 664.68,-360 664.68,-330 795.68,-330 795.68,-360"/>
<text text-anchor="start" x="672.68" y="-348" font-family="Helvetica,sans-Serif" font-size="10.00">include/data_structures</text>
<text text-anchor="middle" x="730.18" y="-337" font-family="Helvetica,sans-Serif" font-size="10.00">/LinkedList.h</text>
</a>
</g>
</g>
<!-- Node1&#45;&gt;Node2 -->
<g id="edge1_Node000001_Node000002" class="edge">
<title>Node1&#45;&gt;Node2</title>
<g id="a_edge1_Node000001_Node000002"><a xlink:title=" ">
<path fill="none" stroke="#63b8ff" d="M730.18,-385.54C730.18,-376.96 730.18,-367.61 730.18,-360.16"/>
<polygon fill="#63b8ff" stroke="#63b8ff" points="726.68,-385.8 730.18,-395.8 733.68,-385.8 726.68,-385.8"/>
</a>
</g>
</g>
<!-- Node3 -->
<g id="Node000003" class="node">
<title>Node3</title>
<g id="a_Node000003"><a xlink:href="Graph_8h.html" target="_top" xlink:title="Adjacency&#45;list directed/undirected graph with Dijkstra shortest&#45;path.">
<polygon fill="white" stroke="#666666" points="495.68,-294 364.68,-294 364.68,-264 495.68,-264 495.68,-294"/>
<text text-anchor="start" x="372.68" y="-282" font-family="Helvetica,sans-Serif" font-size="10.00">include/data_structures</text>
<text text-anchor="middle" x="430.18" y="-271" font-family="Helvetica,sans-Serif" font-size="10.00">/Graph.h</text>
</a>
</g>
</g>
<!-- Node2&#45;&gt;Node3 -->
<g id="edge2_Node000002_Node000003" class="edge">
<title>Node2&#45;&gt;Node3</title>
<g id="a_edge2_Node000002_Node000003"><a xlink:title=" ">
<path fill="none" stroke="#63b8ff" d="M654.45,-327.84C605.58,-317.42 542.63,-303.99 495.87,-294.01"/>
<polygon fill="#63b8ff" stroke="#63b8ff" points="653.84,-331.29 664.35,-329.95 655.3,-324.45 653.84,-331.29"/>
</a>
</g>
</g>
<!-- Node8 -->
<g id="Node000008" class="node">
<title>Node8</title>
<g id="a_Node000008"><a xlink:href="FireSimulator_8h.html" target="_top" xlink:title="Core fire&#45;evacuation simulation engine.">
<polygon fill="white" stroke="#666666" points="625.68,-162 518.68,-162 518.68,-132 625.68,-132 625.68,-162"/>
<text text-anchor="start" x="526.68" y="-150" font-family="Helvetica,sans-Serif" font-size="10.00">include/simulation</text>
<text text-anchor="middle" x="572.18" y="-139" font-family="Helvetica,sans-Serif" font-size="10.00">/FireSimulator.h</text>
</a>
</g>
</g>
<!-- Node2&#45;&gt;Node8 -->
<g id="edge37_Node000002_Node000008" class="edge">
<title>Node2&#45;&gt;Node8</title>
<g id="a_edge37_Node000002_Node000008"><a xlink:title=" ">
<path fill="none" stroke="#63b8ff" d="M694.51,-324.54C681.44,-316.27 667.17,-305.81 656.18,-294 617.54,-252.46 589.23,-190.04 577.78,-162.23"/>
<polygon fill="#63b8ff" stroke="#63b8ff" points="692.96,-327.69 703.32,-329.9 696.6,-321.71 692.96,-327.69"/>
</a>
</g>
</g>
<!-- Node11 -->
<g id="Node000011" class="node">
<title>Node11</title>
<g id="a_Node000011"><a xlink:href="test__boundary_8cpp.html" target="_top" xlink:title="Edge&#45;case and boundary tests for all custom data structures and the simulator.">
<polygon fill="white" stroke="#666666" points="926.18,-96 804.18,-96 804.18,-66 926.18,-66 926.18,-96"/>
<text text-anchor="start" x="812.18" y="-84" font-family="Helvetica,sans-Serif" font-size="10.00">tests/edge_cases/test</text>
<text text-anchor="middle" x="865.18" y="-73" font-family="Helvetica,sans-Serif" font-size="10.00">_boundary.cpp</text>
</a>
</g>
</g>
<!-- Node2&#45;&gt;Node11 -->
<g id="edge38_Node000002_Node000011" class="edge">
<title>Node2&#45;&gt;Node11</title>
<g id="a_edge38_Node000002_Node000011"><a xlink:title=" ">
<path fill="none" stroke="#63b8ff" d="M779.37,-325.97C819.95,-308.09 874.56,-276.3 898.18,-228 916.94,-189.64 915.56,-172.56 902.18,-132 897.72,-118.46 888.02,-105.59 879.67,-96.3"/>
<polygon fill="#63b8ff" stroke="#63b8ff" points="777.99,-322.76 770.16,-329.9 780.73,-329.2 777.99,-322.76"/>
</a>
</g>
</g>
<!-- Node12 -->
<g id="Node000012" class="node">
<title>Node12</title>
<g id="a_Node000012"><a xlink:href="test__performance_8cpp.html" target="_top" xlink:title="Performance benchmarks for the custom data structures and simulation engine.">
<polygon fill="white" stroke="#666666" points="1072.18,-96 944.18,-96 944.18,-66 1072.18,-66 1072.18,-96"/>
<text text-anchor="start" x="952.18" y="-84" font-family="Helvetica,sans-Serif" font-size="10.00">tests/performance/test</text>
<text text-anchor="middle" x="1008.18" y="-73" font-family="Helvetica,sans-Serif" font-size="10.00">_performance.cpp</text>
</a>
</g>
</g>
<!-- Node2&#45;&gt;Node12 -->
<g id="edge39_Node000002_Node000012" class="edge">
<title>Node2&#45;&gt;Node12</title>
<g id="a_edge39_Node000002_Node000012"><a xlink:title=" ">
<path fill="none" stroke="#63b8ff" d="M798.61,-326.84C822.19,-319.05 847.97,-308.3 869.18,-294 934.18,-250.17 948.97,-231 986.18,-162 997.74,-140.57 1003.63,-112.57 1006.29,-96.02"/>
<polygon fill="#63b8ff" stroke="#63b8ff" points="797.48,-323.53 789.01,-329.9 799.6,-330.2 797.48,-323.53"/>
</a>
</g>
</g>
<!-- Node13 -->
<g id="Node000013" class="node">
<title>Node13</title>
<g id="a_Node000013"><a xlink:href="test__fire__simulator_8cpp.html" target="_top" xlink:title=" ">
<polygon fill="white" stroke="#666666" points="133.68,-96 28.68,-96 28.68,-66 133.68,-66 133.68,-96"/>
<text text-anchor="start" x="36.68" y="-84" font-family="Helvetica,sans-Serif" font-size="10.00">tests/unit/test_fire</text>
<text text-anchor="middle" x="81.18" y="-73" font-family="Helvetica,sans-Serif" font-size="10.00">_simulator.cpp</text>
</a>
</g>
</g>
<!-- Node2&#45;&gt;Node13 -->
<g id="edge41_Node000002_Node000013" class="edge">
<title>Node2&#45;&gt;Node13</title>
<g id="a_edge41_Node000002_Node000013"><a xlink:title=" ">
<path fill="none" stroke="#63b8ff" d="M654.14,-343.11C545.21,-338.53 342.03,-317.49 198.18,-228 160.2,-204.37 149.78,-197.21 122.18,-162 105.91,-141.24 93.26,-113.02 86.53,-96.25"/>
<polygon fill="#63b8ff" stroke="#63b8ff" points="654.26,-346.61 664.38,-343.5 654.52,-339.62 654.26,-346.61"/>
</a>
</g>
</g>
<!-- Node16 -->
<g id="Node000016" class="node">
<title>Node16</title>
<g id="a_Node000016"><a xlink:href="test__data__structures_8cpp.html" target="_top" xlink:title=" ">
<polygon fill="white" stroke="#666666" points="869.68,-228 758.68,-228 758.68,-198 869.68,-198 869.68,-228"/>
<text text-anchor="start" x="766.68" y="-216" font-family="Helvetica,sans-Serif" font-size="10.00">tests/unit/test_data</text>
<text text-anchor="middle" x="814.18" y="-205" font-family="Helvetica,sans-Serif" font-size="10.00">_structures.cpp</text>
</a>
</g>
</g>
<!-- Node2&#45;&gt;Node16 -->
<g id="edge40_Node000002_Node000016" class="edge">
<title>Node2&#45;&gt;Node16</title>
<g id="a_edge40_Node000002_Node000016"><a xlink:title=" ">
<path fill="none" stroke="#63b8ff" d="M772.7,-324.6C785.13,-316.84 797.45,-306.69 805.18,-294 817.55,-273.71 817.46,-245.09 816,-228.15"/>
<polygon fill="#63b8ff" stroke="#63b8ff" points="770.59,-321.78 763.69,-329.82 774.1,-327.83 770.59,-321.78"/>
</a>
</g>
</g>
<!-- Node17 -->
<g id="Node000017" class="node">
<title>Node17</title>
<g id="a_Node000017"><a xlink:href="Queue_8h.html" target="_top" xlink:title="Generic FIFO queue built on LinkedList.">
<polygon fill="white" stroke="#666666" points="795.68,-294 664.68,-294 664.68,-264 795.68,-264 795.68,-294"/>
<text text-anchor="start" x="672.68" y="-282" font-family="Helvetica,sans-Serif" font-size="10.00">include/data_structures</text>
<text text-anchor="middle" x="730.18" y="-271" font-family="Helvetica,sans-Serif" font-size="10.00">/Queue.h</text>
</a>
</g>
</g>
<!-- Node2&#45;&gt;Node17 -->
<g id="edge31_Node000002_Node000017" class="edge">
<title>Node2&#45;&gt;Node17</title>
<g id="a_edge31_Node000002_Node000017"><a xlink:title=" ">
<path fill="none" stroke="#63b8ff" d="M730.18,-319.54C730.18,-310.96 730.18,-301.61 730.18,-294.16"/>
<polygon fill="#63b8ff" stroke="#63b8ff" points="726.68,-319.8 730.18,-329.8 733.68,-319.8 726.68,-319.8"/>
</a>
</g>
</g>
<!-- Node4 -->
<g id="Node000004" class="node">
<title>Node4</title>
<g id="a_Node000004"><a xlink:href="SceneLoader_8h.html" target="_top" xlink:title="Builds a FireSimulator (and optional GUI Layout) from a SceneData.">
<polygon fill="white" stroke="#666666" points="327.68,-90.5 190.68,-90.5 190.68,-71.5 327.68,-71.5 327.68,-90.5"/>
<text text-anchor="middle" x="259.18" y="-78.5" font-family="Helvetica,sans-Serif" font-size="10.00">include/io/SceneLoader.h</text>
</a>
</g>
</g>
<!-- Node3&#45;&gt;Node4 -->
<g id="edge3_Node000003_Node000004" class="edge">
<title>Node3&#45;&gt;Node4</title>
<g id="a_edge3_Node000003_Node000004"><a xlink:title=" ">
<path fill="none" stroke="#63b8ff" d="M354.13,-274.5C320.82,-268.75 284.53,-255.87 263.18,-228 230.96,-185.93 248.68,-115.24 256.28,-90.7"/>
<polygon fill="#63b8ff" stroke="#63b8ff" points="353.94,-278.01 364.35,-276.07 354.99,-271.09 353.94,-278.01"/>
</a>
</g>
</g>
<!-- Node5 -->
<g id="Node000005" class="node">
<title>Node5</title>
<g id="a_Node000005"><a xlink:href="main__gui_8cpp.html" target="_top" xlink:title="SDL2 graphical frontend for the Fire Evacuation simulator.">
<polygon fill="white" stroke="#666666" points="534.68,-24.5 435.68,-24.5 435.68,-5.5 534.68,-5.5 534.68,-24.5"/>
<text text-anchor="middle" x="485.18" y="-12.5" font-family="Helvetica,sans-Serif" font-size="10.00">src/main_gui.cpp</text>
</a>
</g>
</g>
<!-- Node3&#45;&gt;Node5 -->
<g id="edge23_Node000003_Node000005" class="edge">
<title>Node3&#45;&gt;Node5</title>
<g id="a_edge23_Node000003_Node000005"><a xlink:title=" ">
<path fill="none" stroke="#63b8ff" d="M354.69,-266.82C332.13,-259.57 309.81,-247.63 296.18,-228 288.58,-217.05 291.43,-210.46 296.18,-198 329.41,-110.97 430.16,-46.85 469.35,-24.57"/>
<polygon fill="#63b8ff" stroke="#63b8ff" points="353.76,-270.2 364.34,-269.65 355.73,-263.48 353.76,-270.2"/>
</a>
</g>
</g>
<!-- Node6 -->
<g id="Node000006" class="node">
<title>Node6</title>
<g id="a_Node000006"><a xlink:href="sim__demo_8cpp.html" target="_top" xlink:title="Command&#45;line entry point for the Fire Evacuation simulator.">
<polygon fill="white" stroke="#666666" points="197.68,-24.5 92.68,-24.5 92.68,-5.5 197.68,-5.5 197.68,-24.5"/>
<text text-anchor="middle" x="145.18" y="-12.5" font-family="Helvetica,sans-Serif" font-size="10.00">src/sim_demo.cpp</text>
</a>
</g>
</g>
<!-- Node3&#45;&gt;Node6 -->
<g id="edge24_Node000003_Node000006" class="edge">
<title>Node3&#45;&gt;Node6</title>
<g id="a_edge24_Node000003_Node000006"><a xlink:title=" ">
<path fill="none" stroke="#63b8ff" d="M354.56,-276.63C290,-272.96 196,-261.6 121.18,-228 78.82,-208.98 68.54,-198.77 40.18,-162 12.89,-126.6 -15.35,-102.69 10.18,-66 28.67,-39.43 63,-26.95 92.41,-21.1"/>
<polygon fill="#63b8ff" stroke="#63b8ff" points="354.49,-280.13 364.66,-277.15 354.86,-273.14 354.49,-280.13"/>
</a>
</g>
</g>
<!-- Node7 -->
<g id="Node000007" class="node">
<title>Node7</title>
<g id="a_Node000007"><a xlink:href="test__scene__io_8cpp.html" target="_top" xlink:title="Unit and integration tests for the data/ input pipeline.">
<polygon fill="white" stroke="#666666" points="334.68,-30 215.68,-30 215.68,0 334.68,0 334.68,-30"/>
<text text-anchor="start" x="223.68" y="-18" font-family="Helvetica,sans-Serif" font-size="10.00">tests/integration/test</text>
<text text-anchor="middle" x="275.18" y="-7" font-family="Helvetica,sans-Serif" font-size="10.00">_scene_io.cpp</text>
</a>
</g>
</g>
<!-- Node3&#45;&gt;Node7 -->
<g id="edge27_Node000003_Node000007" class="edge">
<title>Node3&#45;&gt;Node7</title>
<g id="a_edge27_Node000003_Node000007"><a xlink:title=" ">
<path fill="none" stroke="#63b8ff" d="M354.17,-271.86C253.47,-258.96 81.34,-219.07 19.18,-96 13.17,-84.1 10.69,-76.28 19.18,-66 46.13,-33.37 164.67,-38.21 206.18,-30 209.18,-29.41 212.25,-28.8 215.35,-28.18"/>
<polygon fill="#63b8ff" stroke="#63b8ff" points="353.93,-275.35 364.28,-273.09 354.78,-268.4 353.93,-275.35"/>
</a>
</g>
</g>
<!-- Node3&#45;&gt;Node8 -->
<g id="edge7_Node000003_Node000008" class="edge">
<title>Node3&#45;&gt;Node8</title>
<g id="a_edge7_Node000003_Node000008"><a xlink:title=" ">
<path fill="none" stroke="#63b8ff" d="M505.54,-263.33C525.68,-255.91 545.61,-244.75 559.18,-228 574.42,-209.2 575.05,-179.55 573.82,-162.11"/>
<polygon fill="#63b8ff" stroke="#63b8ff" points="504.32,-260.04 495.98,-266.58 506.57,-266.67 504.32,-260.04"/>
</a>
</g>
</g>
<!-- Node3&#45;&gt;Node11 -->
<g id="edge25_Node000003_Node000011" class="edge">
<title>Node3&#45;&gt;Node11</title>
<g id="a_edge25_Node000003_Node000011"><a xlink:title=" ">
<path fill="none" stroke="#63b8ff" d="M487.46,-260.97C515.48,-252.09 549.48,-240.48 579.18,-228 678.89,-186.09 791.72,-123.86 840.53,-96.17"/>
<polygon fill="#63b8ff" stroke="#63b8ff" points="486.32,-257.66 477.82,-263.99 488.41,-264.34 486.32,-257.66"/>
</a>
</g>
</g>
<!-- Node3&#45;&gt;Node12 -->
<g id="edge28_Node000003_Node000012" class="edge">
<title>Node3&#45;&gt;Node12</title>
<g id="a_edge28_Node000003_Node000012"><a xlink:title=" ">
<path fill="none" stroke="#63b8ff" d="M501.99,-261.51C538.8,-252.55 584.19,-240.71 624.18,-228 756.22,-186.03 908.97,-123.69 974.98,-96.06"/>
<polygon fill="#63b8ff" stroke="#63b8ff" points="500.74,-258.21 491.84,-263.96 502.38,-265.02 500.74,-258.21"/>
</a>
</g>
</g>
<!-- Node3&#45;&gt;Node13 -->
<g id="edge30_Node000003_Node000013" class="edge">
<title>Node3&#45;&gt;Node13</title>
<g id="a_edge30_Node000003_Node000013"><a xlink:title=" ">
<path fill="none" stroke="#63b8ff" d="M354.39,-265.79C319.69,-258.16 278.88,-246.22 245.18,-228 179.46,-192.46 118.24,-125.76 93.16,-96.44"/>
<polygon fill="#63b8ff" stroke="#63b8ff" points="353.97,-269.28 364.48,-267.93 355.42,-262.43 353.97,-269.28"/>
</a>
</g>
</g>
<!-- Node14 -->
<g id="Node000014" class="node">
<title>Node14</title>
<g id="a_Node000014"><a xlink:href="SimEntities_8h.html" target="_top" xlink:title="Per&#45;tick simulation entities: CellNode, Corridor, Person, WaitingQueue.">
<polygon fill="white" stroke="#666666" points="549.68,-228 442.68,-228 442.68,-198 549.68,-198 549.68,-228"/>
<text text-anchor="start" x="450.68" y="-216" font-family="Helvetica,sans-Serif" font-size="10.00">include/simulation</text>
<text text-anchor="middle" x="496.18" y="-205" font-family="Helvetica,sans-Serif" font-size="10.00">/SimEntities.h</text>
</a>
</g>
</g>
<!-- Node3&#45;&gt;Node14 -->
<g id="edge19_Node000003_Node000014" class="edge">
<title>Node3&#45;&gt;Node14</title>
<g id="a_edge19_Node000003_Node000014"><a xlink:title=" ">
<path fill="none" stroke="#63b8ff" d="M452.2,-256.65C461.87,-247.27 472.95,-236.53 481.58,-228.16"/>
<polygon fill="#63b8ff" stroke="#63b8ff" points="449.57,-254.32 444.83,-263.8 454.45,-259.35 449.57,-254.32"/>
</a>
</g>
</g>
<!-- Node15 -->
<g id="Node000015" class="node">
<title>Node15</title>
<g id="a_Node000015"><a xlink:href="test__graph__workflow_8cpp.html" target="_top" xlink:title=" ">
<polygon fill="white" stroke="#666666" points="424.68,-228 305.68,-228 305.68,-198 424.68,-198 424.68,-228"/>
<text text-anchor="start" x="313.68" y="-216" font-family="Helvetica,sans-Serif" font-size="10.00">tests/integration/test</text>
<text text-anchor="middle" x="365.18" y="-205" font-family="Helvetica,sans-Serif" font-size="10.00">_graph_workflow.cpp</text>
</a>
</g>
</g>
<!-- Node3&#45;&gt;Node15 -->
<g id="edge26_Node000003_Node000015" class="edge">
<title>Node3&#45;&gt;Node15</title>
<g id="a_edge26_Node000003_Node000015"><a xlink:title=" ">
<path fill="none" stroke="#63b8ff" d="M408.5,-256.65C398.98,-247.27 388.06,-236.53 379.57,-228.16"/>
<polygon fill="#63b8ff" stroke="#63b8ff" points="406.18,-259.27 415.76,-263.8 411.09,-254.29 406.18,-259.27"/>
</a>
</g>
</g>
<!-- Node3&#45;&gt;Node16 -->
<g id="edge29_Node000003_Node000016" class="edge">
<title>Node3&#45;&gt;Node16</title>
<g id="a_edge29_Node000003_Node000016"><a xlink:title=" ">
<path fill="none" stroke="#63b8ff" d="M506,-265.36C580.37,-252.97 692.02,-234.36 758.54,-223.27"/>
<polygon fill="#63b8ff" stroke="#63b8ff" points="505.05,-261.97 495.76,-267.07 506.2,-268.88 505.05,-261.97"/>
</a>
</g>
</g>
<!-- Node4&#45;&gt;Node5 -->
<g id="edge4_Node000004_Node000005" class="edge">
<title>Node4&#45;&gt;Node5</title>
<g id="a_edge4_Node000004_Node000005"><a xlink:title=" ">
<path fill="none" stroke="#63b8ff" d="M299.29,-68.64C343.81,-56.03 414.68,-35.97 454.83,-24.6"/>
<polygon fill="#63b8ff" stroke="#63b8ff" points="298.33,-65.28 289.66,-71.37 300.24,-72.01 298.33,-65.28"/>
</a>
</g>
</g>
<!-- Node4&#45;&gt;Node6 -->
<g id="edge5_Node000004_Node000006" class="edge">
<title>Node4&#45;&gt;Node6</title>
<g id="a_edge5_Node000004_Node000006"><a xlink:title=" ">
<path fill="none" stroke="#63b8ff" d="M234.88,-66.36C212.44,-53.76 179.77,-35.42 160.68,-24.7"/>
<polygon fill="#63b8ff" stroke="#63b8ff" points="233.37,-69.53 243.81,-71.37 236.8,-63.42 233.37,-69.53"/>
</a>
</g>
</g>
<!-- Node4&#45;&gt;Node7 -->
<g id="edge6_Node000004_Node000007" class="edge">
<title>Node4&#45;&gt;Node7</title>
<g id="a_edge6_Node000004_Node000007"><a xlink:title=" ">
<path fill="none" stroke="#63b8ff" d="M263.85,-61.35C266.32,-51.47 269.3,-39.51 271.59,-30.36"/>
<polygon fill="#63b8ff" stroke="#63b8ff" points="260.37,-60.82 261.34,-71.37 267.16,-62.52 260.37,-60.82"/>
</a>
</g>
</g>
<!-- Node8&#45;&gt;Node4 -->
<g id="edge12_Node000008_Node000004" class="edge">
<title>Node8&#45;&gt;Node4</title>
<g id="a_edge12_Node000008_Node000004"><a xlink:title=" ">
<path fill="none" stroke="#63b8ff" d="M508.31,-132.94C446.27,-120.25 353.89,-101.37 300.8,-90.51"/>
<polygon fill="#63b8ff" stroke="#63b8ff" points="507.88,-136.42 518.38,-135 509.28,-129.57 507.88,-136.42"/>
</a>
</g>
</g>
<!-- Node8&#45;&gt;Node5 -->
<g id="edge13_Node000008_Node000005" class="edge">
<title>Node8&#45;&gt;Node5</title>
<g id="a_edge13_Node000008_Node000005"><a xlink:title=" ">
<path fill="none" stroke="#63b8ff" d="M572.35,-121.64C571.39,-104.8 567.89,-82.54 557.18,-66 544.69,-46.71 521.89,-32.78 505.28,-24.6"/>
<polygon fill="#63b8ff" stroke="#63b8ff" points="568.85,-121.92 572.66,-131.81 575.85,-121.7 568.85,-121.92"/>
</a>
</g>
</g>
<!-- Node8&#45;&gt;Node6 -->
<g id="edge14_Node000008_Node000006" class="edge">
<title>Node8&#45;&gt;Node6</title>
<g id="a_edge14_Node000008_Node000006"><a xlink:title=" ">
<path fill="none" stroke="#63b8ff" d="M508.4,-145.24C411.14,-142.88 231.7,-133.42 181.18,-96 157.44,-78.41 149.01,-41.54 146.32,-24.71"/>
<polygon fill="#63b8ff" stroke="#63b8ff" points="508.33,-148.74 518.41,-145.47 508.49,-141.74 508.33,-148.74"/>
</a>
</g>
</g>
<!-- Node8&#45;&gt;Node7 -->
<g id="edge16_Node000008_Node000007" class="edge">
<title>Node8&#45;&gt;Node7</title>
<g id="a_edge16_Node000008_Node000007"><a xlink:title=" ">
<path fill="none" stroke="#63b8ff" d="M508.75,-129.33C479.43,-120.76 444.47,-109.32 414.18,-96 370.6,-76.83 323.22,-47.58 296.56,-30.26"/>
<polygon fill="#63b8ff" stroke="#63b8ff" points="507.89,-132.72 518.47,-132.12 509.82,-125.99 507.89,-132.72"/>
</a>
</g>
</g>
<!-- Node9 -->
<g id="Node000009" class="node">
<title>Node9</title>
<g id="a_Node000009"><a xlink:href="Renderer_8h.html" target="_top" xlink:title=" ">
<polygon fill="white" stroke="#666666" points="547.68,-90.5 422.68,-90.5 422.68,-71.5 547.68,-71.5 547.68,-90.5"/>
<text text-anchor="middle" x="485.18" y="-78.5" font-family="Helvetica,sans-Serif" font-size="10.00">include/gui/Renderer.h</text>
</a>
</g>
</g>
<!-- Node8&#45;&gt;Node9 -->
<g id="edge8_Node000008_Node000009" class="edge">
<title>Node8&#45;&gt;Node9</title>
<g id="a_edge8_Node000008_Node000009"><a xlink:title=" ">
<path fill="none" stroke="#63b8ff" d="M544.38,-125.55C528.36,-113.76 509.06,-99.57 496.95,-90.66"/>
<polygon fill="#63b8ff" stroke="#63b8ff" points="542.75,-128.69 552.87,-131.8 546.89,-123.05 542.75,-128.69"/>
</a>
</g>
</g>
<!-- Node10 -->
<g id="Node000010" class="node">
<title>Node10</title>
<g id="a_Node000010"><a xlink:href="SimulationController_8h.html" target="_top" xlink:title=" ">
<polygon fill="white" stroke="#666666" points="786.18,-90.5 604.18,-90.5 604.18,-71.5 786.18,-71.5 786.18,-90.5"/>
<text text-anchor="middle" x="695.18" y="-78.5" font-family="Helvetica,sans-Serif" font-size="10.00">include/gui/SimulationController.h</text>
</a>
</g>
</g>
<!-- Node8&#45;&gt;Node10 -->
<g id="edge10_Node000008_Node000010" class="edge">
<title>Node8&#45;&gt;Node10</title>
<g id="a_edge10_Node000008_Node000010"><a xlink:title=" ">
<path fill="none" stroke="#63b8ff" d="M608.13,-127.3C631.5,-115.14 660.86,-99.86 678.81,-90.52"/>
<polygon fill="#63b8ff" stroke="#63b8ff" points="606.43,-124.23 599.18,-131.95 609.66,-130.44 606.43,-124.23"/>
</a>
</g>
</g>
<!-- Node8&#45;&gt;Node11 -->
<g id="edge15_Node000008_Node000011" class="edge">
<title>Node8&#45;&gt;Node11</title>
<g id="a_edge15_Node000008_Node000011"><a xlink:title=" ">
<path fill="none" stroke="#63b8ff" d="M635.95,-132.07C685.82,-121.18 754.72,-106.13 803.93,-95.38"/>
<polygon fill="#63b8ff" stroke="#63b8ff" points="634.95,-128.71 625.92,-134.26 636.44,-135.55 634.95,-128.71"/>
</a>
</g>
</g>
<!-- Node8&#45;&gt;Node12 -->
<g id="edge17_Node000008_Node000012" class="edge">
<title>Node8&#45;&gt;Node12</title>
<g id="a_edge17_Node000008_Node000012"><a xlink:title=" ">
<path fill="none" stroke="#63b8ff" d="M636.18,-138.22C708.82,-129.15 830.78,-113.19 935.18,-96 938.11,-95.52 941.1,-95.01 944.12,-94.48"/>
<polygon fill="#63b8ff" stroke="#63b8ff" points="635.32,-134.8 625.83,-139.51 636.18,-141.75 635.32,-134.8"/>
</a>
</g>
</g>
<!-- Node8&#45;&gt;Node13 -->
<g id="edge18_Node000008_Node000013" class="edge">
<title>Node8&#45;&gt;Node13</title>
<g id="a_edge18_Node000008_Node000013"><a xlink:title=" ">
<path fill="none" stroke="#63b8ff" d="M508.37,-140.25C425.18,-132.36 275.29,-116.73 148.18,-96 143.49,-95.23 138.63,-94.37 133.77,-93.45"/>
<polygon fill="#63b8ff" stroke="#63b8ff" points="508.14,-143.75 518.42,-141.2 508.8,-136.78 508.14,-143.75"/>
</a>
</g>
</g>
<!-- Node9&#45;&gt;Node5 -->
<g id="edge9_Node000009_Node000005" class="edge">
<title>Node9&#45;&gt;Node5</title>
<g id="a_edge9_Node000009_Node000005"><a xlink:title=" ">
<path fill="none" stroke="#63b8ff" d="M485.18,-61.08C485.18,-49.13 485.18,-34.22 485.18,-24.91"/>
<polygon fill="#63b8ff" stroke="#63b8ff" points="481.68,-61.37 485.18,-71.37 488.68,-61.37 481.68,-61.37"/>
</a>
</g>
</g>
<!-- Node10&#45;&gt;Node5 -->
<g id="edge11_Node000010_Node000005" class="edge">
<title>Node10&#45;&gt;Node5</title>
<g id="a_edge11_Node000010_Node000005"><a xlink:title=" ">
<path fill="none" stroke="#63b8ff" d="M657.13,-68.4C615.72,-55.78 550.46,-35.89 513.39,-24.6"/>
<polygon fill="#63b8ff" stroke="#63b8ff" points="656.28,-71.8 666.86,-71.37 658.32,-65.11 656.28,-71.8"/>
</a>
</g>
</g>
<!-- Node14&#45;&gt;Node8 -->
<g id="edge21_Node000014_Node000008" class="edge">
<title>Node14&#45;&gt;Node8</title>
<g id="a_edge21_Node000014_Node000008"><a xlink:title=" ">
<path fill="none" stroke="#63b8ff" d="M520.88,-191.2C532.16,-181.7 545.24,-170.69 555.36,-162.16"/>
<polygon fill="#63b8ff" stroke="#63b8ff" points="518.44,-188.68 513.05,-197.8 522.95,-194.03 518.44,-188.68"/>
</a>
</g>
</g>
<!-- Node14&#45;&gt;Node9 -->
<g id="edge20_Node000014_Node000009" class="edge">
<title>Node14&#45;&gt;Node9</title>
<g id="a_edge20_Node000014_Node000009"><a xlink:title=" ">
<path fill="none" stroke="#63b8ff" d="M494.12,-187.57C491.63,-158.17 487.58,-110.31 485.92,-90.75"/>
<polygon fill="#63b8ff" stroke="#63b8ff" points="490.65,-188.17 494.98,-197.84 497.63,-187.58 490.65,-188.17"/>
</a>
</g>
</g>
<!-- Node14&#45;&gt;Node13 -->
<g id="edge22_Node000014_Node000013" class="edge">
<title>Node14&#45;&gt;Node13</title>
<g id="a_edge22_Node000014_Node000013"><a xlink:title=" ">
<path fill="none" stroke="#63b8ff" d="M441.65,-194.92C358.82,-168.97 202.84,-120.11 126.12,-96.08"/>
<polygon fill="#63b8ff" stroke="#63b8ff" points="440.79,-198.31 451.38,-197.96 442.88,-191.63 440.79,-198.31"/>
</a>
</g>
</g>
<!-- Node17&#45;&gt;Node8 -->
<g id="edge32_Node000017_Node000008" class="edge">
<title>Node17&#45;&gt;Node8</title>
<g id="a_edge32_Node000017_Node000008"><a xlink:title=" ">
<path fill="none" stroke="#63b8ff" d="M704.87,-257.18C672.49,-230.53 617.26,-185.09 589.37,-162.14"/>
<polygon fill="#63b8ff" stroke="#63b8ff" points="703.03,-260.19 712.97,-263.84 707.47,-254.78 703.03,-260.19"/>
</a>
</g>
</g>
<!-- Node17&#45;&gt;Node11 -->
<g id="edge34_Node000017_Node000011" class="edge">
<title>Node17&#45;&gt;Node11</title>
<g id="a_edge34_Node000017_Node000011"><a xlink:title=" ">
<path fill="none" stroke="#63b8ff" d="M805.97,-270.88C833.62,-264.19 862.23,-251.58 879.18,-228 908.18,-187.69 884.88,-124.08 872.13,-96.05"/>
<polygon fill="#63b8ff" stroke="#63b8ff" points="804.88,-267.54 795.85,-273.09 806.37,-274.38 804.88,-267.54"/>
</a>
</g>
</g>
<!-- Node17&#45;&gt;Node12 -->
<g id="edge35_Node000017_Node000012" class="edge">
<title>Node17&#45;&gt;Node12</title>
<g id="a_edge35_Node000017_Node000012"><a xlink:title=" ">
<path fill="none" stroke="#63b8ff" d="M805.65,-266.23C836.33,-258.84 870.9,-246.96 898.18,-228 949.53,-192.33 986.99,-125.1 1001.53,-96.01"/>
<polygon fill="#63b8ff" stroke="#63b8ff" points="804.8,-262.83 795.84,-268.48 806.37,-269.66 804.8,-262.83"/>
</a>
</g>
</g>
<!-- Node17&#45;&gt;Node14 -->
<g id="edge33_Node000017_Node000014" class="edge">
<title>Node17&#45;&gt;Node14</title>
<g id="a_edge33_Node000017_Node000014"><a xlink:title=" ">
<path fill="none" stroke="#63b8ff" d="M668.95,-261.25C631.15,-250.91 583.2,-237.8 547.42,-228.01"/>
<polygon fill="#63b8ff" stroke="#63b8ff" points="668.26,-264.69 678.83,-263.95 670.11,-257.94 668.26,-264.69"/>
</a>
</g>
</g>
<!-- Node17&#45;&gt;Node16 -->
<g id="edge36_Node000017_Node000016" class="edge">
<title>Node17&#45;&gt;Node16</title>
<g id="a_edge36_Node000017_Node000016"><a xlink:title=" ">
<path fill="none" stroke="#63b8ff" d="M757.12,-257.48C769.67,-247.91 784.29,-236.77 795.59,-228.16"/>
<polygon fill="#63b8ff" stroke="#63b8ff" points="754.66,-254.95 748.83,-263.8 758.9,-260.52 754.66,-254.95"/>
</a>
</g>
</g>
</g>
</svg>
