<?xml version="1.0" encoding="UTF-8" standalone="no"?>
<!DOCTYPE svg PUBLIC "-//W3C//DTD SVG 1.1//EN"
 "http://www.w3.org/Graphics/SVG/1.1/DTD/svg11.dtd">
<!-- Generated by graphviz version 2.43.0 (0)
 -->
<!-- Title: include/data_structures/priority_queue.h Pages: 1 -->
<svg width="1102pt" height="368pt"
 viewBox="0.00 0.00 1101.56 368.00" xmlns="http://www.w3.org/2000/svg" xmlns:xlink="http://www.w3.org/1999/xlink">
<g id="graph0" class="graph" transform="scale(1 1) rotate(0) translate(4 364)">
<title>include/data_structures/priority_queue.h</title>
<!-- Node1 -->
<g id="Node000001" class="node">
<title>Node1</title>
<g id="a_Node000001"><a xlink:title="Pointer&#45;based binary min&#45;heap priority queue.">
<polygon fill="#999999" stroke="#666666" points="498.06,-360 367.06,-360 367.06,-330 498.06,-330 498.06,-360"/>
<text text-anchor="start" x="375.06" y="-348" font-family="Helvetica,sans-Serif" font-size="10.00">include/data_structures</text>
<text text-anchor="middle" x="432.56" y="-337" font-family="Helvetica,sans-Serif" font-size="10.00">/priority_queue.h</text>
</a>
</g>
</g>
<!-- Node2 -->
<g id="Node000002" class="node">
<title>Node2</title>
<g id="a_Node000002"><a xlink:href="Graph_8h.html" target="_top" xlink:title="Adjacency&#45;list directed/undirected graph with Dijkstra shortest&#45;path.">
<polygon fill="white" stroke="#666666" points="498.06,-294 367.06,-294 367.06,-264 498.06,-264 498.06,-294"/>
<text text-anchor="start" x="375.06" y="-282" font-family="Helvetica,sans-Serif" font-size="10.00">include/data_structures</text>
<text text-anchor="middle" x="432.56" y="-271" font-family="Helvetica,sans-Serif" font-size="10.00">/Graph.h</text>
</a>
</g>
</g>
<!-- Node1&#45;&gt;Node2 -->
<g id="edge1_Node000001_Node000002" class="edge">
<title>Node1&#45;&gt;Node2</title>
<g id="a_edge1_Node000001_Node000002"><a xlink:title=" ">
<path fill="none" stroke="#63b8ff" d="M432.56,-319.54C432.56,-310.96 432.56,-301.61 432.56,-294.16"/>
<polygon fill="#63b8ff" stroke="#63b8ff" points="429.06,-319.8 432.56,-329.8 436.06,-319.8 429.06,-319.8"/>
</a>
</g>
</g>
<!-- Node7 -->
<g id="Node000007" class="node">
<title>Node7</title>
<g id="a_Node000007"><a xlink:href="FireSimulator_8h.html" target="_top" xlink:title="Core fire&#45;evacuation simulation engine.">
<polygon fill="white" stroke="#666666" points="486.06,-162 379.06,-162 379.06,-132 486.06,-132 486.06,-162"/>
<text text-anchor="start" x="387.06" y="-150" font-family="Helvetica,sans-Serif" font-size="10.00">include/simulation</text>
<text text-anchor="middle" x="432.56" y="-139" font-family="Helvetica,sans-Serif" font-size="10.00">/FireSimulator.h</text>
</a>
</g>
</g>
<!-- Node1&#45;&gt;Node7 -->
<g id="edge30_Node000001_Node000007" class="edge">
<title>Node1&#45;&gt;Node7</title>
<g id="a_edge30_Node000001_Node000007"><a xlink:title=" ">
<path fill="none" stroke="#63b8ff" d="M356.82,-332.82C254.82,-314.65 92.89,-272.99 155.56,-198 183.44,-164.63 306.47,-153.49 378.85,-149.8"/>
<polygon fill="#63b8ff" stroke="#63b8ff" points="356.35,-336.29 366.8,-334.56 357.55,-329.39 356.35,-336.29"/>
</a>
</g>
</g>
<!-- Node10 -->
<g id="Node000010" class="node">
<title>Node10</title>
<g id="a_Node000010"><a xlink:href="test__boundary_8cpp.html" target="_top" xlink:title="Edge&#45;case and boundary tests for all custom data structures and the simulator.">
<polygon fill="white" stroke="#666666" points="134.56,-96 12.56,-96 12.56,-66 134.56,-66 134.56,-96"/>
<text text-anchor="start" x="20.56" y="-84" font-family="Helvetica,sans-Serif" font-size="10.00">tests/edge_cases/test</text>
<text text-anchor="middle" x="73.56" y="-73" font-family="Helvetica,sans-Serif" font-size="10.00">_boundary.cpp</text>
</a>
</g>
</g>
<!-- Node1&#45;&gt;Node10 -->
<g id="edge31_Node000001_Node000010" class="edge">
<title>Node1&#45;&gt;Node10</title>
<g id="a_edge31_Node000001_Node000010"><a xlink:title=" ">
<path fill="none" stroke="#63b8ff" d="M356.78,-337.81C286.05,-330.71 186.85,-317 155.56,-294 89.26,-245.27 76.56,-135.29 74.13,-96.15"/>
<polygon fill="#63b8ff" stroke="#63b8ff" points="356.71,-341.31 367,-338.8 357.39,-334.35 356.71,-341.31"/>
</a>
</g>
</g>
<!-- Node11 -->
<g id="Node000011" class="node">
<title>Node11</title>
<g id="a_Node000011"><a xlink:href="test__performance_8cpp.html" target="_top" xlink:title="Performance benchmarks for the custom data structures and simulation engine.">
<polygon fill="white" stroke="#666666" points="1093.56,-96 965.56,-96 965.56,-66 1093.56,-66 1093.56,-96"/>
<text text-anchor="start" x="973.56" y="-84" font-family="Helvetica,sans-Serif" font-size="10.00">tests/performance/test</text>
<text text-anchor="middle" x="1029.56" y="-73" font-family="Helvetica,sans-Serif" font-size="10.00">_performance.cpp</text>
</a>
</g>
</g>
<!-- Node1&#45;&gt;Node11 -->
<g id="edge32_Node000001_Node000011" class="edge">
<title>Node1&#45;&gt;Node11</title>
<g id="a_edge32_Node000001_Node000011"><a xlink:title=" ">
<path fill="none" stroke="#63b8ff" d="M508.36,-339.57C649.34,-329.67 943.68,-300.62 1010.56,-228 1044.49,-191.15 1037.6,-125.14 1032.51,-96.23"/>
<polygon fill="#63b8ff" stroke="#63b8ff" points="507.8,-336.1 498.07,-340.28 508.28,-343.08 507.8,-336.1"/>
</a>
</g>
</g>
<!-- Node15 -->
<g id="Node000015" class="node">
<title>Node15</title>
<g id="a_Node000015"><a xlink:href="test__data__structures_8cpp.html" target="_top" xlink:title=" ">
<polygon fill="white" stroke="#666666" points="1001.06,-228 890.06,-228 890.06,-198 1001.06,-198 1001.06,-228"/>
<text text-anchor="start" x="898.06" y="-216" font-family="Helvetica,sans-Serif" font-size="10.00">tests/unit/test_data</text>
<text text-anchor="middle" x="945.56" y="-205" font-family="Helvetica,sans-Serif" font-size="10.00">_structures.cpp</text>
</a>
</g>
</g>
<!-- Node1&#45;&gt;Node15 -->
<g id="edge33_Node000001_Node000015" class="edge">
<title>Node1&#45;&gt;Node15</title>
<g id="a_edge33_Node000001_Node000015"><a xlink:title=" ">
<path fill="none" stroke="#63b8ff" d="M497.8,-327.47C599.61,-301.67 794.5,-252.28 890.01,-228.08"/>
<polygon fill="#63b8ff" stroke="#63b8ff" points="496.78,-324.11 487.94,-329.96 498.5,-330.9 496.78,-324.11"/>
</a>
</g>
</g>
<!-- Node3 -->
<g id="Node000003" class="node">
<title>Node3</title>
<g id="a_Node000003"><a xlink:href="SceneLoader_8h.html" target="_top" xlink:title="Builds a FireSimulator (and optional GUI Layout) from a SceneData.">
<polygon fill="white" stroke="#666666" points="366.06,-90.5 229.06,-90.5 229.06,-71.5 366.06,-71.5 366.06,-90.5"/>
<text text-anchor="middle" x="297.56" y="-78.5" font-family="Helvetica,sans-Serif" font-size="10.00">include/io/SceneLoader.h</text>
</a>
</g>
</g>
<!-- Node2&#45;&gt;Node3 -->
<g id="edge2_Node000002_Node000003" class="edge">
<title>Node2&#45;&gt;Node3</title>
<g id="a_edge2_Node000002_Node000003"><a xlink:title=" ">
<path fill="none" stroke="#63b8ff" d="M417.05,-255.48C387.3,-212.29 323.42,-119.55 303.57,-90.73"/>
<polygon fill="#63b8ff" stroke="#63b8ff" points="414.29,-257.65 422.85,-263.9 420.06,-253.68 414.29,-257.65"/>
</a>
</g>
</g>
<!-- Node4 -->
<g id="Node000004" class="node">
<title>Node4</title>
<g id="a_Node000004"><a xlink:href="main__gui_8cpp.html" target="_top" xlink:title="SDL2 graphical frontend for the Fire Evacuation simulator.">
<polygon fill="white" stroke="#666666" points="601.06,-24.5 502.06,-24.5 502.06,-5.5 601.06,-5.5 601.06,-24.5"/>
<text text-anchor="middle" x="551.56" y="-12.5" font-family="Helvetica,sans-Serif" font-size="10.00">src/main_gui.cpp</text>
</a>
</g>
</g>
<!-- Node2&#45;&gt;Node4 -->
<g id="edge22_Node000002_Node000004" class="edge">
<title>Node2&#45;&gt;Node4</title>
<g id="a_edge22_Node000002_Node000004"><a xlink:title=" ">
<path fill="none" stroke="#63b8ff" d="M508.28,-276.44C622.21,-269.4 833.44,-236.93 918.56,-96 925.45,-84.59 927.32,-76.04 918.56,-66 877.96,-19.5 691.82,-14.62 601.29,-15.09"/>
<polygon fill="#63b8ff" stroke="#63b8ff" points="508.02,-272.95 498.23,-277.01 508.41,-279.94 508.02,-272.95"/>
</a>
</g>
</g>
<!-- Node5 -->
<g id="Node000005" class="node">
<title>Node5</title>
<g id="a_Node000005"><a xlink:href="sim__demo_8cpp.html" target="_top" xlink:title="Command&#45;line entry point for the Fire Evacuation simulator.">
<polygon fill="white" stroke="#666666" points="236.06,-24.5 131.06,-24.5 131.06,-5.5 236.06,-5.5 236.06,-24.5"/>
<text text-anchor="middle" x="183.56" y="-12.5" font-family="Helvetica,sans-Serif" font-size="10.00">src/sim_demo.cpp</text>
</a>
</g>
</g>
<!-- Node2&#45;&gt;Node5 -->
<g id="edge23_Node000002_Node000005" class="edge">
<title>Node2&#45;&gt;Node5</title>
<g id="a_edge23_Node000002_Node000005"><a xlink:title=" ">
<path fill="none" stroke="#63b8ff" d="M356.62,-271.57C278.18,-263.91 161.85,-249.39 122.56,-228 53.18,-190.23 31.89,-169.73 3.56,-96 -17.48,-41.25 70.45,-23.95 130.79,-18.5"/>
<polygon fill="#63b8ff" stroke="#63b8ff" points="356.66,-275.09 366.95,-272.56 357.33,-268.12 356.66,-275.09"/>
</a>
</g>
</g>
<!-- Node6 -->
<g id="Node000006" class="node">
<title>Node6</title>
<g id="a_Node000006"><a xlink:href="test__scene__io_8cpp.html" target="_top" xlink:title="Unit and integration tests for the data/ input pipeline.">
<polygon fill="white" stroke="#666666" points="373.06,-30 254.06,-30 254.06,0 373.06,0 373.06,-30"/>
<text text-anchor="start" x="262.06" y="-18" font-family="Helvetica,sans-Serif" font-size="10.00">tests/integration/test</text>
<text text-anchor="middle" x="313.56" y="-7" font-family="Helvetica,sans-Serif" font-size="10.00">_scene_io.cpp</text>
</a>
</g>
</g>
<!-- Node2&#45;&gt;Node6 -->
<g id="edge26_Node000002_Node000006" class="edge">
<title>Node2&#45;&gt;Node6</title>
<g id="a_edge26_Node000002_Node000006"><a xlink:title=" ">
<path fill="none" stroke="#63b8ff" d="M394.5,-259.03C343.6,-231.25 255.59,-174.18 219.56,-96 213.98,-83.89 212.69,-77.43 219.56,-66 229.65,-49.2 247.5,-37.75 264.95,-30.08"/>
<polygon fill="#63b8ff" stroke="#63b8ff" points="393.09,-262.24 403.56,-263.88 396.39,-256.07 393.09,-262.24"/>
</a>
</g>
</g>
<!-- Node2&#45;&gt;Node7 -->
<g id="edge6_Node000002_Node000007" class="edge">
<title>Node2&#45;&gt;Node7</title>
<g id="a_edge6_Node000002_Node000007"><a xlink:title=" ">
<path fill="none" stroke="#63b8ff" d="M432.56,-253.68C432.56,-226.7 432.56,-184.11 432.56,-162.14"/>
<polygon fill="#63b8ff" stroke="#63b8ff" points="429.06,-253.84 432.56,-263.84 436.06,-253.84 429.06,-253.84"/>
</a>
</g>
</g>
<!-- Node2&#45;&gt;Node10 -->
<g id="edge24_Node000002_Node000010" class="edge">
<title>Node2&#45;&gt;Node10</title>
<g id="a_edge24_Node000002_Node000010"><a xlink:title=" ">
<path fill="none" stroke="#63b8ff" d="M356.61,-271.57C286.01,-264.31 187.14,-250.49 155.56,-228 108.91,-194.78 85.49,-126.23 77.18,-96.4"/>
<polygon fill="#63b8ff" stroke="#63b8ff" points="356.51,-275.08 366.81,-272.59 357.21,-268.11 356.51,-275.08"/>
</a>
</g>
</g>
<!-- Node2&#45;&gt;Node11 -->
<g id="edge27_Node000002_Node000011" class="edge">
<title>Node2&#45;&gt;Node11</title>
<g id="a_edge27_Node000002_Node000011"><a xlink:title=" ">
<path fill="none" stroke="#63b8ff" d="M508.41,-273.37C608.72,-266.44 779.59,-251.59 837.56,-228 847.54,-223.94 965.78,-131.87 1011.59,-96.07"/>
<polygon fill="#63b8ff" stroke="#63b8ff" points="508.07,-269.88 498.33,-274.06 508.54,-276.87 508.07,-269.88"/>
</a>
</g>
</g>
<!-- Node12 -->
<g id="Node000012" class="node">
<title>Node12</title>
<g id="a_Node000012"><a xlink:href="test__fire__simulator_8cpp.html" target="_top" xlink:title=" ">
<polygon fill="white" stroke="#666666" points="909.06,-96 804.06,-96 804.06,-66 909.06,-66 909.06,-96"/>
<text text-anchor="start" x="812.06" y="-84" font-family="Helvetica,sans-Serif" font-size="10.00">tests/unit/test_fire</text>
<text text-anchor="middle" x="856.56" y="-73" font-family="Helvetica,sans-Serif" font-size="10.00">_simulator.cpp</text>
</a>
</g>
</g>
<!-- Node2&#45;&gt;Node12 -->
<g id="edge29_Node000002_Node000012" class="edge">
<title>Node2&#45;&gt;Node12</title>
<g id="a_edge29_Node000002_Node000012"><a xlink:title=" ">
<path fill="none" stroke="#63b8ff" d="M508.19,-263.94C544.28,-255.82 587.57,-244 624.56,-228 710.17,-190.97 800.68,-125.06 838.41,-96.2"/>
<polygon fill="#63b8ff" stroke="#63b8ff" points="507.22,-260.56 498.21,-266.13 508.72,-267.4 507.22,-260.56"/>
</a>
</g>
</g>
<!-- Node13 -->
<g id="Node000013" class="node">
<title>Node13</title>
<g id="a_Node000013"><a xlink:href="SimEntities_8h.html" target="_top" xlink:title="Per&#45;tick simulation entities: CellNode, Corridor, Person, WaitingQueue.">
<polygon fill="white" stroke="#666666" points="616.06,-228 509.06,-228 509.06,-198 616.06,-198 616.06,-228"/>
<text text-anchor="start" x="517.06" y="-216" font-family="Helvetica,sans-Serif" font-size="10.00">include/simulation</text>
<text text-anchor="middle" x="562.56" y="-205" font-family="Helvetica,sans-Serif" font-size="10.00">/SimEntities.h</text>
</a>
</g>
</g>
<!-- Node2&#45;&gt;Node13 -->
<g id="edge18_Node000002_Node000013" class="edge">
<title>Node2&#45;&gt;Node13</title>
<g id="a_edge18_Node000002_Node000013"><a xlink:title=" ">
<path fill="none" stroke="#63b8ff" d="M470.11,-259.51C490.5,-249.47 515.31,-237.26 534.09,-228.01"/>
<polygon fill="#63b8ff" stroke="#63b8ff" points="468.51,-256.4 461.09,-263.95 471.6,-262.68 468.51,-256.4"/>
</a>
</g>
</g>
<!-- Node14 -->
<g id="Node000014" class="node">
<title>Node14</title>
<g id="a_Node000014"><a xlink:href="test__graph__workflow_8cpp.html" target="_top" xlink:title=" ">
<polygon fill="white" stroke="#666666" points="284.06,-228 165.06,-228 165.06,-198 284.06,-198 284.06,-228"/>
<text text-anchor="start" x="173.06" y="-216" font-family="Helvetica,sans-Serif" font-size="10.00">tests/integration/test</text>
<text text-anchor="middle" x="224.56" y="-205" font-family="Helvetica,sans-Serif" font-size="10.00">_graph_workflow.cpp</text>
</a>
</g>
</g>
<!-- Node2&#45;&gt;Node14 -->
<g id="edge25_Node000002_Node000014" class="edge">
<title>Node2&#45;&gt;Node14</title>
<g id="a_edge25_Node000002_Node000014"><a xlink:title=" ">
<path fill="none" stroke="#63b8ff" d="M377.27,-260.99C343.8,-250.69 301.64,-237.72 270.1,-228.01"/>
<polygon fill="#63b8ff" stroke="#63b8ff" points="376.32,-264.36 386.91,-263.95 378.38,-257.67 376.32,-264.36"/>
</a>
</g>
</g>
<!-- Node2&#45;&gt;Node15 -->
<g id="edge28_Node000002_Node000015" class="edge">
<title>Node2&#45;&gt;Node15</title>
<g id="a_edge28_Node000002_Node000015"><a xlink:title=" ">
<path fill="none" stroke="#63b8ff" d="M508.3,-271.43C596.71,-263.3 747.2,-248.04 875.56,-228 880.21,-227.27 885.02,-226.45 889.85,-225.59"/>
<polygon fill="#63b8ff" stroke="#63b8ff" points="507.73,-267.96 498.09,-272.36 508.37,-274.94 507.73,-267.96"/>
</a>
</g>
</g>
<!-- Node3&#45;&gt;Node4 -->
<g id="edge3_Node000003_Node000004" class="edge">
<title>Node3&#45;&gt;Node4</title>
<g id="a_edge3_Node000003_Node000004"><a xlink:title=" ">
<path fill="none" stroke="#63b8ff" d="M341.44,-68.94C391.52,-56.32 472.34,-35.96 517.77,-24.51"/>
<polygon fill="#63b8ff" stroke="#63b8ff" points="340.39,-65.6 331.55,-71.44 342.1,-72.39 340.39,-65.6"/>
</a>
</g>
</g>
<!-- Node3&#45;&gt;Node5 -->
<g id="edge4_Node000003_Node000005" class="edge">
<title>Node3&#45;&gt;Node5</title>
<g id="a_edge4_Node000003_Node000005"><a xlink:title=" ">
<path fill="none" stroke="#63b8ff" d="M273.26,-66.36C250.81,-53.76 218.15,-35.42 199.05,-24.7"/>
<polygon fill="#63b8ff" stroke="#63b8ff" points="271.75,-69.53 282.18,-71.37 275.18,-63.42 271.75,-69.53"/>
</a>
</g>
</g>
<!-- Node3&#45;&gt;Node6 -->
<g id="edge5_Node000003_Node000006" class="edge">
<title>Node3&#45;&gt;Node6</title>
<g id="a_edge5_Node000003_Node000006"><a xlink:title=" ">
<path fill="none" stroke="#63b8ff" d="M302.22,-61.35C304.69,-51.47 307.68,-39.51 309.97,-30.36"/>
<polygon fill="#63b8ff" stroke="#63b8ff" points="298.74,-60.82 299.71,-71.37 305.53,-62.52 298.74,-60.82"/>
</a>
</g>
</g>
<!-- Node7&#45;&gt;Node3 -->
<g id="edge11_Node000007_Node000003" class="edge">
<title>Node7&#45;&gt;Node3</title>
<g id="a_edge11_Node000007_Node000003"><a xlink:title=" ">
<path fill="none" stroke="#63b8ff" d="M393.79,-127.62C368.02,-115.41 335.4,-99.94 315.52,-90.52"/>
<polygon fill="#63b8ff" stroke="#63b8ff" points="392.39,-130.83 402.93,-131.95 395.39,-124.51 392.39,-130.83"/>
</a>
</g>
</g>
<!-- Node7&#45;&gt;Node4 -->
<g id="edge12_Node000007_Node000004" class="edge">
<title>Node7&#45;&gt;Node4</title>
<g id="a_edge12_Node000007_Node000004"><a xlink:title=" ">
<path fill="none" stroke="#63b8ff" d="M433.07,-121.36C434.61,-104.21 439.12,-81.69 451.56,-66 468.31,-44.85 496.36,-31.93 518.49,-24.54"/>
<polygon fill="#63b8ff" stroke="#63b8ff" points="429.55,-121.53 432.43,-131.73 436.54,-121.96 429.55,-121.53"/>
</a>
</g>
</g>
<!-- Node7&#45;&gt;Node5 -->
<g id="edge13_Node000007_Node000005" class="edge">
<title>Node7&#45;&gt;Node5</title>
<g id="a_edge13_Node000007_Node000005"><a xlink:title=" ">
<path fill="none" stroke="#63b8ff" d="M368.46,-145.51C322.37,-141.97 261.25,-130.36 219.56,-96 196.87,-77.31 187.93,-41.33 184.9,-24.75"/>
<polygon fill="#63b8ff" stroke="#63b8ff" points="368.43,-149.02 378.64,-146.18 368.89,-142.03 368.43,-149.02"/>
</a>
</g>
</g>
<!-- Node7&#45;&gt;Node6 -->
<g id="edge15_Node000007_Node000006" class="edge">
<title>Node7&#45;&gt;Node6</title>
<g id="a_edge15_Node000007_Node000006"><a xlink:title=" ">
<path fill="none" stroke="#63b8ff" d="M418.37,-123.29C407.41,-106.59 391.33,-83.8 374.56,-66 361.97,-52.65 345.85,-39.57 333.34,-30.15"/>
<polygon fill="#63b8ff" stroke="#63b8ff" points="415.54,-125.36 423.9,-131.87 421.43,-121.57 415.54,-125.36"/>
</a>
</g>
</g>
<!-- Node8 -->
<g id="Node000008" class="node">
<title>Node8</title>
<g id="a_Node000008"><a xlink:href="Renderer_8h.html" target="_top" xlink:title=" ">
<polygon fill="white" stroke="#666666" points="786.06,-90.5 661.06,-90.5 661.06,-71.5 786.06,-71.5 786.06,-90.5"/>
<text text-anchor="middle" x="723.56" y="-78.5" font-family="Helvetica,sans-Serif" font-size="10.00">include/gui/Renderer.h</text>
</a>
</g>
</g>
<!-- Node7&#45;&gt;Node8 -->
<g id="edge7_Node000007_Node000008" class="edge">
<title>Node7&#45;&gt;Node8</title>
<g id="a_edge7_Node000007_Node000008"><a xlink:title=" ">
<path fill="none" stroke="#63b8ff" d="M496.33,-131.97C553.79,-119.34 636.42,-101.16 684.59,-90.57"/>
<polygon fill="#63b8ff" stroke="#63b8ff" points="495.28,-128.62 486.27,-134.19 496.79,-135.46 495.28,-128.62"/>
</a>
</g>
</g>
<!-- Node9 -->
<g id="Node000009" class="node">
<title>Node9</title>
<g id="a_Node000009"><a xlink:href="SimulationController_8h.html" target="_top" xlink:title=" ">
<polygon fill="white" stroke="#666666" points="642.56,-90.5 460.56,-90.5 460.56,-71.5 642.56,-71.5 642.56,-90.5"/>
<text text-anchor="middle" x="551.56" y="-78.5" font-family="Helvetica,sans-Serif" font-size="10.00">include/gui/SimulationController.h</text>
</a>
</g>
</g>
<!-- Node7&#45;&gt;Node9 -->
<g id="edge9_Node000007_Node000009" class="edge">
<title>Node7&#45;&gt;Node9</title>
<g id="a_edge9_Node000007_Node000009"><a xlink:title=" ">
<path fill="none" stroke="#63b8ff" d="M467.63,-127.14C490.19,-115 518.43,-99.82 535.72,-90.52"/>
<polygon fill="#63b8ff" stroke="#63b8ff" points="465.82,-124.14 458.67,-131.95 469.14,-130.3 465.82,-124.14"/>
</a>
</g>
</g>
<!-- Node7&#45;&gt;Node10 -->
<g id="edge14_Node000007_Node000010" class="edge">
<title>Node7&#45;&gt;Node10</title>
<g id="a_edge14_Node000007_Node000010"><a xlink:title=" ">
<path fill="none" stroke="#63b8ff" d="M368.92,-134.65C302.72,-122.85 199.81,-104.51 134.59,-92.88"/>
<polygon fill="#63b8ff" stroke="#63b8ff" points="368.35,-138.11 378.81,-136.42 369.58,-131.22 368.35,-138.11"/>
</a>
</g>
</g>
<!-- Node7&#45;&gt;Node11 -->
<g id="edge16_Node000007_Node000011" class="edge">
<title>Node7&#45;&gt;Node11</title>
<g id="a_edge16_Node000007_Node000011"><a xlink:title=" ">
<path fill="none" stroke="#63b8ff" d="M496.26,-139.92C589.17,-130.94 767.27,-113.32 918.56,-96 933.7,-94.27 950,-92.28 965.31,-90.36"/>
<polygon fill="#63b8ff" stroke="#63b8ff" points="495.79,-136.44 486.18,-140.89 496.47,-143.41 495.79,-136.44"/>
</a>
</g>
</g>
<!-- Node7&#45;&gt;Node12 -->
<g id="edge17_Node000007_Node000012" class="edge">
<title>Node7&#45;&gt;Node12</title>
<g id="a_edge17_Node000007_Node000012"><a xlink:title=" ">
<path fill="none" stroke="#63b8ff" d="M496.67,-138.91C569.42,-130.47 691.48,-115.07 795.56,-96 798.33,-95.49 801.18,-94.94 804.04,-94.36"/>
<polygon fill="#63b8ff" stroke="#63b8ff" points="495.84,-135.49 486.3,-140.11 496.64,-142.44 495.84,-135.49"/>
</a>
</g>
</g>
<!-- Node8&#45;&gt;Node4 -->
<g id="edge8_Node000008_Node000004" class="edge">
<title>Node8&#45;&gt;Node4</title>
<g id="a_edge8_Node000008_Node000004"><a xlink:title=" ">
<path fill="none" stroke="#63b8ff" d="M690.87,-67.84C656.89,-55.2 604.57,-35.73 574.66,-24.6"/>
<polygon fill="#63b8ff" stroke="#63b8ff" points="689.77,-71.16 700.36,-71.37 692.21,-64.6 689.77,-71.16"/>
</a>
</g>
</g>
<!-- Node9&#45;&gt;Node4 -->
<g id="edge10_Node000009_Node000004" class="edge">
<title>Node9&#45;&gt;Node4</title>
<g id="a_edge10_Node000009_Node000004"><a xlink:title=" ">
<path fill="none" stroke="#63b8ff" d="M551.56,-61.08C551.56,-49.13 551.56,-34.22 551.56,-24.91"/>
<polygon fill="#63b8ff" stroke="#63b8ff" points="548.06,-61.37 551.56,-71.37 555.06,-61.37 548.06,-61.37"/>
</a>
</g>
</g>
<!-- Node13&#45;&gt;Node7 -->
<g id="edge20_Node000013_Node000007" class="edge">
<title>Node13&#45;&gt;Node7</title>
<g id="a_edge20_Node000013_Node000007"><a xlink:title=" ">
<path fill="none" stroke="#63b8ff" d="M525.01,-193.51C504.61,-183.47 479.8,-171.26 461.02,-162.01"/>
<polygon fill="#63b8ff" stroke="#63b8ff" points="523.51,-196.68 534.03,-197.95 526.6,-190.4 523.51,-196.68"/>
</a>
</g>
</g>
<!-- Node13&#45;&gt;Node8 -->
<g id="edge19_Node000013_Node000008" class="edge">
<title>Node13&#45;&gt;Node8</title>
<g id="a_edge19_Node000013_Node000008"><a xlink:title=" ">
<path fill="none" stroke="#63b8ff" d="M588.09,-191.36C608.08,-175.2 636.58,-152.16 661.56,-132 679.42,-117.58 700.18,-100.84 712.58,-90.85"/>
<polygon fill="#63b8ff" stroke="#63b8ff" points="585.65,-188.82 580.08,-197.83 590.05,-194.27 585.65,-188.82"/>
</a>
</g>
</g>
<!-- Node13&#45;&gt;Node12 -->
<g id="edge21_Node000013_Node000012" class="edge">
<title>Node13&#45;&gt;Node12</title>
<g id="a_edge21_Node000013_Node000012"><a xlink:title=" ">
<path fill="none" stroke="#63b8ff" d="M598.24,-193.14C630.75,-176.25 680.31,-151.25 724.56,-132 754.89,-118.8 789.94,-105.62 816.3,-96.11"/>
<polygon fill="#63b8ff" stroke="#63b8ff" points="596.37,-190.16 589.13,-197.89 599.61,-196.37 596.37,-190.16"/>
</a>
</g>
</g>
</g>
</svg>
