<?xml version="1.0" encoding="UTF-8" standalone="no"?>
<!DOCTYPE svg PUBLIC "-//W3C//DTD SVG 1.1//EN"
 "http://www.w3.org/Graphics/SVG/1.1/DTD/svg11.dtd">
<!-- Generated by graphviz version 2.43.0 (0)
 -->
<!-- Title: include/data_structures/Queue.h Pages: 1 -->
<svg width="1014pt" height="302pt"
 viewBox="0.00 0.00 1013.50 302.00" xmlns="http://www.w3.org/2000/svg" xmlns:xlink="http://www.w3.org/1999/xlink">
<g id="graph0" class="graph" transform="scale(1 1) rotate(0) translate(4 298)">
<title>include/data_structures/Queue.h</title>
<!-- Node1 -->
<g id="Node000001" class="node">
<title>Node1</title>
<g id="a_Node000001"><a xlink:title="Generic FIFO queue built on LinkedList.">
<polygon fill="#999999" stroke="#666666" points="839,-294 708,-294 708,-264 839,-264 839,-294"/>
<text text-anchor="start" x="716" y="-282" font-family="Helvetica,sans-Serif" font-size="10.00">include/data_structures</text>
<text text-anchor="middle" x="773.5" y="-271" font-family="Helvetica,sans-Serif" font-size="10.00">/Queue.h</text>
</a>
</g>
</g>
<!-- Node2 -->
<g id="Node000002" class="node">
<title>Node2</title>
<g id="a_Node000002"><a xlink:href="FireSimulator_8h.html" target="_top" xlink:title="Core fire&#45;evacuation simulation engine.">
<polygon fill="white" stroke="#666666" points="638,-162 531,-162 531,-132 638,-132 638,-162"/>
<text text-anchor="start" x="539" y="-150" font-family="Helvetica,sans-Serif" font-size="10.00">include/simulation</text>
<text text-anchor="middle" x="584.5" y="-139" font-family="Helvetica,sans-Serif" font-size="10.00">/FireSimulator.h</text>
</a>
</g>
</g>
<!-- Node1&#45;&gt;Node2 -->
<g id="edge1_Node000001_Node000002" class="edge">
<title>Node1&#45;&gt;Node2</title>
<g id="a_edge1_Node000001_Node000002"><a xlink:title=" ">
<path fill="none" stroke="#63b8ff" d="M697.83,-272.58C664.68,-266.39 627.87,-253.69 603.5,-228 586.5,-210.08 583.8,-179.85 583.84,-162.12"/>
<polygon fill="#63b8ff" stroke="#63b8ff" points="697.54,-276.08 707.99,-274.3 698.71,-269.18 697.54,-276.08"/>
</a>
</g>
</g>
<!-- Node9 -->
<g id="Node000009" class="node">
<title>Node9</title>
<g id="a_Node000009"><a xlink:href="test__boundary_8cpp.html" target="_top" xlink:title="Edge&#45;case and boundary tests for all custom data structures and the simulator.">
<polygon fill="white" stroke="#666666" points="859.5,-96 737.5,-96 737.5,-66 859.5,-66 859.5,-96"/>
<text text-anchor="start" x="745.5" y="-84" font-family="Helvetica,sans-Serif" font-size="10.00">tests/edge_cases/test</text>
<text text-anchor="middle" x="798.5" y="-73" font-family="Helvetica,sans-Serif" font-size="10.00">_boundary.cpp</text>
</a>
</g>
</g>
<!-- Node1&#45;&gt;Node9 -->
<g id="edge20_Node000001_Node000009" class="edge">
<title>Node1&#45;&gt;Node9</title>
<g id="a_edge20_Node000001_Node000009"><a xlink:title=" ">
<path fill="none" stroke="#63b8ff" d="M776.57,-253.89C781.84,-212.58 792.44,-129.48 796.68,-96.23"/>
<polygon fill="#63b8ff" stroke="#63b8ff" points="773.09,-253.54 775.3,-263.9 780.04,-254.43 773.09,-253.54"/>
</a>
</g>
</g>
<!-- Node10 -->
<g id="Node000010" class="node">
<title>Node10</title>
<g id="a_Node000010"><a xlink:href="test__performance_8cpp.html" target="_top" xlink:title="Performance benchmarks for the custom data structures and simulation engine.">
<polygon fill="white" stroke="#666666" points="1005.5,-96 877.5,-96 877.5,-66 1005.5,-66 1005.5,-96"/>
<text text-anchor="start" x="885.5" y="-84" font-family="Helvetica,sans-Serif" font-size="10.00">tests/performance/test</text>
<text text-anchor="middle" x="941.5" y="-73" font-family="Helvetica,sans-Serif" font-size="10.00">_performance.cpp</text>
</a>
</g>
</g>
<!-- Node1&#45;&gt;Node10 -->
<g id="edge21_Node000001_Node000010" class="edge">
<title>Node1&#45;&gt;Node10</title>
<g id="a_edge21_Node000001_Node000010"><a xlink:title=" ">
<path fill="none" stroke="#63b8ff" d="M788.56,-255.6C799.85,-239.22 815.96,-216.71 831.5,-198 863.6,-159.36 905.29,-117.37 926.97,-96.08"/>
<polygon fill="#63b8ff" stroke="#63b8ff" points="785.57,-253.77 782.82,-264 791.35,-257.72 785.57,-253.77"/>
</a>
</g>
</g>
<!-- Node12 -->
<g id="Node000012" class="node">
<title>Node12</title>
<g id="a_Node000012"><a xlink:href="SimEntities_8h.html" target="_top" xlink:title="Per&#45;tick simulation entities: CellNode, Corridor, Person, WaitingQueue.">
<polygon fill="white" stroke="#666666" points="720,-228 613,-228 613,-198 720,-198 720,-228"/>
<text text-anchor="start" x="621" y="-216" font-family="Helvetica,sans-Serif" font-size="10.00">include/simulation</text>
<text text-anchor="middle" x="666.5" y="-205" font-family="Helvetica,sans-Serif" font-size="10.00">/SimEntities.h</text>
</a>
</g>
</g>
<!-- Node1&#45;&gt;Node12 -->
<g id="edge16_Node000001_Node000012" class="edge">
<title>Node1&#45;&gt;Node12</title>
<g id="a_edge16_Node000001_Node000012"><a xlink:title=" ">
<path fill="none" stroke="#63b8ff" d="M741.22,-258.69C724.71,-248.82 704.97,-237.01 689.93,-228.01"/>
<polygon fill="#63b8ff" stroke="#63b8ff" points="739.64,-261.83 750.02,-263.95 743.23,-255.82 739.64,-261.83"/>
</a>
</g>
</g>
<!-- Node13 -->
<g id="Node000013" class="node">
<title>Node13</title>
<g id="a_Node000013"><a xlink:href="test__data__structures_8cpp.html" target="_top" xlink:title=" ">
<polygon fill="white" stroke="#666666" points="951,-228 840,-228 840,-198 951,-198 951,-228"/>
<text text-anchor="start" x="848" y="-216" font-family="Helvetica,sans-Serif" font-size="10.00">tests/unit/test_data</text>
<text text-anchor="middle" x="895.5" y="-205" font-family="Helvetica,sans-Serif" font-size="10.00">_structures.cpp</text>
</a>
</g>
</g>
<!-- Node1&#45;&gt;Node13 -->
<g id="edge22_Node000001_Node000013" class="edge">
<title>Node1&#45;&gt;Node13</title>
<g id="a_edge22_Node000001_Node000013"><a xlink:title=" ">
<path fill="none" stroke="#63b8ff" d="M809.26,-259.24C828.3,-249.25 851.32,-237.18 868.79,-228.01"/>
<polygon fill="#63b8ff" stroke="#63b8ff" points="807.5,-256.21 800.27,-263.95 810.75,-262.41 807.5,-256.21"/>
</a>
</g>
</g>
<!-- Node3 -->
<g id="Node000003" class="node">
<title>Node3</title>
<g id="a_Node000003"><a xlink:href="Renderer_8h.html" target="_top" xlink:title=" ">
<polygon fill="white" stroke="#666666" points="125,-90.5 0,-90.5 0,-71.5 125,-71.5 125,-90.5"/>
<text text-anchor="middle" x="62.5" y="-78.5" font-family="Helvetica,sans-Serif" font-size="10.00">include/gui/Renderer.h</text>
</a>
</g>
</g>
<!-- Node2&#45;&gt;Node3 -->
<g id="edge2_Node000002_Node000003" class="edge">
<title>Node2&#45;&gt;Node3</title>
<g id="a_edge2_Node000002_Node000003"><a xlink:title=" ">
<path fill="none" stroke="#63b8ff" d="M520.73,-140.21C434.17,-132.04 274.76,-115.87 139.5,-96 128.75,-94.42 117.19,-92.46 106.39,-90.51"/>
<polygon fill="#63b8ff" stroke="#63b8ff" points="520.64,-143.72 530.92,-141.17 521.29,-136.75 520.64,-143.72"/>
</a>
</g>
</g>
<!-- Node4 -->
<g id="Node000004" class="node">
<title>Node4</title>
<g id="a_Node000004"><a xlink:href="main__gui_8cpp.html" target="_top" xlink:title="SDL2 graphical frontend for the Fire Evacuation simulator.">
<polygon fill="white" stroke="#666666" points="263,-24.5 164,-24.5 164,-5.5 263,-5.5 263,-24.5"/>
<text text-anchor="middle" x="213.5" y="-12.5" font-family="Helvetica,sans-Serif" font-size="10.00">src/main_gui.cpp</text>
</a>
</g>
</g>
<!-- Node2&#45;&gt;Node4 -->
<g id="edge10_Node000002_Node000004" class="edge">
<title>Node2&#45;&gt;Node4</title>
<g id="a_edge10_Node000002_Node000004"><a xlink:title=" ">
<path fill="none" stroke="#63b8ff" d="M520.35,-142.82C410.32,-136.69 195.15,-121.57 172.5,-96 152.73,-73.69 185.28,-40.14 203.09,-24.54"/>
<polygon fill="#63b8ff" stroke="#63b8ff" points="520.49,-146.33 530.66,-143.38 520.87,-139.34 520.49,-146.33"/>
</a>
</g>
</g>
<!-- Node5 -->
<g id="Node000005" class="node">
<title>Node5</title>
<g id="a_Node000005"><a xlink:href="SimulationController_8h.html" target="_top" xlink:title=" ">
<polygon fill="white" stroke="#666666" points="363.5,-90.5 181.5,-90.5 181.5,-71.5 363.5,-71.5 363.5,-90.5"/>
<text text-anchor="middle" x="272.5" y="-78.5" font-family="Helvetica,sans-Serif" font-size="10.00">include/gui/SimulationController.h</text>
</a>
</g>
</g>
<!-- Node2&#45;&gt;Node5 -->
<g id="edge4_Node000002_Node000005" class="edge">
<title>Node2&#45;&gt;Node5</title>
<g id="a_edge4_Node000002_Node000005"><a xlink:title=" ">
<path fill="none" stroke="#63b8ff" d="M520.83,-132.94C458.99,-120.25 366.91,-101.37 313.98,-90.51"/>
<polygon fill="#63b8ff" stroke="#63b8ff" points="520.37,-136.42 530.87,-135 521.77,-129.56 520.37,-136.42"/>
</a>
</g>
</g>
<!-- Node6 -->
<g id="Node000006" class="node">
<title>Node6</title>
<g id="a_Node000006"><a xlink:href="SceneLoader_8h.html" target="_top" xlink:title="Builds a FireSimulator (and optional GUI Layout) from a SceneData.">
<polygon fill="white" stroke="#666666" points="519,-90.5 382,-90.5 382,-71.5 519,-71.5 519,-90.5"/>
<text text-anchor="middle" x="450.5" y="-78.5" font-family="Helvetica,sans-Serif" font-size="10.00">include/io/SceneLoader.h</text>
</a>
</g>
</g>
<!-- Node2&#45;&gt;Node6 -->
<g id="edge6_Node000002_Node000006" class="edge">
<title>Node2&#45;&gt;Node6</title>
<g id="a_edge6_Node000002_Node000006"><a xlink:title=" ">
<path fill="none" stroke="#63b8ff" d="M546.02,-127.62C520.45,-115.41 488.06,-99.94 468.33,-90.52"/>
<polygon fill="#63b8ff" stroke="#63b8ff" points="544.56,-130.8 555.09,-131.95 547.58,-124.49 544.56,-130.8"/>
</a>
</g>
</g>
<!-- Node7 -->
<g id="Node000007" class="node">
<title>Node7</title>
<g id="a_Node000007"><a xlink:href="sim__demo_8cpp.html" target="_top" xlink:title="Command&#45;line entry point for the Fire Evacuation simulator.">
<polygon fill="white" stroke="#666666" points="504,-24.5 399,-24.5 399,-5.5 504,-5.5 504,-24.5"/>
<text text-anchor="middle" x="451.5" y="-12.5" font-family="Helvetica,sans-Serif" font-size="10.00">src/sim_demo.cpp</text>
</a>
</g>
</g>
<!-- Node2&#45;&gt;Node7 -->
<g id="edge11_Node000002_Node000007" class="edge">
<title>Node2&#45;&gt;Node7</title>
<g id="a_edge11_Node000002_Node000007"><a xlink:title=" ">
<path fill="none" stroke="#63b8ff" d="M571.35,-123.05C560.89,-106.04 545.12,-82.97 527.5,-66 509.42,-48.58 484.48,-33.51 468.18,-24.59"/>
<polygon fill="#63b8ff" stroke="#63b8ff" points="568.45,-125.01 576.59,-131.79 574.45,-121.42 568.45,-125.01"/>
</a>
</g>
</g>
<!-- Node8 -->
<g id="Node000008" class="node">
<title>Node8</title>
<g id="a_Node000008"><a xlink:href="test__scene__io_8cpp.html" target="_top" xlink:title="Unit and integration tests for the data/ input pipeline.">
<polygon fill="white" stroke="#666666" points="643,-30 524,-30 524,0 643,0 643,-30"/>
<text text-anchor="start" x="532" y="-18" font-family="Helvetica,sans-Serif" font-size="10.00">tests/integration/test</text>
<text text-anchor="middle" x="583.5" y="-7" font-family="Helvetica,sans-Serif" font-size="10.00">_scene_io.cpp</text>
</a>
</g>
</g>
<!-- Node2&#45;&gt;Node8 -->
<g id="edge13_Node000002_Node000008" class="edge">
<title>Node2&#45;&gt;Node8</title>
<g id="a_edge13_Node000002_Node000008"><a xlink:title=" ">
<path fill="none" stroke="#63b8ff" d="M584.31,-121.68C584.11,-94.7 583.78,-52.11 583.61,-30.14"/>
<polygon fill="#63b8ff" stroke="#63b8ff" points="580.81,-121.87 584.39,-131.84 587.81,-121.81 580.81,-121.87"/>
</a>
</g>
</g>
<!-- Node2&#45;&gt;Node9 -->
<g id="edge12_Node000002_Node000009" class="edge">
<title>Node2&#45;&gt;Node9</title>
<g id="a_edge12_Node000002_Node000009"><a xlink:title=" ">
<path fill="none" stroke="#63b8ff" d="M641.38,-128.99C675.81,-118.69 719.2,-105.72 751.65,-96.01"/>
<polygon fill="#63b8ff" stroke="#63b8ff" points="640.04,-125.74 631.46,-131.95 642.05,-132.44 640.04,-125.74"/>
</a>
</g>
</g>
<!-- Node2&#45;&gt;Node10 -->
<g id="edge14_Node000002_Node000010" class="edge">
<title>Node2&#45;&gt;Node10</title>
<g id="a_edge14_Node000002_Node000010"><a xlink:title=" ">
<path fill="none" stroke="#63b8ff" d="M648.24,-135.06C705.83,-125.11 792.9,-109.9 868.5,-96 871.42,-95.46 874.4,-94.91 877.42,-94.35"/>
<polygon fill="#63b8ff" stroke="#63b8ff" points="647.46,-131.65 638.2,-136.8 648.65,-138.54 647.46,-131.65"/>
</a>
</g>
</g>
<!-- Node11 -->
<g id="Node000011" class="node">
<title>Node11</title>
<g id="a_Node000011"><a xlink:href="test__fire__simulator_8cpp.html" target="_top" xlink:title=" ">
<polygon fill="white" stroke="#666666" points="719,-96 614,-96 614,-66 719,-66 719,-96"/>
<text text-anchor="start" x="622" y="-84" font-family="Helvetica,sans-Serif" font-size="10.00">tests/unit/test_fire</text>
<text text-anchor="middle" x="666.5" y="-73" font-family="Helvetica,sans-Serif" font-size="10.00">_simulator.cpp</text>
</a>
</g>
</g>
<!-- Node2&#45;&gt;Node11 -->
<g id="edge15_Node000002_Node000011" class="edge">
<title>Node2&#45;&gt;Node11</title>
<g id="a_edge15_Node000002_Node000011"><a xlink:title=" ">
<path fill="none" stroke="#63b8ff" d="M610.79,-125.48C623.05,-115.91 637.32,-104.77 648.35,-96.16"/>
<polygon fill="#63b8ff" stroke="#63b8ff" points="608.43,-122.88 602.7,-131.8 612.74,-128.4 608.43,-122.88"/>
</a>
</g>
</g>
<!-- Node3&#45;&gt;Node4 -->
<g id="edge3_Node000003_Node000004" class="edge">
<title>Node3&#45;&gt;Node4</title>
<g id="a_edge3_Node000003_Node000004"><a xlink:title=" ">
<path fill="none" stroke="#63b8ff" d="M92.33,-67.36C122.08,-54.75 167.01,-35.71 192.98,-24.7"/>
<polygon fill="#63b8ff" stroke="#63b8ff" points="90.71,-64.24 82.86,-71.37 93.44,-70.69 90.71,-64.24"/>
</a>
</g>
</g>
<!-- Node5&#45;&gt;Node4 -->
<g id="edge5_Node000005_Node000004" class="edge">
<title>Node5&#45;&gt;Node4</title>
<g id="a_edge5_Node000005_Node000004"><a xlink:title=" ">
<path fill="none" stroke="#63b8ff" d="M257.73,-63.98C246.34,-51.62 231.01,-34.99 221.71,-24.91"/>
<polygon fill="#63b8ff" stroke="#63b8ff" points="255.19,-66.39 264.54,-71.37 260.34,-61.64 255.19,-66.39"/>
</a>
</g>
</g>
<!-- Node6&#45;&gt;Node4 -->
<g id="edge7_Node000006_Node000004" class="edge">
<title>Node6&#45;&gt;Node4</title>
<g id="a_edge7_Node000006_Node000004"><a xlink:title=" ">
<path fill="none" stroke="#63b8ff" d="M408.74,-68.72C362.07,-56.12 287.53,-35.99 245.33,-24.6"/>
<polygon fill="#63b8ff" stroke="#63b8ff" points="407.97,-72.14 418.54,-71.37 409.8,-65.38 407.97,-72.14"/>
</a>
</g>
</g>
<!-- Node6&#45;&gt;Node7 -->
<g id="edge8_Node000006_Node000007" class="edge">
<title>Node6&#45;&gt;Node7</title>
<g id="a_edge8_Node000006_Node000007"><a xlink:title=" ">
<path fill="none" stroke="#63b8ff" d="M450.8,-61.08C450.98,-49.13 451.22,-34.22 451.36,-24.91"/>
<polygon fill="#63b8ff" stroke="#63b8ff" points="447.29,-61.32 450.63,-71.37 454.29,-61.42 447.29,-61.32"/>
</a>
</g>
</g>
<!-- Node6&#45;&gt;Node8 -->
<g id="edge9_Node000006_Node000008" class="edge">
<title>Node6&#45;&gt;Node8</title>
<g id="a_edge9_Node000006_Node000008"><a xlink:title=" ">
<path fill="none" stroke="#63b8ff" d="M477.66,-66.93C499.91,-56.22 531.34,-41.1 554.17,-30.12"/>
<polygon fill="#63b8ff" stroke="#63b8ff" points="475.93,-63.88 468.44,-71.37 478.97,-70.19 475.93,-63.88"/>
</a>
</g>
</g>
<!-- Node12&#45;&gt;Node2 -->
<g id="edge18_Node000012_Node000002" class="edge">
<title>Node12&#45;&gt;Node2</title>
<g id="a_edge18_Node000012_Node000002"><a xlink:title=" ">
<path fill="none" stroke="#63b8ff" d="M640.21,-191.48C627.95,-181.91 613.68,-170.77 602.65,-162.16"/>
<polygon fill="#63b8ff" stroke="#63b8ff" points="638.26,-194.4 648.3,-197.8 642.57,-188.88 638.26,-194.4"/>
</a>
</g>
</g>
<!-- Node12&#45;&gt;Node3 -->
<g id="edge17_Node000012_Node000003" class="edge">
<title>Node12&#45;&gt;Node3</title>
<g id="a_edge17_Node000012_Node000003"><a xlink:title=" ">
<path fill="none" stroke="#63b8ff" d="M603.1,-198.35C478.41,-171.52 204.51,-112.56 102.14,-90.53"/>
<polygon fill="#63b8ff" stroke="#63b8ff" points="602.39,-201.78 612.9,-200.46 603.86,-194.94 602.39,-201.78"/>
</a>
</g>
</g>
<!-- Node12&#45;&gt;Node11 -->
<g id="edge19_Node000012_Node000011" class="edge">
<title>Node12&#45;&gt;Node11</title>
<g id="a_edge19_Node000012_Node000011"><a xlink:title=" ">
<path fill="none" stroke="#63b8ff" d="M666.5,-187.68C666.5,-160.7 666.5,-118.11 666.5,-96.14"/>
<polygon fill="#63b8ff" stroke="#63b8ff" points="663,-187.84 666.5,-197.84 670,-187.84 663,-187.84"/>
</a>
</g>
</g>
</g>
</svg>
