<?xml version="1.0" encoding="UTF-8" standalone="no"?>
<!DOCTYPE svg PUBLIC "-//W3C//DTD SVG 1.1//EN"
 "http://www.w3.org/Graphics/SVG/1.1/DTD/svg11.dtd">
<!-- Generated by graphviz version 2.43.0 (0)
 -->
<!-- Title: include/gui/Renderer.h Pages: 1 -->
<svg width="707pt" height="324pt"
 viewBox="0.00 0.00 707.00 324.00" xmlns="http://www.w3.org/2000/svg" xmlns:xlink="http://www.w3.org/1999/xlink">
<g id="graph0" class="graph" transform="scale(1 1) rotate(0) translate(4 320)">
<title>include/gui/Renderer.h</title>
<!-- Node1 -->
<g id="Node000001" class="node">
<title>Node1</title>
<g id="a_Node000001"><a xlink:title=" ">
<polygon fill="#999999" stroke="#666666" points="241.5,-316 116.5,-316 116.5,-297 241.5,-297 241.5,-316"/>
<text text-anchor="middle" x="179" y="-304" font-family="Helvetica,sans-Serif" font-size="10.00">include/gui/Renderer.h</text>
</a>
</g>
</g>
<!-- Node2 -->
<g id="Node000002" class="node">
<title>Node2</title>
<g id="a_Node000002"><a xlink:title=" ">
<polygon fill="#e0e0e0" stroke="#999999" points="44,-261 0,-261 0,-242 44,-242 44,-261"/>
<text text-anchor="middle" x="22" y="-249" font-family="Helvetica,sans-Serif" font-size="10.00">SDL.h</text>
</a>
</g>
</g>
<!-- Node1&#45;&gt;Node2 -->
<g id="edge1_Node000001_Node000002" class="edge">
<title>Node1&#45;&gt;Node2</title>
<g id="a_edge1_Node000001_Node000002"><a xlink:title=" ">
<path fill="none" stroke="#63b8ff" d="M153.78,-296.98C126.64,-287.82 83.41,-273.23 53.93,-263.28"/>
<polygon fill="#63b8ff" stroke="#63b8ff" points="54.71,-259.85 44.12,-259.97 52.47,-266.48 54.71,-259.85"/>
</a>
</g>
</g>
<!-- Node3 -->
<g id="Node000003" class="node">
<title>Node3</title>
<g id="a_Node000003"><a xlink:title=" ">
<polygon fill="#e0e0e0" stroke="#999999" points="122,-261 62,-261 62,-242 122,-242 122,-261"/>
<text text-anchor="middle" x="92" y="-249" font-family="Helvetica,sans-Serif" font-size="10.00">SDL_ttf.h</text>
</a>
</g>
</g>
<!-- Node1&#45;&gt;Node3 -->
<g id="edge2_Node000001_Node000003" class="edge">
<title>Node1&#45;&gt;Node3</title>
<g id="a_edge2_Node000001_Node000003"><a xlink:title=" ">
<path fill="none" stroke="#63b8ff" d="M165.02,-296.98C151.53,-288.77 130.87,-276.18 114.96,-266.49"/>
<polygon fill="#63b8ff" stroke="#63b8ff" points="116.59,-263.38 106.23,-261.17 112.95,-269.36 116.59,-263.38"/>
</a>
</g>
</g>
<!-- Node4 -->
<g id="Node000004" class="node">
<title>Node4</title>
<g id="a_Node000004"><a xlink:title=" ">
<polygon fill="#e0e0e0" stroke="#999999" points="268,-79.5 224,-79.5 224,-60.5 268,-60.5 268,-79.5"/>
<text text-anchor="middle" x="246" y="-67.5" font-family="Helvetica,sans-Serif" font-size="10.00">string</text>
</a>
</g>
</g>
<!-- Node1&#45;&gt;Node4 -->
<g id="edge3_Node000001_Node000004" class="edge">
<title>Node1&#45;&gt;Node4</title>
<g id="a_edge3_Node000001_Node000004"><a xlink:title=" ">
<path fill="none" stroke="#63b8ff" d="M176.15,-296.94C170.01,-277.12 157.01,-226.73 169,-187 181.08,-146.96 212.01,-108.05 230.79,-87.04"/>
<polygon fill="#63b8ff" stroke="#63b8ff" points="233.37,-89.39 237.55,-79.65 228.21,-84.66 233.37,-89.39"/>
</a>
</g>
</g>
<!-- Node5 -->
<g id="Node000005" class="node">
<title>Node5</title>
<g id="a_Node000005"><a xlink:href="FireSimulator_8h.html" target="_top" xlink:title="Core fire&#45;evacuation simulation engine.">
<polygon fill="white" stroke="#666666" points="519,-261 365,-261 365,-242 519,-242 519,-261"/>
<text text-anchor="middle" x="442" y="-249" font-family="Helvetica,sans-Serif" font-size="10.00">../simulation/FireSimulator.h</text>
</a>
</g>
</g>
<!-- Node1&#45;&gt;Node5 -->
<g id="edge4_Node000001_Node000005" class="edge">
<title>Node1&#45;&gt;Node5</title>
<g id="a_edge4_Node000001_Node000005"><a xlink:title=" ">
<path fill="none" stroke="#63b8ff" d="M221.26,-296.98C267.04,-287.76 340.14,-273.03 389.55,-263.07"/>
<polygon fill="#63b8ff" stroke="#63b8ff" points="390.3,-266.49 399.41,-261.08 388.92,-259.63 390.3,-266.49"/>
</a>
</g>
</g>
<!-- Node15 -->
<g id="Node000015" class="node">
<title>Node15</title>
<g id="a_Node000015"><a xlink:href="SimEntities_8h.html" target="_top" xlink:title="Per&#45;tick simulation entities: CellNode, Corridor, Person, WaitingQueue.">
<polygon fill="white" stroke="#666666" points="375.5,-206 294.5,-206 294.5,-187 375.5,-187 375.5,-206"/>
<text text-anchor="middle" x="335" y="-194" font-family="Helvetica,sans-Serif" font-size="10.00">SimEntities.h</text>
</a>
</g>
</g>
<!-- Node1&#45;&gt;Node15 -->
<g id="edge26_Node000001_Node000015" class="edge">
<title>Node1&#45;&gt;Node15</title>
<g id="a_edge26_Node000001_Node000015"><a xlink:title=" ">
<path fill="none" stroke="#63b8ff" d="M191.5,-296.84C218.2,-278.36 281.04,-234.86 313.99,-212.05"/>
<polygon fill="#63b8ff" stroke="#63b8ff" points="316.21,-214.77 322.44,-206.2 312.22,-209.01 316.21,-214.77"/>
</a>
</g>
</g>
<!-- Node16 -->
<g id="Node000016" class="node">
<title>Node16</title>
<g id="a_Node000016"><a xlink:href="Layout_8h.html" target="_top" xlink:title=" ">
<polygon fill="white" stroke="#666666" points="237.5,-206 178.5,-206 178.5,-187 237.5,-187 237.5,-206"/>
<text text-anchor="middle" x="208" y="-194" font-family="Helvetica,sans-Serif" font-size="10.00">Layout.h</text>
</a>
</g>
</g>
<!-- Node1&#45;&gt;Node16 -->
<g id="edge27_Node000001_Node000016" class="edge">
<title>Node1&#45;&gt;Node16</title>
<g id="a_edge27_Node000001_Node000016"><a xlink:title=" ">
<path fill="none" stroke="#63b8ff" d="M181.37,-296.66C186.09,-279.09 196.74,-239.45 203.04,-215.95"/>
<polygon fill="#63b8ff" stroke="#63b8ff" points="206.46,-216.72 205.68,-206.16 199.7,-214.91 206.46,-216.72"/>
</a>
</g>
</g>
<!-- Node5&#45;&gt;Node4 -->
<g id="edge5_Node000005_Node000004" class="edge">
<title>Node5&#45;&gt;Node4</title>
<g id="a_edge5_Node000005_Node000004"><a xlink:title=" ">
<path fill="none" stroke="#63b8ff" d="M364.74,-243.95C336.75,-237.92 306.92,-226.7 286,-206 254.1,-174.42 247.38,-118.69 246.13,-89.7"/>
<polygon fill="#63b8ff" stroke="#63b8ff" points="249.63,-89.59 245.88,-79.69 242.64,-89.77 249.63,-89.59"/>
</a>
</g>
</g>
<!-- Node6 -->
<g id="Node000006" class="node">
<title>Node6</title>
<g id="a_Node000006"><a xlink:title=" ">
<polygon fill="#e0e0e0" stroke="#999999" points="699,-79.5 655,-79.5 655,-60.5 699,-60.5 699,-79.5"/>
<text text-anchor="middle" x="677" y="-67.5" font-family="Helvetica,sans-Serif" font-size="10.00">limits</text>
</a>
</g>
</g>
<!-- Node5&#45;&gt;Node6 -->
<g id="edge6_Node000005_Node000006" class="edge">
<title>Node5&#45;&gt;Node6</title>
<g id="a_edge6_Node000005_Node000006"><a xlink:title=" ">
<path fill="none" stroke="#63b8ff" d="M482,-241.99C507.65,-235.18 540.76,-223.78 566,-206 612.16,-173.49 649.86,-116.92 667.01,-88.44"/>
<polygon fill="#63b8ff" stroke="#63b8ff" points="670.14,-90.02 672.2,-79.63 664.11,-86.47 670.14,-90.02"/>
</a>
</g>
</g>
<!-- Node7 -->
<g id="Node000007" class="node">
<title>Node7</title>
<g id="a_Node000007"><a xlink:title=" ">
<polygon fill="#e0e0e0" stroke="#999999" points="517.5,-206 470.5,-206 470.5,-187 517.5,-187 517.5,-206"/>
<text text-anchor="middle" x="494" y="-194" font-family="Helvetica,sans-Serif" font-size="10.00">cmath</text>
</a>
</g>
</g>
<!-- Node5&#45;&gt;Node7 -->
<g id="edge7_Node000005_Node000007" class="edge">
<title>Node5&#45;&gt;Node7</title>
<g id="a_edge7_Node000005_Node000007"><a xlink:title=" ">
<path fill="none" stroke="#63b8ff" d="M450.59,-241.75C458.16,-234.03 469.38,-222.6 478.51,-213.28"/>
<polygon fill="#63b8ff" stroke="#63b8ff" points="481.07,-215.68 485.57,-206.09 476.07,-210.78 481.07,-215.68"/>
</a>
</g>
</g>
<!-- Node8 -->
<g id="Node000008" class="node">
<title>Node8</title>
<g id="a_Node000008"><a xlink:href="LinkedList_8h.html" target="_top" xlink:title="Generic singly&#45;linked list with pointer&#45;based node storage.">
<polygon fill="white" stroke="#666666" points="478.5,-85 377.5,-85 377.5,-55 478.5,-55 478.5,-85"/>
<text text-anchor="start" x="385.5" y="-73" font-family="Helvetica,sans-Serif" font-size="10.00">../data_structures</text>
<text text-anchor="middle" x="428" y="-62" font-family="Helvetica,sans-Serif" font-size="10.00">/LinkedList.h</text>
</a>
</g>
</g>
<!-- Node5&#45;&gt;Node8 -->
<g id="edge8_Node000005_Node000008" class="edge">
<title>Node5&#45;&gt;Node8</title>
<g id="a_edge8_Node000005_Node000008"><a xlink:title=" ">
<path fill="none" stroke="#63b8ff" d="M441.32,-241.84C439.27,-215.54 433.06,-135.9 429.9,-95.33"/>
<polygon fill="#63b8ff" stroke="#63b8ff" points="433.38,-94.92 429.11,-85.22 426.4,-95.46 433.38,-94.92"/>
</a>
</g>
</g>
<!-- Node11 -->
<g id="Node000011" class="node">
<title>Node11</title>
<g id="a_Node000011"><a xlink:href="Queue_8h.html" target="_top" xlink:title="Generic FIFO queue built on LinkedList.">
<polygon fill="white" stroke="#666666" points="413.5,-151 312.5,-151 312.5,-121 413.5,-121 413.5,-151"/>
<text text-anchor="start" x="320.5" y="-139" font-family="Helvetica,sans-Serif" font-size="10.00">../data_structures</text>
<text text-anchor="middle" x="363" y="-128" font-family="Helvetica,sans-Serif" font-size="10.00">/Queue.h</text>
</a>
</g>
</g>
<!-- Node5&#45;&gt;Node11 -->
<g id="edge11_Node000005_Node000011" class="edge">
<title>Node5&#45;&gt;Node11</title>
<g id="a_edge11_Node000005_Node000011"><a xlink:title=" ">
<path fill="none" stroke="#63b8ff" d="M436.06,-241.97C423.99,-224.63 396.25,-184.77 378.64,-159.47"/>
<polygon fill="#63b8ff" stroke="#63b8ff" points="381.46,-157.39 372.87,-151.18 375.71,-161.39 381.46,-157.39"/>
</a>
</g>
</g>
<!-- Node12 -->
<g id="Node000012" class="node">
<title>Node12</title>
<g id="a_Node000012"><a xlink:href="priority__queue_8h.html" target="_top" xlink:title="Pointer&#45;based binary min&#45;heap priority queue.">
<polygon fill="white" stroke="#666666" points="636.5,-85 535.5,-85 535.5,-55 636.5,-55 636.5,-85"/>
<text text-anchor="start" x="543.5" y="-73" font-family="Helvetica,sans-Serif" font-size="10.00">../data_structures</text>
<text text-anchor="middle" x="586" y="-62" font-family="Helvetica,sans-Serif" font-size="10.00">/priority_queue.h</text>
</a>
</g>
</g>
<!-- Node5&#45;&gt;Node12 -->
<g id="edge13_Node000005_Node000012" class="edge">
<title>Node5&#45;&gt;Node12</title>
<g id="a_edge13_Node000005_Node000012"><a xlink:title=" ">
<path fill="none" stroke="#63b8ff" d="M472.68,-241.9C494.05,-234.79 522.32,-223.09 543,-206 565.9,-187.07 571.27,-179.07 581,-151 587.22,-133.05 588.23,-111.5 587.81,-95.29"/>
<polygon fill="#63b8ff" stroke="#63b8ff" points="591.3,-94.86 587.35,-85.03 584.31,-95.18 591.3,-94.86"/>
</a>
</g>
</g>
<!-- Node14 -->
<g id="Node000014" class="node">
<title>Node14</title>
<g id="a_Node000014"><a xlink:href="Graph_8h.html" target="_top" xlink:title="Adjacency&#45;list directed/undirected graph with Dijkstra shortest&#45;path.">
<polygon fill="white" stroke="#666666" points="571.5,-151 470.5,-151 470.5,-121 571.5,-121 571.5,-151"/>
<text text-anchor="start" x="478.5" y="-139" font-family="Helvetica,sans-Serif" font-size="10.00">../data_structures</text>
<text text-anchor="middle" x="521" y="-128" font-family="Helvetica,sans-Serif" font-size="10.00">/Graph.h</text>
</a>
</g>
</g>
<!-- Node5&#45;&gt;Node14 -->
<g id="edge16_Node000005_Node000014" class="edge">
<title>Node5&#45;&gt;Node14</title>
<g id="a_edge16_Node000005_Node000014"><a xlink:title=" ">
<path fill="none" stroke="#63b8ff" d="M476.22,-241.93C494.71,-235.37 515.96,-224.24 527,-206 535.09,-192.64 533.42,-175.07 529.82,-161.01"/>
<polygon fill="#63b8ff" stroke="#63b8ff" points="533.06,-159.62 526.82,-151.06 526.36,-161.65 533.06,-159.62"/>
</a>
</g>
</g>
<!-- Node5&#45;&gt;Node15 -->
<g id="edge22_Node000005_Node000015" class="edge">
<title>Node5&#45;&gt;Node15</title>
<g id="a_edge22_Node000005_Node000015"><a xlink:title=" ">
<path fill="none" stroke="#63b8ff" d="M424.81,-241.98C407.75,-233.54 381.37,-220.47 361.6,-210.68"/>
<polygon fill="#63b8ff" stroke="#63b8ff" points="363.02,-207.47 352.5,-206.17 359.91,-213.75 363.02,-207.47"/>
</a>
</g>
</g>
<!-- Node9 -->
<g id="Node000009" class="node">
<title>Node9</title>
<g id="a_Node000009"><a xlink:title=" ">
<polygon fill="#e0e0e0" stroke="#999999" points="539.5,-19 474.5,-19 474.5,0 539.5,0 539.5,-19"/>
<text text-anchor="middle" x="507" y="-7" font-family="Helvetica,sans-Serif" font-size="10.00">stdexcept</text>
</a>
</g>
</g>
<!-- Node8&#45;&gt;Node9 -->
<g id="edge9_Node000008_Node000009" class="edge">
<title>Node8&#45;&gt;Node9</title>
<g id="a_edge9_Node000008_Node000009"><a xlink:title=" ">
<path fill="none" stroke="#63b8ff" d="M447.12,-54.84C459.18,-45.91 474.71,-34.41 486.94,-25.35"/>
<polygon fill="#63b8ff" stroke="#63b8ff" points="489.21,-28.03 495.16,-19.27 485.04,-22.4 489.21,-28.03"/>
</a>
</g>
</g>
<!-- Node10 -->
<g id="Node000010" class="node">
<title>Node10</title>
<g id="a_Node000010"><a xlink:href="Node_8h.html" target="_top" xlink:title="Generic singly&#45;linked node used by LinkedList and Queue.">
<polygon fill="white" stroke="#666666" points="453.5,-19 402.5,-19 402.5,0 453.5,0 453.5,-19"/>
<text text-anchor="middle" x="428" y="-7" font-family="Helvetica,sans-Serif" font-size="10.00">Node.h</text>
</a>
</g>
</g>
<!-- Node8&#45;&gt;Node10 -->
<g id="edge10_Node000008_Node000010" class="edge">
<title>Node8&#45;&gt;Node10</title>
<g id="a_edge10_Node000008_Node000010"><a xlink:title=" ">
<path fill="none" stroke="#63b8ff" d="M428,-54.84C428,-47.21 428,-37.7 428,-29.45"/>
<polygon fill="#63b8ff" stroke="#63b8ff" points="431.5,-29.27 428,-19.27 424.5,-29.27 431.5,-29.27"/>
</a>
</g>
</g>
<!-- Node11&#45;&gt;Node8 -->
<g id="edge12_Node000011_Node000008" class="edge">
<title>Node11&#45;&gt;Node8</title>
<g id="a_edge12_Node000011_Node000008"><a xlink:title=" ">
<path fill="none" stroke="#63b8ff" d="M377.43,-120.8C385.93,-112.43 396.84,-101.68 406.36,-92.31"/>
<polygon fill="#63b8ff" stroke="#63b8ff" points="408.94,-94.67 413.61,-85.16 404.03,-89.69 408.94,-94.67"/>
</a>
</g>
</g>
<!-- Node12&#45;&gt;Node9 -->
<g id="edge15_Node000012_Node000009" class="edge">
<title>Node12&#45;&gt;Node9</title>
<g id="a_edge15_Node000012_Node000009"><a xlink:title=" ">
<path fill="none" stroke="#63b8ff" d="M566.88,-54.84C554.82,-45.91 539.29,-34.41 527.06,-25.35"/>
<polygon fill="#63b8ff" stroke="#63b8ff" points="528.96,-22.4 518.84,-19.27 524.79,-28.03 528.96,-22.4"/>
</a>
</g>
</g>
<!-- Node13 -->
<g id="Node000013" class="node">
<title>Node13</title>
<g id="a_Node000013"><a xlink:title=" ">
<polygon fill="#e0e0e0" stroke="#999999" points="612.5,-19 559.5,-19 559.5,0 612.5,0 612.5,-19"/>
<text text-anchor="middle" x="586" y="-7" font-family="Helvetica,sans-Serif" font-size="10.00">cstddef</text>
</a>
</g>
</g>
<!-- Node12&#45;&gt;Node13 -->
<g id="edge14_Node000012_Node000013" class="edge">
<title>Node12&#45;&gt;Node13</title>
<g id="a_edge14_Node000012_Node000013"><a xlink:title=" ">
<path fill="none" stroke="#63b8ff" d="M586,-54.84C586,-47.21 586,-37.7 586,-29.45"/>
<polygon fill="#63b8ff" stroke="#63b8ff" points="589.5,-29.27 586,-19.27 582.5,-29.27 589.5,-29.27"/>
</a>
</g>
</g>
<!-- Node14&#45;&gt;Node4 -->
<g id="edge19_Node000014_Node000004" class="edge">
<title>Node14&#45;&gt;Node4</title>
<g id="a_edge19_Node000014_Node000004"><a xlink:title=" ">
<path fill="none" stroke="#63b8ff" d="M470.24,-123.19C414.11,-110.12 325.4,-89.48 278.13,-78.48"/>
<polygon fill="#63b8ff" stroke="#63b8ff" points="278.69,-75.01 268.15,-76.16 277.1,-81.83 278.69,-75.01"/>
</a>
</g>
</g>
<!-- Node14&#45;&gt;Node6 -->
<g id="edge17_Node000014_Node000006" class="edge">
<title>Node14&#45;&gt;Node6</title>
<g id="a_edge17_Node000014_Node000006"><a xlink:title=" ">
<path fill="none" stroke="#63b8ff" d="M557.27,-120.97C582.32,-111.17 616.32,-97.63 646,-85 647.01,-84.57 648.03,-84.13 649.06,-83.69"/>
<polygon fill="#63b8ff" stroke="#63b8ff" points="650.64,-86.82 658.37,-79.57 647.81,-80.41 650.64,-86.82"/>
</a>
</g>
</g>
<!-- Node14&#45;&gt;Node8 -->
<g id="edge20_Node000014_Node000008" class="edge">
<title>Node14&#45;&gt;Node8</title>
<g id="a_edge20_Node000014_Node000008"><a xlink:title=" ">
<path fill="none" stroke="#63b8ff" d="M500.36,-120.8C487.6,-112.01 471.02,-100.61 456.96,-90.93"/>
<polygon fill="#63b8ff" stroke="#63b8ff" points="458.8,-87.95 448.58,-85.16 454.84,-93.72 458.8,-87.95"/>
</a>
</g>
</g>
<!-- Node14&#45;&gt;Node9 -->
<g id="edge18_Node000014_Node000009" class="edge">
<title>Node14&#45;&gt;Node9</title>
<g id="a_edge18_Node000014_Node000009"><a xlink:title=" ">
<path fill="none" stroke="#63b8ff" d="M519.39,-120.72C516.85,-98.12 511.91,-54.12 509.09,-29.09"/>
<polygon fill="#63b8ff" stroke="#63b8ff" points="512.56,-28.62 507.96,-19.07 505.6,-29.4 512.56,-28.62"/>
</a>
</g>
</g>
<!-- Node14&#45;&gt;Node12 -->
<g id="edge21_Node000014_Node000012" class="edge">
<title>Node14&#45;&gt;Node12</title>
<g id="a_edge21_Node000014_Node000012"><a xlink:title=" ">
<path fill="none" stroke="#63b8ff" d="M535.43,-120.8C543.93,-112.43 554.84,-101.68 564.36,-92.31"/>
<polygon fill="#63b8ff" stroke="#63b8ff" points="566.94,-94.67 571.61,-85.16 562.03,-89.69 566.94,-94.67"/>
</a>
</g>
</g>
<!-- Node15&#45;&gt;Node4 -->
<g id="edge23_Node000015_Node000004" class="edge">
<title>Node15&#45;&gt;Node4</title>
<g id="a_edge23_Node000015_Node000004"><a xlink:title=" ">
<path fill="none" stroke="#63b8ff" d="M328.88,-186.94C314.34,-166.6 277.47,-115.03 258.18,-88.04"/>
<polygon fill="#63b8ff" stroke="#63b8ff" points="260.82,-85.72 252.16,-79.62 255.13,-89.79 260.82,-85.72"/>
</a>
</g>
</g>
<!-- Node15&#45;&gt;Node11 -->
<g id="edge24_Node000015_Node000011" class="edge">
<title>Node15&#45;&gt;Node11</title>
<g id="a_edge24_Node000015_Node000011"><a xlink:title=" ">
<path fill="none" stroke="#63b8ff" d="M339.13,-186.87C342.47,-179.89 347.34,-169.71 351.81,-160.38"/>
<polygon fill="#63b8ff" stroke="#63b8ff" points="355.08,-161.65 356.24,-151.11 348.77,-158.62 355.08,-161.65"/>
</a>
</g>
</g>
<!-- Node15&#45;&gt;Node14 -->
<g id="edge25_Node000015_Node000014" class="edge">
<title>Node15&#45;&gt;Node14</title>
<g id="a_edge25_Node000015_Node000014"><a xlink:title=" ">
<path fill="none" stroke="#63b8ff" d="M362.05,-186.99C389.28,-178.43 432.07,-164.97 466.39,-154.18"/>
<polygon fill="#63b8ff" stroke="#63b8ff" points="467.79,-157.4 476.28,-151.06 465.69,-150.73 467.79,-157.4"/>
</a>
</g>
</g>
<!-- Node16&#45;&gt;Node4 -->
<g id="edge28_Node000016_Node000004" class="edge">
<title>Node16&#45;&gt;Node4</title>
<g id="a_edge28_Node000016_Node000004"><a xlink:title=" ">
<path fill="none" stroke="#63b8ff" d="M210.61,-186.94C216.71,-166.95 232.02,-116.82 240.36,-89.48"/>
<polygon fill="#63b8ff" stroke="#63b8ff" points="243.8,-90.2 243.37,-79.62 237.1,-88.16 243.8,-90.2"/>
</a>
</g>
</g>
</g>
</svg>
