<?xml version="1.0" encoding="UTF-8" standalone="no"?>
<!DOCTYPE svg PUBLIC "-//W3C//DTD SVG 1.1//EN"
 "http://www.w3.org/Graphics/SVG/1.1/DTD/svg11.dtd">
<!-- Generated by graphviz version 2.43.0 (0)
 -->
<!-- Title: include/io/SceneData.h Pages: 1 -->
<svg width="371pt" height="203pt"
 viewBox="0.00 0.00 371.00 203.00" xmlns="http://www.w3.org/2000/svg" xmlns:xlink="http://www.w3.org/1999/xlink">
<g id="graph0" class="graph" transform="scale(1 1) rotate(0) translate(4 199)">
<title>include/io/SceneData.h</title>
<!-- Node1 -->
<g id="Node000001" class="node">
<title>Node1</title>
<g id="a_Node000001"><a xlink:title="Plain data structures describing a building evacuation scene.">
<polygon fill="#999999" stroke="#666666" points="326.5,-195 198.5,-195 198.5,-176 326.5,-176 326.5,-195"/>
<text text-anchor="middle" x="262.5" y="-183" font-family="Helvetica,sans-Serif" font-size="10.00">include/io/SceneData.h</text>
</a>
</g>
</g>
<!-- Node2 -->
<g id="Node000002" class="node">
<title>Node2</title>
<g id="a_Node000002"><a xlink:href="JsonSceneParser_8h.html" target="_top" xlink:title="Minimal, dependency&#45;free JSON parser for evacuation scene files.">
<polygon fill="white" stroke="#666666" points="234,-140 79,-140 79,-121 234,-121 234,-140"/>
<text text-anchor="middle" x="156.5" y="-128" font-family="Helvetica,sans-Serif" font-size="10.00">include/io/JsonSceneParser.h</text>
</a>
</g>
</g>
<!-- Node1&#45;&gt;Node2 -->
<g id="edge1_Node000001_Node000002" class="edge">
<title>Node1&#45;&gt;Node2</title>
<g id="a_edge1_Node000001_Node000002"><a xlink:title=" ">
<path fill="none" stroke="#63b8ff" d="M236.5,-171.5C217,-161.75 190.85,-148.68 173.84,-140.17"/>
<polygon fill="#63b8ff" stroke="#63b8ff" points="234.96,-174.64 245.47,-175.98 238.09,-168.38 234.96,-174.64"/>
</a>
</g>
</g>
<!-- Node3 -->
<g id="Node000003" class="node">
<title>Node3</title>
<g id="a_Node000003"><a xlink:href="SceneLoader_8h.html" target="_top" xlink:title="Builds a FireSimulator (and optional GUI Layout) from a SceneData.">
<polygon fill="white" stroke="#666666" points="263,-85 126,-85 126,-66 263,-66 263,-85"/>
<text text-anchor="middle" x="194.5" y="-73" font-family="Helvetica,sans-Serif" font-size="10.00">include/io/SceneLoader.h</text>
</a>
</g>
</g>
<!-- Node1&#45;&gt;Node3 -->
<g id="edge9_Node000001_Node000003" class="edge">
<title>Node1&#45;&gt;Node3</title>
<g id="a_edge9_Node000001_Node000003"><a xlink:title=" ">
<path fill="none" stroke="#63b8ff" d="M259.66,-165.78C257.01,-152.5 252.12,-134.69 243.5,-121 234.19,-106.22 218.66,-93.3 207.58,-85.25"/>
<polygon fill="#63b8ff" stroke="#63b8ff" points="256.22,-166.42 261.39,-175.67 263.11,-165.21 256.22,-166.42"/>
</a>
</g>
</g>
<!-- Node4 -->
<g id="Node000004" class="node">
<title>Node4</title>
<g id="a_Node000004"><a xlink:href="main__gui_8cpp.html" target="_top" xlink:title="SDL2 graphical frontend for the Fire Evacuation simulator.">
<polygon fill="white" stroke="#666666" points="240,-24.5 141,-24.5 141,-5.5 240,-5.5 240,-24.5"/>
<text text-anchor="middle" x="190.5" y="-12.5" font-family="Helvetica,sans-Serif" font-size="10.00">src/main_gui.cpp</text>
</a>
</g>
</g>
<!-- Node1&#45;&gt;Node4 -->
<g id="edge10_Node000001_Node000004" class="edge">
<title>Node1&#45;&gt;Node4</title>
<g id="a_edge10_Node000001_Node000004"><a xlink:title=" ">
<path fill="none" stroke="#63b8ff" d="M270.04,-166.28C278.9,-141.79 290.29,-97.68 272.5,-66 260.91,-45.35 236.95,-32.23 217.9,-24.63"/>
<polygon fill="#63b8ff" stroke="#63b8ff" points="266.71,-165.17 266.37,-175.76 273.24,-167.7 266.71,-165.17"/>
</a>
</g>
</g>
<!-- Node5 -->
<g id="Node000005" class="node">
<title>Node5</title>
<g id="a_Node000005"><a xlink:href="sim__demo_8cpp.html" target="_top" xlink:title="Command&#45;line entry point for the Fire Evacuation simulator.">
<polygon fill="white" stroke="#666666" points="363,-24.5 258,-24.5 258,-5.5 363,-5.5 363,-24.5"/>
<text text-anchor="middle" x="310.5" y="-12.5" font-family="Helvetica,sans-Serif" font-size="10.00">src/sim_demo.cpp</text>
</a>
</g>
</g>
<!-- Node1&#45;&gt;Node5 -->
<g id="edge11_Node000001_Node000005" class="edge">
<title>Node1&#45;&gt;Node5</title>
<g id="a_edge11_Node000001_Node000005"><a xlink:title=" ">
<path fill="none" stroke="#63b8ff" d="M303.36,-172.12C318.74,-165.26 334.64,-154.98 343.5,-140 360.25,-111.69 352.96,-97.5 343.5,-66 338.65,-49.86 326.73,-34.13 318.62,-24.75"/>
<polygon fill="#63b8ff" stroke="#63b8ff" points="301.86,-168.96 293.92,-175.97 304.5,-175.44 301.86,-168.96"/>
</a>
</g>
</g>
<!-- Node6 -->
<g id="Node000006" class="node">
<title>Node6</title>
<g id="a_Node000006"><a xlink:href="test__scene__io_8cpp.html" target="_top" xlink:title="Unit and integration tests for the data/ input pipeline.">
<polygon fill="white" stroke="#666666" points="119,-30 0,-30 0,0 119,0 119,-30"/>
<text text-anchor="start" x="8" y="-18" font-family="Helvetica,sans-Serif" font-size="10.00">tests/integration/test</text>
<text text-anchor="middle" x="59.5" y="-7" font-family="Helvetica,sans-Serif" font-size="10.00">_scene_io.cpp</text>
</a>
</g>
</g>
<!-- Node1&#45;&gt;Node6 -->
<g id="edge12_Node000001_Node000006" class="edge">
<title>Node1&#45;&gt;Node6</title>
<g id="a_edge12_Node000001_Node000006"><a xlink:title=" ">
<path fill="none" stroke="#63b8ff" d="M188.25,-176.3C141.08,-169.46 86.06,-157.9 70.5,-140 43.55,-109.01 50.55,-55.72 55.94,-30.3"/>
<polygon fill="#63b8ff" stroke="#63b8ff" points="187.8,-179.77 198.18,-177.69 188.77,-172.84 187.8,-179.77"/>
</a>
</g>
</g>
<!-- Node2&#45;&gt;Node3 -->
<g id="edge2_Node000002_Node000003" class="edge">
<title>Node2&#45;&gt;Node3</title>
<g id="a_edge2_Node000002_Node000003"><a xlink:title=" ">
<path fill="none" stroke="#63b8ff" d="M168.77,-112.39C175.31,-103.27 183.07,-92.45 188.34,-85.09"/>
<polygon fill="#63b8ff" stroke="#63b8ff" points="165.76,-110.58 162.77,-120.75 171.45,-114.66 165.76,-110.58"/>
</a>
</g>
</g>
<!-- Node2&#45;&gt;Node4 -->
<g id="edge6_Node000002_Node000004" class="edge">
<title>Node2&#45;&gt;Node4</title>
<g id="a_edge6_Node000002_Node000004"><a xlink:title=" ">
<path fill="none" stroke="#63b8ff" d="M136.75,-114.16C122.99,-101.51 108.57,-82.93 117.5,-66 128.03,-46.02 150.54,-32.5 167.79,-24.61"/>
<polygon fill="#63b8ff" stroke="#63b8ff" points="134.73,-117.04 144.6,-120.88 139.28,-111.72 134.73,-117.04"/>
</a>
</g>
</g>
<!-- Node2&#45;&gt;Node5 -->
<g id="edge7_Node000002_Node000005" class="edge">
<title>Node2&#45;&gt;Node5</title>
<g id="a_edge7_Node000002_Node000005"><a xlink:title=" ">
<path fill="none" stroke="#63b8ff" d="M208.36,-118.06C230.06,-111.27 254.38,-100.79 272.5,-85 291.68,-68.29 303.05,-39.44 307.83,-24.91"/>
<polygon fill="#63b8ff" stroke="#63b8ff" points="207.22,-114.75 198.61,-120.93 209.19,-121.47 207.22,-114.75"/>
</a>
</g>
</g>
<!-- Node2&#45;&gt;Node6 -->
<g id="edge8_Node000002_Node000006" class="edge">
<title>Node2&#45;&gt;Node6</title>
<g id="a_edge8_Node000002_Node000006"><a xlink:title=" ">
<path fill="none" stroke="#63b8ff" d="M139,-113.86C130.11,-105.6 119.36,-95.11 110.5,-85 94.8,-67.07 78.8,-44.6 69.01,-30.27"/>
<polygon fill="#63b8ff" stroke="#63b8ff" points="136.78,-116.57 146.52,-120.74 141.5,-111.41 136.78,-116.57"/>
</a>
</g>
</g>
<!-- Node3&#45;&gt;Node4 -->
<g id="edge3_Node000003_Node000004" class="edge">
<title>Node3&#45;&gt;Node4</title>
<g id="a_edge3_Node000003_Node000004"><a xlink:title=" ">
<path fill="none" stroke="#63b8ff" d="M193.21,-55.66C192.5,-45.24 191.65,-32.8 191.09,-24.67"/>
<polygon fill="#63b8ff" stroke="#63b8ff" points="189.74,-56.13 193.91,-65.87 196.72,-55.65 189.74,-56.13"/>
</a>
</g>
</g>
<!-- Node3&#45;&gt;Node5 -->
<g id="edge4_Node000003_Node000005" class="edge">
<title>Node3&#45;&gt;Node5</title>
<g id="a_edge4_Node000003_Node000005"><a xlink:title=" ">
<path fill="none" stroke="#63b8ff" d="M220.82,-61.23C243.03,-50.03 274.18,-34.32 293.31,-24.67"/>
<polygon fill="#63b8ff" stroke="#63b8ff" points="218.97,-58.24 211.62,-65.87 222.12,-64.49 218.97,-58.24"/>
</a>
</g>
</g>
<!-- Node3&#45;&gt;Node6 -->
<g id="edge5_Node000003_Node000006" class="edge">
<title>Node3&#45;&gt;Node6</title>
<g id="a_edge5_Node000003_Node000006"><a xlink:title=" ">
<path fill="none" stroke="#63b8ff" d="M165.55,-61.95C143.93,-52.59 114.37,-39.78 91.96,-30.06"/>
<polygon fill="#63b8ff" stroke="#63b8ff" points="164.3,-65.23 174.87,-65.99 167.09,-58.81 164.3,-65.23"/>
</a>
</g>
</g>
</g>
</svg>
