<?xml version="1.0" encoding="UTF-8" standalone="no"?>
<!DOCTYPE svg PUBLIC "-//W3C//DTD SVG 1.1//EN"
 "http://www.w3.org/Graphics/SVG/1.1/DTD/svg11.dtd">
<!-- Generated by graphviz version 2.43.0 (0)
 -->
<!-- Title: include/io/SceneLoader.h Pages: 1 -->
<svg width="788pt" height="313pt"
 viewBox="0.00 0.00 787.50 313.00" xmlns="http://www.w3.org/2000/svg" xmlns:xlink="http://www.w3.org/1999/xlink">
<g id="graph0" class="graph" transform="scale(1 1) rotate(0) translate(4 309)">
<title>include/io/SceneLoader.h</title>
<!-- Node1 -->
<g id="Node000001" class="node">
<title>Node1</title>
<g id="a_Node000001"><a xlink:title="Builds a FireSimulator (and optional GUI Layout) from a SceneData.">
<polygon fill="#999999" stroke="#666666" points="398,-305 261,-305 261,-286 398,-286 398,-305"/>
<text text-anchor="middle" x="329.5" y="-293" font-family="Helvetica,sans-Serif" font-size="10.00">include/io/SceneLoader.h</text>
</a>
</g>
</g>
<!-- Node2 -->
<g id="Node000002" class="node">
<title>Node2</title>
<g id="a_Node000002"><a xlink:title=" ">
<polygon fill="#e0e0e0" stroke="#999999" points="370.5,-74 326.5,-74 326.5,-55 370.5,-55 370.5,-74"/>
<text text-anchor="middle" x="348.5" y="-62" font-family="Helvetica,sans-Serif" font-size="10.00">string</text>
</a>
</g>
</g>
<!-- Node1&#45;&gt;Node2 -->
<g id="edge1_Node000001_Node000002" class="edge">
<title>Node1&#45;&gt;Node2</title>
<g id="a_edge1_Node000001_Node000002"><a xlink:title=" ">
<path fill="none" stroke="#63b8ff" d="M330.22,-285.8C333,-252.29 343.06,-131.08 346.95,-84.2"/>
<polygon fill="#63b8ff" stroke="#63b8ff" points="350.44,-84.46 347.78,-74.21 343.46,-83.88 350.44,-84.46"/>
</a>
</g>
</g>
<!-- Node3 -->
<g id="Node000003" class="node">
<title>Node3</title>
<g id="a_Node000003"><a xlink:href="Graph_8h.html" target="_top" xlink:title="Adjacency&#45;list directed/undirected graph with Dijkstra shortest&#45;path.">
<polygon fill="white" stroke="#666666" points="692,-140 591,-140 591,-110 692,-110 692,-140"/>
<text text-anchor="start" x="599" y="-128" font-family="Helvetica,sans-Serif" font-size="10.00">../data_structures</text>
<text text-anchor="middle" x="641.5" y="-117" font-family="Helvetica,sans-Serif" font-size="10.00">/Graph.h</text>
</a>
</g>
</g>
<!-- Node1&#45;&gt;Node3 -->
<g id="edge2_Node000001_Node000003" class="edge">
<title>Node1&#45;&gt;Node3</title>
<g id="a_edge2_Node000001_Node000003"><a xlink:title=" ">
<path fill="none" stroke="#63b8ff" d="M398.12,-288.46C466.18,-281.53 565.01,-268.67 598.5,-250 626.84,-234.2 635.11,-225.38 646.5,-195 651.82,-180.8 650.68,-163.83 648.15,-150.27"/>
<polygon fill="#63b8ff" stroke="#63b8ff" points="651.51,-149.24 645.93,-140.24 644.68,-150.76 651.51,-149.24"/>
</a>
</g>
</g>
<!-- Node10 -->
<g id="Node000010" class="node">
<title>Node10</title>
<g id="a_Node000010"><a xlink:href="FireSimulator_8h.html" target="_top" xlink:title="Core fire&#45;evacuation simulation engine.">
<polygon fill="white" stroke="#666666" points="589.5,-250 435.5,-250 435.5,-231 589.5,-231 589.5,-250"/>
<text text-anchor="middle" x="512.5" y="-238" font-family="Helvetica,sans-Serif" font-size="10.00">../simulation/FireSimulator.h</text>
</a>
</g>
</g>
<!-- Node1&#45;&gt;Node10 -->
<g id="edge12_Node000001_Node000010" class="edge">
<title>Node1&#45;&gt;Node10</title>
<g id="a_edge12_Node000001_Node000010"><a xlink:title=" ">
<path fill="none" stroke="#63b8ff" d="M358.9,-285.98C389.89,-277.01 438.88,-262.82 473.17,-252.89"/>
<polygon fill="#63b8ff" stroke="#63b8ff" points="474.24,-256.23 482.87,-250.08 472.29,-249.5 474.24,-256.23"/>
</a>
</g>
</g>
<!-- Node14 -->
<g id="Node000014" class="node">
<title>Node14</title>
<g id="a_Node000014"><a xlink:href="JsonSceneParser_8h.html" target="_top" xlink:title="Minimal, dependency&#45;free JSON parser for evacuation scene files.">
<polygon fill="white" stroke="#666666" points="228.5,-195 124.5,-195 124.5,-176 228.5,-176 228.5,-195"/>
<text text-anchor="middle" x="176.5" y="-183" font-family="Helvetica,sans-Serif" font-size="10.00">JsonSceneParser.h</text>
</a>
</g>
</g>
<!-- Node1&#45;&gt;Node14 -->
<g id="edge25_Node000001_Node000014" class="edge">
<title>Node1&#45;&gt;Node14</title>
<g id="a_edge25_Node000001_Node000014"><a xlink:title=" ">
<path fill="none" stroke="#63b8ff" d="M317.24,-285.84C291.05,-267.36 229.43,-223.86 197.11,-201.05"/>
<polygon fill="#63b8ff" stroke="#63b8ff" points="199.01,-198.1 188.82,-195.2 194.97,-203.82 199.01,-198.1"/>
</a>
</g>
</g>
<!-- Node17 -->
<g id="Node000017" class="node">
<title>Node17</title>
<g id="a_Node000017"><a xlink:href="SceneData_8h.html" target="_top" xlink:title="Plain data structures describing a building evacuation scene.">
<polygon fill="white" stroke="#666666" points="301.5,-134.5 223.5,-134.5 223.5,-115.5 301.5,-115.5 301.5,-134.5"/>
<text text-anchor="middle" x="262.5" y="-122.5" font-family="Helvetica,sans-Serif" font-size="10.00">SceneData.h</text>
</a>
</g>
</g>
<!-- Node1&#45;&gt;Node17 -->
<g id="edge32_Node000001_Node000017" class="edge">
<title>Node1&#45;&gt;Node17</title>
<g id="a_edge32_Node000001_Node000017"><a xlink:title=" ">
<path fill="none" stroke="#63b8ff" d="M326.09,-285.91C315.65,-259.67 284.02,-180.11 269.69,-144.08"/>
<polygon fill="#63b8ff" stroke="#63b8ff" points="272.94,-142.77 265.99,-134.77 266.43,-145.36 272.94,-142.77"/>
</a>
</g>
</g>
<!-- Node3&#45;&gt;Node2 -->
<g id="edge5_Node000003_Node000002" class="edge">
<title>Node3&#45;&gt;Node2</title>
<g id="a_edge5_Node000003_Node000002"><a xlink:title=" ">
<path fill="none" stroke="#63b8ff" d="M590.79,-112.02C587.65,-111.32 584.53,-110.64 581.5,-110 510.08,-94.85 425.83,-79.34 380.78,-71.24"/>
<polygon fill="#63b8ff" stroke="#63b8ff" points="381.19,-67.76 370.73,-69.44 379.95,-74.65 381.19,-67.76"/>
</a>
</g>
</g>
<!-- Node4 -->
<g id="Node000004" class="node">
<title>Node4</title>
<g id="a_Node000004"><a xlink:title=" ">
<polygon fill="#e0e0e0" stroke="#999999" points="779.5,-74 735.5,-74 735.5,-55 779.5,-55 779.5,-74"/>
<text text-anchor="middle" x="757.5" y="-62" font-family="Helvetica,sans-Serif" font-size="10.00">limits</text>
</a>
</g>
</g>
<!-- Node3&#45;&gt;Node4 -->
<g id="edge3_Node000003_Node000004" class="edge">
<title>Node3&#45;&gt;Node4</title>
<g id="a_edge3_Node000003_Node000004"><a xlink:title=" ">
<path fill="none" stroke="#63b8ff" d="M669.28,-109.99C688.12,-100.49 712.85,-88.02 731.34,-78.69"/>
<polygon fill="#63b8ff" stroke="#63b8ff" points="733.02,-81.77 740.37,-74.14 729.86,-75.52 733.02,-81.77"/>
</a>
</g>
</g>
<!-- Node5 -->
<g id="Node000005" class="node">
<title>Node5</title>
<g id="a_Node000005"><a xlink:title=" ">
<polygon fill="#e0e0e0" stroke="#999999" points="623,-19 558,-19 558,0 623,0 623,-19"/>
<text text-anchor="middle" x="590.5" y="-7" font-family="Helvetica,sans-Serif" font-size="10.00">stdexcept</text>
</a>
</g>
</g>
<!-- Node3&#45;&gt;Node5 -->
<g id="edge4_Node000003_Node000005" class="edge">
<title>Node3&#45;&gt;Node5</title>
<g id="a_edge4_Node000003_Node000005"><a xlink:title=" ">
<path fill="none" stroke="#63b8ff" d="M631.27,-109.66C624.68,-99.95 616.29,-86.63 610.5,-74 603.87,-59.54 598.58,-42.26 595.12,-29.39"/>
<polygon fill="#63b8ff" stroke="#63b8ff" points="598.43,-28.2 592.55,-19.38 591.65,-29.94 598.43,-28.2"/>
</a>
</g>
</g>
<!-- Node6 -->
<g id="Node000006" class="node">
<title>Node6</title>
<g id="a_Node000006"><a xlink:href="LinkedList_8h.html" target="_top" xlink:title="Generic singly&#45;linked list with pointer&#45;based node storage.">
<polygon fill="white" stroke="#666666" points="559.5,-74 485.5,-74 485.5,-55 559.5,-55 559.5,-74"/>
<text text-anchor="middle" x="522.5" y="-62" font-family="Helvetica,sans-Serif" font-size="10.00">LinkedList.h</text>
</a>
</g>
</g>
<!-- Node3&#45;&gt;Node6 -->
<g id="edge6_Node000003_Node000006" class="edge">
<title>Node3&#45;&gt;Node6</title>
<g id="a_edge6_Node000003_Node000006"><a xlink:title=" ">
<path fill="none" stroke="#63b8ff" d="M613,-109.99C593.59,-100.45 568.07,-87.9 549.08,-78.57"/>
<polygon fill="#63b8ff" stroke="#63b8ff" points="550.59,-75.41 540.07,-74.14 547.5,-81.69 550.59,-75.41"/>
</a>
</g>
</g>
<!-- Node8 -->
<g id="Node000008" class="node">
<title>Node8</title>
<g id="a_Node000008"><a xlink:href="priority__queue_8h.html" target="_top" xlink:title="Pointer&#45;based binary min&#45;heap priority queue.">
<polygon fill="white" stroke="#666666" points="715.5,-74 619.5,-74 619.5,-55 715.5,-55 715.5,-74"/>
<text text-anchor="middle" x="667.5" y="-62" font-family="Helvetica,sans-Serif" font-size="10.00">priority_queue.h</text>
</a>
</g>
</g>
<!-- Node3&#45;&gt;Node8 -->
<g id="edge9_Node000003_Node000008" class="edge">
<title>Node3&#45;&gt;Node8</title>
<g id="a_edge9_Node000003_Node000008"><a xlink:title=" ">
<path fill="none" stroke="#63b8ff" d="M647.79,-109.84C651.3,-101.95 655.7,-92.05 659.45,-83.61"/>
<polygon fill="#63b8ff" stroke="#63b8ff" points="662.74,-84.83 663.6,-74.27 656.34,-81.98 662.74,-84.83"/>
</a>
</g>
</g>
<!-- Node6&#45;&gt;Node5 -->
<g id="edge7_Node000006_Node000005" class="edge">
<title>Node6&#45;&gt;Node5</title>
<g id="a_edge7_Node000006_Node000005"><a xlink:title=" ">
<path fill="none" stroke="#63b8ff" d="M533.43,-54.98C543.58,-47.07 558.92,-35.11 571.15,-25.58"/>
<polygon fill="#63b8ff" stroke="#63b8ff" points="573.64,-28.08 579.38,-19.17 569.34,-22.56 573.64,-28.08"/>
</a>
</g>
</g>
<!-- Node7 -->
<g id="Node000007" class="node">
<title>Node7</title>
<g id="a_Node000007"><a xlink:href="Node_8h.html" target="_top" xlink:title="Generic singly&#45;linked node used by LinkedList and Queue.">
<polygon fill="white" stroke="#666666" points="540,-19 489,-19 489,0 540,0 540,-19"/>
<text text-anchor="middle" x="514.5" y="-7" font-family="Helvetica,sans-Serif" font-size="10.00">Node.h</text>
</a>
</g>
</g>
<!-- Node6&#45;&gt;Node7 -->
<g id="edge8_Node000006_Node000007" class="edge">
<title>Node6&#45;&gt;Node7</title>
<g id="a_edge8_Node000006_Node000007"><a xlink:title=" ">
<path fill="none" stroke="#63b8ff" d="M521.18,-54.75C520.13,-47.8 518.63,-37.85 517.31,-29.13"/>
<polygon fill="#63b8ff" stroke="#63b8ff" points="520.75,-28.45 515.8,-19.09 513.83,-29.5 520.75,-28.45"/>
</a>
</g>
</g>
<!-- Node8&#45;&gt;Node5 -->
<g id="edge11_Node000008_Node000005" class="edge">
<title>Node8&#45;&gt;Node5</title>
<g id="a_edge11_Node000008_Node000005"><a xlink:title=" ">
<path fill="none" stroke="#63b8ff" d="M655.13,-54.98C643.41,-46.92 625.58,-34.65 611.61,-25.03"/>
<polygon fill="#63b8ff" stroke="#63b8ff" points="613.32,-21.96 603.1,-19.17 609.35,-27.72 613.32,-21.96"/>
</a>
</g>
</g>
<!-- Node9 -->
<g id="Node000009" class="node">
<title>Node9</title>
<g id="a_Node000009"><a xlink:title=" ">
<polygon fill="#e0e0e0" stroke="#999999" points="694,-19 641,-19 641,0 694,0 694,-19"/>
<text text-anchor="middle" x="667.5" y="-7" font-family="Helvetica,sans-Serif" font-size="10.00">cstddef</text>
</a>
</g>
</g>
<!-- Node8&#45;&gt;Node9 -->
<g id="edge10_Node000008_Node000009" class="edge">
<title>Node8&#45;&gt;Node9</title>
<g id="a_edge10_Node000008_Node000009"><a xlink:title=" ">
<path fill="none" stroke="#63b8ff" d="M667.5,-54.75C667.5,-47.8 667.5,-37.85 667.5,-29.13"/>
<polygon fill="#63b8ff" stroke="#63b8ff" points="671,-29.09 667.5,-19.09 664,-29.09 671,-29.09"/>
</a>
</g>
</g>
<!-- Node10&#45;&gt;Node2 -->
<g id="edge13_Node000010_Node000002" class="edge">
<title>Node10&#45;&gt;Node2</title>
<g id="a_edge13_Node000010_Node000002"><a xlink:title=" ">
<path fill="none" stroke="#63b8ff" d="M498.6,-230.91C485.68,-222.58 466.26,-209.16 451.5,-195 413.65,-158.69 377.4,-108.3 359.72,-82.39"/>
<polygon fill="#63b8ff" stroke="#63b8ff" points="362.57,-80.35 354.07,-74.02 356.76,-84.27 362.57,-80.35"/>
</a>
</g>
</g>
<!-- Node10&#45;&gt;Node3 -->
<g id="edge20_Node000010_Node000003" class="edge">
<title>Node10&#45;&gt;Node3</title>
<g id="a_edge20_Node000010_Node000003"><a xlink:title=" ">
<path fill="none" stroke="#63b8ff" d="M563.14,-230.95C585.6,-224.64 610.5,-213.75 626.5,-195 636.96,-182.74 640.63,-164.87 641.73,-150.39"/>
<polygon fill="#63b8ff" stroke="#63b8ff" points="645.24,-150.26 642.14,-140.12 638.24,-149.98 645.24,-150.26"/>
</a>
</g>
</g>
<!-- Node10&#45;&gt;Node4 -->
<g id="edge14_Node000010_Node000004" class="edge">
<title>Node10&#45;&gt;Node4</title>
<g id="a_edge14_Node000010_Node000004"><a xlink:title=" ">
<path fill="none" stroke="#63b8ff" d="M587.13,-230.95C617.57,-224.69 651.8,-213.82 678.5,-195 718.2,-167.01 741.7,-112.13 751.74,-83.64"/>
<polygon fill="#63b8ff" stroke="#63b8ff" points="755.07,-84.72 754.93,-74.12 748.43,-82.49 755.07,-84.72"/>
</a>
</g>
</g>
<!-- Node10&#45;&gt;Node6 -->
<g id="edge16_Node000010_Node000006" class="edge">
<title>Node10&#45;&gt;Node6</title>
<g id="a_edge16_Node000010_Node000006"><a xlink:title=" ">
<path fill="none" stroke="#63b8ff" d="M494.73,-230.96C481.49,-223.51 464.38,-211.33 456.5,-195 452.83,-187.39 456.12,-184.44 456.5,-176 457.83,-146.58 448.08,-135.68 462.5,-110 469.84,-96.93 482.77,-86.6 494.76,-79.19"/>
<polygon fill="#63b8ff" stroke="#63b8ff" points="496.7,-82.11 503.63,-74.1 493.22,-76.04 496.7,-82.11"/>
</a>
</g>
</g>
<!-- Node10&#45;&gt;Node8 -->
<g id="edge19_Node000010_Node000008" class="edge">
<title>Node10&#45;&gt;Node8</title>
<g id="a_edge19_Node000010_Node000008"><a xlink:title=" ">
<path fill="none" stroke="#63b8ff" d="M563,-230.98C610.72,-219.73 678.21,-194.52 700.5,-140 705.55,-127.66 704.68,-122.66 700.5,-110 697.04,-99.54 690.07,-89.53 683.42,-81.66"/>
<polygon fill="#63b8ff" stroke="#63b8ff" points="685.83,-79.1 676.52,-74.04 680.64,-83.8 685.83,-79.1"/>
</a>
</g>
</g>
<!-- Node11 -->
<g id="Node000011" class="node">
<title>Node11</title>
<g id="a_Node000011"><a xlink:title=" ">
<polygon fill="#e0e0e0" stroke="#999999" points="618,-195 571,-195 571,-176 618,-176 618,-195"/>
<text text-anchor="middle" x="594.5" y="-183" font-family="Helvetica,sans-Serif" font-size="10.00">cmath</text>
</a>
</g>
</g>
<!-- Node10&#45;&gt;Node11 -->
<g id="edge15_Node000010_Node000011" class="edge">
<title>Node10&#45;&gt;Node11</title>
<g id="a_edge15_Node000010_Node000011"><a xlink:title=" ">
<path fill="none" stroke="#63b8ff" d="M525.67,-230.98C538.27,-222.84 557.5,-210.41 572.44,-200.76"/>
<polygon fill="#63b8ff" stroke="#63b8ff" points="574.59,-203.54 581.09,-195.17 570.79,-197.66 574.59,-203.54"/>
</a>
</g>
</g>
<!-- Node12 -->
<g id="Node000012" class="node">
<title>Node12</title>
<g id="a_Node000012"><a xlink:href="Queue_8h.html" target="_top" xlink:title="Generic FIFO queue built on LinkedList.">
<polygon fill="white" stroke="#666666" points="573,-140 472,-140 472,-110 573,-110 573,-140"/>
<text text-anchor="start" x="480" y="-128" font-family="Helvetica,sans-Serif" font-size="10.00">../data_structures</text>
<text text-anchor="middle" x="522.5" y="-117" font-family="Helvetica,sans-Serif" font-size="10.00">/Queue.h</text>
</a>
</g>
</g>
<!-- Node10&#45;&gt;Node12 -->
<g id="edge17_Node000010_Node000012" class="edge">
<title>Node10&#45;&gt;Node12</title>
<g id="a_edge17_Node000010_Node000012"><a xlink:title=" ">
<path fill="none" stroke="#63b8ff" d="M497.21,-230.93C478.96,-219.5 452.14,-198.11 462.5,-176 468.13,-163.99 478.22,-153.85 488.54,-145.91"/>
<polygon fill="#63b8ff" stroke="#63b8ff" points="490.68,-148.69 496.78,-140.03 486.61,-142.99 490.68,-148.69"/>
</a>
</g>
</g>
<!-- Node13 -->
<g id="Node000013" class="node">
<title>Node13</title>
<g id="a_Node000013"><a xlink:href="SimEntities_8h.html" target="_top" xlink:title="Per&#45;tick simulation entities: CellNode, Corridor, Person, WaitingQueue.">
<polygon fill="white" stroke="#666666" points="553,-195 472,-195 472,-176 553,-176 553,-195"/>
<text text-anchor="middle" x="512.5" y="-183" font-family="Helvetica,sans-Serif" font-size="10.00">SimEntities.h</text>
</a>
</g>
</g>
<!-- Node10&#45;&gt;Node13 -->
<g id="edge21_Node000010_Node000013" class="edge">
<title>Node10&#45;&gt;Node13</title>
<g id="a_edge21_Node000010_Node000013"><a xlink:title=" ">
<path fill="none" stroke="#63b8ff" d="M512.5,-230.75C512.5,-223.8 512.5,-213.85 512.5,-205.13"/>
<polygon fill="#63b8ff" stroke="#63b8ff" points="516,-205.09 512.5,-195.09 509,-205.09 516,-205.09"/>
</a>
</g>
</g>
<!-- Node12&#45;&gt;Node6 -->
<g id="edge18_Node000012_Node000006" class="edge">
<title>Node12&#45;&gt;Node6</title>
<g id="a_edge18_Node000012_Node000006"><a xlink:title=" ">
<path fill="none" stroke="#63b8ff" d="M522.5,-109.84C522.5,-102.21 522.5,-92.7 522.5,-84.45"/>
<polygon fill="#63b8ff" stroke="#63b8ff" points="526,-84.27 522.5,-74.27 519,-84.27 526,-84.27"/>
</a>
</g>
</g>
<!-- Node13&#45;&gt;Node2 -->
<g id="edge22_Node000013_Node000002" class="edge">
<title>Node13&#45;&gt;Node2</title>
<g id="a_edge22_Node000013_Node000002"><a xlink:title=" ">
<path fill="none" stroke="#63b8ff" d="M500.71,-175.94C473.06,-155.88 403.81,-105.64 369.07,-80.42"/>
<polygon fill="#63b8ff" stroke="#63b8ff" points="370.78,-77.34 360.63,-74.3 366.67,-83.01 370.78,-77.34"/>
</a>
</g>
</g>
<!-- Node13&#45;&gt;Node3 -->
<g id="edge24_Node000013_Node000003" class="edge">
<title>Node13&#45;&gt;Node3</title>
<g id="a_edge24_Node000013_Node000003"><a xlink:title=" ">
<path fill="none" stroke="#63b8ff" d="M531.26,-175.99C549.44,-167.75 577.6,-154.98 600.92,-144.4"/>
<polygon fill="#63b8ff" stroke="#63b8ff" points="602.57,-147.5 610.24,-140.18 599.68,-141.12 602.57,-147.5"/>
</a>
</g>
</g>
<!-- Node13&#45;&gt;Node12 -->
<g id="edge23_Node000013_Node000012" class="edge">
<title>Node13&#45;&gt;Node12</title>
<g id="a_edge23_Node000013_Node000012"><a xlink:title=" ">
<path fill="none" stroke="#63b8ff" d="M513.98,-175.87C515.13,-169.11 516.8,-159.35 518.35,-150.26"/>
<polygon fill="#63b8ff" stroke="#63b8ff" points="521.85,-150.56 520.09,-140.11 514.95,-149.38 521.85,-150.56"/>
</a>
</g>
</g>
<!-- Node14&#45;&gt;Node2 -->
<g id="edge29_Node000014_Node000002" class="edge">
<title>Node14&#45;&gt;Node2</title>
<g id="a_edge29_Node000014_Node000002"><a xlink:title=" ">
<path fill="none" stroke="#63b8ff" d="M178.6,-175.78C182.78,-160.31 193.58,-127.98 214.5,-110 243.31,-85.24 286.34,-74.15 315.82,-69.25"/>
<polygon fill="#63b8ff" stroke="#63b8ff" points="316.65,-72.67 326.02,-67.72 315.61,-65.75 316.65,-72.67"/>
</a>
</g>
</g>
<!-- Node14&#45;&gt;Node5 -->
<g id="edge28_Node000014_Node000005" class="edge">
<title>Node14&#45;&gt;Node5</title>
<g id="a_edge28_Node000014_Node000005"><a xlink:title=" ">
<path fill="none" stroke="#63b8ff" d="M175.52,-175.62C174.36,-160.47 174.19,-129.36 189.5,-110 289.57,16.61 382.76,-45.46 548.01,-18.93"/>
<polygon fill="#63b8ff" stroke="#63b8ff" points="548.7,-22.36 557.97,-17.23 547.52,-15.46 548.7,-22.36"/>
</a>
</g>
</g>
<!-- Node15 -->
<g id="Node000015" class="node">
<title>Node15</title>
<g id="a_Node000015"><a xlink:title=" ">
<polygon fill="#e0e0e0" stroke="#999999" points="55,-134.5 0,-134.5 0,-115.5 55,-115.5 55,-134.5"/>
<text text-anchor="middle" x="27.5" y="-122.5" font-family="Helvetica,sans-Serif" font-size="10.00">fstream</text>
</a>
</g>
</g>
<!-- Node14&#45;&gt;Node15 -->
<g id="edge26_Node000014_Node000015" class="edge">
<title>Node14&#45;&gt;Node15</title>
<g id="a_edge26_Node000014_Node000015"><a xlink:title=" ">
<path fill="none" stroke="#63b8ff" d="M154.83,-175.99C129.56,-166.07 87.59,-149.59 58.78,-138.28"/>
<polygon fill="#63b8ff" stroke="#63b8ff" points="59.78,-134.91 49.19,-134.52 57.22,-141.43 59.78,-134.91"/>
</a>
</g>
</g>
<!-- Node16 -->
<g id="Node000016" class="node">
<title>Node16</title>
<g id="a_Node000016"><a xlink:title=" ">
<polygon fill="#e0e0e0" stroke="#999999" points="129.5,-134.5 73.5,-134.5 73.5,-115.5 129.5,-115.5 129.5,-134.5"/>
<text text-anchor="middle" x="101.5" y="-122.5" font-family="Helvetica,sans-Serif" font-size="10.00">sstream</text>
</a>
</g>
</g>
<!-- Node14&#45;&gt;Node16 -->
<g id="edge27_Node000014_Node000016" class="edge">
<title>Node14&#45;&gt;Node16</title>
<g id="a_edge27_Node000014_Node000016"><a xlink:title=" ">
<path fill="none" stroke="#63b8ff" d="M165.43,-175.87C153.69,-166.71 134.91,-152.06 120.74,-141.01"/>
<polygon fill="#63b8ff" stroke="#63b8ff" points="122.65,-138.06 112.61,-134.67 118.34,-143.58 122.65,-138.06"/>
</a>
</g>
</g>
<!-- Node14&#45;&gt;Node17 -->
<g id="edge30_Node000014_Node000017" class="edge">
<title>Node14&#45;&gt;Node17</title>
<g id="a_edge30_Node000014_Node000017"><a xlink:title=" ">
<path fill="none" stroke="#63b8ff" d="M189.19,-175.87C202.91,-166.54 225,-151.51 241.35,-140.38"/>
<polygon fill="#63b8ff" stroke="#63b8ff" points="243.46,-143.19 249.76,-134.67 239.52,-137.4 243.46,-143.19"/>
</a>
</g>
</g>
<!-- Node17&#45;&gt;Node2 -->
<g id="edge31_Node000017_Node000002" class="edge">
<title>Node17&#45;&gt;Node2</title>
<g id="a_edge31_Node000017_Node000002"><a xlink:title=" ">
<path fill="none" stroke="#63b8ff" d="M275.19,-115.37C288.91,-106.04 311,-91.01 327.35,-79.88"/>
<polygon fill="#63b8ff" stroke="#63b8ff" points="329.46,-82.69 335.76,-74.17 325.52,-76.9 329.46,-82.69"/>
</a>
</g>
</g>
</g>
</svg>
