<?xml version="1.0" encoding="UTF-8" standalone="no"?>
<!DOCTYPE svg PUBLIC "-//W3C//DTD SVG 1.1//EN"
 "http://www.w3.org/Graphics/SVG/1.1/DTD/svg11.dtd">
<!-- Generated by graphviz version 2.43.0 (0)
 -->
<!-- Title: include/io/SceneLoader.h Pages: 1 -->
<svg width="367pt" height="93pt"
 viewBox="0.00 0.00 367.00 93.00" xmlns="http://www.w3.org/2000/svg" xmlns:xlink="http://www.w3.org/1999/xlink">
<g id="graph0" class="graph" transform="scale(1 1) rotate(0) translate(4 89)">
<title>include/io/SceneLoader.h</title>
<!-- Node1 -->
<g id="Node000001" class="node">
<title>Node1</title>
<g id="a_Node000001"><a xlink:title="Builds a FireSimulator (and optional GUI Layout) from a SceneData.">
<polygon fill="#999999" stroke="#666666" points="238,-85 101,-85 101,-66 238,-66 238,-85"/>
<text text-anchor="middle" x="169.5" y="-73" font-family="Helvetica,sans-Serif" font-size="10.00">include/io/SceneLoader.h</text>
</a>
</g>
</g>
<!-- Node2 -->
<g id="Node000002" class="node">
<title>Node2</title>
<g id="a_Node000002"><a xlink:href="main__gui_8cpp.html" target="_top" xlink:title="SDL2 graphical frontend for the Fire Evacuation simulator.">
<polygon fill="white" stroke="#666666" points="99,-24.5 0,-24.5 0,-5.5 99,-5.5 99,-24.5"/>
<text text-anchor="middle" x="49.5" y="-12.5" font-family="Helvetica,sans-Serif" font-size="10.00">src/main_gui.cpp</text>
</a>
</g>
</g>
<!-- Node1&#45;&gt;Node2 -->
<g id="edge1_Node000001_Node000002" class="edge">
<title>Node1&#45;&gt;Node2</title>
<g id="a_edge1_Node000001_Node000002"><a xlink:title=" ">
<path fill="none" stroke="#63b8ff" d="M142.8,-61.48C119.67,-50.21 86.89,-34.23 66.97,-24.52"/>
<polygon fill="#63b8ff" stroke="#63b8ff" points="141.53,-64.76 152.05,-65.99 144.6,-58.47 141.53,-64.76"/>
</a>
</g>
</g>
<!-- Node3 -->
<g id="Node000003" class="node">
<title>Node3</title>
<g id="a_Node000003"><a xlink:href="sim__demo_8cpp.html" target="_top" xlink:title="Command&#45;line entry point for the Fire Evacuation simulator.">
<polygon fill="white" stroke="#666666" points="222,-24.5 117,-24.5 117,-5.5 222,-5.5 222,-24.5"/>
<text text-anchor="middle" x="169.5" y="-12.5" font-family="Helvetica,sans-Serif" font-size="10.00">src/sim_demo.cpp</text>
</a>
</g>
</g>
<!-- Node1&#45;&gt;Node3 -->
<g id="edge2_Node000001_Node000003" class="edge">
<title>Node1&#45;&gt;Node3</title>
<g id="a_edge2_Node000001_Node000003"><a xlink:title=" ">
<path fill="none" stroke="#63b8ff" d="M169.5,-55.66C169.5,-45.24 169.5,-32.8 169.5,-24.67"/>
<polygon fill="#63b8ff" stroke="#63b8ff" points="166,-55.87 169.5,-65.87 173,-55.87 166,-55.87"/>
</a>
</g>
</g>
<!-- Node4 -->
<g id="Node000004" class="node">
<title>Node4</title>
<g id="a_Node000004"><a xlink:href="test__scene__io_8cpp.html" target="_top" xlink:title="Unit and integration tests for the data/ input pipeline.">
<polygon fill="white" stroke="#666666" points="359,-30 240,-30 240,0 359,0 359,-30"/>
<text text-anchor="start" x="248" y="-18" font-family="Helvetica,sans-Serif" font-size="10.00">tests/integration/test</text>
<text text-anchor="middle" x="299.5" y="-7" font-family="Helvetica,sans-Serif" font-size="10.00">_scene_io.cpp</text>
</a>
</g>
</g>
<!-- Node1&#45;&gt;Node4 -->
<g id="edge3_Node000001_Node000004" class="edge">
<title>Node1&#45;&gt;Node4</title>
<g id="a_edge3_Node000001_Node000004"><a xlink:title=" ">
<path fill="none" stroke="#63b8ff" d="M197.66,-61.83C218.45,-52.47 246.75,-39.74 268.25,-30.06"/>
<polygon fill="#63b8ff" stroke="#63b8ff" points="196.09,-58.7 188.4,-65.99 198.96,-65.08 196.09,-58.7"/>
</a>
</g>
</g>
</g>
</svg>
