<?xml version="1.0" encoding="UTF-8" standalone="no"?>
<!DOCTYPE svg PUBLIC "-//W3C//DTD SVG 1.1//EN"
 "http://www.w3.org/Graphics/SVG/1.1/DTD/svg11.dtd">
<!-- Generated by graphviz version 2.43.0 (0)
 -->
<!-- Title: src/sim_demo.cpp Pages: 1 -->
<svg width="886pt" height="368pt"
 viewBox="0.00 0.00 886.00 368.00" xmlns="http://www.w3.org/2000/svg" xmlns:xlink="http://www.w3.org/1999/xlink">
<g id="graph0" class="graph" transform="scale(1 1) rotate(0) translate(4 364)">
<title>src/sim_demo.cpp</title>
<!-- Node1 -->
<g id="Node000001" class="node">
<title>Node1</title>
<g id="a_Node000001"><a xlink:title="Command&#45;line entry point for the Fire Evacuation simulator.">
<polygon fill="#999999" stroke="#666666" points="572.5,-360 467.5,-360 467.5,-341 572.5,-341 572.5,-360"/>
<text text-anchor="middle" x="520" y="-348" font-family="Helvetica,sans-Serif" font-size="10.00">src/sim_demo.cpp</text>
</a>
</g>
</g>
<!-- Node2 -->
<g id="Node000002" class="node">
<title>Node2</title>
<g id="a_Node000002"><a xlink:title=" ">
<polygon fill="#e0e0e0" stroke="#999999" points="60,-305 0,-305 0,-286 60,-286 60,-305"/>
<text text-anchor="middle" x="30" y="-293" font-family="Helvetica,sans-Serif" font-size="10.00">iostream</text>
</a>
</g>
</g>
<!-- Node1&#45;&gt;Node2 -->
<g id="edge1_Node000001_Node000002" class="edge">
<title>Node1&#45;&gt;Node2</title>
<g id="a_edge1_Node000001_Node000002"><a xlink:title=" ">
<path fill="none" stroke="#63b8ff" d="M467.29,-345.81C383.64,-339.6 215.48,-325.68 74,-305 72.74,-304.82 71.47,-304.62 70.18,-304.42"/>
<polygon fill="#63b8ff" stroke="#63b8ff" points="70.68,-300.95 60.23,-302.72 69.5,-307.85 70.68,-300.95"/>
</a>
</g>
</g>
<!-- Node3 -->
<g id="Node000003" class="node">
<title>Node3</title>
<g id="a_Node000003"><a xlink:title=" ">
<polygon fill="#e0e0e0" stroke="#999999" points="542,-74 498,-74 498,-55 542,-55 542,-74"/>
<text text-anchor="middle" x="520" y="-62" font-family="Helvetica,sans-Serif" font-size="10.00">string</text>
</a>
</g>
</g>
<!-- Node1&#45;&gt;Node3 -->
<g id="edge2_Node000001_Node000003" class="edge">
<title>Node1&#45;&gt;Node3</title>
<g id="a_edge2_Node000001_Node000003"><a xlink:title=" ">
<path fill="none" stroke="#63b8ff" d="M572.82,-344.65C672.41,-334.02 878,-304.47 878,-241.5 878,-241.5 878,-241.5 878,-184.5 878,-116.13 639.93,-80.13 552.07,-69.18"/>
<polygon fill="#63b8ff" stroke="#63b8ff" points="552.47,-65.7 542.12,-67.96 551.63,-72.65 552.47,-65.7"/>
</a>
</g>
</g>
<!-- Node4 -->
<g id="Node000004" class="node">
<title>Node4</title>
<g id="a_Node000004"><a xlink:href="Graph_8h.html" target="_top" xlink:title="Adjacency&#45;list directed/undirected graph with Dijkstra shortest&#45;path.">
<polygon fill="white" stroke="#666666" points="258,-140 118,-140 118,-110 258,-110 258,-140"/>
<text text-anchor="start" x="126" y="-128" font-family="Helvetica,sans-Serif" font-size="10.00">../include/data_structures</text>
<text text-anchor="middle" x="188" y="-117" font-family="Helvetica,sans-Serif" font-size="10.00">/Graph.h</text>
</a>
</g>
</g>
<!-- Node1&#45;&gt;Node4 -->
<g id="edge3_Node000001_Node000004" class="edge">
<title>Node1&#45;&gt;Node4</title>
<g id="a_edge3_Node000001_Node000004"><a xlink:title=" ">
<path fill="none" stroke="#63b8ff" d="M467.2,-343.4C373.28,-331.34 183.34,-301.1 144,-250 137.78,-241.92 130.96,-215.06 146,-176 149.97,-165.68 157.01,-155.97 164.2,-147.9"/>
<polygon fill="#63b8ff" stroke="#63b8ff" points="166.97,-150.07 171.34,-140.42 161.91,-145.24 166.97,-150.07"/>
</a>
</g>
</g>
<!-- Node11 -->
<g id="Node000011" class="node">
<title>Node11</title>
<g id="a_Node000011"><a xlink:href="JsonSceneParser_8h.html" target="_top" xlink:title="Minimal, dependency&#45;free JSON parser for evacuation scene files.">
<polygon fill="white" stroke="#666666" points="712,-250 548,-250 548,-231 712,-231 712,-250"/>
<text text-anchor="middle" x="630" y="-238" font-family="Helvetica,sans-Serif" font-size="10.00">../include/io/JsonSceneParser.h</text>
</a>
</g>
</g>
<!-- Node1&#45;&gt;Node11 -->
<g id="edge13_Node000001_Node000011" class="edge">
<title>Node1&#45;&gt;Node11</title>
<g id="a_edge13_Node000001_Node000011"><a xlink:title=" ">
<path fill="none" stroke="#63b8ff" d="M545.03,-340.95C562.89,-333.76 586.42,-321.92 602,-305 613.72,-292.27 621.11,-273.84 625.33,-260.11"/>
<polygon fill="#63b8ff" stroke="#63b8ff" points="628.75,-260.88 628.06,-250.31 622,-259 628.75,-260.88"/>
</a>
</g>
</g>
<!-- Node14 -->
<g id="Node000014" class="node">
<title>Node14</title>
<g id="a_Node000014"><a xlink:href="SceneData_8h.html" target="_top" xlink:title="Plain data structures describing a building evacuation scene.">
<polygon fill="white" stroke="#666666" points="850,-195 772,-195 772,-176 850,-176 850,-195"/>
<text text-anchor="middle" x="811" y="-183" font-family="Helvetica,sans-Serif" font-size="10.00">SceneData.h</text>
</a>
</g>
</g>
<!-- Node1&#45;&gt;Node14 -->
<g id="edge20_Node000001_Node000014" class="edge">
<title>Node1&#45;&gt;Node14</title>
<g id="a_edge20_Node000001_Node000014"><a xlink:title=" ">
<path fill="none" stroke="#63b8ff" d="M549.49,-340.92C595.17,-326.74 684.6,-295.41 750,-250 768.93,-236.86 786.71,-217.18 798.14,-203.22"/>
<polygon fill="#63b8ff" stroke="#63b8ff" points="800.89,-205.38 804.38,-195.37 795.42,-201.02 800.89,-205.38"/>
</a>
</g>
</g>
<!-- Node15 -->
<g id="Node000015" class="node">
<title>Node15</title>
<g id="a_Node000015"><a xlink:href="SceneLoader_8h.html" target="_top" xlink:title="Builds a FireSimulator (and optional GUI Layout) from a SceneData.">
<polygon fill="white" stroke="#666666" points="593,-305 447,-305 447,-286 593,-286 593,-305"/>
<text text-anchor="middle" x="520" y="-293" font-family="Helvetica,sans-Serif" font-size="10.00">../include/io/SceneLoader.h</text>
</a>
</g>
</g>
<!-- Node1&#45;&gt;Node15 -->
<g id="edge21_Node000001_Node000015" class="edge">
<title>Node1&#45;&gt;Node15</title>
<g id="a_edge21_Node000001_Node000015"><a xlink:title=" ">
<path fill="none" stroke="#63b8ff" d="M520,-340.75C520,-333.8 520,-323.85 520,-315.13"/>
<polygon fill="#63b8ff" stroke="#63b8ff" points="523.5,-315.09 520,-305.09 516.5,-315.09 523.5,-315.09"/>
</a>
</g>
</g>
<!-- Node16 -->
<g id="Node000016" class="node">
<title>Node16</title>
<g id="a_Node000016"><a xlink:href="FireSimulator_8h.html" target="_top" xlink:title="Core fire&#45;evacuation simulation engine.">
<polygon fill="white" stroke="#666666" points="307,-250 153,-250 153,-231 307,-231 307,-250"/>
<text text-anchor="middle" x="230" y="-238" font-family="Helvetica,sans-Serif" font-size="10.00">../simulation/FireSimulator.h</text>
</a>
</g>
</g>
<!-- Node1&#45;&gt;Node16 -->
<g id="edge39_Node000001_Node000016" class="edge">
<title>Node1&#45;&gt;Node16</title>
<g id="a_edge39_Node000001_Node000016"><a xlink:title=" ">
<path fill="none" stroke="#63b8ff" d="M496.76,-340.84C445.3,-321.68 321.64,-275.63 262.53,-253.62"/>
<polygon fill="#63b8ff" stroke="#63b8ff" points="263.54,-250.26 252.95,-250.05 261.1,-256.82 263.54,-250.26"/>
</a>
</g>
</g>
<!-- Node4&#45;&gt;Node3 -->
<g id="edge6_Node000004_Node000003" class="edge">
<title>Node4&#45;&gt;Node3</title>
<g id="a_edge6_Node000004_Node000003"><a xlink:title=" ">
<path fill="none" stroke="#63b8ff" d="M258,-111.67C328.66,-99.21 434.68,-80.53 487.57,-71.21"/>
<polygon fill="#63b8ff" stroke="#63b8ff" points="488.47,-74.61 497.72,-69.43 487.26,-67.72 488.47,-74.61"/>
</a>
</g>
</g>
<!-- Node5 -->
<g id="Node000005" class="node">
<title>Node5</title>
<g id="a_Node000005"><a xlink:title=" ">
<polygon fill="#e0e0e0" stroke="#999999" points="210,-74 166,-74 166,-55 210,-55 210,-74"/>
<text text-anchor="middle" x="188" y="-62" font-family="Helvetica,sans-Serif" font-size="10.00">limits</text>
</a>
</g>
</g>
<!-- Node4&#45;&gt;Node5 -->
<g id="edge4_Node000004_Node000005" class="edge">
<title>Node4&#45;&gt;Node5</title>
<g id="a_edge4_Node000004_Node000005"><a xlink:title=" ">
<path fill="none" stroke="#63b8ff" d="M188,-109.84C188,-102.21 188,-92.7 188,-84.45"/>
<polygon fill="#63b8ff" stroke="#63b8ff" points="191.5,-84.27 188,-74.27 184.5,-84.27 191.5,-84.27"/>
</a>
</g>
</g>
<!-- Node6 -->
<g id="Node000006" class="node">
<title>Node6</title>
<g id="a_Node000006"><a xlink:title=" ">
<polygon fill="#e0e0e0" stroke="#999999" points="275.5,-19 210.5,-19 210.5,0 275.5,0 275.5,-19"/>
<text text-anchor="middle" x="243" y="-7" font-family="Helvetica,sans-Serif" font-size="10.00">stdexcept</text>
</a>
</g>
</g>
<!-- Node4&#45;&gt;Node6 -->
<g id="edge5_Node000004_Node000006" class="edge">
<title>Node4&#45;&gt;Node6</title>
<g id="a_edge5_Node000004_Node000006"><a xlink:title=" ">
<path fill="none" stroke="#63b8ff" d="M197.71,-109.98C204.24,-100.18 212.77,-86.64 219,-74 226.25,-59.3 232.7,-41.83 237.09,-28.94"/>
<polygon fill="#63b8ff" stroke="#63b8ff" points="240.44,-29.95 240.26,-19.35 233.8,-27.75 240.44,-29.95"/>
</a>
</g>
</g>
<!-- Node7 -->
<g id="Node000007" class="node">
<title>Node7</title>
<g id="a_Node000007"><a xlink:href="LinkedList_8h.html" target="_top" xlink:title="Generic singly&#45;linked list with pointer&#45;based node storage.">
<polygon fill="white" stroke="#666666" points="362,-74 288,-74 288,-55 362,-55 362,-74"/>
<text text-anchor="middle" x="325" y="-62" font-family="Helvetica,sans-Serif" font-size="10.00">LinkedList.h</text>
</a>
</g>
</g>
<!-- Node4&#45;&gt;Node7 -->
<g id="edge7_Node000004_Node000007" class="edge">
<title>Node4&#45;&gt;Node7</title>
<g id="a_edge7_Node000004_Node000007"><a xlink:title=" ">
<path fill="none" stroke="#63b8ff" d="M220.81,-109.99C243.47,-100.31 273.35,-87.56 295.3,-78.18"/>
<polygon fill="#63b8ff" stroke="#63b8ff" points="296.95,-81.29 304.77,-74.14 294.2,-74.85 296.95,-81.29"/>
</a>
</g>
</g>
<!-- Node9 -->
<g id="Node000009" class="node">
<title>Node9</title>
<g id="a_Node000009"><a xlink:href="priority__queue_8h.html" target="_top" xlink:title="Pointer&#45;based binary min&#45;heap priority queue.">
<polygon fill="white" stroke="#666666" points="148,-74 52,-74 52,-55 148,-55 148,-74"/>
<text text-anchor="middle" x="100" y="-62" font-family="Helvetica,sans-Serif" font-size="10.00">priority_queue.h</text>
</a>
</g>
</g>
<!-- Node4&#45;&gt;Node9 -->
<g id="edge10_Node000004_Node000009" class="edge">
<title>Node4&#45;&gt;Node9</title>
<g id="a_edge10_Node000004_Node000009"><a xlink:title=" ">
<path fill="none" stroke="#63b8ff" d="M166.7,-109.84C152.93,-100.68 135.07,-88.82 121.3,-79.66"/>
<polygon fill="#63b8ff" stroke="#63b8ff" points="123.19,-76.72 112.93,-74.09 119.32,-82.55 123.19,-76.72"/>
</a>
</g>
</g>
<!-- Node7&#45;&gt;Node6 -->
<g id="edge8_Node000007_Node000006" class="edge">
<title>Node7&#45;&gt;Node6</title>
<g id="a_edge8_Node000007_Node000006"><a xlink:title=" ">
<path fill="none" stroke="#63b8ff" d="M311.83,-54.98C299.23,-46.84 280,-34.41 265.06,-24.76"/>
<polygon fill="#63b8ff" stroke="#63b8ff" points="266.71,-21.66 256.41,-19.17 262.91,-27.54 266.71,-21.66"/>
</a>
</g>
</g>
<!-- Node8 -->
<g id="Node000008" class="node">
<title>Node8</title>
<g id="a_Node000008"><a xlink:href="Node_8h.html" target="_top" xlink:title="Generic singly&#45;linked node used by LinkedList and Queue.">
<polygon fill="white" stroke="#666666" points="350.5,-19 299.5,-19 299.5,0 350.5,0 350.5,-19"/>
<text text-anchor="middle" x="325" y="-7" font-family="Helvetica,sans-Serif" font-size="10.00">Node.h</text>
</a>
</g>
</g>
<!-- Node7&#45;&gt;Node8 -->
<g id="edge9_Node000007_Node000008" class="edge">
<title>Node7&#45;&gt;Node8</title>
<g id="a_edge9_Node000007_Node000008"><a xlink:title=" ">
<path fill="none" stroke="#63b8ff" d="M325,-54.75C325,-47.8 325,-37.85 325,-29.13"/>
<polygon fill="#63b8ff" stroke="#63b8ff" points="328.5,-29.09 325,-19.09 321.5,-29.09 328.5,-29.09"/>
</a>
</g>
</g>
<!-- Node9&#45;&gt;Node6 -->
<g id="edge12_Node000009_Node000006" class="edge">
<title>Node9&#45;&gt;Node6</title>
<g id="a_edge12_Node000009_Node000006"><a xlink:title=" ">
<path fill="none" stroke="#63b8ff" d="M122.98,-54.98C146.5,-46.27 183.29,-32.63 209.94,-22.75"/>
<polygon fill="#63b8ff" stroke="#63b8ff" points="211.45,-25.93 219.61,-19.17 209.01,-19.36 211.45,-25.93"/>
</a>
</g>
</g>
<!-- Node10 -->
<g id="Node000010" class="node">
<title>Node10</title>
<g id="a_Node000010"><a xlink:title=" ">
<polygon fill="#e0e0e0" stroke="#999999" points="126.5,-19 73.5,-19 73.5,0 126.5,0 126.5,-19"/>
<text text-anchor="middle" x="100" y="-7" font-family="Helvetica,sans-Serif" font-size="10.00">cstddef</text>
</a>
</g>
</g>
<!-- Node9&#45;&gt;Node10 -->
<g id="edge11_Node000009_Node000010" class="edge">
<title>Node9&#45;&gt;Node10</title>
<g id="a_edge11_Node000009_Node000010"><a xlink:title=" ">
<path fill="none" stroke="#63b8ff" d="M100,-54.75C100,-47.8 100,-37.85 100,-29.13"/>
<polygon fill="#63b8ff" stroke="#63b8ff" points="103.5,-29.09 100,-19.09 96.5,-29.09 103.5,-29.09"/>
</a>
</g>
</g>
<!-- Node11&#45;&gt;Node3 -->
<g id="edge17_Node000011_Node000003" class="edge">
<title>Node11&#45;&gt;Node3</title>
<g id="a_edge17_Node000011_Node000003"><a xlink:title=" ">
<path fill="none" stroke="#63b8ff" d="M618.56,-230.97C608.04,-222.68 592.51,-209.27 582,-195 555.61,-159.18 535.88,-110.35 526.35,-84.07"/>
<polygon fill="#63b8ff" stroke="#63b8ff" points="529.53,-82.56 522.9,-74.29 522.93,-84.89 529.53,-82.56"/>
</a>
</g>
</g>
<!-- Node11&#45;&gt;Node6 -->
<g id="edge16_Node000011_Node000006" class="edge">
<title>Node11&#45;&gt;Node6</title>
<g id="a_edge16_Node000011_Node000006"><a xlink:title=" ">
<path fill="none" stroke="#63b8ff" d="M626.83,-230.75C614.06,-195.69 566.3,-66.68 551,-55 504.63,-19.61 348.62,-28.09 291,-19 289.28,-18.73 287.52,-18.44 285.74,-18.15"/>
<polygon fill="#63b8ff" stroke="#63b8ff" points="285.95,-14.64 275.51,-16.43 284.78,-21.54 285.95,-14.64"/>
</a>
</g>
</g>
<!-- Node12 -->
<g id="Node000012" class="node">
<title>Node12</title>
<g id="a_Node000012"><a xlink:title=" ">
<polygon fill="#e0e0e0" stroke="#999999" points="679.5,-195 624.5,-195 624.5,-176 679.5,-176 679.5,-195"/>
<text text-anchor="middle" x="652" y="-183" font-family="Helvetica,sans-Serif" font-size="10.00">fstream</text>
</a>
</g>
</g>
<!-- Node11&#45;&gt;Node12 -->
<g id="edge14_Node000011_Node000012" class="edge">
<title>Node11&#45;&gt;Node12</title>
<g id="a_edge14_Node000011_Node000012"><a xlink:title=" ">
<path fill="none" stroke="#63b8ff" d="M633.63,-230.75C636.58,-223.65 640.83,-213.4 644.51,-204.56"/>
<polygon fill="#63b8ff" stroke="#63b8ff" points="647.83,-205.67 648.43,-195.09 641.37,-202.98 647.83,-205.67"/>
</a>
</g>
</g>
<!-- Node13 -->
<g id="Node000013" class="node">
<title>Node13</title>
<g id="a_Node000013"><a xlink:title=" ">
<polygon fill="#e0e0e0" stroke="#999999" points="754,-195 698,-195 698,-176 754,-176 754,-195"/>
<text text-anchor="middle" x="726" y="-183" font-family="Helvetica,sans-Serif" font-size="10.00">sstream</text>
</a>
</g>
</g>
<!-- Node11&#45;&gt;Node13 -->
<g id="edge15_Node000011_Node000013" class="edge">
<title>Node11&#45;&gt;Node13</title>
<g id="a_edge15_Node000011_Node000013"><a xlink:title=" ">
<path fill="none" stroke="#63b8ff" d="M645.42,-230.98C660.45,-222.69 683.54,-209.94 701.16,-200.22"/>
<polygon fill="#63b8ff" stroke="#63b8ff" points="703.23,-203.07 710.3,-195.17 699.85,-196.94 703.23,-203.07"/>
</a>
</g>
</g>
<!-- Node11&#45;&gt;Node14 -->
<g id="edge18_Node000011_Node000014" class="edge">
<title>Node11&#45;&gt;Node14</title>
<g id="a_edge18_Node000011_Node000014"><a xlink:title=" ">
<path fill="none" stroke="#63b8ff" d="M659.08,-230.98C689.6,-222.05 737.76,-207.94 771.66,-198.02"/>
<polygon fill="#63b8ff" stroke="#63b8ff" points="773.08,-201.25 781.69,-195.08 771.11,-194.53 773.08,-201.25"/>
</a>
</g>
</g>
<!-- Node14&#45;&gt;Node3 -->
<g id="edge19_Node000014_Node000003" class="edge">
<title>Node14&#45;&gt;Node3</title>
<g id="a_edge19_Node000014_Node000003"><a xlink:title=" ">
<path fill="none" stroke="#63b8ff" d="M790.07,-175.94C739.44,-155.24 610.13,-102.36 550.71,-78.06"/>
<polygon fill="#63b8ff" stroke="#63b8ff" points="551.71,-74.69 541.13,-74.14 549.06,-81.17 551.71,-74.69"/>
</a>
</g>
</g>
<!-- Node15&#45;&gt;Node3 -->
<g id="edge22_Node000015_Node000003" class="edge">
<title>Node15&#45;&gt;Node3</title>
<g id="a_edge22_Node000015_Node000003"><a xlink:title=" ">
<path fill="none" stroke="#63b8ff" d="M520,-285.8C520,-252.36 520,-131.59 520,-84.49"/>
<polygon fill="#63b8ff" stroke="#63b8ff" points="523.5,-84.21 520,-74.21 516.5,-84.21 523.5,-84.21"/>
</a>
</g>
</g>
<!-- Node15&#45;&gt;Node4 -->
<g id="edge23_Node000015_Node000004" class="edge">
<title>Node15&#45;&gt;Node4</title>
<g id="a_edge23_Node000015_Node000004"><a xlink:title=" ">
<path fill="none" stroke="#63b8ff" d="M503.08,-285.91C451.74,-259.85 296.86,-181.25 225.16,-144.86"/>
<polygon fill="#63b8ff" stroke="#63b8ff" points="226.53,-141.63 216.02,-140.22 223.36,-147.87 226.53,-141.63"/>
</a>
</g>
</g>
<!-- Node15&#45;&gt;Node11 -->
<g id="edge37_Node000015_Node000011" class="edge">
<title>Node15&#45;&gt;Node11</title>
<g id="a_edge37_Node000015_Node000011"><a xlink:title=" ">
<path fill="none" stroke="#63b8ff" d="M537.67,-285.98C555.29,-277.5 582.58,-264.35 602.93,-254.54"/>
<polygon fill="#63b8ff" stroke="#63b8ff" points="604.52,-257.66 612.01,-250.17 601.48,-251.36 604.52,-257.66"/>
</a>
</g>
</g>
<!-- Node15&#45;&gt;Node14 -->
<g id="edge38_Node000015_Node000014" class="edge">
<title>Node15&#45;&gt;Node14</title>
<g id="a_edge38_Node000015_Node000014"><a xlink:title=" ">
<path fill="none" stroke="#63b8ff" d="M590.05,-285.97C629.69,-279.44 679.48,-268.35 721,-250 748.41,-237.89 775.98,-216.81 793.25,-202.29"/>
<polygon fill="#63b8ff" stroke="#63b8ff" points="795.99,-204.54 801.28,-195.37 791.42,-199.24 795.99,-204.54"/>
</a>
</g>
</g>
<!-- Node15&#45;&gt;Node16 -->
<g id="edge24_Node000015_Node000016" class="edge">
<title>Node15&#45;&gt;Node16</title>
<g id="a_edge24_Node000015_Node000016"><a xlink:title=" ">
<path fill="none" stroke="#63b8ff" d="M473.41,-285.98C422.61,-276.7 341.31,-261.84 286.81,-251.88"/>
<polygon fill="#63b8ff" stroke="#63b8ff" points="287.43,-248.44 276.96,-250.08 286.17,-255.32 287.43,-248.44"/>
</a>
</g>
</g>
<!-- Node16&#45;&gt;Node3 -->
<g id="edge25_Node000016_Node000003" class="edge">
<title>Node16&#45;&gt;Node3</title>
<g id="a_edge25_Node000016_Node000003"><a xlink:title=" ">
<path fill="none" stroke="#63b8ff" d="M300.4,-230.98C353.3,-223.46 420.37,-211.16 443,-195 482.09,-167.09 504.72,-112.59 514.39,-84.01"/>
<polygon fill="#63b8ff" stroke="#63b8ff" points="517.84,-84.71 517.56,-74.12 511.17,-82.57 517.84,-84.71"/>
</a>
</g>
</g>
<!-- Node16&#45;&gt;Node4 -->
<g id="edge32_Node000016_Node000004" class="edge">
<title>Node16&#45;&gt;Node4</title>
<g id="a_edge32_Node000016_Node000004"><a xlink:title=" ">
<path fill="none" stroke="#63b8ff" d="M227.8,-230.74C224.59,-218.38 218.23,-195.16 211,-176 207.65,-167.13 203.45,-157.63 199.55,-149.32"/>
<polygon fill="#63b8ff" stroke="#63b8ff" points="202.66,-147.72 195.19,-140.21 196.35,-150.74 202.66,-147.72"/>
</a>
</g>
</g>
<!-- Node16&#45;&gt;Node5 -->
<g id="edge26_Node000016_Node000005" class="edge">
<title>Node16&#45;&gt;Node5</title>
<g id="a_edge26_Node000016_Node000005"><a xlink:title=" ">
<path fill="none" stroke="#63b8ff" d="M207.09,-230.99C189.05,-223.49 164.03,-211.23 146,-195 124.1,-175.29 117.6,-168.18 109,-140 105.11,-127.25 102.27,-121.51 109,-110 119.16,-92.62 138.89,-81.5 156.08,-74.72"/>
<polygon fill="#63b8ff" stroke="#63b8ff" points="157.6,-77.89 165.83,-71.22 155.23,-71.31 157.6,-77.89"/>
</a>
</g>
</g>
<!-- Node16&#45;&gt;Node7 -->
<g id="edge28_Node000016_Node000007" class="edge">
<title>Node16&#45;&gt;Node7</title>
<g id="a_edge28_Node000016_Node000007"><a xlink:title=" ">
<path fill="none" stroke="#63b8ff" d="M307.1,-231.72C354.96,-225.12 410.12,-213.66 425,-195 458.28,-153.26 388.81,-103.02 349.51,-79.24"/>
<polygon fill="#63b8ff" stroke="#63b8ff" points="351.1,-76.12 340.71,-74.06 347.54,-82.15 351.1,-76.12"/>
</a>
</g>
</g>
<!-- Node16&#45;&gt;Node9 -->
<g id="edge31_Node000016_Node000009" class="edge">
<title>Node16&#45;&gt;Node9</title>
<g id="a_edge31_Node000016_Node000009"><a xlink:title=" ">
<path fill="none" stroke="#63b8ff" d="M190.43,-230.97C168.19,-224.4 141.3,-213.26 123,-195 93.6,-165.65 94.37,-112.61 97.28,-84.38"/>
<polygon fill="#63b8ff" stroke="#63b8ff" points="100.78,-84.6 98.53,-74.25 93.83,-83.74 100.78,-84.6"/>
</a>
</g>
</g>
<!-- Node17 -->
<g id="Node000017" class="node">
<title>Node17</title>
<g id="a_Node000017"><a xlink:title=" ">
<polygon fill="#e0e0e0" stroke="#999999" points="201.5,-195 154.5,-195 154.5,-176 201.5,-176 201.5,-195"/>
<text text-anchor="middle" x="178" y="-183" font-family="Helvetica,sans-Serif" font-size="10.00">cmath</text>
</a>
</g>
</g>
<!-- Node16&#45;&gt;Node17 -->
<g id="edge27_Node000016_Node000017" class="edge">
<title>Node16&#45;&gt;Node17</title>
<g id="a_edge27_Node000016_Node000017"><a xlink:title=" ">
<path fill="none" stroke="#63b8ff" d="M221.41,-230.75C213.84,-223.03 202.62,-211.6 193.49,-202.28"/>
<polygon fill="#63b8ff" stroke="#63b8ff" points="195.93,-199.78 186.43,-195.09 190.93,-204.68 195.93,-199.78"/>
</a>
</g>
</g>
<!-- Node18 -->
<g id="Node000018" class="node">
<title>Node18</title>
<g id="a_Node000018"><a xlink:href="Queue_8h.html" target="_top" xlink:title="Generic FIFO queue built on LinkedList.">
<polygon fill="white" stroke="#666666" points="377.5,-140 276.5,-140 276.5,-110 377.5,-110 377.5,-140"/>
<text text-anchor="start" x="284.5" y="-128" font-family="Helvetica,sans-Serif" font-size="10.00">../data_structures</text>
<text text-anchor="middle" x="327" y="-117" font-family="Helvetica,sans-Serif" font-size="10.00">/Queue.h</text>
</a>
</g>
</g>
<!-- Node16&#45;&gt;Node18 -->
<g id="edge29_Node000016_Node000018" class="edge">
<title>Node16&#45;&gt;Node18</title>
<g id="a_edge29_Node000016_Node000018"><a xlink:title=" ">
<path fill="none" stroke="#63b8ff" d="M237.29,-230.97C252.24,-213.48 286.77,-173.07 308.36,-147.81"/>
<polygon fill="#63b8ff" stroke="#63b8ff" points="311.04,-150.06 314.88,-140.18 305.72,-145.51 311.04,-150.06"/>
</a>
</g>
</g>
<!-- Node19 -->
<g id="Node000019" class="node">
<title>Node19</title>
<g id="a_Node000019"><a xlink:href="SimEntities_8h.html" target="_top" xlink:title="Per&#45;tick simulation entities: CellNode, Corridor, Person, WaitingQueue.">
<polygon fill="white" stroke="#666666" points="415.5,-195 334.5,-195 334.5,-176 415.5,-176 415.5,-195"/>
<text text-anchor="middle" x="375" y="-183" font-family="Helvetica,sans-Serif" font-size="10.00">SimEntities.h</text>
</a>
</g>
</g>
<!-- Node16&#45;&gt;Node19 -->
<g id="edge33_Node000016_Node000019" class="edge">
<title>Node16&#45;&gt;Node19</title>
<g id="a_edge33_Node000016_Node000019"><a xlink:title=" ">
<path fill="none" stroke="#63b8ff" d="M253.3,-230.98C277.25,-222.23 314.78,-208.51 341.83,-198.62"/>
<polygon fill="#63b8ff" stroke="#63b8ff" points="343.09,-201.89 351.28,-195.17 340.69,-195.32 343.09,-201.89"/>
</a>
</g>
</g>
<!-- Node18&#45;&gt;Node7 -->
<g id="edge30_Node000018_Node000007" class="edge">
<title>Node18&#45;&gt;Node7</title>
<g id="a_edge30_Node000018_Node000007"><a xlink:title=" ">
<path fill="none" stroke="#63b8ff" d="M326.52,-109.84C326.26,-102.21 325.93,-92.7 325.65,-84.45"/>
<polygon fill="#63b8ff" stroke="#63b8ff" points="329.14,-84.14 325.3,-74.27 322.14,-84.38 329.14,-84.14"/>
</a>
</g>
</g>
<!-- Node19&#45;&gt;Node3 -->
<g id="edge34_Node000019_Node000003" class="edge">
<title>Node19&#45;&gt;Node3</title>
<g id="a_edge34_Node000019_Node000003"><a xlink:title=" ">
<path fill="none" stroke="#63b8ff" d="M385.43,-175.94C409.76,-155.97 470.57,-106.06 501.42,-80.75"/>
<polygon fill="#63b8ff" stroke="#63b8ff" points="503.77,-83.35 509.28,-74.3 499.32,-77.94 503.77,-83.35"/>
</a>
</g>
</g>
<!-- Node19&#45;&gt;Node4 -->
<g id="edge36_Node000019_Node000004" class="edge">
<title>Node19&#45;&gt;Node4</title>
<g id="a_edge36_Node000019_Node000004"><a xlink:title=" ">
<path fill="none" stroke="#63b8ff" d="M347.81,-175.99C320.43,-167.43 277.41,-153.97 242.9,-143.18"/>
<polygon fill="#63b8ff" stroke="#63b8ff" points="243.55,-139.71 232.96,-140.06 241.46,-146.39 243.55,-139.71"/>
</a>
</g>
</g>
<!-- Node19&#45;&gt;Node18 -->
<g id="edge35_Node000019_Node000018" class="edge">
<title>Node19&#45;&gt;Node18</title>
<g id="a_edge35_Node000019_Node000018"><a xlink:title=" ">
<path fill="none" stroke="#63b8ff" d="M367.92,-175.87C361.89,-168.52 352.96,-157.63 344.98,-147.91"/>
<polygon fill="#63b8ff" stroke="#63b8ff" points="347.63,-145.63 338.58,-140.11 342.22,-150.07 347.63,-145.63"/>
</a>
</g>
</g>
</g>
</svg>
