<?xml version="1.0" encoding="UTF-8" standalone="no"?>
<!DOCTYPE svg PUBLIC "-//W3C//DTD SVG 1.1//EN"
 "http://www.w3.org/Graphics/SVG/1.1/DTD/svg11.dtd">
<!-- Generated by graphviz version 2.43.0 (0)
 -->
<!-- Title: include/simulation/SimEntities.h Pages: 1 -->
<svg width="1013pt" height="236pt"
 viewBox="0.00 0.00 1013.00 236.00" xmlns="http://www.w3.org/2000/svg" xmlns:xlink="http://www.w3.org/1999/xlink">
<g id="graph0" class="graph" transform="scale(1 1) rotate(0) translate(4 232)">
<title>include/simulation/SimEntities.h</title>
<!-- Node1 -->
<g id="Node000001" class="node">
<title>Node1</title>
<g id="a_Node000001"><a xlink:title="Per&#45;tick simulation entities: CellNode, Corridor, Person, WaitingQueue.">
<polygon fill="#999999" stroke="#666666" points="693,-228 586,-228 586,-198 693,-198 693,-228"/>
<text text-anchor="start" x="594" y="-216" font-family="Helvetica,sans-Serif" font-size="10.00">include/simulation</text>
<text text-anchor="middle" x="639.5" y="-205" font-family="Helvetica,sans-Serif" font-size="10.00">/SimEntities.h</text>
</a>
</g>
</g>
<!-- Node2 -->
<g id="Node000002" class="node">
<title>Node2</title>
<g id="a_Node000002"><a xlink:href="Renderer_8h.html" target="_top" xlink:title=" ">
<polygon fill="white" stroke="#666666" points="125,-90.5 0,-90.5 0,-71.5 125,-71.5 125,-90.5"/>
<text text-anchor="middle" x="62.5" y="-78.5" font-family="Helvetica,sans-Serif" font-size="10.00">include/gui/Renderer.h</text>
</a>
</g>
</g>
<!-- Node1&#45;&gt;Node2 -->
<g id="edge1_Node000001_Node000002" class="edge">
<title>Node1&#45;&gt;Node2</title>
<g id="a_edge1_Node000001_Node000002"><a xlink:title=" ">
<path fill="none" stroke="#63b8ff" d="M576.18,-197.73C455.81,-170.61 197.37,-112.39 100.34,-90.53"/>
<polygon fill="#63b8ff" stroke="#63b8ff" points="575.47,-201.16 585.99,-199.94 577.01,-194.33 575.47,-201.16"/>
</a>
</g>
</g>
<!-- Node4 -->
<g id="Node000004" class="node">
<title>Node4</title>
<g id="a_Node000004"><a xlink:href="FireSimulator_8h.html" target="_top" xlink:title="Core fire&#45;evacuation simulation engine.">
<polygon fill="white" stroke="#666666" points="693,-162 586,-162 586,-132 693,-132 693,-162"/>
<text text-anchor="start" x="594" y="-150" font-family="Helvetica,sans-Serif" font-size="10.00">include/simulation</text>
<text text-anchor="middle" x="639.5" y="-139" font-family="Helvetica,sans-Serif" font-size="10.00">/FireSimulator.h</text>
</a>
</g>
</g>
<!-- Node1&#45;&gt;Node4 -->
<g id="edge3_Node000001_Node000004" class="edge">
<title>Node1&#45;&gt;Node4</title>
<g id="a_edge3_Node000001_Node000004"><a xlink:title=" ">
<path fill="none" stroke="#63b8ff" d="M639.5,-187.54C639.5,-178.96 639.5,-169.61 639.5,-162.16"/>
<polygon fill="#63b8ff" stroke="#63b8ff" points="636,-187.8 639.5,-197.8 643,-187.8 636,-187.8"/>
</a>
</g>
</g>
<!-- Node11 -->
<g id="Node000011" class="node">
<title>Node11</title>
<g id="a_Node000011"><a xlink:href="test__fire__simulator_8cpp.html" target="_top" xlink:title=" ">
<polygon fill="white" stroke="#666666" points="1005,-96 900,-96 900,-66 1005,-66 1005,-96"/>
<text text-anchor="start" x="908" y="-84" font-family="Helvetica,sans-Serif" font-size="10.00">tests/unit/test_fire</text>
<text text-anchor="middle" x="952.5" y="-73" font-family="Helvetica,sans-Serif" font-size="10.00">_simulator.cpp</text>
</a>
</g>
</g>
<!-- Node1&#45;&gt;Node11 -->
<g id="edge17_Node000001_Node000011" class="edge">
<title>Node1&#45;&gt;Node11</title>
<g id="a_edge17_Node000001_Node000011"><a xlink:title=" ">
<path fill="none" stroke="#63b8ff" d="M682.54,-194.12C745.39,-168.02 861.01,-120 918.37,-96.17"/>
<polygon fill="#63b8ff" stroke="#63b8ff" points="681.19,-190.9 673.29,-197.96 683.87,-197.36 681.19,-190.9"/>
</a>
</g>
</g>
<!-- Node3 -->
<g id="Node000003" class="node">
<title>Node3</title>
<g id="a_Node000003"><a xlink:href="main__gui_8cpp.html" target="_top" xlink:title="SDL2 graphical frontend for the Fire Evacuation simulator.">
<polygon fill="white" stroke="#666666" points="473,-24.5 374,-24.5 374,-5.5 473,-5.5 473,-24.5"/>
<text text-anchor="middle" x="423.5" y="-12.5" font-family="Helvetica,sans-Serif" font-size="10.00">src/main_gui.cpp</text>
</a>
</g>
</g>
<!-- Node2&#45;&gt;Node3 -->
<g id="edge2_Node000002_Node000003" class="edge">
<title>Node2&#45;&gt;Node3</title>
<g id="a_edge2_Node000002_Node000003"><a xlink:title=" ">
<path fill="none" stroke="#63b8ff" d="M115.47,-69.57C121.88,-68.35 128.34,-67.13 134.5,-66 218.39,-50.59 316.22,-33.94 373.84,-24.27"/>
<polygon fill="#63b8ff" stroke="#63b8ff" points="114.65,-66.16 105.49,-71.49 115.98,-73.04 114.65,-66.16"/>
</a>
</g>
</g>
<!-- Node4&#45;&gt;Node2 -->
<g id="edge4_Node000004_Node000002" class="edge">
<title>Node4&#45;&gt;Node2</title>
<g id="a_edge4_Node000004_Node000002"><a xlink:title=" ">
<path fill="none" stroke="#63b8ff" d="M575.73,-141.61C479.71,-134.56 292.41,-119.12 134.5,-96 124.17,-94.49 113.07,-92.51 102.75,-90.51"/>
<polygon fill="#63b8ff" stroke="#63b8ff" points="575.63,-145.11 585.86,-142.34 576.14,-138.13 575.63,-145.11"/>
</a>
</g>
</g>
<!-- Node4&#45;&gt;Node3 -->
<g id="edge11_Node000004_Node000003" class="edge">
<title>Node4&#45;&gt;Node3</title>
<g id="a_edge11_Node000004_Node000003"><a xlink:title=" ">
<path fill="none" stroke="#63b8ff" d="M640.04,-121.6C639.09,-103.89 634.85,-80.57 620.5,-66 600.14,-45.32 524.6,-30.57 473.21,-22.67"/>
<polygon fill="#63b8ff" stroke="#63b8ff" points="636.54,-121.85 640.27,-131.77 643.54,-121.7 636.54,-121.85"/>
</a>
</g>
</g>
<!-- Node5 -->
<g id="Node000005" class="node">
<title>Node5</title>
<g id="a_Node000005"><a xlink:href="SimulationController_8h.html" target="_top" xlink:title=" ">
<polygon fill="white" stroke="#666666" points="325.5,-90.5 143.5,-90.5 143.5,-71.5 325.5,-71.5 325.5,-90.5"/>
<text text-anchor="middle" x="234.5" y="-78.5" font-family="Helvetica,sans-Serif" font-size="10.00">include/gui/SimulationController.h</text>
</a>
</g>
</g>
<!-- Node4&#45;&gt;Node5 -->
<g id="edge5_Node000004_Node000005" class="edge">
<title>Node4&#45;&gt;Node5</title>
<g id="a_edge5_Node000004_Node000005"><a xlink:title=" ">
<path fill="none" stroke="#63b8ff" d="M575.39,-135.87C496.16,-123.35 362.76,-102.27 288.5,-90.53"/>
<polygon fill="#63b8ff" stroke="#63b8ff" points="575.3,-139.4 585.72,-137.5 576.39,-132.48 575.3,-139.4"/>
</a>
</g>
</g>
<!-- Node6 -->
<g id="Node000006" class="node">
<title>Node6</title>
<g id="a_Node000006"><a xlink:href="SceneLoader_8h.html" target="_top" xlink:title="Builds a FireSimulator (and optional GUI Layout) from a SceneData.">
<polygon fill="white" stroke="#666666" points="805,-90.5 668,-90.5 668,-71.5 805,-71.5 805,-90.5"/>
<text text-anchor="middle" x="736.5" y="-78.5" font-family="Helvetica,sans-Serif" font-size="10.00">include/io/SceneLoader.h</text>
</a>
</g>
</g>
<!-- Node4&#45;&gt;Node6 -->
<g id="edge7_Node000004_Node000006" class="edge">
<title>Node4&#45;&gt;Node6</title>
<g id="a_edge7_Node000004_Node000006"><a xlink:title=" ">
<path fill="none" stroke="#63b8ff" d="M669.51,-126.2C687.56,-114.29 709.63,-99.73 723.38,-90.66"/>
<polygon fill="#63b8ff" stroke="#63b8ff" points="667.45,-123.37 661.03,-131.8 671.3,-129.21 667.45,-123.37"/>
</a>
</g>
</g>
<!-- Node7 -->
<g id="Node000007" class="node">
<title>Node7</title>
<g id="a_Node000007"><a xlink:href="sim__demo_8cpp.html" target="_top" xlink:title="Command&#45;line entry point for the Fire Evacuation simulator.">
<polygon fill="white" stroke="#666666" points="922,-24.5 817,-24.5 817,-5.5 922,-5.5 922,-24.5"/>
<text text-anchor="middle" x="869.5" y="-12.5" font-family="Helvetica,sans-Serif" font-size="10.00">src/sim_demo.cpp</text>
</a>
</g>
</g>
<!-- Node4&#45;&gt;Node7 -->
<g id="edge12_Node000004_Node000007" class="edge">
<title>Node4&#45;&gt;Node7</title>
<g id="a_edge12_Node000004_Node000007"><a xlink:title=" ">
<path fill="none" stroke="#63b8ff" d="M703.14,-142.72C743.51,-137.64 794.7,-125.35 830.5,-96 853.56,-77.1 864.02,-41.23 867.77,-24.72"/>
<polygon fill="#63b8ff" stroke="#63b8ff" points="702.66,-139.25 693.12,-143.85 703.46,-146.2 702.66,-139.25"/>
</a>
</g>
</g>
<!-- Node8 -->
<g id="Node000008" class="node">
<title>Node8</title>
<g id="a_Node000008"><a xlink:href="test__scene__io_8cpp.html" target="_top" xlink:title="Unit and integration tests for the data/ input pipeline.">
<polygon fill="white" stroke="#666666" points="797,-30 678,-30 678,0 797,0 797,-30"/>
<text text-anchor="start" x="686" y="-18" font-family="Helvetica,sans-Serif" font-size="10.00">tests/integration/test</text>
<text text-anchor="middle" x="737.5" y="-7" font-family="Helvetica,sans-Serif" font-size="10.00">_scene_io.cpp</text>
</a>
</g>
</g>
<!-- Node4&#45;&gt;Node8 -->
<g id="edge14_Node000004_Node000008" class="edge">
<title>Node4&#45;&gt;Node8</title>
<g id="a_edge14_Node000004_Node000008"><a xlink:title=" ">
<path fill="none" stroke="#63b8ff" d="M703.15,-136.03C747.41,-127.64 800.83,-114.12 814.5,-96 822.53,-85.36 820.86,-77.72 814.5,-66 805.75,-49.89 789.33,-38.17 773.88,-30.14"/>
<polygon fill="#63b8ff" stroke="#63b8ff" points="702.49,-132.59 693.28,-137.84 703.75,-139.48 702.49,-132.59"/>
</a>
</g>
</g>
<!-- Node9 -->
<g id="Node000009" class="node">
<title>Node9</title>
<g id="a_Node000009"><a xlink:href="test__boundary_8cpp.html" target="_top" xlink:title="Edge&#45;case and boundary tests for all custom data structures and the simulator.">
<polygon fill="white" stroke="#666666" points="465.5,-96 343.5,-96 343.5,-66 465.5,-66 465.5,-96"/>
<text text-anchor="start" x="351.5" y="-84" font-family="Helvetica,sans-Serif" font-size="10.00">tests/edge_cases/test</text>
<text text-anchor="middle" x="404.5" y="-73" font-family="Helvetica,sans-Serif" font-size="10.00">_boundary.cpp</text>
</a>
</g>
</g>
<!-- Node4&#45;&gt;Node9 -->
<g id="edge13_Node000004_Node000009" class="edge">
<title>Node4&#45;&gt;Node9</title>
<g id="a_edge13_Node000004_Node000009"><a xlink:title=" ">
<path fill="none" stroke="#63b8ff" d="M578.01,-129.25C540.04,-118.91 491.89,-105.8 455.95,-96.01"/>
<polygon fill="#63b8ff" stroke="#63b8ff" points="577.36,-132.7 587.93,-131.95 579.2,-125.95 577.36,-132.7"/>
</a>
</g>
</g>
<!-- Node10 -->
<g id="Node000010" class="node">
<title>Node10</title>
<g id="a_Node000010"><a xlink:href="test__performance_8cpp.html" target="_top" xlink:title="Performance benchmarks for the custom data structures and simulation engine.">
<polygon fill="white" stroke="#666666" points="611.5,-96 483.5,-96 483.5,-66 611.5,-66 611.5,-96"/>
<text text-anchor="start" x="491.5" y="-84" font-family="Helvetica,sans-Serif" font-size="10.00">tests/performance/test</text>
<text text-anchor="middle" x="547.5" y="-73" font-family="Helvetica,sans-Serif" font-size="10.00">_performance.cpp</text>
</a>
</g>
</g>
<!-- Node4&#45;&gt;Node10 -->
<g id="edge15_Node000004_Node000010" class="edge">
<title>Node4&#45;&gt;Node10</title>
<g id="a_edge15_Node000004_Node000010"><a xlink:title=" ">
<path fill="none" stroke="#63b8ff" d="M610.79,-126.03C596.87,-116.34 580.47,-104.94 567.86,-96.16"/>
<polygon fill="#63b8ff" stroke="#63b8ff" points="608.87,-128.96 619.08,-131.8 612.87,-123.21 608.87,-128.96"/>
</a>
</g>
</g>
<!-- Node4&#45;&gt;Node11 -->
<g id="edge16_Node000004_Node000011" class="edge">
<title>Node4&#45;&gt;Node11</title>
<g id="a_edge16_Node000004_Node000011"><a xlink:title=" ">
<path fill="none" stroke="#63b8ff" d="M703.22,-133.15C752.9,-123.1 823.6,-108.76 885.5,-96 890.16,-95.04 894.99,-94.04 899.84,-93.03"/>
<polygon fill="#63b8ff" stroke="#63b8ff" points="702.37,-129.75 693.26,-135.16 703.76,-136.61 702.37,-129.75"/>
</a>
</g>
</g>
<!-- Node5&#45;&gt;Node3 -->
<g id="edge6_Node000005_Node000003" class="edge">
<title>Node5&#45;&gt;Node3</title>
<g id="a_edge6_Node000005_Node000003"><a xlink:title=" ">
<path fill="none" stroke="#63b8ff" d="M269.93,-68C307.26,-55.36 365.1,-35.78 398.11,-24.6"/>
<polygon fill="#63b8ff" stroke="#63b8ff" points="268.34,-64.85 259.99,-71.37 270.58,-71.48 268.34,-64.85"/>
</a>
</g>
</g>
<!-- Node6&#45;&gt;Node3 -->
<g id="edge8_Node000006_Node000003" class="edge">
<title>Node6&#45;&gt;Node3</title>
<g id="a_edge8_Node000006_Node000003"><a xlink:title=" ">
<path fill="none" stroke="#63b8ff" d="M684.72,-69.41C623.21,-56.84 521.82,-36.1 465.14,-24.51"/>
<polygon fill="#63b8ff" stroke="#63b8ff" points="684.11,-72.86 694.61,-71.44 685.52,-66 684.11,-72.86"/>
</a>
</g>
</g>
<!-- Node6&#45;&gt;Node7 -->
<g id="edge9_Node000006_Node000007" class="edge">
<title>Node6&#45;&gt;Node7</title>
<g id="a_edge9_Node000006_Node000007"><a xlink:title=" ">
<path fill="none" stroke="#63b8ff" d="M763.46,-67.03C789.67,-54.42 828.75,-35.61 851.42,-24.7"/>
<polygon fill="#63b8ff" stroke="#63b8ff" points="761.93,-63.88 754.44,-71.37 764.97,-70.19 761.93,-63.88"/>
</a>
</g>
</g>
<!-- Node6&#45;&gt;Node8 -->
<g id="edge10_Node000006_Node000008" class="edge">
<title>Node6&#45;&gt;Node8</title>
<g id="a_edge10_Node000006_Node000008"><a xlink:title=" ">
<path fill="none" stroke="#63b8ff" d="M736.79,-61.35C736.95,-51.47 737.13,-39.51 737.28,-30.36"/>
<polygon fill="#63b8ff" stroke="#63b8ff" points="733.29,-61.32 736.63,-71.37 740.29,-61.42 733.29,-61.32"/>
</a>
</g>
</g>
</g>
</svg>
