<?xml version="1.0" encoding="UTF-8" standalone="no"?>
<!DOCTYPE svg PUBLIC "-//W3C//DTD SVG 1.1//EN"
 "http://www.w3.org/Graphics/SVG/1.1/DTD/svg11.dtd">
<!-- Generated by graphviz version 2.43.0 (0)
 -->
<!-- Title: FireSimulator::DijkstraRecord Pages: 1 -->
<!--zoomable 462 -->

<svg id="main" version="1.1" xmlns="http://www.w3.org/2000/svg" xmlns:xlink="http://www.w3.org/1999/xlink" xml:space="preserve" onload="init(evt)">
<style type="text/css"><![CDATA[
.node, .edge {opacity: 0.7;}
.node.selected, .edge.selected {opacity: 1;}
.edge:hover path { stroke: red; }
.edge:hover polygon { stroke: red; fill: red; }
]]></style>

<defs>
  <circle id="rim" cx="0" cy="0" r="7"/>
  <circle id="rim2" cx="0" cy="0" r="3.5"/>
  <g id="zoomPlus">
    <use xlink:href="#rim" fill="#404040"><set attributeName="fill" to="#808080" begin="zoomplus.mouseover" end="zoomplus.mouseout"/></use>
    <path d="M-4,0h8M0,-4v8" fill="none" stroke="white" stroke-width="1.5" pointer-events="none"/>
  </g>
  <g id="zoomMin">
    <use xlink:href="#rim" fill="#404040"><set attributeName="fill" to="#808080" begin="zoomminus.mouseover" end="zoomminus.mouseout"/></use>
    <path d="M-4,0h8" fill="none" stroke="white" stroke-width="1.5" pointer-events="none"/>
  </g>
  <g id="arrowUp" transform="translate(30 24)">
    <use xlink:href="#rim"/>
    <path pointer-events="none" fill="none" stroke="white" stroke-width="1.5" d="M0,-3.0v7 M-2.5,-0.5L0,-3.0L2.5,-0.5"/>
  </g>
  <g id="arrowRight" transform="rotate(90) translate(36 -43)">
    <use xlink:href="#rim"/>
    <path pointer-events="none" fill="none" stroke="white" stroke-width="1.5" d="M0,-3.0v7 M-2.5,-0.5L0,-3.0L2.5,-0.5"/>
  </g>
  <g id="arrowDown" transform="rotate(180) translate(-30 -48)">
    <use xlink:href="#rim"/>
    <path pointer-events="none" fill="none" stroke="white" stroke-width="1.5" d="M0,-3.0v7 M-2.5,-0.5L0,-3.0L2.5,-0.5"/>
  </g>
  <g id="arrowLeft" transform="rotate(270) translate(-36 17)">
    <use xlink:href="#rim"/>
    <path pointer-events="none" fill="none" stroke="white" stroke-width="1.5" d="M0,-3.0v7 M-2.5,-0.5L0,-3.0L2.5,-0.5"/>
  </g>
  <g id="resetDef">
    <use xlink:href="#rim2" fill="#404040"><set attributeName="fill" to="#808080" begin="reset.mouseover" end="reset.mouseout"/></use>
  </g>
</defs>
<script type="application/ecmascript">
var viewWidth = 214;
var viewHeight = 462;
var sectionId = 'dynsection-0';
</script>
<script type="application/ecmascript" xlink:href="svg.min.js"/>
<svg id="graph" class="graph">
<g id="viewport">
<title>FireSimulator::DijkstraRecord</title>
<!-- Node1 -->
<g id="Node000001" class="node">
<title>Node1</title>
<g id="a_Node000001"><a xlink:title="Per&#45;node record for the fire&#45;aware Dijkstra distance table.">
<polygon fill="#999999" stroke="transparent" points="154,-64 0,-64 0,0 154,0 154,-64"/>
<text text-anchor="start" x="5" y="-52" font-family="Helvetica,sans-Serif" font-size="10.00">FireSimulator::DijkstraRecord</text>
<text text-anchor="start" x="17" y="-37" font-family="Helvetica,sans-Serif" font-size="10.00">+</text>
<text text-anchor="start" x="43" y="-37" font-family="Helvetica,sans-Serif" font-size="10.00">distance</text>
<text text-anchor="start" x="17" y="-22" font-family="Helvetica,sans-Serif" font-size="10.00">+</text>
<text text-anchor="start" x="43" y="-22" font-family="Helvetica,sans-Serif" font-size="10.00">visited</text>
<text text-anchor="start" x="17" y="-7" font-family="Helvetica,sans-Serif" font-size="10.00">+</text>
<text text-anchor="start" x="43" y="-7" font-family="Helvetica,sans-Serif" font-size="10.00">DijkstraRecord()</text>
<polygon fill="#666666" stroke="#666666" points="0,-47 0,-47 154,-47 154,-47 0,-47"/>
<polygon fill="#666666" stroke="#666666" points="0,-17 0,-17 41,-17 41,-17 0,-17"/>
<polygon fill="#666666" stroke="#666666" points="41,-17 41,-17 154,-17 154,-17 41,-17"/>
<polygon fill="none" stroke="#666666" points="0,0 0,-64 154,-64 154,0 0,0"/>
</a>
</g>
</g>
<!-- Node1&#45;&gt;Node1 -->
<g id="edge5_Node000001_Node000001" class="edge">
<title>Node1&#45;&gt;Node1</title>
<g id="a_edge5_Node000001_Node000001"><a xlink:title=" ">
<path fill="none" stroke="#63b8ff" d="M154.16,-42.04C164.85,-40.39 172,-37.04 172,-32 172,-29.17 169.74,-26.87 165.86,-25.1"/>
<polygon fill="none" stroke="#63b8ff" points="165.75,-25.07 158.92,-27.38 154.16,-21.96 160.99,-19.65 165.75,-25.07"/>
</a>
</g>
<text text-anchor="middle" x="189" y="-29.5" font-family="Helvetica,sans-Serif" font-size="10.00" fill="grey"> +next</text>
</g>
<!-- Node2 -->
<g id="Node000002" class="node">
<title>Node2</title>
<g id="a_Node000002"><a xlink:href="structCellNode.html" target="_top" xlink:title="A simulation&#45;side node mirroring a Graph vertex.">
<polygon fill="white" stroke="transparent" points="126,-261 28,-261 28,-122 126,-122 126,-261"/>
<text text-anchor="start" x="54.5" y="-248.5" font-family="Helvetica,sans-Serif" font-size="10.00">CellNode</text>
<text text-anchor="start" x="32" y="-233.5" font-family="Helvetica,sans-Serif" font-size="10.00">+</text>
<text text-anchor="start" x="45" y="-233.5" font-family="Helvetica,sans-Serif" font-size="10.00">fire_intensity</text>
<text text-anchor="start" x="32" y="-218.5" font-family="Helvetica,sans-Serif" font-size="10.00">+</text>
<text text-anchor="start" x="45" y="-218.5" font-family="Helvetica,sans-Serif" font-size="10.00">flammability</text>
<text text-anchor="start" x="32" y="-203.5" font-family="Helvetica,sans-Serif" font-size="10.00">+</text>
<text text-anchor="start" x="45" y="-203.5" font-family="Helvetica,sans-Serif" font-size="10.00">floor</text>
<text text-anchor="start" x="32" y="-188.5" font-family="Helvetica,sans-Serif" font-size="10.00">+</text>
<text text-anchor="start" x="45" y="-188.5" font-family="Helvetica,sans-Serif" font-size="10.00">is_exit</text>
<text text-anchor="start" x="32" y="-173.5" font-family="Helvetica,sans-Serif" font-size="10.00">+</text>
<text text-anchor="start" x="45" y="-173.5" font-family="Helvetica,sans-Serif" font-size="10.00">on_fire</text>
<text text-anchor="start" x="32" y="-158.5" font-family="Helvetica,sans-Serif" font-size="10.00">+</text>
<text text-anchor="start" x="45" y="-158.5" font-family="Helvetica,sans-Serif" font-size="10.00">people_in_node</text>
<text text-anchor="start" x="32" y="-143.5" font-family="Helvetica,sans-Serif" font-size="10.00">+</text>
<text text-anchor="start" x="45" y="-143.5" font-family="Helvetica,sans-Serif" font-size="10.00">type</text>
<text text-anchor="start" x="32" y="-128.5" font-family="Helvetica,sans-Serif" font-size="10.00">+</text>
<text text-anchor="start" x="45" y="-128.5" font-family="Helvetica,sans-Serif" font-size="10.00">CellNode()</text>
<polygon fill="#666666" stroke="#666666" points="28,-243.5 28,-243.5 126,-243.5 126,-243.5 28,-243.5"/>
<polygon fill="#666666" stroke="#666666" points="28,-138.5 28,-138.5 43,-138.5 43,-138.5 28,-138.5"/>
<polygon fill="#666666" stroke="#666666" points="43,-138.5 43,-138.5 126,-138.5 126,-138.5 43,-138.5"/>
<polygon fill="none" stroke="#666666" points="28,-122 28,-261 126,-261 126,-122 28,-122"/>
</a>
</g>
</g>
<!-- Node2&#45;&gt;Node1 -->
<g id="edge1_Node000001_Node000002" class="edge">
<title>Node2&#45;&gt;Node1</title>
<g id="a_edge1_Node000001_Node000002"><a xlink:title=" ">
<path fill="none" stroke="#63b8ff" d="M77,-121.88C77,-106.52 77,-90.64 77,-76.62"/>
<polygon fill="none" stroke="#63b8ff" points="77,-76.34 73,-70.34 77,-64.34 81,-70.34 77,-76.34"/>
</a>
</g>
<text text-anchor="middle" x="102.5" y="-96" font-family="Helvetica,sans-Serif" font-size="10.00" fill="grey"> +node</text>
<text text-anchor="middle" x="102.5" y="-85" font-family="Helvetica,sans-Serif" font-size="10.00" fill="grey">+previous</text>
</g>
<!-- Node2&#45;&gt;Node2 -->
<g id="edge4_Node000002_Node000002" class="edge">
<title>Node2&#45;&gt;Node2</title>
<g id="a_edge4_Node000002_Node000002"><a xlink:title=" ">
<path fill="none" stroke="#63b8ff" d="M126.08,-208.19C136.49,-206.5 144,-200.93 144,-191.5 144,-186.05 141.49,-181.89 137.36,-179.02"/>
<polygon fill="none" stroke="#63b8ff" points="137.32,-179 130.3,-180.65 126.08,-174.81 133.1,-173.16 137.32,-179"/>
</a>
</g>
<text text-anchor="middle" x="161" y="-189" font-family="Helvetica,sans-Serif" font-size="10.00" fill="grey"> +next</text>
</g>
<!-- Node3 -->
<g id="Node000003" class="node">
<title>Node3</title>
<g id="a_Node000003"><a xlink:title=" ">
<polygon fill="white" stroke="transparent" points="106.5,-357 47.5,-357 47.5,-308 106.5,-308 106.5,-357"/>
<text text-anchor="start" x="53" y="-344.5" font-family="Helvetica,sans-Serif" font-size="10.00">std::string</text>
<text text-anchor="start" x="75.5" y="-329.5" font-family="Helvetica,sans-Serif" font-size="10.00"> </text>
<text text-anchor="start" x="75.5" y="-314.5" font-family="Helvetica,sans-Serif" font-size="10.00"> </text>
<polygon fill="#666666" stroke="#666666" points="48,-339.5 48,-339.5 107,-339.5 107,-339.5 48,-339.5"/>
<polygon fill="#666666" stroke="#666666" points="48,-324.5 48,-324.5 107,-324.5 107,-324.5 48,-324.5"/>
<polygon fill="none" stroke="#666666" points="47.5,-308 47.5,-357 106.5,-357 106.5,-308 47.5,-308"/>
</a>
</g>
</g>
<!-- Node3&#45;&gt;Node2 -->
<g id="edge2_Node000002_Node000003" class="edge">
<title>Node3&#45;&gt;Node2</title>
<g id="a_edge2_Node000002_Node000003"><a xlink:title=" ">
<path fill="none" stroke="#63b8ff" d="M77,-307.92C77,-298.06 77,-285.97 77,-273.36"/>
<polygon fill="none" stroke="#63b8ff" points="77,-273.17 73,-267.17 77,-261.17 81,-267.17 77,-273.17"/>
</a>
</g>
<text text-anchor="middle" x="87.5" y="-282" font-family="Helvetica,sans-Serif" font-size="10.00" fill="grey"> +id</text>
</g>
<!-- Node4 -->
<g id="Node000004" class="node">
<title>Node4</title>
<g id="a_Node000004"><a xlink:title=" ">
<polygon fill="white" stroke="transparent" points="126,-454 28,-454 28,-394 126,-394 126,-454"/>
<text text-anchor="start" x="33" y="-442" font-family="Helvetica,sans-Serif" font-size="10.00">std::basic_string&lt;</text>
<text text-anchor="start" x="58.5" y="-431" font-family="Helvetica,sans-Serif" font-size="10.00"> Char &gt;</text>
<text text-anchor="start" x="75" y="-416" font-family="Helvetica,sans-Serif" font-size="10.00"> </text>
<text text-anchor="start" x="75" y="-401" font-family="Helvetica,sans-Serif" font-size="10.00"> </text>
<polygon fill="#666666" stroke="#666666" points="28,-426 28,-426 126,-426 126,-426 28,-426"/>
<polygon fill="#666666" stroke="#666666" points="28,-411 28,-411 126,-411 126,-411 28,-411"/>
<polygon fill="none" stroke="#666666" points="28,-394 28,-454 126,-454 126,-394 28,-394"/>
</a>
</g>
</g>
<!-- Node4&#45;&gt;Node3 -->
<g id="edge3_Node000003_Node000004" class="edge">
<title>Node4&#45;&gt;Node3</title>
<g id="a_edge3_Node000003_Node000004"><a xlink:title=" ">
<path fill="none" stroke="#63b8ff" d="M77,-383.41C77,-374.47 77,-365.25 77,-357.21"/>
<polygon fill="none" stroke="#63b8ff" points="73.5,-383.69 77,-393.69 80.5,-383.69 73.5,-383.69"/>
</a>
</g>
</g>
</g>
</svg>

<g id="navigator" transform="translate(0 0)" fill="#404254">
  <rect fill="#f2f5e9" fill-opacity="0.5" stroke="#606060" stroke-width=".5" x="0" y="0" width="60" height="60"/>
  <use id="zoomplus" xlink:href="#zoomPlus" x="17" y="9" onmousedown="handleZoom(evt,'in')"/>
  <use id="zoomminus" xlink:href="#zoomMin" x="42" y="9" onmousedown="handleZoom(evt,'out')"/>
  <use id="reset" xlink:href="#resetDef" x="30" y="36" onmousedown="handleReset()"/>
   <use id="arrowup" xlink:href="#arrowUp" x="0" y="0" onmousedown="handlePan(0,-1)"/>
  <use id="arrowright" xlink:href="#arrowRight" x="0" y="0" onmousedown="handlePan(1,0)"/>
  <use id="arrowdown" xlink:href="#arrowDown" x="0" y="0" onmousedown="handlePan(0,1)"/>
  <use id="arrowleft" xlink:href="#arrowLeft" x="0" y="0" onmousedown="handlePan(-1,0)"/>
</g>
<svg viewBox="0 0 15 15" width="100%" height="30px" preserveAspectRatio="xMaxYMin meet">
 <g id="arrow_out" transform="scale(0.3 0.3)">
  <a xlink:href="structFireSimulator_1_1DijkstraRecord__coll__graph_org.svg" target="_base">
   <rect id="button" ry="5" rx="5" y="6" x="6" height="38" width="38"
        fill="#f2f5e9" fill-opacity="0.5" stroke="#606060" stroke-width="1.0"/>
   <path id="arrow"
     d="M 11.500037,31.436501 C 11.940474,20.09759 22.043105,11.32322 32.158766,21.979434 L 37.068811,17.246167 C 37.068811,17.246167 37.088388,32 37.088388,32 L 22.160133,31.978069 C 22.160133,31.978069 26.997745,27.140456 26.997745,27.140456 C 18.528582,18.264221 13.291696,25.230495 11.500037,31.436501 z"
     style="fill:#404040;"/>
  </a>
 </g>
</svg>

<style type='text/css'>
<![CDATA[
[data-mouse-over-selected='false'] { opacity: 0.7; }
[data-mouse-over-selected='true']  { opacity: 1.0; }
]]>
</style>
<script type="application/ecmascript"><![CDATA[
document.addEventListener('DOMContentLoaded', (event) => {
  highlightEdges();
  highlightAdjacentNodes();
});
]]></script>
</svg>
