<?xml version="1.0" encoding="UTF-8" standalone="no"?>
<!DOCTYPE svg PUBLIC "-//W3C//DTD SVG 1.1//EN"
 "http://www.w3.org/Graphics/SVG/1.1/DTD/svg11.dtd">
<!-- Generated by graphviz version 2.43.0 (0)
 -->
<!-- Title: CellNode Pages: 1 -->
<svg width="158pt" height="340pt"
 viewBox="0.00 0.00 158.00 340.00" xmlns="http://www.w3.org/2000/svg" xmlns:xlink="http://www.w3.org/1999/xlink">

<svg id="main" version="1.1" xmlns="http://www.w3.org/2000/svg" xmlns:xlink="http://www.w3.org/1999/xlink" xml:space="preserve" onload="init(evt)">
<style type="text/css"><![CDATA[
.node, .edge {opacity: 0.7;}
.node.selected, .edge.selected {opacity: 1;}
.edge:hover path { stroke: red; }
.edge:hover polygon { stroke: red; fill: red; }
]]></style>
<script type="application/ecmascript" xlink:href="svg.min.js"/>
<svg id="graph" class="graph">
<g id="graph0" class="graph" transform="scale(1 1) rotate(0) translate(4 336)">
<title>CellNode</title>
<!-- Node1 -->
<g id="Node000001" class="node">
<title>Node1</title>
<g id="a_Node000001"><a xlink:title="A simulation&#45;side node mirroring a Graph vertex.">
<polygon fill="#999999" stroke="transparent" points="98,-139 0,-139 0,0 98,0 98,-139"/>
<text text-anchor="start" x="26.5" y="-126.5" font-family="Helvetica,sans-Serif" font-size="10.00">CellNode</text>
<text text-anchor="start" x="4" y="-111.5" font-family="Helvetica,sans-Serif" font-size="10.00">+</text>
<text text-anchor="start" x="17" y="-111.5" font-family="Helvetica,sans-Serif" font-size="10.00">fire_intensity</text>
<text text-anchor="start" x="4" y="-96.5" font-family="Helvetica,sans-Serif" font-size="10.00">+</text>
<text text-anchor="start" x="17" y="-96.5" font-family="Helvetica,sans-Serif" font-size="10.00">flammability</text>
<text text-anchor="start" x="4" y="-81.5" font-family="Helvetica,sans-Serif" font-size="10.00">+</text>
<text text-anchor="start" x="17" y="-81.5" font-family="Helvetica,sans-Serif" font-size="10.00">floor</text>
<text text-anchor="start" x="4" y="-66.5" font-family="Helvetica,sans-Serif" font-size="10.00">+</text>
<text text-anchor="start" x="17" y="-66.5" font-family="Helvetica,sans-Serif" font-size="10.00">is_exit</text>
<text text-anchor="start" x="4" y="-51.5" font-family="Helvetica,sans-Serif" font-size="10.00">+</text>
<text text-anchor="start" x="17" y="-51.5" font-family="Helvetica,sans-Serif" font-size="10.00">on_fire</text>
<text text-anchor="start" x="4" y="-36.5" font-family="Helvetica,sans-Serif" font-size="10.00">+</text>
<text text-anchor="start" x="17" y="-36.5" font-family="Helvetica,sans-Serif" font-size="10.00">people_in_node</text>
<text text-anchor="start" x="4" y="-21.5" font-family="Helvetica,sans-Serif" font-size="10.00">+</text>
<text text-anchor="start" x="17" y="-21.5" font-family="Helvetica,sans-Serif" font-size="10.00">type</text>
<text text-anchor="start" x="4" y="-6.5" font-family="Helvetica,sans-Serif" font-size="10.00">+</text>
<text text-anchor="start" x="17" y="-6.5" font-family="Helvetica,sans-Serif" font-size="10.00">CellNode()</text>
<polygon fill="#666666" stroke="#666666" points="0,-121.5 0,-121.5 98,-121.5 98,-121.5 0,-121.5"/>
<polygon fill="#666666" stroke="#666666" points="0,-16.5 0,-16.5 15,-16.5 15,-16.5 0,-16.5"/>
<polygon fill="#666666" stroke="#666666" points="15,-16.5 15,-16.5 98,-16.5 98,-16.5 15,-16.5"/>
<polygon fill="none" stroke="#666666" points="0,0 0,-139 98,-139 98,0 0,0"/>
</a>
</g>
</g>
<!-- Node1&#45;&gt;Node1 -->
<g id="edge3_Node000001_Node000001" class="edge">
<title>Node1&#45;&gt;Node1</title>
<g id="a_edge3_Node000001_Node000001"><a xlink:title=" ">
<path fill="none" stroke="#63b8ff" d="M98.08,-86.19C108.49,-84.5 116,-78.93 116,-69.5 116,-64.05 113.49,-59.89 109.36,-57.02"/>
<polygon fill="none" stroke="#63b8ff" points="109.32,-57 102.3,-58.65 98.08,-52.81 105.1,-51.16 109.32,-57"/>
</a>
</g>
<text text-anchor="middle" x="133" y="-67" font-family="Helvetica,sans-Serif" font-size="10.00" fill="grey"> +next</text>
</g>
<!-- Node2 -->
<g id="Node000002" class="node">
<title>Node2</title>
<g id="a_Node000002"><a xlink:title=" ">
<polygon fill="white" stroke="transparent" points="78.5,-235 19.5,-235 19.5,-186 78.5,-186 78.5,-235"/>
<text text-anchor="start" x="25" y="-222.5" font-family="Helvetica,sans-Serif" font-size="10.00">std::string</text>
<text text-anchor="start" x="47.5" y="-207.5" font-family="Helvetica,sans-Serif" font-size="10.00"> </text>
<text text-anchor="start" x="47.5" y="-192.5" font-family="Helvetica,sans-Serif" font-size="10.00"> </text>
<polygon fill="#666666" stroke="#666666" points="20,-217.5 20,-217.5 79,-217.5 79,-217.5 20,-217.5"/>
<polygon fill="#666666" stroke="#666666" points="20,-202.5 20,-202.5 79,-202.5 79,-202.5 20,-202.5"/>
<polygon fill="none" stroke="#666666" points="19.5,-186 19.5,-235 78.5,-235 78.5,-186 19.5,-186"/>
</a>
</g>
</g>
<!-- Node2&#45;&gt;Node1 -->
<g id="edge1_Node000001_Node000002" class="edge">
<title>Node2&#45;&gt;Node1</title>
<g id="a_edge1_Node000001_Node000002"><a xlink:title=" ">
<path fill="none" stroke="#63b8ff" d="M49,-185.92C49,-176.06 49,-163.97 49,-151.36"/>
<polygon fill="none" stroke="#63b8ff" points="49,-151.17 45,-145.17 49,-139.17 53,-145.17 49,-151.17"/>
</a>
</g>
<text text-anchor="middle" x="59.5" y="-160" font-family="Helvetica,sans-Serif" font-size="10.00" fill="grey"> +id</text>
</g>
<!-- Node3 -->
<g id="Node000003" class="node">
<title>Node3</title>
<g id="a_Node000003"><a xlink:title=" ">
<polygon fill="white" stroke="transparent" points="98,-332 0,-332 0,-272 98,-272 98,-332"/>
<text text-anchor="start" x="5" y="-320" font-family="Helvetica,sans-Serif" font-size="10.00">std::basic_string&lt;</text>
<text text-anchor="start" x="30.5" y="-309" font-family="Helvetica,sans-Serif" font-size="10.00"> Char &gt;</text>
<text text-anchor="start" x="47" y="-294" font-family="Helvetica,sans-Serif" font-size="10.00"> </text>
<text text-anchor="start" x="47" y="-279" font-family="Helvetica,sans-Serif" font-size="10.00"> </text>
<polygon fill="#666666" stroke="#666666" points="0,-304 0,-304 98,-304 98,-304 0,-304"/>
<polygon fill="#666666" stroke="#666666" points="0,-289 0,-289 98,-289 98,-289 0,-289"/>
<polygon fill="none" stroke="#666666" points="0,-272 0,-332 98,-332 98,-272 0,-272"/>
</a>
</g>
</g>
<!-- Node3&#45;&gt;Node2 -->
<g id="edge2_Node000002_Node000003" class="edge">
<title>Node3&#45;&gt;Node2</title>
<g id="a_edge2_Node000002_Node000003"><a xlink:title=" ">
<path fill="none" stroke="#63b8ff" d="M49,-261.41C49,-252.47 49,-243.25 49,-235.21"/>
<polygon fill="none" stroke="#63b8ff" points="45.5,-261.69 49,-271.69 52.5,-261.69 45.5,-261.69"/>
</a>
</g>
</g>
</g>
</svg>
</svg>

<style type='text/css'>
<![CDATA[
[data-mouse-over-selected='false'] { opacity: 0.7; }
[data-mouse-over-selected='true']  { opacity: 1.0; }
]]>
</style>
<script type="application/ecmascript"><![CDATA[
document.addEventListener('DOMContentLoaded', (event) => {
  highlightEdges();
  highlightAdjacentNodes();
});
]]></script>
</svg>
