<?xml version="1.0" encoding="UTF-8" standalone="no"?>
<!DOCTYPE svg PUBLIC "-//W3C//DTD SVG 1.1//EN"
 "http://www.w3.org/Graphics/SVG/1.1/DTD/svg11.dtd">
<!-- Generated by graphviz version 2.43.0 (0)
 -->
<!-- Title: PriorityQueue&lt; T, Compare &gt;::HeapNode Pages: 1 -->
<svg width="235pt" height="208pt"
 viewBox="0.00 0.00 235.00 208.00" xmlns="http://www.w3.org/2000/svg" xmlns:xlink="http://www.w3.org/1999/xlink">

<svg id="main" version="1.1" xmlns="http://www.w3.org/2000/svg" xmlns:xlink="http://www.w3.org/1999/xlink" xml:space="preserve" onload="init(evt)">
<style type="text/css"><![CDATA[
.node, .edge {opacity: 0.7;}
.node.selected, .edge.selected {opacity: 1;}
.edge:hover path { stroke: red; }
.edge:hover polygon { stroke: red; fill: red; }
]]></style>
<script type="application/ecmascript" xlink:href="svg.min.js"/>
<svg id="graph" class="graph">
<g id="graph0" class="graph" transform="scale(1 1) rotate(0) translate(4 204)">
<title>PriorityQueue&lt; T, Compare &gt;::HeapNode</title>
<!-- Node1 -->
<g id="Node000001" class="node">
<title>Node1</title>
<g id="a_Node000001"><a xlink:title="A node in the binary&#45;heap tree.">
<polygon fill="#999999" stroke="transparent" points="145,-60 0,-60 0,0 145,0 145,-60"/>
<text text-anchor="start" x="5.5" y="-48" font-family="Helvetica,sans-Serif" font-size="10.00">PriorityQueue&lt; T, Compare</text>
<text text-anchor="start" x="38.5" y="-37" font-family="Helvetica,sans-Serif" font-size="10.00"> &gt;::HeapNode</text>
<text text-anchor="start" x="20.5" y="-22" font-family="Helvetica,sans-Serif" font-size="10.00">+</text>
<text text-anchor="start" x="49.5" y="-22" font-family="Helvetica,sans-Serif" font-size="10.00">value</text>
<text text-anchor="start" x="20.5" y="-7" font-family="Helvetica,sans-Serif" font-size="10.00">+</text>
<text text-anchor="start" x="49.5" y="-7" font-family="Helvetica,sans-Serif" font-size="10.00">HeapNode()</text>
<polygon fill="#666666" stroke="#666666" points="0.5,-32 0.5,-32 145.5,-32 145.5,-32 0.5,-32"/>
<polygon fill="#666666" stroke="#666666" points="0.5,-17 0.5,-17 47.5,-17 47.5,-17 0.5,-17"/>
<polygon fill="#666666" stroke="#666666" points="47.5,-17 47.5,-17 145.5,-17 145.5,-17 47.5,-17"/>
<polygon fill="none" stroke="#666666" points="0,0 0,-60 145,-60 145,0 0,0"/>
</a>
</g>
</g>
<!-- Node2 -->
<g id="Node000002" class="node">
<title>Node2</title>
<g id="a_Node000002"><a xlink:href="structPriorityQueue_1_1HeapNode.html" target="_top" xlink:title="A node in the binary&#45;heap tree.">
<polygon fill="white" stroke="transparent" points="145,-200 0,-200 0,-140 145,-140 145,-200"/>
<text text-anchor="start" x="5.5" y="-188" font-family="Helvetica,sans-Serif" font-size="10.00">PriorityQueue&lt; T, Compare</text>
<text text-anchor="start" x="38.5" y="-177" font-family="Helvetica,sans-Serif" font-size="10.00"> &gt;::HeapNode</text>
<text text-anchor="start" x="20.5" y="-162" font-family="Helvetica,sans-Serif" font-size="10.00">+</text>
<text text-anchor="start" x="49.5" y="-162" font-family="Helvetica,sans-Serif" font-size="10.00">value</text>
<text text-anchor="start" x="20.5" y="-147" font-family="Helvetica,sans-Serif" font-size="10.00">+</text>
<text text-anchor="start" x="49.5" y="-147" font-family="Helvetica,sans-Serif" font-size="10.00">HeapNode()</text>
<polygon fill="#666666" stroke="#666666" points="0.5,-172 0.5,-172 145.5,-172 145.5,-172 0.5,-172"/>
<polygon fill="#666666" stroke="#666666" points="0.5,-157 0.5,-157 47.5,-157 47.5,-157 0.5,-157"/>
<polygon fill="#666666" stroke="#666666" points="47.5,-157 47.5,-157 145.5,-157 145.5,-157 47.5,-157"/>
<polygon fill="none" stroke="#666666" points="0,-140 0,-200 145,-200 145,-140 0,-140"/>
</a>
</g>
</g>
<!-- Node2&#45;&gt;Node1 -->
<g id="edge1_Node000001_Node000002" class="edge">
<title>Node2&#45;&gt;Node1</title>
<g id="a_edge1_Node000001_Node000002"><a xlink:title=" ">
<path fill="none" stroke="#63b8ff" d="M72.5,-139.73C72.5,-120.16 72.5,-94.11 72.5,-72.41"/>
<polygon fill="none" stroke="#63b8ff" points="72.5,-72.22 68.5,-66.22 72.5,-60.22 76.5,-66.22 72.5,-72.22"/>
</a>
</g>
<text text-anchor="middle" x="104.5" y="-114" font-family="Helvetica,sans-Serif" font-size="10.00" fill="grey"> +left</text>
<text text-anchor="middle" x="104.5" y="-103" font-family="Helvetica,sans-Serif" font-size="10.00" fill="grey">+next_insert</text>
<text text-anchor="middle" x="104.5" y="-92" font-family="Helvetica,sans-Serif" font-size="10.00" fill="grey">+parent</text>
<text text-anchor="middle" x="104.5" y="-81" font-family="Helvetica,sans-Serif" font-size="10.00" fill="grey">+right</text>
</g>
<!-- Node2&#45;&gt;Node2 -->
<g id="edge2_Node000002_Node000002" class="edge">
<title>Node2&#45;&gt;Node2</title>
<g id="a_edge2_Node000002_Node000002"><a xlink:title=" ">
<path fill="none" stroke="#63b8ff" d="M145.29,-181.84C155.87,-179.96 163,-176.02 163,-170 163,-166.62 160.74,-163.89 156.89,-161.81"/>
<polygon fill="none" stroke="#63b8ff" points="156.73,-161.76 149.81,-163.78 145.29,-158.16 152.21,-156.14 156.73,-161.76"/>
</a>
</g>
<text text-anchor="middle" x="195" y="-184" font-family="Helvetica,sans-Serif" font-size="10.00" fill="grey"> +left</text>
<text text-anchor="middle" x="195" y="-173" font-family="Helvetica,sans-Serif" font-size="10.00" fill="grey">+next_insert</text>
<text text-anchor="middle" x="195" y="-162" font-family="Helvetica,sans-Serif" font-size="10.00" fill="grey">+parent</text>
<text text-anchor="middle" x="195" y="-151" font-family="Helvetica,sans-Serif" font-size="10.00" fill="grey">+right</text>
</g>
</g>
</svg>
</svg>

<style type='text/css'>
<![CDATA[
[data-mouse-over-selected='false'] { opacity: 0.7; }
[data-mouse-over-selected='true']  { opacity: 1.0; }
]]>
</style>
<script type="application/ecmascript"><![CDATA[
document.addEventListener('DOMContentLoaded', (event) => {
  highlightEdges();
  highlightAdjacentNodes();
});
]]></script>
</svg>
