<?xml version="1.0" encoding="UTF-8" standalone="no"?>
<!DOCTYPE svg PUBLIC "-//W3C//DTD SVG 1.1//EN"
 "http://www.w3.org/Graphics/SVG/1.1/DTD/svg11.dtd">
<!-- Generated by graphviz version 2.43.0 (0)
 -->
<!-- Title: SceneEdge Pages: 1 -->
<svg width="156pt" height="291pt"
 viewBox="0.00 0.00 155.50 291.00" xmlns="http://www.w3.org/2000/svg" xmlns:xlink="http://www.w3.org/1999/xlink">

<svg id="main" version="1.1" xmlns="http://www.w3.org/2000/svg" xmlns:xlink="http://www.w3.org/1999/xlink" xml:space="preserve" onload="init(evt)">
<style type="text/css"><![CDATA[
.node, .edge {opacity: 0.7;}
.node.selected, .edge.selected {opacity: 1;}
.edge:hover path { stroke: red; }
.edge:hover polygon { stroke: red; fill: red; }
]]></style>
<script type="application/ecmascript" xlink:href="svg.min.js"/>
<svg id="graph" class="graph">
<g id="graph0" class="graph" transform="scale(1 1) rotate(0) translate(4 287)">
<title>SceneEdge</title>
<!-- Node1 -->
<g id="Node000001" class="node">
<title>Node1</title>
<g id="a_Node000001"><a xlink:title="One corridor (graph edge) connecting two nodes.">
<polygon fill="#999999" stroke="transparent" points="95.5,-79 2.5,-79 2.5,0 95.5,0 95.5,-79"/>
<text text-anchor="start" x="22.5" y="-66.5" font-family="Helvetica,sans-Serif" font-size="10.00">SceneEdge</text>
<text text-anchor="start" x="7" y="-51.5" font-family="Helvetica,sans-Serif" font-size="10.00">+</text>
<text text-anchor="start" x="20" y="-51.5" font-family="Helvetica,sans-Serif" font-size="10.00">capacity</text>
<text text-anchor="start" x="7" y="-36.5" font-family="Helvetica,sans-Serif" font-size="10.00">+</text>
<text text-anchor="start" x="20" y="-36.5" font-family="Helvetica,sans-Serif" font-size="10.00">flammability</text>
<text text-anchor="start" x="7" y="-21.5" font-family="Helvetica,sans-Serif" font-size="10.00">+</text>
<text text-anchor="start" x="20" y="-21.5" font-family="Helvetica,sans-Serif" font-size="10.00">traversal_time</text>
<text text-anchor="start" x="7" y="-6.5" font-family="Helvetica,sans-Serif" font-size="10.00">+</text>
<text text-anchor="start" x="20" y="-6.5" font-family="Helvetica,sans-Serif" font-size="10.00">SceneEdge()</text>
<polygon fill="#666666" stroke="#666666" points="3,-61.5 3,-61.5 96,-61.5 96,-61.5 3,-61.5"/>
<polygon fill="#666666" stroke="#666666" points="3,-16.5 3,-16.5 18,-16.5 18,-16.5 3,-16.5"/>
<polygon fill="#666666" stroke="#666666" points="18,-16.5 18,-16.5 96,-16.5 96,-16.5 18,-16.5"/>
<polygon fill="none" stroke="#666666" points="2.5,0 2.5,-79 95.5,-79 95.5,0 2.5,0"/>
</a>
</g>
</g>
<!-- Node1&#45;&gt;Node1 -->
<g id="edge3_Node000001_Node000001" class="edge">
<title>Node1&#45;&gt;Node1</title>
<g id="a_edge3_Node000001_Node000001"><a xlink:title=" ">
<path fill="none" stroke="#63b8ff" d="M95.67,-51.91C105.99,-50.74 113.5,-46.61 113.5,-39.5 113.5,-35.61 111.25,-32.62 107.53,-30.51"/>
<polygon fill="none" stroke="#63b8ff" points="107.21,-30.41 100.33,-32.6 95.67,-27.09 102.55,-24.91 107.21,-30.41"/>
</a>
</g>
<text text-anchor="middle" x="130.5" y="-37" font-family="Helvetica,sans-Serif" font-size="10.00" fill="grey"> +next</text>
</g>
<!-- Node2 -->
<g id="Node000002" class="node">
<title>Node2</title>
<g id="a_Node000002"><a xlink:title=" ">
<polygon fill="white" stroke="transparent" points="78.5,-186 19.5,-186 19.5,-137 78.5,-137 78.5,-186"/>
<text text-anchor="start" x="25" y="-173.5" font-family="Helvetica,sans-Serif" font-size="10.00">std::string</text>
<text text-anchor="start" x="47.5" y="-158.5" font-family="Helvetica,sans-Serif" font-size="10.00"> </text>
<text text-anchor="start" x="47.5" y="-143.5" font-family="Helvetica,sans-Serif" font-size="10.00"> </text>
<polygon fill="#666666" stroke="#666666" points="20,-168.5 20,-168.5 79,-168.5 79,-168.5 20,-168.5"/>
<polygon fill="#666666" stroke="#666666" points="20,-153.5 20,-153.5 79,-153.5 79,-153.5 20,-153.5"/>
<polygon fill="none" stroke="#666666" points="19.5,-137 19.5,-186 78.5,-186 78.5,-137 19.5,-137"/>
</a>
</g>
</g>
<!-- Node2&#45;&gt;Node1 -->
<g id="edge1_Node000001_Node000002" class="edge">
<title>Node2&#45;&gt;Node1</title>
<g id="a_edge1_Node000001_Node000002"><a xlink:title=" ">
<path fill="none" stroke="#63b8ff" d="M49,-136.79C49,-123.86 49,-107.32 49,-91.61"/>
<polygon fill="none" stroke="#63b8ff" points="49,-91.27 45,-85.27 49,-79.27 53,-85.27 49,-91.27"/>
</a>
</g>
<text text-anchor="middle" x="66.5" y="-111" font-family="Helvetica,sans-Serif" font-size="10.00" fill="grey"> +from</text>
<text text-anchor="middle" x="66.5" y="-100" font-family="Helvetica,sans-Serif" font-size="10.00" fill="grey">+to</text>
</g>
<!-- Node3 -->
<g id="Node000003" class="node">
<title>Node3</title>
<g id="a_Node000003"><a xlink:title=" ">
<polygon fill="white" stroke="transparent" points="98,-283 0,-283 0,-223 98,-223 98,-283"/>
<text text-anchor="start" x="5" y="-271" font-family="Helvetica,sans-Serif" font-size="10.00">std::basic_string&lt;</text>
<text text-anchor="start" x="30.5" y="-260" font-family="Helvetica,sans-Serif" font-size="10.00"> Char &gt;</text>
<text text-anchor="start" x="47" y="-245" font-family="Helvetica,sans-Serif" font-size="10.00"> </text>
<text text-anchor="start" x="47" y="-230" font-family="Helvetica,sans-Serif" font-size="10.00"> </text>
<polygon fill="#666666" stroke="#666666" points="0,-255 0,-255 98,-255 98,-255 0,-255"/>
<polygon fill="#666666" stroke="#666666" points="0,-240 0,-240 98,-240 98,-240 0,-240"/>
<polygon fill="none" stroke="#666666" points="0,-223 0,-283 98,-283 98,-223 0,-223"/>
</a>
</g>
</g>
<!-- Node3&#45;&gt;Node2 -->
<g id="edge2_Node000002_Node000003" class="edge">
<title>Node3&#45;&gt;Node2</title>
<g id="a_edge2_Node000002_Node000003"><a xlink:title=" ">
<path fill="none" stroke="#63b8ff" d="M49,-212.41C49,-203.47 49,-194.25 49,-186.21"/>
<polygon fill="none" stroke="#63b8ff" points="45.5,-212.69 49,-222.69 52.5,-212.69 45.5,-212.69"/>
</a>
</g>
</g>
</g>
</svg>
</svg>

<style type='text/css'>
<![CDATA[
[data-mouse-over-selected='false'] { opacity: 0.7; }
[data-mouse-over-selected='true']  { opacity: 1.0; }
]]>
</style>
<script type="application/ecmascript"><![CDATA[
document.addEventListener('DOMContentLoaded', (event) => {
  highlightEdges();
  highlightAdjacentNodes();
});
]]></script>
</svg>
