<?xml version="1.0" encoding="UTF-8" standalone="no"?>
<!DOCTYPE svg PUBLIC "-//W3C//DTD SVG 1.1//EN"
 "http://www.w3.org/Graphics/SVG/1.1/DTD/svg11.dtd">
<!-- Generated by graphviz version 2.43.0 (0)
 -->
<!-- Title: Graph::Edge Pages: 1 -->
<svg width="250pt" height="325pt"
 viewBox="0.00 0.00 249.50 325.00" xmlns="http://www.w3.org/2000/svg" xmlns:xlink="http://www.w3.org/1999/xlink">
<g id="graph0" class="graph" transform="scale(1 1) rotate(0) translate(4 321)">
<title>Graph::Edge</title>
<!-- Node1 -->
<g id="Node000001" class="node">
<title>Node1</title>
<g id="a_Node000001"><a xlink:title="A directed weighted edge between two vertices.">
<polygon fill="#999999" stroke="transparent" points="93,-220 0,-220 0,-141 93,-141 93,-220"/>
<text text-anchor="start" x="17" y="-207.5" font-family="Helvetica,sans-Serif" font-size="10.00">Graph::Edge</text>
<text text-anchor="start" x="4.5" y="-192.5" font-family="Helvetica,sans-Serif" font-size="10.00">+</text>
<text text-anchor="start" x="17.5" y="-192.5" font-family="Helvetica,sans-Serif" font-size="10.00">blocked</text>
<text text-anchor="start" x="4.5" y="-177.5" font-family="Helvetica,sans-Serif" font-size="10.00">+</text>
<text text-anchor="start" x="17.5" y="-177.5" font-family="Helvetica,sans-Serif" font-size="10.00">capacity</text>
<text text-anchor="start" x="4.5" y="-162.5" font-family="Helvetica,sans-Serif" font-size="10.00">+</text>
<text text-anchor="start" x="17.5" y="-162.5" font-family="Helvetica,sans-Serif" font-size="10.00">traversal_time</text>
<text text-anchor="start" x="4.5" y="-147.5" font-family="Helvetica,sans-Serif" font-size="10.00">+</text>
<text text-anchor="start" x="17.5" y="-147.5" font-family="Helvetica,sans-Serif" font-size="10.00">Edge()</text>
<polygon fill="#666666" stroke="#666666" points="0.5,-202.5 0.5,-202.5 93.5,-202.5 93.5,-202.5 0.5,-202.5"/>
<polygon fill="#666666" stroke="#666666" points="0.5,-157.5 0.5,-157.5 15.5,-157.5 15.5,-157.5 0.5,-157.5"/>
<polygon fill="#666666" stroke="#666666" points="15.5,-157.5 15.5,-157.5 93.5,-157.5 93.5,-157.5 15.5,-157.5"/>
<polygon fill="none" stroke="#666666" points="0,-141 0,-220 93,-220 93,-141 0,-141"/>
</a>
</g>
</g>
<!-- Node1&#45;&gt;Node1 -->
<g id="edge6_Node000001_Node000001" class="edge">
<title>Node1&#45;&gt;Node1</title>
<g id="a_edge6_Node000001_Node000001"><a xlink:title=" ">
<path fill="none" stroke="#63b8ff" d="M93.17,-191.08C103.49,-190.09 111,-186.56 111,-180.5 111,-177.19 108.75,-174.63 105.03,-172.83"/>
<polygon fill="none" stroke="#63b8ff" points="104.83,-172.78 98.05,-175.23 93.17,-169.92 99.95,-167.46 104.83,-172.78"/>
</a>
</g>
<text text-anchor="middle" x="128" y="-178" font-family="Helvetica,sans-Serif" font-size="10.00" fill="grey"> +next</text>
</g>
<!-- Node2 -->
<g id="Node000002" class="node">
<title>Node2</title>
<g id="a_Node000002"><a xlink:href="structGraph_1_1Vertex.html" target="_top" xlink:title="A vertex (node) in the graph.">
<polygon fill="white" stroke="transparent" points="169,-94 92,-94 92,0 169,0 169,-94"/>
<text text-anchor="start" x="97.5" y="-82" font-family="Helvetica,sans-Serif" font-size="10.00">Graph::Vertex</text>
<text text-anchor="start" x="98" y="-67" font-family="Helvetica,sans-Serif" font-size="10.00">+</text>
<text text-anchor="start" x="112.5" y="-67" font-family="Helvetica,sans-Serif" font-size="10.00">blocked</text>
<text text-anchor="start" x="98" y="-52" font-family="Helvetica,sans-Serif" font-size="10.00">+</text>
<text text-anchor="start" x="112.5" y="-52" font-family="Helvetica,sans-Serif" font-size="10.00">floor</text>
<text text-anchor="start" x="98" y="-37" font-family="Helvetica,sans-Serif" font-size="10.00">+</text>
<text text-anchor="start" x="112.5" y="-37" font-family="Helvetica,sans-Serif" font-size="10.00">occupants</text>
<text text-anchor="start" x="98" y="-22" font-family="Helvetica,sans-Serif" font-size="10.00">+</text>
<text text-anchor="start" x="112.5" y="-22" font-family="Helvetica,sans-Serif" font-size="10.00">type</text>
<text text-anchor="start" x="98" y="-7" font-family="Helvetica,sans-Serif" font-size="10.00">+</text>
<text text-anchor="start" x="112.5" y="-7" font-family="Helvetica,sans-Serif" font-size="10.00">Vertex()</text>
<polygon fill="#666666" stroke="#666666" points="92.5,-77 92.5,-77 169.5,-77 169.5,-77 92.5,-77"/>
<polygon fill="#666666" stroke="#666666" points="92.5,-17 92.5,-17 110.5,-17 110.5,-17 92.5,-17"/>
<polygon fill="#666666" stroke="#666666" points="110.5,-17 110.5,-17 169.5,-17 169.5,-17 110.5,-17"/>
<polygon fill="none" stroke="#666666" points="92,0 92,-94 169,-94 169,0 92,0"/>
</a>
</g>
</g>
<!-- Node1&#45;&gt;Node2 -->
<g id="edge4_Node000002_Node000001" class="edge">
<title>Node1&#45;&gt;Node2</title>
<g id="a_edge4_Node000002_Node000001"><a xlink:title=" ">
<path fill="none" stroke="#63b8ff" d="M38.23,-140.94C37.85,-131.08 39.05,-120.79 43.5,-112 51.82,-95.55 66.58,-82.3 81.61,-72.21"/>
<polygon fill="none" stroke="#63b8ff" points="81.8,-72.09 84.77,-65.52 91.98,-65.73 89.01,-72.3 81.8,-72.09"/>
</a>
</g>
<text text-anchor="middle" x="74" y="-115" font-family="Helvetica,sans-Serif" font-size="10.00" fill="grey"> +adjacency</text>
</g>
<!-- Node2&#45;&gt;Node1 -->
<g id="edge1_Node000001_Node000002" class="edge">
<title>Node2&#45;&gt;Node1</title>
<g id="a_edge1_Node000001_Node000002"><a xlink:title=" ">
<path fill="none" stroke="#63b8ff" d="M121.27,-94.12C118.12,-104.09 113.97,-114.25 108.5,-123 106.38,-126.4 104,-129.71 101.43,-132.93"/>
<polygon fill="none" stroke="#63b8ff" points="101.18,-133.22 100.25,-140.37 93.29,-142.26 94.22,-135.11 101.18,-133.22"/>
</a>
</g>
<text text-anchor="middle" x="124.5" y="-115" font-family="Helvetica,sans-Serif" font-size="10.00" fill="grey"> +to</text>
</g>
<!-- Node2&#45;&gt;Node2 -->
<g id="edge5_Node000002_Node000002" class="edge">
<title>Node2&#45;&gt;Node2</title>
<g id="a_edge5_Node000002_Node000002"><a xlink:title=" ">
<path fill="none" stroke="#63b8ff" d="M169.06,-60.01C179.27,-59.27 187,-54.93 187,-47 187,-42.66 184.69,-39.4 180.92,-37.21"/>
<polygon fill="none" stroke="#63b8ff" points="180.64,-37.14 173.8,-39.42 169.06,-33.99 175.89,-31.7 180.64,-37.14"/>
</a>
</g>
<text text-anchor="middle" x="204" y="-44.5" font-family="Helvetica,sans-Serif" font-size="10.00" fill="grey"> +next</text>
</g>
<!-- Node3 -->
<g id="Node000003" class="node">
<title>Node3</title>
<g id="a_Node000003"><a xlink:title=" ">
<polygon fill="white" stroke="transparent" points="222,-205 163,-205 163,-156 222,-156 222,-205"/>
<text text-anchor="start" x="168.5" y="-192.5" font-family="Helvetica,sans-Serif" font-size="10.00">std::string</text>
<text text-anchor="start" x="191" y="-177.5" font-family="Helvetica,sans-Serif" font-size="10.00"> </text>
<text text-anchor="start" x="191" y="-162.5" font-family="Helvetica,sans-Serif" font-size="10.00"> </text>
<polygon fill="#666666" stroke="#666666" points="163.5,-187.5 163.5,-187.5 222.5,-187.5 222.5,-187.5 163.5,-187.5"/>
<polygon fill="#666666" stroke="#666666" points="163.5,-172.5 163.5,-172.5 222.5,-172.5 222.5,-172.5 163.5,-172.5"/>
<polygon fill="none" stroke="#666666" points="163,-156 163,-205 222,-205 222,-156 163,-156"/>
</a>
</g>
</g>
<!-- Node3&#45;&gt;Node2 -->
<g id="edge2_Node000002_Node000003" class="edge">
<title>Node3&#45;&gt;Node2</title>
<g id="a_edge2_Node000002_Node000003"><a xlink:title=" ">
<path fill="none" stroke="#63b8ff" d="M181.42,-155.99C174.72,-141.8 165.88,-123.05 157.45,-105.16"/>
<polygon fill="none" stroke="#63b8ff" points="157.39,-105.04 151.22,-101.32 152.28,-94.19 158.45,-97.91 157.39,-105.04"/>
</a>
</g>
<text text-anchor="middle" x="175" y="-115" font-family="Helvetica,sans-Serif" font-size="10.00" fill="grey"> +id</text>
</g>
<!-- Node4 -->
<g id="Node000004" class="node">
<title>Node4</title>
<g id="a_Node000004"><a xlink:title=" ">
<polygon fill="white" stroke="transparent" points="241.5,-317 143.5,-317 143.5,-257 241.5,-257 241.5,-317"/>
<text text-anchor="start" x="148.5" y="-305" font-family="Helvetica,sans-Serif" font-size="10.00">std::basic_string&lt;</text>
<text text-anchor="start" x="174" y="-294" font-family="Helvetica,sans-Serif" font-size="10.00"> Char &gt;</text>
<text text-anchor="start" x="190.5" y="-279" font-family="Helvetica,sans-Serif" font-size="10.00"> </text>
<text text-anchor="start" x="190.5" y="-264" font-family="Helvetica,sans-Serif" font-size="10.00"> </text>
<polygon fill="#666666" stroke="#666666" points="143.5,-289 143.5,-289 241.5,-289 241.5,-289 143.5,-289"/>
<polygon fill="#666666" stroke="#666666" points="143.5,-274 143.5,-274 241.5,-274 241.5,-274 143.5,-274"/>
<polygon fill="none" stroke="#666666" points="143.5,-257 143.5,-317 241.5,-317 241.5,-257 143.5,-257"/>
</a>
</g>
</g>
<!-- Node4&#45;&gt;Node3 -->
<g id="edge3_Node000003_Node000004" class="edge">
<title>Node4&#45;&gt;Node3</title>
<g id="a_edge3_Node000003_Node000004"><a xlink:title=" ">
<path fill="none" stroke="#63b8ff" d="M192.5,-246.56C192.5,-232.63 192.5,-217.4 192.5,-205.18"/>
<polygon fill="none" stroke="#63b8ff" points="189,-246.89 192.5,-256.89 196,-246.89 189,-246.89"/>
</a>
</g>
</g>
</g>
</svg>
