<?xml version="1.0" encoding="UTF-8" standalone="no"?>
<!DOCTYPE svg PUBLIC "-//W3C//DTD SVG 1.1//EN"
 "http://www.w3.org/Graphics/SVG/1.1/DTD/svg11.dtd">
<!-- Generated by graphviz version 2.43.0 (0)
 -->
<!-- Title: WaitingQueue Pages: 1 -->
<!--zoomable 1114 -->

<svg id="main" version="1.1" xmlns="http://www.w3.org/2000/svg" xmlns:xlink="http://www.w3.org/1999/xlink" xml:space="preserve" onload="init(evt)">
<style type="text/css"><![CDATA[
.node, .edge {opacity: 0.7;}
.node.selected, .edge.selected {opacity: 1;}
.edge:hover path { stroke: red; }
.edge:hover polygon { stroke: red; fill: red; }
]]></style>

<defs>
  <circle id="rim" cx="0" cy="0" r="7"/>
  <circle id="rim2" cx="0" cy="0" r="3.5"/>
  <g id="zoomPlus">
    <use xlink:href="#rim" fill="#404040"><set attributeName="fill" to="#808080" begin="zoomplus.mouseover" end="zoomplus.mouseout"/></use>
    <path d="M-4,0h8M0,-4v8" fill="none" stroke="white" stroke-width="1.5" pointer-events="none"/>
  </g>
  <g id="zoomMin">
    <use xlink:href="#rim" fill="#404040"><set attributeName="fill" to="#808080" begin="zoomminus.mouseover" end="zoomminus.mouseout"/></use>
    <path d="M-4,0h8" fill="none" stroke="white" stroke-width="1.5" pointer-events="none"/>
  </g>
  <g id="arrowUp" transform="translate(30 24)">
    <use xlink:href="#rim"/>
    <path pointer-events="none" fill="none" stroke="white" stroke-width="1.5" d="M0,-3.0v7 M-2.5,-0.5L0,-3.0L2.5,-0.5"/>
  </g>
  <g id="arrowRight" transform="rotate(90) translate(36 -43)">
    <use xlink:href="#rim"/>
    <path pointer-events="none" fill="none" stroke="white" stroke-width="1.5" d="M0,-3.0v7 M-2.5,-0.5L0,-3.0L2.5,-0.5"/>
  </g>
  <g id="arrowDown" transform="rotate(180) translate(-30 -48)">
    <use xlink:href="#rim"/>
    <path pointer-events="none" fill="none" stroke="white" stroke-width="1.5" d="M0,-3.0v7 M-2.5,-0.5L0,-3.0L2.5,-0.5"/>
  </g>
  <g id="arrowLeft" transform="rotate(270) translate(-36 17)">
    <use xlink:href="#rim"/>
    <path pointer-events="none" fill="none" stroke="white" stroke-width="1.5" d="M0,-3.0v7 M-2.5,-0.5L0,-3.0L2.5,-0.5"/>
  </g>
  <g id="resetDef">
    <use xlink:href="#rim2" fill="#404040"><set attributeName="fill" to="#808080" begin="reset.mouseover" end="reset.mouseout"/></use>
  </g>
</defs>
<script type="application/ecmascript">
var viewWidth = 350;
var viewHeight = 1114;
var sectionId = 'dynsection-0';
</script>
<script type="application/ecmascript" xlink:href="svg.min.js"/>
<svg id="graph" class="graph">
<g id="viewport">
<title>WaitingQueue</title>
<!-- Node1 -->
<g id="Node000001" class="node">
<title>Node1</title>
<g id="a_Node000001"><a xlink:title="A per&#45;corridor FIFO queue of people blocked by a capacity bottleneck.">
<polygon fill="#999999" stroke="transparent" points="163.5,-49 66.5,-49 66.5,0 163.5,0 163.5,-49"/>
<text text-anchor="start" x="81" y="-36.5" font-family="Helvetica,sans-Serif" font-size="10.00">WaitingQueue</text>
<text text-anchor="start" x="113.5" y="-21.5" font-family="Helvetica,sans-Serif" font-size="10.00"> </text>
<text text-anchor="start" x="71" y="-6.5" font-family="Helvetica,sans-Serif" font-size="10.00">+</text>
<text text-anchor="start" x="84" y="-6.5" font-family="Helvetica,sans-Serif" font-size="10.00">WaitingQueue()</text>
<polygon fill="#666666" stroke="#666666" points="67,-31.5 67,-31.5 164,-31.5 164,-31.5 67,-31.5"/>
<polygon fill="#666666" stroke="#666666" points="67,-16.5 67,-16.5 164,-16.5 164,-16.5 67,-16.5"/>
<polygon fill="none" stroke="#666666" points="66.5,0 66.5,-49 163.5,-49 163.5,0 66.5,0"/>
</a>
</g>
</g>
<!-- Node1&#45;&gt;Node1 -->
<g id="edge14_Node000001_Node000001" class="edge">
<title>Node1&#45;&gt;Node1</title>
<g id="a_edge14_Node000001_Node000001"><a xlink:title=" ">
<path fill="none" stroke="#63b8ff" d="M163.71,-33.21C174.04,-32.33 181.5,-29.42 181.5,-24.5 181.5,-21.81 179.27,-19.72 175.56,-18.24"/>
<polygon fill="none" stroke="#63b8ff" points="175.47,-18.22 168.78,-20.92 163.71,-15.79 170.4,-13.09 175.47,-18.22"/>
</a>
</g>
<text text-anchor="middle" x="198.5" y="-22" font-family="Helvetica,sans-Serif" font-size="10.00" fill="grey"> +next</text>
</g>
<!-- Node2 -->
<g id="Node000002" class="node">
<title>Node2</title>
<g id="a_Node000002"><a xlink:href="structCorridor.html" target="_top" xlink:title="A directed corridor connecting two CellNodes.">
<polygon fill="white" stroke="transparent" points="112.5,-638 19.5,-638 19.5,-514 112.5,-514 112.5,-638"/>
<text text-anchor="start" x="46.5" y="-626" font-family="Helvetica,sans-Serif" font-size="10.00">Corridor</text>
<text text-anchor="start" x="24" y="-611" font-family="Helvetica,sans-Serif" font-size="10.00">+</text>
<text text-anchor="start" x="37" y="-611" font-family="Helvetica,sans-Serif" font-size="10.00">blocked</text>
<text text-anchor="start" x="24" y="-596" font-family="Helvetica,sans-Serif" font-size="10.00">+</text>
<text text-anchor="start" x="37" y="-596" font-family="Helvetica,sans-Serif" font-size="10.00">capacity</text>
<text text-anchor="start" x="24" y="-581" font-family="Helvetica,sans-Serif" font-size="10.00">+</text>
<text text-anchor="start" x="37" y="-581" font-family="Helvetica,sans-Serif" font-size="10.00">current_load</text>
<text text-anchor="start" x="24" y="-566" font-family="Helvetica,sans-Serif" font-size="10.00">+</text>
<text text-anchor="start" x="37" y="-566" font-family="Helvetica,sans-Serif" font-size="10.00">fire_intensity</text>
<text text-anchor="start" x="24" y="-551" font-family="Helvetica,sans-Serif" font-size="10.00">+</text>
<text text-anchor="start" x="37" y="-551" font-family="Helvetica,sans-Serif" font-size="10.00">flammability</text>
<text text-anchor="start" x="24" y="-536" font-family="Helvetica,sans-Serif" font-size="10.00">+</text>
<text text-anchor="start" x="37" y="-536" font-family="Helvetica,sans-Serif" font-size="10.00">traversal_time</text>
<text text-anchor="start" x="24" y="-521" font-family="Helvetica,sans-Serif" font-size="10.00">+</text>
<text text-anchor="start" x="37" y="-521" font-family="Helvetica,sans-Serif" font-size="10.00">Corridor()</text>
<polygon fill="#666666" stroke="#666666" points="20,-621 20,-621 113,-621 113,-621 20,-621"/>
<polygon fill="#666666" stroke="#666666" points="20,-531 20,-531 35,-531 35,-531 20,-531"/>
<polygon fill="#666666" stroke="#666666" points="35,-531 35,-531 113,-531 113,-531 35,-531"/>
<polygon fill="none" stroke="#666666" points="19.5,-514 19.5,-638 112.5,-638 112.5,-514 19.5,-514"/>
</a>
</g>
</g>
<!-- Node2&#45;&gt;Node1 -->
<g id="edge1_Node000001_Node000002" class="edge">
<title>Node2&#45;&gt;Node1</title>
<g id="a_edge1_Node000001_Node000002"><a xlink:title=" ">
<path fill="none" stroke="#63b8ff" d="M71.45,-513.83C81.71,-398.79 103.58,-153.54 111.79,-61.44"/>
<polygon fill="none" stroke="#63b8ff" points="111.82,-61.2 108.37,-54.87 112.88,-49.25 116.33,-55.58 111.82,-61.2"/>
</a>
</g>
<text text-anchor="middle" x="120.5" y="-241" font-family="Helvetica,sans-Serif" font-size="10.00" fill="grey"> +corridor</text>
</g>
<!-- Node2&#45;&gt;Node2 -->
<g id="edge6_Node000002_Node000002" class="edge">
<title>Node2&#45;&gt;Node2</title>
<g id="a_edge6_Node000002_Node000002"><a xlink:title=" ">
<path fill="none" stroke="#63b8ff" d="M112.67,-594.98C122.99,-593.19 130.5,-586.87 130.5,-576 130.5,-569.72 127.99,-564.95 123.88,-561.71"/>
<polygon fill="none" stroke="#63b8ff" points="123.75,-561.65 116.67,-563.03 112.67,-557.02 119.75,-555.65 123.75,-561.65"/>
</a>
</g>
<text text-anchor="middle" x="165" y="-573.5" font-family="Helvetica,sans-Serif" font-size="10.00" fill="grey"> +next_global</text>
</g>
<!-- Node3 -->
<g id="Node000003" class="node">
<title>Node3</title>
<g id="a_Node000003"><a xlink:href="structCellNode.html" target="_top" xlink:title="A simulation&#45;side node mirroring a Graph vertex.">
<polygon fill="white" stroke="transparent" points="98,-902 0,-902 0,-763 98,-763 98,-902"/>
<text text-anchor="start" x="26.5" y="-889.5" font-family="Helvetica,sans-Serif" font-size="10.00">CellNode</text>
<text text-anchor="start" x="4" y="-874.5" font-family="Helvetica,sans-Serif" font-size="10.00">+</text>
<text text-anchor="start" x="17" y="-874.5" font-family="Helvetica,sans-Serif" font-size="10.00">fire_intensity</text>
<text text-anchor="start" x="4" y="-859.5" font-family="Helvetica,sans-Serif" font-size="10.00">+</text>
<text text-anchor="start" x="17" y="-859.5" font-family="Helvetica,sans-Serif" font-size="10.00">flammability</text>
<text text-anchor="start" x="4" y="-844.5" font-family="Helvetica,sans-Serif" font-size="10.00">+</text>
<text text-anchor="start" x="17" y="-844.5" font-family="Helvetica,sans-Serif" font-size="10.00">floor</text>
<text text-anchor="start" x="4" y="-829.5" font-family="Helvetica,sans-Serif" font-size="10.00">+</text>
<text text-anchor="start" x="17" y="-829.5" font-family="Helvetica,sans-Serif" font-size="10.00">is_exit</text>
<text text-anchor="start" x="4" y="-814.5" font-family="Helvetica,sans-Serif" font-size="10.00">+</text>
<text text-anchor="start" x="17" y="-814.5" font-family="Helvetica,sans-Serif" font-size="10.00">on_fire</text>
<text text-anchor="start" x="4" y="-799.5" font-family="Helvetica,sans-Serif" font-size="10.00">+</text>
<text text-anchor="start" x="17" y="-799.5" font-family="Helvetica,sans-Serif" font-size="10.00">people_in_node</text>
<text text-anchor="start" x="4" y="-784.5" font-family="Helvetica,sans-Serif" font-size="10.00">+</text>
<text text-anchor="start" x="17" y="-784.5" font-family="Helvetica,sans-Serif" font-size="10.00">type</text>
<text text-anchor="start" x="4" y="-769.5" font-family="Helvetica,sans-Serif" font-size="10.00">+</text>
<text text-anchor="start" x="17" y="-769.5" font-family="Helvetica,sans-Serif" font-size="10.00">CellNode()</text>
<polygon fill="#666666" stroke="#666666" points="0,-884.5 0,-884.5 98,-884.5 98,-884.5 0,-884.5"/>
<polygon fill="#666666" stroke="#666666" points="0,-779.5 0,-779.5 15,-779.5 15,-779.5 0,-779.5"/>
<polygon fill="#666666" stroke="#666666" points="15,-779.5 15,-779.5 98,-779.5 98,-779.5 15,-779.5"/>
<polygon fill="none" stroke="#666666" points="0,-763 0,-902 98,-902 98,-763 0,-763"/>
</a>
</g>
</g>
<!-- Node3&#45;&gt;Node2 -->
<g id="edge2_Node000002_Node000003" class="edge">
<title>Node3&#45;&gt;Node2</title>
<g id="a_edge2_Node000002_Node000003"><a xlink:title=" ">
<path fill="none" stroke="#63b8ff" d="M53.58,-762.96C55.9,-728.2 58.72,-685.94 61.09,-650.5"/>
<polygon fill="none" stroke="#63b8ff" points="61.11,-650.24 57.52,-643.99 61.91,-638.27 65.5,-644.52 61.11,-650.24"/>
</a>
</g>
<text text-anchor="middle" x="74.5" y="-737" font-family="Helvetica,sans-Serif" font-size="10.00" fill="grey"> +from</text>
<text text-anchor="middle" x="74.5" y="-726" font-family="Helvetica,sans-Serif" font-size="10.00" fill="grey">+to</text>
</g>
<!-- Node3&#45;&gt;Node3 -->
<g id="edge5_Node000003_Node000003" class="edge">
<title>Node3&#45;&gt;Node3</title>
<g id="a_edge5_Node000003_Node000003"><a xlink:title=" ">
<path fill="none" stroke="#63b8ff" d="M98.08,-850.28C108.49,-848.48 116,-842.55 116,-832.5 116,-826.69 113.49,-822.26 109.36,-819.2"/>
<polygon fill="none" stroke="#63b8ff" points="109.23,-819.15 102.18,-820.65 98.08,-814.72 105.13,-813.22 109.23,-819.15"/>
</a>
</g>
<text text-anchor="middle" x="133" y="-830" font-family="Helvetica,sans-Serif" font-size="10.00" fill="grey"> +next</text>
</g>
<!-- Node4 -->
<g id="Node000004" class="node">
<title>Node4</title>
<g id="a_Node000004"><a xlink:title=" ">
<polygon fill="white" stroke="transparent" points="168.5,-1009 109.5,-1009 109.5,-960 168.5,-960 168.5,-1009"/>
<text text-anchor="start" x="115" y="-996.5" font-family="Helvetica,sans-Serif" font-size="10.00">std::string</text>
<text text-anchor="start" x="137.5" y="-981.5" font-family="Helvetica,sans-Serif" font-size="10.00"> </text>
<text text-anchor="start" x="137.5" y="-966.5" font-family="Helvetica,sans-Serif" font-size="10.00"> </text>
<polygon fill="#666666" stroke="#666666" points="110,-991.5 110,-991.5 169,-991.5 169,-991.5 110,-991.5"/>
<polygon fill="#666666" stroke="#666666" points="110,-976.5 110,-976.5 169,-976.5 169,-976.5 110,-976.5"/>
<polygon fill="none" stroke="#666666" points="109.5,-960 109.5,-1009 168.5,-1009 168.5,-960 109.5,-960"/>
</a>
</g>
</g>
<!-- Node4&#45;&gt;Node3 -->
<g id="edge3_Node000003_Node000004" class="edge">
<title>Node4&#45;&gt;Node3</title>
<g id="a_edge3_Node000003_Node000004"><a xlink:title=" ">
<path fill="none" stroke="#63b8ff" d="M124.74,-959.73C116.98,-946.8 106.89,-929.98 96.61,-912.86"/>
<polygon fill="none" stroke="#63b8ff" points="96.39,-912.48 89.87,-909.39 90.21,-902.19 96.73,-905.27 96.39,-912.48"/>
</a>
</g>
<text text-anchor="middle" x="123.5" y="-928.5" font-family="Helvetica,sans-Serif" font-size="10.00" fill="grey"> +id</text>
</g>
<!-- Node9 -->
<g id="Node000009" class="node">
<title>Node9</title>
<g id="a_Node000009"><a xlink:href="structPerson.html" target="_top" xlink:title="A single person being evacuated through the building.">
<polygon fill="white" stroke="transparent" points="290,-902 168,-902 168,-763 290,-763 290,-902"/>
<text text-anchor="start" x="212" y="-889.5" font-family="Helvetica,sans-Serif" font-size="10.00">Person</text>
<text text-anchor="start" x="172" y="-874.5" font-family="Helvetica,sans-Serif" font-size="10.00">+</text>
<text text-anchor="start" x="185" y="-874.5" font-family="Helvetica,sans-Serif" font-size="10.00">dead</text>
<text text-anchor="start" x="172" y="-859.5" font-family="Helvetica,sans-Serif" font-size="10.00">+</text>
<text text-anchor="start" x="185" y="-859.5" font-family="Helvetica,sans-Serif" font-size="10.00">edge_traversal_time</text>
<text text-anchor="start" x="172" y="-844.5" font-family="Helvetica,sans-Serif" font-size="10.00">+</text>
<text text-anchor="start" x="185" y="-844.5" font-family="Helvetica,sans-Serif" font-size="10.00">evacuated</text>
<text text-anchor="start" x="172" y="-829.5" font-family="Helvetica,sans-Serif" font-size="10.00">+</text>
<text text-anchor="start" x="185" y="-829.5" font-family="Helvetica,sans-Serif" font-size="10.00">id</text>
<text text-anchor="start" x="172" y="-814.5" font-family="Helvetica,sans-Serif" font-size="10.00">+</text>
<text text-anchor="start" x="185" y="-814.5" font-family="Helvetica,sans-Serif" font-size="10.00">in_queue</text>
<text text-anchor="start" x="172" y="-799.5" font-family="Helvetica,sans-Serif" font-size="10.00">+</text>
<text text-anchor="start" x="185" y="-799.5" font-family="Helvetica,sans-Serif" font-size="10.00">on_edge</text>
<text text-anchor="start" x="172" y="-784.5" font-family="Helvetica,sans-Serif" font-size="10.00">+</text>
<text text-anchor="start" x="185" y="-784.5" font-family="Helvetica,sans-Serif" font-size="10.00">progress_on_edge</text>
<text text-anchor="start" x="172" y="-769.5" font-family="Helvetica,sans-Serif" font-size="10.00">+</text>
<text text-anchor="start" x="185" y="-769.5" font-family="Helvetica,sans-Serif" font-size="10.00">Person()</text>
<polygon fill="#666666" stroke="#666666" points="168,-884.5 168,-884.5 290,-884.5 290,-884.5 168,-884.5"/>
<polygon fill="#666666" stroke="#666666" points="168,-779.5 168,-779.5 183,-779.5 183,-779.5 168,-779.5"/>
<polygon fill="#666666" stroke="#666666" points="183,-779.5 183,-779.5 290,-779.5 290,-779.5 183,-779.5"/>
<polygon fill="none" stroke="#666666" points="168,-763 168,-902 290,-902 290,-763 168,-763"/>
</a>
</g>
</g>
<!-- Node4&#45;&gt;Node9 -->
<g id="edge11_Node000009_Node000004" class="edge">
<title>Node4&#45;&gt;Node9</title>
<g id="a_edge11_Node000009_Node000004"><a xlink:title=" ">
<path fill="none" stroke="#63b8ff" d="M153.26,-959.73C161.02,-946.8 171.11,-929.98 181.39,-912.86"/>
<polygon fill="none" stroke="#63b8ff" points="181.61,-912.48 181.27,-905.27 187.79,-902.19 188.13,-909.39 181.61,-912.48"/>
</a>
</g>
<text text-anchor="middle" x="220.5" y="-934" font-family="Helvetica,sans-Serif" font-size="10.00" fill="grey"> +current_location</text>
<text text-anchor="middle" x="220.5" y="-923" font-family="Helvetica,sans-Serif" font-size="10.00" fill="grey">+next_location</text>
</g>
<!-- Node5 -->
<g id="Node000005" class="node">
<title>Node5</title>
<g id="a_Node000005"><a xlink:title=" ">
<polygon fill="white" stroke="transparent" points="188,-1106 90,-1106 90,-1046 188,-1046 188,-1106"/>
<text text-anchor="start" x="95" y="-1094" font-family="Helvetica,sans-Serif" font-size="10.00">std::basic_string&lt;</text>
<text text-anchor="start" x="120.5" y="-1083" font-family="Helvetica,sans-Serif" font-size="10.00"> Char &gt;</text>
<text text-anchor="start" x="137" y="-1068" font-family="Helvetica,sans-Serif" font-size="10.00"> </text>
<text text-anchor="start" x="137" y="-1053" font-family="Helvetica,sans-Serif" font-size="10.00"> </text>
<polygon fill="#666666" stroke="#666666" points="90,-1078 90,-1078 188,-1078 188,-1078 90,-1078"/>
<polygon fill="#666666" stroke="#666666" points="90,-1063 90,-1063 188,-1063 188,-1063 90,-1063"/>
<polygon fill="none" stroke="#666666" points="90,-1046 90,-1106 188,-1106 188,-1046 90,-1046"/>
</a>
</g>
</g>
<!-- Node5&#45;&gt;Node4 -->
<g id="edge4_Node000004_Node000005" class="edge">
<title>Node5&#45;&gt;Node4</title>
<g id="a_edge4_Node000004_Node000005"><a xlink:title=" ">
<path fill="none" stroke="#63b8ff" d="M139,-1035.41C139,-1026.47 139,-1017.25 139,-1009.21"/>
<polygon fill="none" stroke="#63b8ff" points="135.5,-1035.69 139,-1045.69 142.5,-1035.69 135.5,-1035.69"/>
</a>
</g>
</g>
<!-- Node6 -->
<g id="Node000006" class="node">
<title>Node6</title>
<g id="a_Node000006"><a xlink:href="classQueue.html" target="_top" xlink:title=" ">
<polygon fill="white" stroke="transparent" points="237,-220 131,-220 131,-96 237,-96 237,-220"/>
<text text-anchor="start" x="136" y="-208" font-family="Helvetica,sans-Serif" font-size="10.00">Queue&lt; Person * &gt;</text>
<text text-anchor="start" x="182" y="-193" font-family="Helvetica,sans-Serif" font-size="10.00"> </text>
<text text-anchor="start" x="143" y="-178" font-family="Helvetica,sans-Serif" font-size="10.00">+</text>
<text text-anchor="start" x="164" y="-178" font-family="Helvetica,sans-Serif" font-size="10.00">dequeue()</text>
<text text-anchor="start" x="143" y="-163" font-family="Helvetica,sans-Serif" font-size="10.00">+</text>
<text text-anchor="start" x="164" y="-163" font-family="Helvetica,sans-Serif" font-size="10.00">enqueue()</text>
<text text-anchor="start" x="143" y="-148" font-family="Helvetica,sans-Serif" font-size="10.00">+</text>
<text text-anchor="start" x="164" y="-148" font-family="Helvetica,sans-Serif" font-size="10.00">get_size()</text>
<text text-anchor="start" x="143" y="-133" font-family="Helvetica,sans-Serif" font-size="10.00">+</text>
<text text-anchor="start" x="164" y="-133" font-family="Helvetica,sans-Serif" font-size="10.00">is_empty()</text>
<text text-anchor="start" x="143" y="-118" font-family="Helvetica,sans-Serif" font-size="10.00">+</text>
<text text-anchor="start" x="164" y="-118" font-family="Helvetica,sans-Serif" font-size="10.00">Queue()</text>
<text text-anchor="start" x="143" y="-103" font-family="Helvetica,sans-Serif" font-size="10.00">+</text>
<text text-anchor="start" x="164" y="-103" font-family="Helvetica,sans-Serif" font-size="10.00">~Queue()</text>
<polygon fill="#666666" stroke="#666666" points="131,-203 131,-203 237,-203 237,-203 131,-203"/>
<polygon fill="#666666" stroke="#666666" points="131,-188 131,-188 237,-188 237,-188 131,-188"/>
<polygon fill="none" stroke="#666666" points="131,-96 131,-220 237,-220 237,-96 131,-96"/>
</a>
</g>
</g>
<!-- Node6&#45;&gt;Node1 -->
<g id="edge7_Node000001_Node000006" class="edge">
<title>Node6&#45;&gt;Node1</title>
<g id="a_edge7_Node000001_Node000006"><a xlink:title=" ">
<path fill="none" stroke="#63b8ff" d="M151.92,-95.87C145.45,-83.52 138.85,-70.96 133.07,-59.93"/>
<polygon fill="none" stroke="#63b8ff" points="132.94,-59.69 126.61,-56.24 127.37,-49.07 133.7,-52.52 132.94,-59.69"/>
</a>
</g>
<text text-anchor="middle" x="163" y="-70" font-family="Helvetica,sans-Serif" font-size="10.00" fill="grey"> +queue</text>
</g>
<!-- Node7 -->
<g id="Node000007" class="node">
<title>Node7</title>
<g id="a_Node000007"><a xlink:href="classLinkedList.html" target="_top" xlink:title=" ">
<polygon fill="white" stroke="transparent" points="267.5,-496 144.5,-496 144.5,-267 267.5,-267 267.5,-496"/>
<text text-anchor="start" x="150" y="-483.5" font-family="Helvetica,sans-Serif" font-size="10.00">LinkedList&lt; Person * &gt;</text>
<text text-anchor="start" x="160.5" y="-468.5" font-family="Helvetica,sans-Serif" font-size="10.00">&#45;</text>
<text text-anchor="start" x="180" y="-468.5" font-family="Helvetica,sans-Serif" font-size="10.00">size</text>
<text text-anchor="start" x="158" y="-453.5" font-family="Helvetica,sans-Serif" font-size="10.00">+</text>
<text text-anchor="start" x="180" y="-453.5" font-family="Helvetica,sans-Serif" font-size="10.00">clear()</text>
<text text-anchor="start" x="158" y="-438.5" font-family="Helvetica,sans-Serif" font-size="10.00">+</text>
<text text-anchor="start" x="180" y="-438.5" font-family="Helvetica,sans-Serif" font-size="10.00">get_size()</text>
<text text-anchor="start" x="158" y="-423.5" font-family="Helvetica,sans-Serif" font-size="10.00">+</text>
<text text-anchor="start" x="180" y="-423.5" font-family="Helvetica,sans-Serif" font-size="10.00">is_empty()</text>
<text text-anchor="start" x="158" y="-408.5" font-family="Helvetica,sans-Serif" font-size="10.00">+</text>
<text text-anchor="start" x="180" y="-408.5" font-family="Helvetica,sans-Serif" font-size="10.00">LinkedList()</text>
<text text-anchor="start" x="158" y="-393.5" font-family="Helvetica,sans-Serif" font-size="10.00">+</text>
<text text-anchor="start" x="180" y="-393.5" font-family="Helvetica,sans-Serif" font-size="10.00">LinkedList()</text>
<text text-anchor="start" x="158" y="-378.5" font-family="Helvetica,sans-Serif" font-size="10.00">+</text>
<text text-anchor="start" x="180" y="-378.5" font-family="Helvetica,sans-Serif" font-size="10.00">LinkedList()</text>
<text text-anchor="start" x="158" y="-363.5" font-family="Helvetica,sans-Serif" font-size="10.00">+</text>
<text text-anchor="start" x="180" y="-363.5" font-family="Helvetica,sans-Serif" font-size="10.00">operator=()</text>
<text text-anchor="start" x="158" y="-348.5" font-family="Helvetica,sans-Serif" font-size="10.00">+</text>
<text text-anchor="start" x="180" y="-348.5" font-family="Helvetica,sans-Serif" font-size="10.00">operator=()</text>
<text text-anchor="start" x="158" y="-333.5" font-family="Helvetica,sans-Serif" font-size="10.00">+</text>
<text text-anchor="start" x="180" y="-333.5" font-family="Helvetica,sans-Serif" font-size="10.00">pop_front()</text>
<text text-anchor="start" x="158" y="-318.5" font-family="Helvetica,sans-Serif" font-size="10.00">+</text>
<text text-anchor="start" x="180" y="-318.5" font-family="Helvetica,sans-Serif" font-size="10.00">push_back()</text>
<text text-anchor="start" x="158" y="-303.5" font-family="Helvetica,sans-Serif" font-size="10.00">+</text>
<text text-anchor="start" x="180" y="-303.5" font-family="Helvetica,sans-Serif" font-size="10.00">push_front()</text>
<text text-anchor="start" x="158" y="-288.5" font-family="Helvetica,sans-Serif" font-size="10.00">+</text>
<text text-anchor="start" x="180" y="-288.5" font-family="Helvetica,sans-Serif" font-size="10.00">remove()</text>
<text text-anchor="start" x="158" y="-273.5" font-family="Helvetica,sans-Serif" font-size="10.00">+</text>
<text text-anchor="start" x="180" y="-273.5" font-family="Helvetica,sans-Serif" font-size="10.00">~LinkedList()</text>
<polygon fill="#666666" stroke="#666666" points="145,-478.5 145,-478.5 268,-478.5 268,-478.5 145,-478.5"/>
<polygon fill="#666666" stroke="#666666" points="145,-463.5 145,-463.5 178,-463.5 178,-463.5 145,-463.5"/>
<polygon fill="#666666" stroke="#666666" points="178,-463.5 178,-463.5 268,-463.5 268,-463.5 178,-463.5"/>
<polygon fill="none" stroke="#666666" points="144.5,-267 144.5,-496 267.5,-496 267.5,-267 144.5,-267"/>
</a>
</g>
</g>
<!-- Node7&#45;&gt;Node6 -->
<g id="edge8_Node000006_Node000007" class="edge">
<title>Node7&#45;&gt;Node6</title>
<g id="a_edge8_Node000006_Node000007"><a xlink:title=" ">
<path fill="none" stroke="#63b8ff" d="M194.71,-266.83C193.54,-255.1 192.38,-243.41 191.28,-232.3"/>
<polygon fill="none" stroke="#63b8ff" points="191.25,-231.96 186.67,-226.38 190.06,-220.02 194.63,-225.59 191.25,-231.96"/>
</a>
</g>
<text text-anchor="middle" x="207.5" y="-241" font-family="Helvetica,sans-Serif" font-size="10.00" fill="grey"> &#45;l_list</text>
</g>
<!-- Node8 -->
<g id="Node000008" class="node">
<title>Node8</title>
<g id="a_Node000008"><a xlink:href="structNode.html" target="_top" xlink:title=" ">
<polygon fill="white" stroke="transparent" points="277,-705 177,-705 177,-656 277,-656 277,-705"/>
<text text-anchor="start" x="182" y="-692.5" font-family="Helvetica,sans-Serif" font-size="10.00">Node&lt; Person * &gt;</text>
<text text-anchor="start" x="225" y="-677.5" font-family="Helvetica,sans-Serif" font-size="10.00"> </text>
<text text-anchor="start" x="192" y="-662.5" font-family="Helvetica,sans-Serif" font-size="10.00">+</text>
<text text-anchor="start" x="216" y="-662.5" font-family="Helvetica,sans-Serif" font-size="10.00">Node()</text>
<polygon fill="#666666" stroke="#666666" points="177,-687.5 177,-687.5 277,-687.5 277,-687.5 177,-687.5"/>
<polygon fill="#666666" stroke="#666666" points="177,-672.5 177,-672.5 277,-672.5 277,-672.5 177,-672.5"/>
<polygon fill="none" stroke="#666666" points="177,-656 177,-705 277,-705 277,-656 177,-656"/>
</a>
</g>
</g>
<!-- Node8&#45;&gt;Node7 -->
<g id="edge9_Node000007_Node000008" class="edge">
<title>Node8&#45;&gt;Node7</title>
<g id="a_edge9_Node000007_Node000008"><a xlink:title=" ">
<path fill="none" stroke="#63b8ff" d="M225.33,-655.95C223.06,-623.8 218.82,-563.81 214.89,-508.19"/>
<polygon fill="none" stroke="#63b8ff" points="214.87,-508 210.46,-502.3 214.03,-496.03 218.44,-501.73 214.87,-508"/>
</a>
</g>
<text text-anchor="middle" x="238.5" y="-579" font-family="Helvetica,sans-Serif" font-size="10.00" fill="grey"> &#45;head</text>
<text text-anchor="middle" x="238.5" y="-568" font-family="Helvetica,sans-Serif" font-size="10.00" fill="grey">&#45;tail</text>
</g>
<!-- Node8&#45;&gt;Node8 -->
<g id="edge13_Node000008_Node000008" class="edge">
<title>Node8&#45;&gt;Node8</title>
<g id="a_edge13_Node000008_Node000008"><a xlink:title=" ">
<path fill="none" stroke="#63b8ff" d="M277.11,-689.91C287.52,-688.92 295,-685.78 295,-680.5 295,-677.61 292.76,-675.37 289.03,-673.76"/>
<polygon fill="none" stroke="#63b8ff" points="288.82,-673.71 282.1,-676.31 277.11,-671.09 283.84,-668.5 288.82,-673.71"/>
</a>
</g>
<text text-anchor="middle" x="312" y="-678" font-family="Helvetica,sans-Serif" font-size="10.00" fill="grey"> +next</text>
</g>
<!-- Node9&#45;&gt;Node8 -->
<g id="edge10_Node000008_Node000009" class="edge">
<title>Node9&#45;&gt;Node8</title>
<g id="a_edge10_Node000008_Node000009"><a xlink:title=" ">
<path fill="none" stroke="#63b8ff" d="M228.08,-762.65C227.87,-747 227.66,-731 227.48,-717.39"/>
<polygon fill="none" stroke="#63b8ff" points="227.48,-717.16 223.4,-711.21 227.32,-705.16 231.4,-711.11 227.48,-717.16"/>
</a>
</g>
<text text-anchor="middle" x="244" y="-731.5" font-family="Helvetica,sans-Serif" font-size="10.00" fill="grey"> +data</text>
</g>
<!-- Node9&#45;&gt;Node9 -->
<g id="edge12_Node000009_Node000009" class="edge">
<title>Node9&#45;&gt;Node9</title>
<g id="a_edge12_Node000009_Node000009"><a xlink:title=" ">
<path fill="none" stroke="#63b8ff" d="M290.28,-849.65C300.75,-847.31 308,-841.59 308,-832.5 308,-827.24 305.58,-823.12 301.51,-820.11"/>
<polygon fill="none" stroke="#63b8ff" points="301.32,-820.04 294.24,-821.37 290.28,-815.35 297.37,-814.01 301.32,-820.04"/>
</a>
</g>
<text text-anchor="middle" x="325" y="-830" font-family="Helvetica,sans-Serif" font-size="10.00" fill="grey"> +next</text>
</g>
</g>
</svg>

<g id="navigator" transform="translate(0 0)" fill="#404254">
  <rect fill="#f2f5e9" fill-opacity="0.5" stroke="#606060" stroke-width=".5" x="0" y="0" width="60" height="60"/>
  <use id="zoomplus" xlink:href="#zoomPlus" x="17" y="9" onmousedown="handleZoom(evt,'in')"/>
  <use id="zoomminus" xlink:href="#zoomMin" x="42" y="9" onmousedown="handleZoom(evt,'out')"/>
  <use id="reset" xlink:href="#resetDef" x="30" y="36" onmousedown="handleReset()"/>
   <use id="arrowup" xlink:href="#arrowUp" x="0" y="0" onmousedown="handlePan(0,-1)"/>
  <use id="arrowright" xlink:href="#arrowRight" x="0" y="0" onmousedown="handlePan(1,0)"/>
  <use id="arrowdown" xlink:href="#arrowDown" x="0" y="0" onmousedown="handlePan(0,1)"/>
  <use id="arrowleft" xlink:href="#arrowLeft" x="0" y="0" onmousedown="handlePan(-1,0)"/>
</g>
<svg viewBox="0 0 15 15" width="100%" height="30px" preserveAspectRatio="xMaxYMin meet">
 <g id="arrow_out" transform="scale(0.3 0.3)">
  <a xlink:href="structWaitingQueue__coll__graph_org.svg" target="_base">
   <rect id="button" ry="5" rx="5" y="6" x="6" height="38" width="38"
        fill="#f2f5e9" fill-opacity="0.5" stroke="#606060" stroke-width="1.0"/>
   <path id="arrow"
     d="M 11.500037,31.436501 C 11.940474,20.09759 22.043105,11.32322 32.158766,21.979434 L 37.068811,17.246167 C 37.068811,17.246167 37.088388,32 37.088388,32 L 22.160133,31.978069 C 22.160133,31.978069 26.997745,27.140456 26.997745,27.140456 C 18.528582,18.264221 13.291696,25.230495 11.500037,31.436501 z"
     style="fill:#404040;"/>
  </a>
 </g>
</svg>

<style type='text/css'>
<![CDATA[
[data-mouse-over-selected='false'] { opacity: 0.7; }
[data-mouse-over-selected='true']  { opacity: 1.0; }
]]>
</style>
<script type="application/ecmascript"><![CDATA[
document.addEventListener('DOMContentLoaded', (event) => {
  highlightEdges();
  highlightAdjacentNodes();
});
]]></script>
</svg>
