<?xml version="1.0" encoding="UTF-8" standalone="no"?>
<!DOCTYPE svg PUBLIC "-//W3C//DTD SVG 1.1//EN"
 "http://www.w3.org/Graphics/SVG/1.1/DTD/svg11.dtd">
<!-- Generated by graphviz version 2.43.0 (0)
 -->
<!-- Title: SceneNode Pages: 1 -->
<svg width="165pt" height="336pt"
 viewBox="0.00 0.00 165.00 336.00" xmlns="http://www.w3.org/2000/svg" xmlns:xlink="http://www.w3.org/1999/xlink">

<svg id="main" version="1.1" xmlns="http://www.w3.org/2000/svg" xmlns:xlink="http://www.w3.org/1999/xlink" xml:space="preserve" onload="init(evt)">
<style type="text/css"><![CDATA[
.node, .edge {opacity: 0.7;}
.node.selected, .edge.selected {opacity: 1;}
.edge:hover path { stroke: red; }
.edge:hover polygon { stroke: red; fill: red; }
]]></style>
<script type="application/ecmascript" xlink:href="svg.min.js"/>
<svg id="graph" class="graph">
<g id="graph0" class="graph" transform="scale(1 1) rotate(0) translate(4 332)">
<title>SceneNode</title>
<!-- Node1 -->
<g id="Node000001" class="node">
<title>Node1</title>
<g id="a_Node000001"><a xlink:title="One building node (room, hallway, stairwell or exit).">
<polygon fill="#999999" stroke="transparent" points="105,-124 0,-124 0,0 105,0 105,-124"/>
<text text-anchor="start" x="25.5" y="-112" font-family="Helvetica,sans-Serif" font-size="10.00">SceneNode</text>
<text text-anchor="start" x="4.5" y="-97" font-family="Helvetica,sans-Serif" font-size="10.00">+</text>
<text text-anchor="start" x="17.5" y="-97" font-family="Helvetica,sans-Serif" font-size="10.00">flammability</text>
<text text-anchor="start" x="4.5" y="-82" font-family="Helvetica,sans-Serif" font-size="10.00">+</text>
<text text-anchor="start" x="17.5" y="-82" font-family="Helvetica,sans-Serif" font-size="10.00">floor</text>
<text text-anchor="start" x="4.5" y="-67" font-family="Helvetica,sans-Serif" font-size="10.00">+</text>
<text text-anchor="start" x="17.5" y="-67" font-family="Helvetica,sans-Serif" font-size="10.00">occupants</text>
<text text-anchor="start" x="4.5" y="-52" font-family="Helvetica,sans-Serif" font-size="10.00">+</text>
<text text-anchor="start" x="17.5" y="-52" font-family="Helvetica,sans-Serif" font-size="10.00">x</text>
<text text-anchor="start" x="4.5" y="-37" font-family="Helvetica,sans-Serif" font-size="10.00">+</text>
<text text-anchor="start" x="17.5" y="-37" font-family="Helvetica,sans-Serif" font-size="10.00">y</text>
<text text-anchor="start" x="4.5" y="-22" font-family="Helvetica,sans-Serif" font-size="10.00">+</text>
<text text-anchor="start" x="17.5" y="-22" font-family="Helvetica,sans-Serif" font-size="10.00">hasCoordinates()</text>
<text text-anchor="start" x="4.5" y="-7" font-family="Helvetica,sans-Serif" font-size="10.00">+</text>
<text text-anchor="start" x="17.5" y="-7" font-family="Helvetica,sans-Serif" font-size="10.00">SceneNode()</text>
<polygon fill="#666666" stroke="#666666" points="0.5,-107 0.5,-107 105.5,-107 105.5,-107 0.5,-107"/>
<polygon fill="#666666" stroke="#666666" points="0.5,-32 0.5,-32 15.5,-32 15.5,-32 0.5,-32"/>
<polygon fill="#666666" stroke="#666666" points="15.5,-32 15.5,-32 105.5,-32 105.5,-32 15.5,-32"/>
<polygon fill="none" stroke="#666666" points="0,0 0,-124 105,-124 105,0 0,0"/>
</a>
</g>
</g>
<!-- Node1&#45;&gt;Node1 -->
<g id="edge3_Node000001_Node000001" class="edge">
<title>Node1&#45;&gt;Node1</title>
<g id="a_edge3_Node000001_Node000001"><a xlink:title=" ">
<path fill="none" stroke="#63b8ff" d="M105.08,-78.18C115.54,-76.36 123,-70.96 123,-62 123,-56.82 120.51,-52.83 116.38,-50.03"/>
<polygon fill="none" stroke="#63b8ff" points="116.32,-50.01 109.3,-51.66 105.08,-45.82 112.09,-44.17 116.32,-50.01"/>
</a>
</g>
<text text-anchor="middle" x="140" y="-59.5" font-family="Helvetica,sans-Serif" font-size="10.00" fill="grey"> +next</text>
</g>
<!-- Node2 -->
<g id="Node000002" class="node">
<title>Node2</title>
<g id="a_Node000002"><a xlink:title=" ">
<polygon fill="white" stroke="transparent" points="82,-231 23,-231 23,-182 82,-182 82,-231"/>
<text text-anchor="start" x="28.5" y="-218.5" font-family="Helvetica,sans-Serif" font-size="10.00">std::string</text>
<text text-anchor="start" x="51" y="-203.5" font-family="Helvetica,sans-Serif" font-size="10.00"> </text>
<text text-anchor="start" x="51" y="-188.5" font-family="Helvetica,sans-Serif" font-size="10.00"> </text>
<polygon fill="#666666" stroke="#666666" points="23.5,-213.5 23.5,-213.5 82.5,-213.5 82.5,-213.5 23.5,-213.5"/>
<polygon fill="#666666" stroke="#666666" points="23.5,-198.5 23.5,-198.5 82.5,-198.5 82.5,-198.5 23.5,-198.5"/>
<polygon fill="none" stroke="#666666" points="23,-182 23,-231 82,-231 82,-182 23,-182"/>
</a>
</g>
</g>
<!-- Node2&#45;&gt;Node1 -->
<g id="edge1_Node000001_Node000002" class="edge">
<title>Node2&#45;&gt;Node1</title>
<g id="a_edge1_Node000001_Node000002"><a xlink:title=" ">
<path fill="none" stroke="#63b8ff" d="M52.5,-181.97C52.5,-169.25 52.5,-152.77 52.5,-136.15"/>
<polygon fill="none" stroke="#63b8ff" points="52.5,-136.08 48.5,-130.08 52.5,-124.08 56.5,-130.08 52.5,-136.08"/>
</a>
</g>
<text text-anchor="middle" x="68" y="-156" font-family="Helvetica,sans-Serif" font-size="10.00" fill="grey"> +id</text>
<text text-anchor="middle" x="68" y="-145" font-family="Helvetica,sans-Serif" font-size="10.00" fill="grey">+type</text>
</g>
<!-- Node3 -->
<g id="Node000003" class="node">
<title>Node3</title>
<g id="a_Node000003"><a xlink:title=" ">
<polygon fill="white" stroke="transparent" points="101.5,-328 3.5,-328 3.5,-268 101.5,-268 101.5,-328"/>
<text text-anchor="start" x="8.5" y="-316" font-family="Helvetica,sans-Serif" font-size="10.00">std::basic_string&lt;</text>
<text text-anchor="start" x="34" y="-305" font-family="Helvetica,sans-Serif" font-size="10.00"> Char &gt;</text>
<text text-anchor="start" x="50.5" y="-290" font-family="Helvetica,sans-Serif" font-size="10.00"> </text>
<text text-anchor="start" x="50.5" y="-275" font-family="Helvetica,sans-Serif" font-size="10.00"> </text>
<polygon fill="#666666" stroke="#666666" points="3.5,-300 3.5,-300 101.5,-300 101.5,-300 3.5,-300"/>
<polygon fill="#666666" stroke="#666666" points="3.5,-285 3.5,-285 101.5,-285 101.5,-285 3.5,-285"/>
<polygon fill="none" stroke="#666666" points="3.5,-268 3.5,-328 101.5,-328 101.5,-268 3.5,-268"/>
</a>
</g>
</g>
<!-- Node3&#45;&gt;Node2 -->
<g id="edge2_Node000002_Node000003" class="edge">
<title>Node3&#45;&gt;Node2</title>
<g id="a_edge2_Node000002_Node000003"><a xlink:title=" ">
<path fill="none" stroke="#63b8ff" d="M52.5,-257.41C52.5,-248.47 52.5,-239.25 52.5,-231.21"/>
<polygon fill="none" stroke="#63b8ff" points="49,-257.69 52.5,-267.69 56,-257.69 49,-257.69"/>
</a>
</g>
</g>
</g>
</svg>
</svg>

<style type='text/css'>
<![CDATA[
[data-mouse-over-selected='false'] { opacity: 0.7; }
[data-mouse-over-selected='true']  { opacity: 1.0; }
]]>
</style>
<script type="application/ecmascript"><![CDATA[
document.addEventListener('DOMContentLoaded', (event) => {
  highlightEdges();
  highlightAdjacentNodes();
});
]]></script>
</svg>
