<?xml version="1.0" encoding="UTF-8" standalone="no"?>
<!DOCTYPE svg PUBLIC "-//W3C//DTD SVG 1.1//EN"
 "http://www.w3.org/Graphics/SVG/1.1/DTD/svg11.dtd">
<!-- Generated by graphviz version 2.43.0 (0)
 -->
<!-- Title: Graph::DistRecord Pages: 1 -->
<svg width="322pt" height="432pt"
 viewBox="0.00 0.00 322.00 432.00" xmlns="http://www.w3.org/2000/svg" xmlns:xlink="http://www.w3.org/1999/xlink">

<svg id="main" version="1.1" xmlns="http://www.w3.org/2000/svg" xmlns:xlink="http://www.w3.org/1999/xlink" xml:space="preserve" onload="init(evt)">
<style type="text/css"><![CDATA[
.node, .edge {opacity: 0.7;}
.node.selected, .edge.selected {opacity: 1;}
.edge:hover path { stroke: red; }
.edge:hover polygon { stroke: red; fill: red; }
]]></style>
<script type="application/ecmascript" xlink:href="svg.min.js"/>
<svg id="graph" class="graph">
<g id="graph0" class="graph" transform="scale(1 1) rotate(0) translate(4 428)">
<title>Graph::DistRecord</title>
<!-- Node1 -->
<g id="Node000001" class="node">
<title>Node1</title>
<g id="a_Node000001"><a xlink:title="A per&#45;vertex record used by Dijkstra&#39;s distance table.">
<polygon fill="#999999" stroke="transparent" points="99,-71.5 0,-71.5 0,-7.5 99,-7.5 99,-71.5"/>
<text text-anchor="start" x="5.5" y="-59.5" font-family="Helvetica,sans-Serif" font-size="10.00">Graph::DistRecord</text>
<text text-anchor="start" x="8.5" y="-44.5" font-family="Helvetica,sans-Serif" font-size="10.00">+</text>
<text text-anchor="start" x="25.5" y="-44.5" font-family="Helvetica,sans-Serif" font-size="10.00">distance</text>
<text text-anchor="start" x="8.5" y="-29.5" font-family="Helvetica,sans-Serif" font-size="10.00">+</text>
<text text-anchor="start" x="25.5" y="-29.5" font-family="Helvetica,sans-Serif" font-size="10.00">visited</text>
<text text-anchor="start" x="8.5" y="-14.5" font-family="Helvetica,sans-Serif" font-size="10.00">+</text>
<text text-anchor="start" x="25.5" y="-14.5" font-family="Helvetica,sans-Serif" font-size="10.00">DistRecord()</text>
<polygon fill="#666666" stroke="#666666" points="0.5,-54.5 0.5,-54.5 99.5,-54.5 99.5,-54.5 0.5,-54.5"/>
<polygon fill="#666666" stroke="#666666" points="0.5,-24.5 0.5,-24.5 23.5,-24.5 23.5,-24.5 0.5,-24.5"/>
<polygon fill="#666666" stroke="#666666" points="23.5,-24.5 23.5,-24.5 99.5,-24.5 99.5,-24.5 23.5,-24.5"/>
<polygon fill="none" stroke="#666666" points="0,-7.5 0,-71.5 99,-71.5 99,-7.5 0,-7.5"/>
</a>
</g>
</g>
<!-- Node1&#45;&gt;Node1 -->
<g id="edge8_Node000001_Node000001" class="edge">
<title>Node1&#45;&gt;Node1</title>
<g id="a_edge8_Node000001_Node000001"><a xlink:title=" ">
<path fill="none" stroke="#63b8ff" d="M99.25,-51.8C109.57,-50.51 117,-46.41 117,-39.5 117,-35.72 114.78,-32.79 111.08,-30.69"/>
<polygon fill="none" stroke="#63b8ff" points="110.76,-30.59 103.87,-32.73 99.25,-27.2 106.13,-25.06 110.76,-30.59"/>
</a>
</g>
<text text-anchor="middle" x="134" y="-37" font-family="Helvetica,sans-Serif" font-size="10.00" fill="grey"> +next</text>
</g>
<!-- Node2 -->
<g id="Node000002" class="node">
<title>Node2</title>
<g id="a_Node000002"><a xlink:href="structGraph_1_1Vertex.html" target="_top" xlink:title="A vertex (node) in the graph.">
<polygon fill="white" stroke="transparent" points="209,-231 132,-231 132,-137 209,-137 209,-231"/>
<text text-anchor="start" x="137.5" y="-219" font-family="Helvetica,sans-Serif" font-size="10.00">Graph::Vertex</text>
<text text-anchor="start" x="138" y="-204" font-family="Helvetica,sans-Serif" font-size="10.00">+</text>
<text text-anchor="start" x="152.5" y="-204" font-family="Helvetica,sans-Serif" font-size="10.00">blocked</text>
<text text-anchor="start" x="138" y="-189" font-family="Helvetica,sans-Serif" font-size="10.00">+</text>
<text text-anchor="start" x="152.5" y="-189" font-family="Helvetica,sans-Serif" font-size="10.00">floor</text>
<text text-anchor="start" x="138" y="-174" font-family="Helvetica,sans-Serif" font-size="10.00">+</text>
<text text-anchor="start" x="152.5" y="-174" font-family="Helvetica,sans-Serif" font-size="10.00">occupants</text>
<text text-anchor="start" x="138" y="-159" font-family="Helvetica,sans-Serif" font-size="10.00">+</text>
<text text-anchor="start" x="152.5" y="-159" font-family="Helvetica,sans-Serif" font-size="10.00">type</text>
<text text-anchor="start" x="138" y="-144" font-family="Helvetica,sans-Serif" font-size="10.00">+</text>
<text text-anchor="start" x="152.5" y="-144" font-family="Helvetica,sans-Serif" font-size="10.00">Vertex()</text>
<polygon fill="#666666" stroke="#666666" points="132.5,-214 132.5,-214 209.5,-214 209.5,-214 132.5,-214"/>
<polygon fill="#666666" stroke="#666666" points="132.5,-154 132.5,-154 150.5,-154 150.5,-154 132.5,-154"/>
<polygon fill="#666666" stroke="#666666" points="150.5,-154 150.5,-154 209.5,-154 209.5,-154 150.5,-154"/>
<polygon fill="none" stroke="#666666" points="132,-137 132,-231 209,-231 209,-137 132,-137"/>
</a>
</g>
</g>
<!-- Node2&#45;&gt;Node1 -->
<g id="edge1_Node000001_Node000002" class="edge">
<title>Node2&#45;&gt;Node1</title>
<g id="a_edge1_Node000001_Node000002"><a xlink:title=" ">
<path fill="none" stroke="#63b8ff" d="M131.9,-147.17C122.92,-138.26 113.62,-128.52 105.5,-119 95.57,-107.36 85.59,-94.02 76.86,-81.69"/>
<polygon fill="none" stroke="#63b8ff" points="76.71,-81.47 70,-78.83 69.86,-71.62 76.57,-74.26 76.71,-81.47"/>
</a>
</g>
<text text-anchor="middle" x="132.5" y="-111" font-family="Helvetica,sans-Serif" font-size="10.00" fill="grey"> +previous</text>
<text text-anchor="middle" x="132.5" y="-100" font-family="Helvetica,sans-Serif" font-size="10.00" fill="grey">+vertex</text>
</g>
<!-- Node2&#45;&gt;Node2 -->
<g id="edge7_Node000002_Node000002" class="edge">
<title>Node2&#45;&gt;Node2</title>
<g id="a_edge7_Node000002_Node000002"><a xlink:title=" ">
<path fill="none" stroke="#63b8ff" d="M209.06,-197.01C219.27,-196.27 227,-191.93 227,-184 227,-179.66 224.69,-176.4 220.92,-174.21"/>
<polygon fill="none" stroke="#63b8ff" points="220.64,-174.14 213.8,-176.42 209.06,-170.99 215.89,-168.7 220.64,-174.14"/>
</a>
</g>
<text text-anchor="middle" x="244" y="-181.5" font-family="Helvetica,sans-Serif" font-size="10.00" fill="grey"> +next</text>
</g>
<!-- Node5 -->
<g id="Node000005" class="node">
<title>Node5</title>
<g id="a_Node000005"><a xlink:href="structGraph_1_1Edge.html" target="_top" xlink:title="A directed weighted edge between two vertices.">
<polygon fill="white" stroke="transparent" points="262,-79 169,-79 169,0 262,0 262,-79"/>
<text text-anchor="start" x="186" y="-66.5" font-family="Helvetica,sans-Serif" font-size="10.00">Graph::Edge</text>
<text text-anchor="start" x="173.5" y="-51.5" font-family="Helvetica,sans-Serif" font-size="10.00">+</text>
<text text-anchor="start" x="186.5" y="-51.5" font-family="Helvetica,sans-Serif" font-size="10.00">blocked</text>
<text text-anchor="start" x="173.5" y="-36.5" font-family="Helvetica,sans-Serif" font-size="10.00">+</text>
<text text-anchor="start" x="186.5" y="-36.5" font-family="Helvetica,sans-Serif" font-size="10.00">capacity</text>
<text text-anchor="start" x="173.5" y="-21.5" font-family="Helvetica,sans-Serif" font-size="10.00">+</text>
<text text-anchor="start" x="186.5" y="-21.5" font-family="Helvetica,sans-Serif" font-size="10.00">traversal_time</text>
<text text-anchor="start" x="173.5" y="-6.5" font-family="Helvetica,sans-Serif" font-size="10.00">+</text>
<text text-anchor="start" x="186.5" y="-6.5" font-family="Helvetica,sans-Serif" font-size="10.00">Edge()</text>
<polygon fill="#666666" stroke="#666666" points="169.5,-61.5 169.5,-61.5 262.5,-61.5 262.5,-61.5 169.5,-61.5"/>
<polygon fill="#666666" stroke="#666666" points="169.5,-16.5 169.5,-16.5 184.5,-16.5 184.5,-16.5 169.5,-16.5"/>
<polygon fill="#666666" stroke="#666666" points="184.5,-16.5 184.5,-16.5 262.5,-16.5 262.5,-16.5 184.5,-16.5"/>
<polygon fill="none" stroke="#666666" points="169,0 169,-79 262,-79 262,0 169,0"/>
</a>
</g>
</g>
<!-- Node2&#45;&gt;Node5 -->
<g id="edge5_Node000005_Node000002" class="edge">
<title>Node2&#45;&gt;Node5</title>
<g id="a_edge5_Node000005_Node000002"><a xlink:title=" ">
<path fill="none" stroke="#63b8ff" d="M162.48,-136.89C161.88,-123.68 162.91,-109.48 167.5,-97 168.38,-94.59 169.42,-92.22 170.58,-89.89"/>
<polygon fill="none" stroke="#63b8ff" points="170.72,-89.65 170.32,-82.45 176.81,-79.31 177.21,-86.51 170.72,-89.65"/>
</a>
</g>
<text text-anchor="middle" x="178.5" y="-105.5" font-family="Helvetica,sans-Serif" font-size="10.00" fill="grey"> +to</text>
</g>
<!-- Node3 -->
<g id="Node000003" class="node">
<title>Node3</title>
<g id="a_Node000003"><a xlink:title=" ">
<polygon fill="white" stroke="transparent" points="200,-327 141,-327 141,-278 200,-278 200,-327"/>
<text text-anchor="start" x="146.5" y="-314.5" font-family="Helvetica,sans-Serif" font-size="10.00">std::string</text>
<text text-anchor="start" x="169" y="-299.5" font-family="Helvetica,sans-Serif" font-size="10.00"> </text>
<text text-anchor="start" x="169" y="-284.5" font-family="Helvetica,sans-Serif" font-size="10.00"> </text>
<polygon fill="#666666" stroke="#666666" points="141.5,-309.5 141.5,-309.5 200.5,-309.5 200.5,-309.5 141.5,-309.5"/>
<polygon fill="#666666" stroke="#666666" points="141.5,-294.5 141.5,-294.5 200.5,-294.5 200.5,-294.5 141.5,-294.5"/>
<polygon fill="none" stroke="#666666" points="141,-278 141,-327 200,-327 200,-278 141,-278"/>
</a>
</g>
</g>
<!-- Node3&#45;&gt;Node2 -->
<g id="edge2_Node000002_Node000003" class="edge">
<title>Node3&#45;&gt;Node2</title>
<g id="a_edge2_Node000002_Node000003"><a xlink:title=" ">
<path fill="none" stroke="#63b8ff" d="M170.5,-277.92C170.5,-267.85 170.5,-255.6 170.5,-243.35"/>
<polygon fill="none" stroke="#63b8ff" points="170.5,-243.17 166.5,-237.17 170.5,-231.17 174.5,-237.17 170.5,-243.17"/>
</a>
</g>
<text text-anchor="middle" x="181" y="-252" font-family="Helvetica,sans-Serif" font-size="10.00" fill="grey"> +id</text>
</g>
<!-- Node4 -->
<g id="Node000004" class="node">
<title>Node4</title>
<g id="a_Node000004"><a xlink:title=" ">
<polygon fill="white" stroke="transparent" points="219.5,-424 121.5,-424 121.5,-364 219.5,-364 219.5,-424"/>
<text text-anchor="start" x="126.5" y="-412" font-family="Helvetica,sans-Serif" font-size="10.00">std::basic_string&lt;</text>
<text text-anchor="start" x="152" y="-401" font-family="Helvetica,sans-Serif" font-size="10.00"> Char &gt;</text>
<text text-anchor="start" x="168.5" y="-386" font-family="Helvetica,sans-Serif" font-size="10.00"> </text>
<text text-anchor="start" x="168.5" y="-371" font-family="Helvetica,sans-Serif" font-size="10.00"> </text>
<polygon fill="#666666" stroke="#666666" points="121.5,-396 121.5,-396 219.5,-396 219.5,-396 121.5,-396"/>
<polygon fill="#666666" stroke="#666666" points="121.5,-381 121.5,-381 219.5,-381 219.5,-381 121.5,-381"/>
<polygon fill="none" stroke="#666666" points="121.5,-364 121.5,-424 219.5,-424 219.5,-364 121.5,-364"/>
</a>
</g>
</g>
<!-- Node4&#45;&gt;Node3 -->
<g id="edge3_Node000003_Node000004" class="edge">
<title>Node4&#45;&gt;Node3</title>
<g id="a_edge3_Node000003_Node000004"><a xlink:title=" ">
<path fill="none" stroke="#63b8ff" d="M170.5,-353.41C170.5,-344.47 170.5,-335.25 170.5,-327.21"/>
<polygon fill="none" stroke="#63b8ff" points="167,-353.69 170.5,-363.69 174,-353.69 167,-353.69"/>
</a>
</g>
</g>
<!-- Node5&#45;&gt;Node2 -->
<g id="edge4_Node000002_Node000005" class="edge">
<title>Node5&#45;&gt;Node2</title>
<g id="a_edge4_Node000002_Node000005"><a xlink:title=" ">
<path fill="none" stroke="#63b8ff" d="M205.19,-79.39C201.67,-92.08 197.59,-106.19 193.5,-119 192.83,-121.1 192.13,-123.24 191.42,-125.39"/>
<polygon fill="none" stroke="#63b8ff" points="191.34,-125.63 193.2,-132.6 187.48,-136.99 185.62,-130.02 191.34,-125.63"/>
</a>
</g>
<text text-anchor="middle" x="230" y="-105.5" font-family="Helvetica,sans-Serif" font-size="10.00" fill="grey"> +adjacency</text>
</g>
<!-- Node5&#45;&gt;Node5 -->
<g id="edge6_Node000005_Node000005" class="edge">
<title>Node5&#45;&gt;Node5</title>
<g id="a_edge6_Node000005_Node000005"><a xlink:title=" ">
<path fill="none" stroke="#63b8ff" d="M262.17,-51.91C272.49,-50.74 280,-46.61 280,-39.5 280,-35.61 277.75,-32.62 274.03,-30.51"/>
<polygon fill="none" stroke="#63b8ff" points="273.71,-30.41 266.83,-32.6 262.17,-27.09 269.05,-24.91 273.71,-30.41"/>
</a>
</g>
<text text-anchor="middle" x="297" y="-37" font-family="Helvetica,sans-Serif" font-size="10.00" fill="grey"> +next</text>
</g>
</g>
</svg>
</svg>

<style type='text/css'>
<![CDATA[
[data-mouse-over-selected='false'] { opacity: 0.7; }
[data-mouse-over-selected='true']  { opacity: 1.0; }
]]>
</style>
<script type="application/ecmascript"><![CDATA[
document.addEventListener('DOMContentLoaded', (event) => {
  highlightEdges();
  highlightAdjacentNodes();
});
]]></script>
</svg>
