<?xml version="1.0" encoding="UTF-8" standalone="no"?>
<!DOCTYPE svg PUBLIC "-//W3C//DTD SVG 1.1//EN"
 "http://www.w3.org/Graphics/SVG/1.1/DTD/svg11.dtd">
<!-- Generated by graphviz version 2.43.0 (0)
 -->
<!-- Title: Layout::Pos Pages: 1 -->
<svg width="143pt" height="265pt"
 viewBox="0.00 0.00 142.50 265.00" xmlns="http://www.w3.org/2000/svg" xmlns:xlink="http://www.w3.org/1999/xlink">
<g id="graph0" class="graph" transform="scale(1 1) rotate(0) translate(4 261)">
<title>Layout::Pos</title>
<!-- Node1 -->
<g id="Node000001" class="node">
<title>Node1</title>
<g id="a_Node000001"><a xlink:title=" ">
<polygon fill="#999999" stroke="transparent" points="82.5,-64 15.5,-64 15.5,0 82.5,0 82.5,-64"/>
<text text-anchor="start" x="21" y="-52" font-family="Helvetica,sans-Serif" font-size="10.00">Layout::Pos</text>
<text text-anchor="start" x="25" y="-37" font-family="Helvetica,sans-Serif" font-size="10.00">+</text>
<text text-anchor="start" x="43" y="-37" font-family="Helvetica,sans-Serif" font-size="10.00">x</text>
<text text-anchor="start" x="25" y="-22" font-family="Helvetica,sans-Serif" font-size="10.00">+</text>
<text text-anchor="start" x="43" y="-22" font-family="Helvetica,sans-Serif" font-size="10.00">y</text>
<text text-anchor="start" x="25" y="-7" font-family="Helvetica,sans-Serif" font-size="10.00">+</text>
<text text-anchor="start" x="43" y="-7" font-family="Helvetica,sans-Serif" font-size="10.00">Pos()</text>
<polygon fill="#666666" stroke="#666666" points="16,-47 16,-47 83,-47 83,-47 16,-47"/>
<polygon fill="#666666" stroke="#666666" points="16,-17 16,-17 41,-17 41,-17 16,-17"/>
<polygon fill="#666666" stroke="#666666" points="41,-17 41,-17 83,-17 83,-17 41,-17"/>
<polygon fill="none" stroke="#666666" points="15.5,0 15.5,-64 82.5,-64 82.5,0 15.5,0"/>
</a>
</g>
</g>
<!-- Node1&#45;&gt;Node1 -->
<g id="edge3_Node000001_Node000001" class="edge">
<title>Node1&#45;&gt;Node1</title>
<g id="a_edge3_Node000001_Node000001"><a xlink:title=" ">
<path fill="none" stroke="#63b8ff" d="M82.68,-42.1C92.7,-41.8 100.5,-38.43 100.5,-32 100.5,-28.58 98.3,-26.03 94.73,-24.34"/>
<polygon fill="none" stroke="#63b8ff" points="94.44,-24.28 87.77,-27.01 82.68,-21.9 89.36,-19.17 94.44,-24.28"/>
</a>
</g>
<text text-anchor="middle" x="117.5" y="-29.5" font-family="Helvetica,sans-Serif" font-size="10.00" fill="grey"> +next</text>
</g>
<!-- Node2 -->
<g id="Node000002" class="node">
<title>Node2</title>
<g id="a_Node000002"><a xlink:title=" ">
<polygon fill="white" stroke="transparent" points="78.5,-160 19.5,-160 19.5,-111 78.5,-111 78.5,-160"/>
<text text-anchor="start" x="25" y="-147.5" font-family="Helvetica,sans-Serif" font-size="10.00">std::string</text>
<text text-anchor="start" x="47.5" y="-132.5" font-family="Helvetica,sans-Serif" font-size="10.00"> </text>
<text text-anchor="start" x="47.5" y="-117.5" font-family="Helvetica,sans-Serif" font-size="10.00"> </text>
<polygon fill="#666666" stroke="#666666" points="20,-142.5 20,-142.5 79,-142.5 79,-142.5 20,-142.5"/>
<polygon fill="#666666" stroke="#666666" points="20,-127.5 20,-127.5 79,-127.5 79,-127.5 20,-127.5"/>
<polygon fill="none" stroke="#666666" points="19.5,-111 19.5,-160 78.5,-160 78.5,-111 19.5,-111"/>
</a>
</g>
</g>
<!-- Node2&#45;&gt;Node1 -->
<g id="edge1_Node000001_Node000002" class="edge">
<title>Node2&#45;&gt;Node1</title>
<g id="a_edge1_Node000001_Node000002"><a xlink:title=" ">
<path fill="none" stroke="#63b8ff" d="M49,-110.96C49,-100.61 49,-88.13 49,-76.21"/>
<polygon fill="none" stroke="#63b8ff" points="49,-76.11 45,-70.11 49,-64.11 53,-70.11 49,-76.11"/>
</a>
</g>
<text text-anchor="middle" x="59.5" y="-85" font-family="Helvetica,sans-Serif" font-size="10.00" fill="grey"> +id</text>
</g>
<!-- Node3 -->
<g id="Node000003" class="node">
<title>Node3</title>
<g id="a_Node000003"><a xlink:title=" ">
<polygon fill="white" stroke="transparent" points="98,-257 0,-257 0,-197 98,-197 98,-257"/>
<text text-anchor="start" x="5" y="-245" font-family="Helvetica,sans-Serif" font-size="10.00">std::basic_string&lt;</text>
<text text-anchor="start" x="30.5" y="-234" font-family="Helvetica,sans-Serif" font-size="10.00"> Char &gt;</text>
<text text-anchor="start" x="47" y="-219" font-family="Helvetica,sans-Serif" font-size="10.00"> </text>
<text text-anchor="start" x="47" y="-204" font-family="Helvetica,sans-Serif" font-size="10.00"> </text>
<polygon fill="#666666" stroke="#666666" points="0,-229 0,-229 98,-229 98,-229 0,-229"/>
<polygon fill="#666666" stroke="#666666" points="0,-214 0,-214 98,-214 98,-214 0,-214"/>
<polygon fill="none" stroke="#666666" points="0,-197 0,-257 98,-257 98,-197 0,-197"/>
</a>
</g>
</g>
<!-- Node3&#45;&gt;Node2 -->
<g id="edge2_Node000002_Node000003" class="edge">
<title>Node3&#45;&gt;Node2</title>
<g id="a_edge2_Node000002_Node000003"><a xlink:title=" ">
<path fill="none" stroke="#63b8ff" d="M49,-186.41C49,-177.47 49,-168.25 49,-160.21"/>
<polygon fill="none" stroke="#63b8ff" points="45.5,-186.69 49,-196.69 52.5,-186.69 45.5,-186.69"/>
</a>
</g>
</g>
</g>
</svg>
