<?xml version="1.0" encoding="UTF-8" standalone="no"?>
<!DOCTYPE svg PUBLIC "-//W3C//DTD SVG 1.1//EN"
 "http://www.w3.org/Graphics/SVG/1.1/DTD/svg11.dtd">
<!-- Generated by graphviz version 2.43.0 (0)
 -->
<!-- Title: Corridor Pages: 1 -->
<svg width="191pt" height="522pt"
 viewBox="0.00 0.00 190.50 522.00" xmlns="http://www.w3.org/2000/svg" xmlns:xlink="http://www.w3.org/1999/xlink">
<g id="graph0" class="graph" transform="scale(1 1) rotate(0) translate(4 518)">
<title>Corridor</title>
<!-- Node1 -->
<g id="Node000001" class="node">
<title>Node1</title>
<g id="a_Node000001"><a xlink:title="A directed corridor connecting two CellNodes.">
<polygon fill="#999999" stroke="transparent" points="95.5,-124 2.5,-124 2.5,0 95.5,0 95.5,-124"/>
<text text-anchor="start" x="29.5" y="-112" font-family="Helvetica,sans-Serif" font-size="10.00">Corridor</text>
<text text-anchor="start" x="7" y="-97" font-family="Helvetica,sans-Serif" font-size="10.00">+</text>
<text text-anchor="start" x="20" y="-97" font-family="Helvetica,sans-Serif" font-size="10.00">blocked</text>
<text text-anchor="start" x="7" y="-82" font-family="Helvetica,sans-Serif" font-size="10.00">+</text>
<text text-anchor="start" x="20" y="-82" font-family="Helvetica,sans-Serif" font-size="10.00">capacity</text>
<text text-anchor="start" x="7" y="-67" font-family="Helvetica,sans-Serif" font-size="10.00">+</text>
<text text-anchor="start" x="20" y="-67" font-family="Helvetica,sans-Serif" font-size="10.00">current_load</text>
<text text-anchor="start" x="7" y="-52" font-family="Helvetica,sans-Serif" font-size="10.00">+</text>
<text text-anchor="start" x="20" y="-52" font-family="Helvetica,sans-Serif" font-size="10.00">fire_intensity</text>
<text text-anchor="start" x="7" y="-37" font-family="Helvetica,sans-Serif" font-size="10.00">+</text>
<text text-anchor="start" x="20" y="-37" font-family="Helvetica,sans-Serif" font-size="10.00">flammability</text>
<text text-anchor="start" x="7" y="-22" font-family="Helvetica,sans-Serif" font-size="10.00">+</text>
<text text-anchor="start" x="20" y="-22" font-family="Helvetica,sans-Serif" font-size="10.00">traversal_time</text>
<text text-anchor="start" x="7" y="-7" font-family="Helvetica,sans-Serif" font-size="10.00">+</text>
<text text-anchor="start" x="20" y="-7" font-family="Helvetica,sans-Serif" font-size="10.00">Corridor()</text>
<polygon fill="#666666" stroke="#666666" points="3,-107 3,-107 96,-107 96,-107 3,-107"/>
<polygon fill="#666666" stroke="#666666" points="3,-17 3,-17 18,-17 18,-17 3,-17"/>
<polygon fill="#666666" stroke="#666666" points="18,-17 18,-17 96,-17 96,-17 18,-17"/>
<polygon fill="none" stroke="#666666" points="2.5,0 2.5,-124 95.5,-124 95.5,0 2.5,0"/>
</a>
</g>
</g>
<!-- Node1&#45;&gt;Node1 -->
<g id="edge5_Node000001_Node000001" class="edge">
<title>Node1&#45;&gt;Node1</title>
<g id="a_edge5_Node000001_Node000001"><a xlink:title=" ">
<path fill="none" stroke="#63b8ff" d="M95.67,-78.42C105.99,-76.88 113.5,-71.4 113.5,-62 113.5,-56.71 111.12,-52.66 107.21,-49.86"/>
<polygon fill="none" stroke="#63b8ff" points="106.92,-49.76 99.91,-51.42 95.67,-45.58 102.69,-43.92 106.92,-49.76"/>
</a>
</g>
<text text-anchor="middle" x="148" y="-59.5" font-family="Helvetica,sans-Serif" font-size="10.00" fill="grey"> +next_global</text>
</g>
<!-- Node2 -->
<g id="Node000002" class="node">
<title>Node2</title>
<g id="a_Node000002"><a xlink:href="structCellNode.html" target="_top" xlink:title="A simulation&#45;side node mirroring a Graph vertex.">
<polygon fill="white" stroke="transparent" points="98,-321 0,-321 0,-182 98,-182 98,-321"/>
<text text-anchor="start" x="26.5" y="-308.5" font-family="Helvetica,sans-Serif" font-size="10.00">CellNode</text>
<text text-anchor="start" x="4" y="-293.5" font-family="Helvetica,sans-Serif" font-size="10.00">+</text>
<text text-anchor="start" x="17" y="-293.5" font-family="Helvetica,sans-Serif" font-size="10.00">fire_intensity</text>
<text text-anchor="start" x="4" y="-278.5" font-family="Helvetica,sans-Serif" font-size="10.00">+</text>
<text text-anchor="start" x="17" y="-278.5" font-family="Helvetica,sans-Serif" font-size="10.00">flammability</text>
<text text-anchor="start" x="4" y="-263.5" font-family="Helvetica,sans-Serif" font-size="10.00">+</text>
<text text-anchor="start" x="17" y="-263.5" font-family="Helvetica,sans-Serif" font-size="10.00">floor</text>
<text text-anchor="start" x="4" y="-248.5" font-family="Helvetica,sans-Serif" font-size="10.00">+</text>
<text text-anchor="start" x="17" y="-248.5" font-family="Helvetica,sans-Serif" font-size="10.00">is_exit</text>
<text text-anchor="start" x="4" y="-233.5" font-family="Helvetica,sans-Serif" font-size="10.00">+</text>
<text text-anchor="start" x="17" y="-233.5" font-family="Helvetica,sans-Serif" font-size="10.00">on_fire</text>
<text text-anchor="start" x="4" y="-218.5" font-family="Helvetica,sans-Serif" font-size="10.00">+</text>
<text text-anchor="start" x="17" y="-218.5" font-family="Helvetica,sans-Serif" font-size="10.00">people_in_node</text>
<text text-anchor="start" x="4" y="-203.5" font-family="Helvetica,sans-Serif" font-size="10.00">+</text>
<text text-anchor="start" x="17" y="-203.5" font-family="Helvetica,sans-Serif" font-size="10.00">type</text>
<text text-anchor="start" x="4" y="-188.5" font-family="Helvetica,sans-Serif" font-size="10.00">+</text>
<text text-anchor="start" x="17" y="-188.5" font-family="Helvetica,sans-Serif" font-size="10.00">CellNode()</text>
<polygon fill="#666666" stroke="#666666" points="0,-303.5 0,-303.5 98,-303.5 98,-303.5 0,-303.5"/>
<polygon fill="#666666" stroke="#666666" points="0,-198.5 0,-198.5 15,-198.5 15,-198.5 0,-198.5"/>
<polygon fill="#666666" stroke="#666666" points="15,-198.5 15,-198.5 98,-198.5 98,-198.5 15,-198.5"/>
<polygon fill="none" stroke="#666666" points="0,-182 0,-321 98,-321 98,-182 0,-182"/>
</a>
</g>
</g>
<!-- Node2&#45;&gt;Node1 -->
<g id="edge1_Node000001_Node000002" class="edge">
<title>Node2&#45;&gt;Node1</title>
<g id="a_edge1_Node000001_Node000002"><a xlink:title=" ">
<path fill="none" stroke="#63b8ff" d="M49,-181.75C49,-167.05 49,-151.47 49,-136.6"/>
<polygon fill="none" stroke="#63b8ff" points="49,-136.31 45,-130.31 49,-124.31 53,-130.31 49,-136.31"/>
</a>
</g>
<text text-anchor="middle" x="66.5" y="-156" font-family="Helvetica,sans-Serif" font-size="10.00" fill="grey"> +from</text>
<text text-anchor="middle" x="66.5" y="-145" font-family="Helvetica,sans-Serif" font-size="10.00" fill="grey">+to</text>
</g>
<!-- Node2&#45;&gt;Node2 -->
<g id="edge4_Node000002_Node000002" class="edge">
<title>Node2&#45;&gt;Node2</title>
<g id="a_edge4_Node000002_Node000002"><a xlink:title=" ">
<path fill="none" stroke="#63b8ff" d="M98.08,-268.19C108.49,-266.5 116,-260.93 116,-251.5 116,-246.05 113.49,-241.89 109.36,-239.02"/>
<polygon fill="none" stroke="#63b8ff" points="109.32,-239 102.3,-240.65 98.08,-234.81 105.1,-233.16 109.32,-239"/>
</a>
</g>
<text text-anchor="middle" x="133" y="-249" font-family="Helvetica,sans-Serif" font-size="10.00" fill="grey"> +next</text>
</g>
<!-- Node3 -->
<g id="Node000003" class="node">
<title>Node3</title>
<g id="a_Node000003"><a xlink:title=" ">
<polygon fill="white" stroke="transparent" points="78.5,-417 19.5,-417 19.5,-368 78.5,-368 78.5,-417"/>
<text text-anchor="start" x="25" y="-404.5" font-family="Helvetica,sans-Serif" font-size="10.00">std::string</text>
<text text-anchor="start" x="47.5" y="-389.5" font-family="Helvetica,sans-Serif" font-size="10.00"> </text>
<text text-anchor="start" x="47.5" y="-374.5" font-family="Helvetica,sans-Serif" font-size="10.00"> </text>
<polygon fill="#666666" stroke="#666666" points="20,-399.5 20,-399.5 79,-399.5 79,-399.5 20,-399.5"/>
<polygon fill="#666666" stroke="#666666" points="20,-384.5 20,-384.5 79,-384.5 79,-384.5 20,-384.5"/>
<polygon fill="none" stroke="#666666" points="19.5,-368 19.5,-417 78.5,-417 78.5,-368 19.5,-368"/>
</a>
</g>
</g>
<!-- Node3&#45;&gt;Node2 -->
<g id="edge2_Node000002_Node000003" class="edge">
<title>Node3&#45;&gt;Node2</title>
<g id="a_edge2_Node000002_Node000003"><a xlink:title=" ">
<path fill="none" stroke="#63b8ff" d="M49,-367.92C49,-358.06 49,-345.97 49,-333.36"/>
<polygon fill="none" stroke="#63b8ff" points="49,-333.17 45,-327.17 49,-321.17 53,-327.17 49,-333.17"/>
</a>
</g>
<text text-anchor="middle" x="59.5" y="-342" font-family="Helvetica,sans-Serif" font-size="10.00" fill="grey"> +id</text>
</g>
<!-- Node4 -->
<g id="Node000004" class="node">
<title>Node4</title>
<g id="a_Node000004"><a xlink:title=" ">
<polygon fill="white" stroke="transparent" points="98,-514 0,-514 0,-454 98,-454 98,-514"/>
<text text-anchor="start" x="5" y="-502" font-family="Helvetica,sans-Serif" font-size="10.00">std::basic_string&lt;</text>
<text text-anchor="start" x="30.5" y="-491" font-family="Helvetica,sans-Serif" font-size="10.00"> Char &gt;</text>
<text text-anchor="start" x="47" y="-476" font-family="Helvetica,sans-Serif" font-size="10.00"> </text>
<text text-anchor="start" x="47" y="-461" font-family="Helvetica,sans-Serif" font-size="10.00"> </text>
<polygon fill="#666666" stroke="#666666" points="0,-486 0,-486 98,-486 98,-486 0,-486"/>
<polygon fill="#666666" stroke="#666666" points="0,-471 0,-471 98,-471 98,-471 0,-471"/>
<polygon fill="none" stroke="#666666" points="0,-454 0,-514 98,-514 98,-454 0,-454"/>
</a>
</g>
</g>
<!-- Node4&#45;&gt;Node3 -->
<g id="edge3_Node000003_Node000004" class="edge">
<title>Node4&#45;&gt;Node3</title>
<g id="a_edge3_Node000003_Node000004"><a xlink:title=" ">
<path fill="none" stroke="#63b8ff" d="M49,-443.41C49,-434.47 49,-425.25 49,-417.21"/>
<polygon fill="none" stroke="#63b8ff" points="45.5,-443.69 49,-453.69 52.5,-443.69 45.5,-443.69"/>
</a>
</g>
</g>
</g>
</svg>
