<?xml version="1.0" encoding="UTF-8" standalone="no"?>
<!DOCTYPE svg PUBLIC "-//W3C//DTD SVG 1.1//EN"
 "http://www.w3.org/Graphics/SVG/1.1/DTD/svg11.dtd">
<!-- Generated by graphviz version 2.43.0 (0)
 -->
<!-- Title: Graph::QueueItem Pages: 1 -->
<svg width="272pt" height="421pt"
 viewBox="0.00 0.00 271.50 421.00" xmlns="http://www.w3.org/2000/svg" xmlns:xlink="http://www.w3.org/1999/xlink">
<g id="graph0" class="graph" transform="scale(1 1) rotate(0) translate(4 417)">
<title>Graph::QueueItem</title>
<!-- Node1 -->
<g id="Node000001" class="node">
<title>Node1</title>
<g id="a_Node000001"><a xlink:title="Priority&#45;queue item pairing a vertex with its tentative distance.">
<polygon fill="#999999" stroke="transparent" points="100,-64 0,-64 0,-15 100,-15 100,-64"/>
<text text-anchor="start" x="5" y="-51.5" font-family="Helvetica,sans-Serif" font-size="10.00">Graph::QueueItem</text>
<text text-anchor="start" x="13" y="-36.5" font-family="Helvetica,sans-Serif" font-size="10.00">+</text>
<text text-anchor="start" x="35" y="-36.5" font-family="Helvetica,sans-Serif" font-size="10.00">distance</text>
<text text-anchor="start" x="48" y="-21.5" font-family="Helvetica,sans-Serif" font-size="10.00"> </text>
<polygon fill="#666666" stroke="#666666" points="0,-46.5 0,-46.5 100,-46.5 100,-46.5 0,-46.5"/>
<polygon fill="#666666" stroke="#666666" points="0,-31.5 0,-31.5 33,-31.5 33,-31.5 0,-31.5"/>
<polygon fill="#666666" stroke="#666666" points="33,-31.5 33,-31.5 100,-31.5 100,-31.5 33,-31.5"/>
<polygon fill="none" stroke="#666666" points="0,-15 0,-64 100,-64 100,-15 0,-15"/>
</a>
</g>
</g>
<!-- Node2 -->
<g id="Node000002" class="node">
<title>Node2</title>
<g id="a_Node000002"><a xlink:href="structGraph_1_1Vertex.html" target="_top" xlink:title="A vertex (node) in the graph.">
<polygon fill="white" stroke="transparent" points="158.5,-220 81.5,-220 81.5,-126 158.5,-126 158.5,-220"/>
<text text-anchor="start" x="87" y="-208" font-family="Helvetica,sans-Serif" font-size="10.00">Graph::Vertex</text>
<text text-anchor="start" x="87.5" y="-193" font-family="Helvetica,sans-Serif" font-size="10.00">+</text>
<text text-anchor="start" x="102" y="-193" font-family="Helvetica,sans-Serif" font-size="10.00">blocked</text>
<text text-anchor="start" x="87.5" y="-178" font-family="Helvetica,sans-Serif" font-size="10.00">+</text>
<text text-anchor="start" x="102" y="-178" font-family="Helvetica,sans-Serif" font-size="10.00">floor</text>
<text text-anchor="start" x="87.5" y="-163" font-family="Helvetica,sans-Serif" font-size="10.00">+</text>
<text text-anchor="start" x="102" y="-163" font-family="Helvetica,sans-Serif" font-size="10.00">occupants</text>
<text text-anchor="start" x="87.5" y="-148" font-family="Helvetica,sans-Serif" font-size="10.00">+</text>
<text text-anchor="start" x="102" y="-148" font-family="Helvetica,sans-Serif" font-size="10.00">type</text>
<text text-anchor="start" x="87.5" y="-133" font-family="Helvetica,sans-Serif" font-size="10.00">+</text>
<text text-anchor="start" x="102" y="-133" font-family="Helvetica,sans-Serif" font-size="10.00">Vertex()</text>
<polygon fill="#666666" stroke="#666666" points="82,-203 82,-203 159,-203 159,-203 82,-203"/>
<polygon fill="#666666" stroke="#666666" points="82,-143 82,-143 100,-143 100,-143 82,-143"/>
<polygon fill="#666666" stroke="#666666" points="100,-143 100,-143 159,-143 159,-143 100,-143"/>
<polygon fill="none" stroke="#666666" points="81.5,-126 81.5,-220 158.5,-220 158.5,-126 81.5,-126"/>
</a>
</g>
</g>
<!-- Node2&#45;&gt;Node1 -->
<g id="edge1_Node000001_Node000002" class="edge">
<title>Node2&#45;&gt;Node1</title>
<g id="a_edge1_Node000001_Node000002"><a xlink:title=" ">
<path fill="none" stroke="#63b8ff" d="M81.3,-129.28C76.34,-122.48 71.71,-115.27 68,-108 62.97,-98.14 59.24,-86.73 56.52,-76.12"/>
<polygon fill="none" stroke="#63b8ff" points="56.47,-75.89 51.22,-70.94 53.78,-64.19 59.02,-69.14 56.47,-75.89"/>
</a>
</g>
<text text-anchor="middle" x="89.5" y="-100" font-family="Helvetica,sans-Serif" font-size="10.00" fill="grey"> +vertex</text>
</g>
<!-- Node2&#45;&gt;Node2 -->
<g id="edge7_Node000002_Node000002" class="edge">
<title>Node2&#45;&gt;Node2</title>
<g id="a_edge7_Node000002_Node000002"><a xlink:title=" ">
<path fill="none" stroke="#63b8ff" d="M158.56,-186.01C168.77,-185.27 176.5,-180.93 176.5,-173 176.5,-168.66 174.19,-165.4 170.42,-163.21"/>
<polygon fill="none" stroke="#63b8ff" points="170.14,-163.14 163.3,-165.42 158.56,-159.99 165.39,-157.7 170.14,-163.14"/>
</a>
</g>
<text text-anchor="middle" x="193.5" y="-170.5" font-family="Helvetica,sans-Serif" font-size="10.00" fill="grey"> +next</text>
</g>
<!-- Node5 -->
<g id="Node000005" class="node">
<title>Node5</title>
<g id="a_Node000005"><a xlink:href="structGraph_1_1Edge.html" target="_top" xlink:title="A directed weighted edge between two vertices.">
<polygon fill="white" stroke="transparent" points="211.5,-79 118.5,-79 118.5,0 211.5,0 211.5,-79"/>
<text text-anchor="start" x="135.5" y="-66.5" font-family="Helvetica,sans-Serif" font-size="10.00">Graph::Edge</text>
<text text-anchor="start" x="123" y="-51.5" font-family="Helvetica,sans-Serif" font-size="10.00">+</text>
<text text-anchor="start" x="136" y="-51.5" font-family="Helvetica,sans-Serif" font-size="10.00">blocked</text>
<text text-anchor="start" x="123" y="-36.5" font-family="Helvetica,sans-Serif" font-size="10.00">+</text>
<text text-anchor="start" x="136" y="-36.5" font-family="Helvetica,sans-Serif" font-size="10.00">capacity</text>
<text text-anchor="start" x="123" y="-21.5" font-family="Helvetica,sans-Serif" font-size="10.00">+</text>
<text text-anchor="start" x="136" y="-21.5" font-family="Helvetica,sans-Serif" font-size="10.00">traversal_time</text>
<text text-anchor="start" x="123" y="-6.5" font-family="Helvetica,sans-Serif" font-size="10.00">+</text>
<text text-anchor="start" x="136" y="-6.5" font-family="Helvetica,sans-Serif" font-size="10.00">Edge()</text>
<polygon fill="#666666" stroke="#666666" points="119,-61.5 119,-61.5 212,-61.5 212,-61.5 119,-61.5"/>
<polygon fill="#666666" stroke="#666666" points="119,-16.5 119,-16.5 134,-16.5 134,-16.5 119,-16.5"/>
<polygon fill="#666666" stroke="#666666" points="134,-16.5 134,-16.5 212,-16.5 212,-16.5 134,-16.5"/>
<polygon fill="none" stroke="#666666" points="118.5,0 118.5,-79 211.5,-79 211.5,0 118.5,0"/>
</a>
</g>
</g>
<!-- Node2&#45;&gt;Node5 -->
<g id="edge5_Node000005_Node000002" class="edge">
<title>Node2&#45;&gt;Node5</title>
<g id="a_edge5_Node000005_Node000002"><a xlink:title=" ">
<path fill="none" stroke="#63b8ff" d="M112.56,-125.9C112.52,-116.14 113.67,-106.05 117,-97 117.88,-94.59 118.92,-92.22 120.08,-89.89"/>
<polygon fill="none" stroke="#63b8ff" points="120.22,-89.65 119.82,-82.45 126.31,-79.31 126.71,-86.51 120.22,-89.65"/>
</a>
</g>
<text text-anchor="middle" x="128" y="-100" font-family="Helvetica,sans-Serif" font-size="10.00" fill="grey"> +to</text>
</g>
<!-- Node3 -->
<g id="Node000003" class="node">
<title>Node3</title>
<g id="a_Node000003"><a xlink:title=" ">
<polygon fill="white" stroke="transparent" points="149.5,-316 90.5,-316 90.5,-267 149.5,-267 149.5,-316"/>
<text text-anchor="start" x="96" y="-303.5" font-family="Helvetica,sans-Serif" font-size="10.00">std::string</text>
<text text-anchor="start" x="118.5" y="-288.5" font-family="Helvetica,sans-Serif" font-size="10.00"> </text>
<text text-anchor="start" x="118.5" y="-273.5" font-family="Helvetica,sans-Serif" font-size="10.00"> </text>
<polygon fill="#666666" stroke="#666666" points="91,-298.5 91,-298.5 150,-298.5 150,-298.5 91,-298.5"/>
<polygon fill="#666666" stroke="#666666" points="91,-283.5 91,-283.5 150,-283.5 150,-283.5 91,-283.5"/>
<polygon fill="none" stroke="#666666" points="90.5,-267 90.5,-316 149.5,-316 149.5,-267 90.5,-267"/>
</a>
</g>
</g>
<!-- Node3&#45;&gt;Node2 -->
<g id="edge2_Node000002_Node000003" class="edge">
<title>Node3&#45;&gt;Node2</title>
<g id="a_edge2_Node000002_Node000003"><a xlink:title=" ">
<path fill="none" stroke="#63b8ff" d="M120,-266.92C120,-256.85 120,-244.6 120,-232.35"/>
<polygon fill="none" stroke="#63b8ff" points="120,-232.17 116,-226.17 120,-220.17 124,-226.17 120,-232.17"/>
</a>
</g>
<text text-anchor="middle" x="130.5" y="-241" font-family="Helvetica,sans-Serif" font-size="10.00" fill="grey"> +id</text>
</g>
<!-- Node4 -->
<g id="Node000004" class="node">
<title>Node4</title>
<g id="a_Node000004"><a xlink:title=" ">
<polygon fill="white" stroke="transparent" points="169,-413 71,-413 71,-353 169,-353 169,-413"/>
<text text-anchor="start" x="76" y="-401" font-family="Helvetica,sans-Serif" font-size="10.00">std::basic_string&lt;</text>
<text text-anchor="start" x="101.5" y="-390" font-family="Helvetica,sans-Serif" font-size="10.00"> Char &gt;</text>
<text text-anchor="start" x="118" y="-375" font-family="Helvetica,sans-Serif" font-size="10.00"> </text>
<text text-anchor="start" x="118" y="-360" font-family="Helvetica,sans-Serif" font-size="10.00"> </text>
<polygon fill="#666666" stroke="#666666" points="71,-385 71,-385 169,-385 169,-385 71,-385"/>
<polygon fill="#666666" stroke="#666666" points="71,-370 71,-370 169,-370 169,-370 71,-370"/>
<polygon fill="none" stroke="#666666" points="71,-353 71,-413 169,-413 169,-353 71,-353"/>
</a>
</g>
</g>
<!-- Node4&#45;&gt;Node3 -->
<g id="edge3_Node000003_Node000004" class="edge">
<title>Node4&#45;&gt;Node3</title>
<g id="a_edge3_Node000003_Node000004"><a xlink:title=" ">
<path fill="none" stroke="#63b8ff" d="M120,-342.41C120,-333.47 120,-324.25 120,-316.21"/>
<polygon fill="none" stroke="#63b8ff" points="116.5,-342.69 120,-352.69 123.5,-342.69 116.5,-342.69"/>
</a>
</g>
</g>
<!-- Node5&#45;&gt;Node2 -->
<g id="edge4_Node000002_Node000005" class="edge">
<title>Node5&#45;&gt;Node2</title>
<g id="a_edge4_Node000002_Node000005"><a xlink:title=" ">
<path fill="none" stroke="#63b8ff" d="M152.63,-79.12C149.54,-88.58 146.2,-98.67 143,-108 142.28,-110.09 141.55,-112.21 140.81,-114.35"/>
<polygon fill="none" stroke="#63b8ff" points="140.72,-114.59 142.51,-121.58 136.75,-125.91 134.96,-118.93 140.72,-114.59"/>
</a>
</g>
<text text-anchor="middle" x="177.5" y="-100" font-family="Helvetica,sans-Serif" font-size="10.00" fill="grey"> +adjacency</text>
</g>
<!-- Node5&#45;&gt;Node5 -->
<g id="edge6_Node000005_Node000005" class="edge">
<title>Node5&#45;&gt;Node5</title>
<g id="a_edge6_Node000005_Node000005"><a xlink:title=" ">
<path fill="none" stroke="#63b8ff" d="M211.67,-50.81C221.99,-49.75 229.5,-45.98 229.5,-39.5 229.5,-35.96 227.25,-33.22 223.53,-31.3"/>
<polygon fill="none" stroke="#63b8ff" points="223.28,-31.24 216.46,-33.58 211.67,-28.19 218.49,-25.84 223.28,-31.24"/>
</a>
</g>
<text text-anchor="middle" x="246.5" y="-37" font-family="Helvetica,sans-Serif" font-size="10.00" fill="grey"> +next</text>
</g>
</g>
</svg>
