<?xml version="1.0" encoding="UTF-8" standalone="no"?>
<!DOCTYPE svg PUBLIC "-//W3C//DTD SVG 1.1//EN"
 "http://www.w3.org/Graphics/SVG/1.1/DTD/svg11.dtd">
<!-- Generated by graphviz version 2.43.0 (0)
 -->
<!-- Title: JsonSceneParser::Cursor Pages: 1 -->
<svg width="136pt" height="250pt"
 viewBox="0.00 0.00 136.00 250.00" xmlns="http://www.w3.org/2000/svg" xmlns:xlink="http://www.w3.org/1999/xlink">
<g id="graph0" class="graph" transform="scale(1 1) rotate(0) translate(4 246)">
<title>JsonSceneParser::Cursor</title>
<!-- Node1 -->
<g id="Node000001" class="node">
<title>Node1</title>
<g id="a_Node000001"><a xlink:title="Lightweight scanning state: the text and a read position.">
<polygon fill="#999999" stroke="transparent" points="128,-49 0,-49 0,0 128,0 128,-49"/>
<text text-anchor="start" x="5" y="-36.5" font-family="Helvetica,sans-Serif" font-size="10.00">JsonSceneParser::Cursor</text>
<text text-anchor="start" x="29.5" y="-21.5" font-family="Helvetica,sans-Serif" font-size="10.00">+</text>
<text text-anchor="start" x="68" y="-21.5" font-family="Helvetica,sans-Serif" font-size="10.00">i</text>
<text text-anchor="start" x="62" y="-6.5" font-family="Helvetica,sans-Serif" font-size="10.00"> </text>
<polygon fill="#666666" stroke="#666666" points="0,-31.5 0,-31.5 128,-31.5 128,-31.5 0,-31.5"/>
<polygon fill="#666666" stroke="#666666" points="0,-16.5 0,-16.5 66,-16.5 66,-16.5 0,-16.5"/>
<polygon fill="#666666" stroke="#666666" points="66,-16.5 66,-16.5 128,-16.5 128,-16.5 66,-16.5"/>
<polygon fill="none" stroke="#666666" points="0,0 0,-49 128,-49 128,0 0,0"/>
</a>
</g>
</g>
<!-- Node2 -->
<g id="Node000002" class="node">
<title>Node2</title>
<g id="a_Node000002"><a xlink:title=" ">
<polygon fill="white" stroke="transparent" points="93.5,-145 34.5,-145 34.5,-96 93.5,-96 93.5,-145"/>
<text text-anchor="start" x="40" y="-132.5" font-family="Helvetica,sans-Serif" font-size="10.00">std::string</text>
<text text-anchor="start" x="62.5" y="-117.5" font-family="Helvetica,sans-Serif" font-size="10.00"> </text>
<text text-anchor="start" x="62.5" y="-102.5" font-family="Helvetica,sans-Serif" font-size="10.00"> </text>
<polygon fill="#666666" stroke="#666666" points="35,-127.5 35,-127.5 94,-127.5 94,-127.5 35,-127.5"/>
<polygon fill="#666666" stroke="#666666" points="35,-112.5 35,-112.5 94,-112.5 94,-112.5 35,-112.5"/>
<polygon fill="none" stroke="#666666" points="34.5,-96 34.5,-145 93.5,-145 93.5,-96 34.5,-96"/>
</a>
</g>
</g>
<!-- Node2&#45;&gt;Node1 -->
<g id="edge1_Node000001_Node000002" class="edge">
<title>Node2&#45;&gt;Node1</title>
<g id="a_edge1_Node000001_Node000002"><a xlink:title=" ">
<path fill="none" stroke="#63b8ff" d="M64,-95.78C64,-85.32 64,-72.79 64,-61.23"/>
<polygon fill="none" stroke="#63b8ff" points="64,-61.21 60,-55.21 64,-49.21 68,-55.21 64,-61.21"/>
</a>
</g>
<text text-anchor="middle" x="72.5" y="-70" font-family="Helvetica,sans-Serif" font-size="10.00" fill="grey"> +s</text>
</g>
<!-- Node3 -->
<g id="Node000003" class="node">
<title>Node3</title>
<g id="a_Node000003"><a xlink:title=" ">
<polygon fill="white" stroke="transparent" points="113,-242 15,-242 15,-182 113,-182 113,-242"/>
<text text-anchor="start" x="20" y="-230" font-family="Helvetica,sans-Serif" font-size="10.00">std::basic_string&lt;</text>
<text text-anchor="start" x="45.5" y="-219" font-family="Helvetica,sans-Serif" font-size="10.00"> Char &gt;</text>
<text text-anchor="start" x="62" y="-204" font-family="Helvetica,sans-Serif" font-size="10.00"> </text>
<text text-anchor="start" x="62" y="-189" font-family="Helvetica,sans-Serif" font-size="10.00"> </text>
<polygon fill="#666666" stroke="#666666" points="15,-214 15,-214 113,-214 113,-214 15,-214"/>
<polygon fill="#666666" stroke="#666666" points="15,-199 15,-199 113,-199 113,-199 15,-199"/>
<polygon fill="none" stroke="#666666" points="15,-182 15,-242 113,-242 113,-182 15,-182"/>
</a>
</g>
</g>
<!-- Node3&#45;&gt;Node2 -->
<g id="edge2_Node000002_Node000003" class="edge">
<title>Node3&#45;&gt;Node2</title>
<g id="a_edge2_Node000002_Node000003"><a xlink:title=" ">
<path fill="none" stroke="#63b8ff" d="M64,-171.41C64,-162.47 64,-153.25 64,-145.21"/>
<polygon fill="none" stroke="#63b8ff" points="60.5,-171.69 64,-181.69 67.5,-171.69 60.5,-171.69"/>
</a>
</g>
</g>
</g>
</svg>
