<?xml version="1.0" encoding="UTF-8" standalone="no"?>
<!DOCTYPE svg PUBLIC "-//W3C//DTD SVG 1.1//EN"
 "http://www.w3.org/Graphics/SVG/1.1/DTD/svg11.dtd">
<!-- Generated by graphviz version 2.43.0 (0)
 -->
<!-- Title: SceneData Pages: 1 -->
<!--zoomable 522 -->

<svg id="main" version="1.1" xmlns="http://www.w3.org/2000/svg" xmlns:xlink="http://www.w3.org/1999/xlink" xml:space="preserve" onload="init(evt)">
<style type="text/css"><![CDATA[
.node, .edge {opacity: 0.7;}
.node.selected, .edge.selected {opacity: 1;}
.edge:hover path { stroke: red; }
.edge:hover polygon { stroke: red; fill: red; }
]]></style>

<defs>
  <circle id="rim" cx="0" cy="0" r="7"/>
  <circle id="rim2" cx="0" cy="0" r="3.5"/>
  <g id="zoomPlus">
    <use xlink:href="#rim" fill="#404040"><set attributeName="fill" to="#808080" begin="zoomplus.mouseover" end="zoomplus.mouseout"/></use>
    <path d="M-4,0h8M0,-4v8" fill="none" stroke="white" stroke-width="1.5" pointer-events="none"/>
  </g>
  <g id="zoomMin">
    <use xlink:href="#rim" fill="#404040"><set attributeName="fill" to="#808080" begin="zoomminus.mouseover" end="zoomminus.mouseout"/></use>
    <path d="M-4,0h8" fill="none" stroke="white" stroke-width="1.5" pointer-events="none"/>
  </g>
  <g id="arrowUp" transform="translate(30 24)">
    <use xlink:href="#rim"/>
    <path pointer-events="none" fill="none" stroke="white" stroke-width="1.5" d="M0,-3.0v7 M-2.5,-0.5L0,-3.0L2.5,-0.5"/>
  </g>
  <g id="arrowRight" transform="rotate(90) translate(36 -43)">
    <use xlink:href="#rim"/>
    <path pointer-events="none" fill="none" stroke="white" stroke-width="1.5" d="M0,-3.0v7 M-2.5,-0.5L0,-3.0L2.5,-0.5"/>
  </g>
  <g id="arrowDown" transform="rotate(180) translate(-30 -48)">
    <use xlink:href="#rim"/>
    <path pointer-events="none" fill="none" stroke="white" stroke-width="1.5" d="M0,-3.0v7 M-2.5,-0.5L0,-3.0L2.5,-0.5"/>
  </g>
  <g id="arrowLeft" transform="rotate(270) translate(-36 17)">
    <use xlink:href="#rim"/>
    <path pointer-events="none" fill="none" stroke="white" stroke-width="1.5" d="M0,-3.0v7 M-2.5,-0.5L0,-3.0L2.5,-0.5"/>
  </g>
  <g id="resetDef">
    <use xlink:href="#rim2" fill="#404040"><set attributeName="fill" to="#808080" begin="reset.mouseover" end="reset.mouseout"/></use>
  </g>
</defs>
<script type="application/ecmascript">
var viewWidth = 417;
var viewHeight = 522;
var sectionId = 'dynsection-0';
</script>
<script type="application/ecmascript" xlink:href="svg.min.js"/>
<svg id="graph" class="graph">
<g id="viewport">
<title>SceneData</title>
<!-- Node1 -->
<g id="Node000001" class="node">
<title>Node1</title>
<g id="a_Node000001"><a xlink:title="Full parsed scene: a building, its nodes and its corridors.">
<polygon fill="#999999" stroke="transparent" points="191.25,-139 91.25,-139 91.25,0 191.25,0 191.25,-139"/>
<text text-anchor="start" x="114.75" y="-126.5" font-family="Helvetica,sans-Serif" font-size="10.00">SceneData</text>
<text text-anchor="start" x="95.25" y="-111.5" font-family="Helvetica,sans-Serif" font-size="10.00">+</text>
<text text-anchor="start" x="108.25" y="-111.5" font-family="Helvetica,sans-Serif" font-size="10.00">fire_spread_rate</text>
<text text-anchor="start" x="95.25" y="-96.5" font-family="Helvetica,sans-Serif" font-size="10.00">+</text>
<text text-anchor="start" x="108.25" y="-96.5" font-family="Helvetica,sans-Serif" font-size="10.00">floors</text>
<text text-anchor="start" x="95.25" y="-81.5" font-family="Helvetica,sans-Serif" font-size="10.00">+</text>
<text text-anchor="start" x="108.25" y="-81.5" font-family="Helvetica,sans-Serif" font-size="10.00">appendEdge()</text>
<text text-anchor="start" x="95.25" y="-66.5" font-family="Helvetica,sans-Serif" font-size="10.00">+</text>
<text text-anchor="start" x="108.25" y="-66.5" font-family="Helvetica,sans-Serif" font-size="10.00">appendNode()</text>
<text text-anchor="start" x="95.25" y="-51.5" font-family="Helvetica,sans-Serif" font-size="10.00">+</text>
<text text-anchor="start" x="108.25" y="-51.5" font-family="Helvetica,sans-Serif" font-size="10.00">operator=()</text>
<text text-anchor="start" x="95.25" y="-36.5" font-family="Helvetica,sans-Serif" font-size="10.00">+</text>
<text text-anchor="start" x="108.25" y="-36.5" font-family="Helvetica,sans-Serif" font-size="10.00">SceneData()</text>
<text text-anchor="start" x="95.25" y="-21.5" font-family="Helvetica,sans-Serif" font-size="10.00">+</text>
<text text-anchor="start" x="108.25" y="-21.5" font-family="Helvetica,sans-Serif" font-size="10.00">SceneData()</text>
<text text-anchor="start" x="95.25" y="-6.5" font-family="Helvetica,sans-Serif" font-size="10.00">+</text>
<text text-anchor="start" x="108.25" y="-6.5" font-family="Helvetica,sans-Serif" font-size="10.00">~SceneData()</text>
<polygon fill="#666666" stroke="#666666" points="91.25,-121.5 91.25,-121.5 191.25,-121.5 191.25,-121.5 91.25,-121.5"/>
<polygon fill="#666666" stroke="#666666" points="91.25,-91.5 91.25,-91.5 106.25,-91.5 106.25,-91.5 91.25,-91.5"/>
<polygon fill="#666666" stroke="#666666" points="106.25,-91.5 106.25,-91.5 191.25,-91.5 191.25,-91.5 106.25,-91.5"/>
<polygon fill="none" stroke="#666666" points="91.25,0 91.25,-139 191.25,-139 191.25,0 91.25,0"/>
</a>
</g>
</g>
<!-- Node2 -->
<g id="Node000002" class="node">
<title>Node2</title>
<g id="a_Node000002"><a xlink:title=" ">
<polygon fill="white" stroke="transparent" points="170.75,-417 111.75,-417 111.75,-368 170.75,-368 170.75,-417"/>
<text text-anchor="start" x="117.25" y="-404.5" font-family="Helvetica,sans-Serif" font-size="10.00">std::string</text>
<text text-anchor="start" x="139.75" y="-389.5" font-family="Helvetica,sans-Serif" font-size="10.00"> </text>
<text text-anchor="start" x="139.75" y="-374.5" font-family="Helvetica,sans-Serif" font-size="10.00"> </text>
<polygon fill="#666666" stroke="#666666" points="112.25,-399.5 112.25,-399.5 171.25,-399.5 171.25,-399.5 112.25,-399.5"/>
<polygon fill="#666666" stroke="#666666" points="112.25,-384.5 112.25,-384.5 171.25,-384.5 171.25,-384.5 112.25,-384.5"/>
<polygon fill="none" stroke="#666666" points="111.75,-368 111.75,-417 170.75,-417 170.75,-368 111.75,-368"/>
</a>
</g>
</g>
<!-- Node2&#45;&gt;Node1 -->
<g id="edge1_Node000001_Node000002" class="edge">
<title>Node2&#45;&gt;Node1</title>
<g id="a_edge1_Node000001_Node000002"><a xlink:title=" ">
<path fill="none" stroke="#63b8ff" d="M111.62,-381.39C81.92,-369.49 37.88,-346.56 18.25,-310 -7.83,-261.45 -3.64,-236.58 18.25,-186 31.44,-155.5 57.1,-129.35 81.58,-109.69"/>
<polygon fill="none" stroke="#63b8ff" points="81.75,-109.56 84.04,-102.72 91.23,-102.2 88.94,-109.04 81.75,-109.56"/>
</a>
</g>
<text text-anchor="middle" x="48.75" y="-245.5" font-family="Helvetica,sans-Serif" font-size="10.00" fill="grey"> +fire_origin</text>
</g>
<!-- Node4 -->
<g id="Node000004" class="node">
<title>Node4</title>
<g id="a_Node000004"><a xlink:href="structSceneNode.html" target="_top" xlink:title="One building node (room, hallway, stairwell or exit).">
<polygon fill="white" stroke="transparent" points="193.75,-310 88.75,-310 88.75,-186 193.75,-186 193.75,-310"/>
<text text-anchor="start" x="114.25" y="-298" font-family="Helvetica,sans-Serif" font-size="10.00">SceneNode</text>
<text text-anchor="start" x="93.25" y="-283" font-family="Helvetica,sans-Serif" font-size="10.00">+</text>
<text text-anchor="start" x="106.25" y="-283" font-family="Helvetica,sans-Serif" font-size="10.00">flammability</text>
<text text-anchor="start" x="93.25" y="-268" font-family="Helvetica,sans-Serif" font-size="10.00">+</text>
<text text-anchor="start" x="106.25" y="-268" font-family="Helvetica,sans-Serif" font-size="10.00">floor</text>
<text text-anchor="start" x="93.25" y="-253" font-family="Helvetica,sans-Serif" font-size="10.00">+</text>
<text text-anchor="start" x="106.25" y="-253" font-family="Helvetica,sans-Serif" font-size="10.00">occupants</text>
<text text-anchor="start" x="93.25" y="-238" font-family="Helvetica,sans-Serif" font-size="10.00">+</text>
<text text-anchor="start" x="106.25" y="-238" font-family="Helvetica,sans-Serif" font-size="10.00">x</text>
<text text-anchor="start" x="93.25" y="-223" font-family="Helvetica,sans-Serif" font-size="10.00">+</text>
<text text-anchor="start" x="106.25" y="-223" font-family="Helvetica,sans-Serif" font-size="10.00">y</text>
<text text-anchor="start" x="93.25" y="-208" font-family="Helvetica,sans-Serif" font-size="10.00">+</text>
<text text-anchor="start" x="106.25" y="-208" font-family="Helvetica,sans-Serif" font-size="10.00">hasCoordinates()</text>
<text text-anchor="start" x="93.25" y="-193" font-family="Helvetica,sans-Serif" font-size="10.00">+</text>
<text text-anchor="start" x="106.25" y="-193" font-family="Helvetica,sans-Serif" font-size="10.00">SceneNode()</text>
<polygon fill="#666666" stroke="#666666" points="89.25,-293 89.25,-293 194.25,-293 194.25,-293 89.25,-293"/>
<polygon fill="#666666" stroke="#666666" points="89.25,-218 89.25,-218 104.25,-218 104.25,-218 89.25,-218"/>
<polygon fill="#666666" stroke="#666666" points="104.25,-218 104.25,-218 194.25,-218 194.25,-218 104.25,-218"/>
<polygon fill="none" stroke="#666666" points="88.75,-186 88.75,-310 193.75,-310 193.75,-186 88.75,-186"/>
</a>
</g>
</g>
<!-- Node2&#45;&gt;Node4 -->
<g id="edge4_Node000004_Node000002" class="edge">
<title>Node2&#45;&gt;Node4</title>
<g id="a_edge4_Node000004_Node000002"><a xlink:title=" ">
<path fill="none" stroke="#63b8ff" d="M141.25,-367.97C141.25,-355.25 141.25,-338.77 141.25,-322.15"/>
<polygon fill="none" stroke="#63b8ff" points="141.25,-322.08 137.25,-316.08 141.25,-310.08 145.25,-316.08 141.25,-322.08"/>
</a>
</g>
<text text-anchor="middle" x="156.75" y="-342" font-family="Helvetica,sans-Serif" font-size="10.00" fill="grey"> +id</text>
<text text-anchor="middle" x="156.75" y="-331" font-family="Helvetica,sans-Serif" font-size="10.00" fill="grey">+type</text>
</g>
<!-- Node5 -->
<g id="Node000005" class="node">
<title>Node5</title>
<g id="a_Node000005"><a xlink:href="structSceneEdge.html" target="_top" xlink:title="One corridor (graph edge) connecting two nodes.">
<polygon fill="white" stroke="transparent" points="356.75,-287.5 263.75,-287.5 263.75,-208.5 356.75,-208.5 356.75,-287.5"/>
<text text-anchor="start" x="283.75" y="-275" font-family="Helvetica,sans-Serif" font-size="10.00">SceneEdge</text>
<text text-anchor="start" x="268.25" y="-260" font-family="Helvetica,sans-Serif" font-size="10.00">+</text>
<text text-anchor="start" x="281.25" y="-260" font-family="Helvetica,sans-Serif" font-size="10.00">capacity</text>
<text text-anchor="start" x="268.25" y="-245" font-family="Helvetica,sans-Serif" font-size="10.00">+</text>
<text text-anchor="start" x="281.25" y="-245" font-family="Helvetica,sans-Serif" font-size="10.00">flammability</text>
<text text-anchor="start" x="268.25" y="-230" font-family="Helvetica,sans-Serif" font-size="10.00">+</text>
<text text-anchor="start" x="281.25" y="-230" font-family="Helvetica,sans-Serif" font-size="10.00">traversal_time</text>
<text text-anchor="start" x="268.25" y="-215" font-family="Helvetica,sans-Serif" font-size="10.00">+</text>
<text text-anchor="start" x="281.25" y="-215" font-family="Helvetica,sans-Serif" font-size="10.00">SceneEdge()</text>
<polygon fill="#666666" stroke="#666666" points="264.25,-270 264.25,-270 357.25,-270 357.25,-270 264.25,-270"/>
<polygon fill="#666666" stroke="#666666" points="264.25,-225 264.25,-225 279.25,-225 279.25,-225 264.25,-225"/>
<polygon fill="#666666" stroke="#666666" points="279.25,-225 279.25,-225 357.25,-225 357.25,-225 279.25,-225"/>
<polygon fill="none" stroke="#666666" points="263.75,-208.5 263.75,-287.5 356.75,-287.5 356.75,-208.5 263.75,-208.5"/>
</a>
</g>
</g>
<!-- Node2&#45;&gt;Node5 -->
<g id="edge7_Node000005_Node000002" class="edge">
<title>Node2&#45;&gt;Node5</title>
<g id="a_edge7_Node000005_Node000002"><a xlink:title=" ">
<path fill="none" stroke="#63b8ff" d="M171.14,-372.71C194.94,-357.16 228.57,-333.82 255.25,-310 259.91,-305.83 264.6,-301.3 269.15,-296.66"/>
<polygon fill="none" stroke="#63b8ff" points="269.45,-296.34 270.69,-289.23 277.72,-287.64 276.49,-294.75 269.45,-296.34"/>
</a>
</g>
<text text-anchor="middle" x="249.75" y="-342" font-family="Helvetica,sans-Serif" font-size="10.00" fill="grey"> +from</text>
<text text-anchor="middle" x="249.75" y="-331" font-family="Helvetica,sans-Serif" font-size="10.00" fill="grey">+to</text>
</g>
<!-- Node3 -->
<g id="Node000003" class="node">
<title>Node3</title>
<g id="a_Node000003"><a xlink:title=" ">
<polygon fill="white" stroke="transparent" points="190.25,-514 92.25,-514 92.25,-454 190.25,-454 190.25,-514"/>
<text text-anchor="start" x="97.25" y="-502" font-family="Helvetica,sans-Serif" font-size="10.00">std::basic_string&lt;</text>
<text text-anchor="start" x="122.75" y="-491" font-family="Helvetica,sans-Serif" font-size="10.00"> Char &gt;</text>
<text text-anchor="start" x="139.25" y="-476" font-family="Helvetica,sans-Serif" font-size="10.00"> </text>
<text text-anchor="start" x="139.25" y="-461" font-family="Helvetica,sans-Serif" font-size="10.00"> </text>
<polygon fill="#666666" stroke="#666666" points="92.25,-486 92.25,-486 190.25,-486 190.25,-486 92.25,-486"/>
<polygon fill="#666666" stroke="#666666" points="92.25,-471 92.25,-471 190.25,-471 190.25,-471 92.25,-471"/>
<polygon fill="none" stroke="#666666" points="92.25,-454 92.25,-514 190.25,-514 190.25,-454 92.25,-454"/>
</a>
</g>
</g>
<!-- Node3&#45;&gt;Node2 -->
<g id="edge2_Node000002_Node000003" class="edge">
<title>Node3&#45;&gt;Node2</title>
<g id="a_edge2_Node000002_Node000003"><a xlink:title=" ">
<path fill="none" stroke="#63b8ff" d="M141.25,-443.41C141.25,-434.47 141.25,-425.25 141.25,-417.21"/>
<polygon fill="none" stroke="#63b8ff" points="137.75,-443.69 141.25,-453.69 144.75,-443.69 137.75,-443.69"/>
</a>
</g>
</g>
<!-- Node4&#45;&gt;Node1 -->
<g id="edge3_Node000001_Node000004" class="edge">
<title>Node4&#45;&gt;Node1</title>
<g id="a_edge3_Node000001_Node000004"><a xlink:title=" ">
<path fill="none" stroke="#63b8ff" d="M141.25,-185.76C141.25,-174.61 141.25,-162.81 141.25,-151.19"/>
<polygon fill="none" stroke="#63b8ff" points="141.25,-151.18 137.25,-145.18 141.25,-139.18 145.25,-145.18 141.25,-151.18"/>
</a>
</g>
<text text-anchor="middle" x="161.75" y="-160" font-family="Helvetica,sans-Serif" font-size="10.00" fill="grey"> +nodes</text>
</g>
<!-- Node4&#45;&gt;Node4 -->
<g id="edge5_Node000004_Node000004" class="edge">
<title>Node4&#45;&gt;Node4</title>
<g id="a_edge5_Node000004_Node000004"><a xlink:title=" ">
<path fill="none" stroke="#63b8ff" d="M193.82,-263.1C204.29,-261.4 211.75,-256.37 211.75,-248 211.75,-243.29 209.39,-239.64 205.46,-237.04"/>
<polygon fill="none" stroke="#63b8ff" points="205.13,-236.93 198.13,-238.68 193.82,-232.9 200.82,-231.15 205.13,-236.93"/>
</a>
</g>
<text text-anchor="middle" x="228.75" y="-245.5" font-family="Helvetica,sans-Serif" font-size="10.00" fill="grey"> +next</text>
</g>
<!-- Node5&#45;&gt;Node1 -->
<g id="edge6_Node000001_Node000005" class="edge">
<title>Node5&#45;&gt;Node1</title>
<g id="a_edge6_Node000001_Node000005"><a xlink:title=" ">
<path fill="none" stroke="#63b8ff" d="M275.89,-208.36C269.11,-200.89 262,-193.16 255.25,-186 237.55,-167.24 217.94,-147.14 200.04,-129.04"/>
<polygon fill="none" stroke="#63b8ff" points="199.86,-128.85 192.79,-127.41 191.41,-120.33 198.47,-121.78 199.86,-128.85"/>
</a>
</g>
<text text-anchor="middle" x="257.75" y="-160" font-family="Helvetica,sans-Serif" font-size="10.00" fill="grey"> +edges</text>
</g>
<!-- Node5&#45;&gt;Node5 -->
<g id="edge8_Node000005_Node000005" class="edge">
<title>Node5&#45;&gt;Node5</title>
<g id="a_edge8_Node000005_Node000005"><a xlink:title=" ">
<path fill="none" stroke="#63b8ff" d="M356.92,-263.33C367.23,-261.89 374.75,-256.78 374.75,-248 374.75,-243.06 372.37,-239.29 368.45,-236.67"/>
<polygon fill="none" stroke="#63b8ff" points="368.26,-236.6 361.28,-238.42 356.92,-232.67 363.9,-230.86 368.26,-236.6"/>
</a>
</g>
<text text-anchor="middle" x="391.75" y="-245.5" font-family="Helvetica,sans-Serif" font-size="10.00" fill="grey"> +next</text>
</g>
</g>
</svg>

<g id="navigator" transform="translate(0 0)" fill="#404254">
  <rect fill="#f2f5e9" fill-opacity="0.5" stroke="#606060" stroke-width=".5" x="0" y="0" width="60" height="60"/>
  <use id="zoomplus" xlink:href="#zoomPlus" x="17" y="9" onmousedown="handleZoom(evt,'in')"/>
  <use id="zoomminus" xlink:href="#zoomMin" x="42" y="9" onmousedown="handleZoom(evt,'out')"/>
  <use id="reset" xlink:href="#resetDef" x="30" y="36" onmousedown="handleReset()"/>
   <use id="arrowup" xlink:href="#arrowUp" x="0" y="0" onmousedown="handlePan(0,-1)"/>
  <use id="arrowright" xlink:href="#arrowRight" x="0" y="0" onmousedown="handlePan(1,0)"/>
  <use id="arrowdown" xlink:href="#arrowDown" x="0" y="0" onmousedown="handlePan(0,1)"/>
  <use id="arrowleft" xlink:href="#arrowLeft" x="0" y="0" onmousedown="handlePan(-1,0)"/>
</g>
<svg viewBox="0 0 15 15" width="100%" height="30px" preserveAspectRatio="xMaxYMin meet">
 <g id="arrow_out" transform="scale(0.3 0.3)">
  <a xlink:href="structSceneData__coll__graph_org.svg" target="_base">
   <rect id="button" ry="5" rx="5" y="6" x="6" height="38" width="38"
        fill="#f2f5e9" fill-opacity="0.5" stroke="#606060" stroke-width="1.0"/>
   <path id="arrow"
     d="M 11.500037,31.436501 C 11.940474,20.09759 22.043105,11.32322 32.158766,21.979434 L 37.068811,17.246167 C 37.068811,17.246167 37.088388,32 37.088388,32 L 22.160133,31.978069 C 22.160133,31.978069 26.997745,27.140456 26.997745,27.140456 C 18.528582,18.264221 13.291696,25.230495 11.500037,31.436501 z"
     style="fill:#404040;"/>
  </a>
 </g>
</svg>

<style type='text/css'>
<![CDATA[
[data-mouse-over-selected='false'] { opacity: 0.7; }
[data-mouse-over-selected='true']  { opacity: 1.0; }
]]>
</style>
<script type="application/ecmascript"><![CDATA[
document.addEventListener('DOMContentLoaded', (event) => {
  highlightEdges();
  highlightAdjacentNodes();
});
]]></script>
</svg>
