<?xml version="1.0" encoding="UTF-8" standalone="no"?>
<!DOCTYPE svg PUBLIC "-//W3C//DTD SVG 1.1//EN"
 "http://www.w3.org/Graphics/SVG/1.1/DTD/svg11.dtd">
<!-- Generated by graphviz version 2.43.0 (0)
 -->
<!-- Title: FireSimulator::DjItem Pages: 1 -->
<svg width="167pt" height="436pt"
 viewBox="0.00 0.00 166.50 436.00" xmlns="http://www.w3.org/2000/svg" xmlns:xlink="http://www.w3.org/1999/xlink">

<svg id="main" version="1.1" xmlns="http://www.w3.org/2000/svg" xmlns:xlink="http://www.w3.org/1999/xlink" xml:space="preserve" onload="init(evt)">
<style type="text/css"><![CDATA[
.node, .edge {opacity: 0.7;}
.node.selected, .edge.selected {opacity: 1;}
.edge:hover path { stroke: red; }
.edge:hover polygon { stroke: red; fill: red; }
]]></style>
<script type="application/ecmascript" xlink:href="svg.min.js"/>
<svg id="graph" class="graph">
<g id="graph0" class="graph" transform="scale(1 1) rotate(0) translate(4 432)">
<title>FireSimulator::DjItem</title>
<!-- Node1 -->
<g id="Node000001" class="node">
<title>Node1</title>
<g id="a_Node000001"><a xlink:title="Priority&#45;queue item for the fire&#45;aware Dijkstra.">
<polygon fill="#999999" stroke="transparent" points="115,-49 0,-49 0,0 115,0 115,-49"/>
<text text-anchor="start" x="5.5" y="-36.5" font-family="Helvetica,sans-Serif" font-size="10.00">FireSimulator::DjItem</text>
<text text-anchor="start" x="17.5" y="-21.5" font-family="Helvetica,sans-Serif" font-size="10.00">+</text>
<text text-anchor="start" x="43.5" y="-21.5" font-family="Helvetica,sans-Serif" font-size="10.00">distance</text>
<text text-anchor="start" x="56" y="-6.5" font-family="Helvetica,sans-Serif" font-size="10.00"> </text>
<polygon fill="#666666" stroke="#666666" points="0.5,-31.5 0.5,-31.5 115.5,-31.5 115.5,-31.5 0.5,-31.5"/>
<polygon fill="#666666" stroke="#666666" points="0.5,-16.5 0.5,-16.5 41.5,-16.5 41.5,-16.5 0.5,-16.5"/>
<polygon fill="#666666" stroke="#666666" points="41.5,-16.5 41.5,-16.5 115.5,-16.5 115.5,-16.5 41.5,-16.5"/>
<polygon fill="none" stroke="#666666" points="0,0 0,-49 115,-49 115,0 0,0"/>
</a>
</g>
</g>
<!-- Node2 -->
<g id="Node000002" class="node">
<title>Node2</title>
<g id="a_Node000002"><a xlink:href="structCellNode.html" target="_top" xlink:title="A simulation&#45;side node mirroring a Graph vertex.">
<polygon fill="white" stroke="transparent" points="106.5,-235 8.5,-235 8.5,-96 106.5,-96 106.5,-235"/>
<text text-anchor="start" x="35" y="-222.5" font-family="Helvetica,sans-Serif" font-size="10.00">CellNode</text>
<text text-anchor="start" x="12.5" y="-207.5" font-family="Helvetica,sans-Serif" font-size="10.00">+</text>
<text text-anchor="start" x="25.5" y="-207.5" font-family="Helvetica,sans-Serif" font-size="10.00">fire_intensity</text>
<text text-anchor="start" x="12.5" y="-192.5" font-family="Helvetica,sans-Serif" font-size="10.00">+</text>
<text text-anchor="start" x="25.5" y="-192.5" font-family="Helvetica,sans-Serif" font-size="10.00">flammability</text>
<text text-anchor="start" x="12.5" y="-177.5" font-family="Helvetica,sans-Serif" font-size="10.00">+</text>
<text text-anchor="start" x="25.5" y="-177.5" font-family="Helvetica,sans-Serif" font-size="10.00">floor</text>
<text text-anchor="start" x="12.5" y="-162.5" font-family="Helvetica,sans-Serif" font-size="10.00">+</text>
<text text-anchor="start" x="25.5" y="-162.5" font-family="Helvetica,sans-Serif" font-size="10.00">is_exit</text>
<text text-anchor="start" x="12.5" y="-147.5" font-family="Helvetica,sans-Serif" font-size="10.00">+</text>
<text text-anchor="start" x="25.5" y="-147.5" font-family="Helvetica,sans-Serif" font-size="10.00">on_fire</text>
<text text-anchor="start" x="12.5" y="-132.5" font-family="Helvetica,sans-Serif" font-size="10.00">+</text>
<text text-anchor="start" x="25.5" y="-132.5" font-family="Helvetica,sans-Serif" font-size="10.00">people_in_node</text>
<text text-anchor="start" x="12.5" y="-117.5" font-family="Helvetica,sans-Serif" font-size="10.00">+</text>
<text text-anchor="start" x="25.5" y="-117.5" font-family="Helvetica,sans-Serif" font-size="10.00">type</text>
<text text-anchor="start" x="12.5" y="-102.5" font-family="Helvetica,sans-Serif" font-size="10.00">+</text>
<text text-anchor="start" x="25.5" y="-102.5" font-family="Helvetica,sans-Serif" font-size="10.00">CellNode()</text>
<polygon fill="#666666" stroke="#666666" points="8.5,-217.5 8.5,-217.5 106.5,-217.5 106.5,-217.5 8.5,-217.5"/>
<polygon fill="#666666" stroke="#666666" points="8.5,-112.5 8.5,-112.5 23.5,-112.5 23.5,-112.5 8.5,-112.5"/>
<polygon fill="#666666" stroke="#666666" points="23.5,-112.5 23.5,-112.5 106.5,-112.5 106.5,-112.5 23.5,-112.5"/>
<polygon fill="none" stroke="#666666" points="8.5,-96 8.5,-235 106.5,-235 106.5,-96 8.5,-96"/>
</a>
</g>
</g>
<!-- Node2&#45;&gt;Node1 -->
<g id="edge1_Node000001_Node000002" class="edge">
<title>Node2&#45;&gt;Node1</title>
<g id="a_edge1_Node000001_Node000002"><a xlink:title=" ">
<path fill="none" stroke="#63b8ff" d="M57.5,-95.81C57.5,-83.85 57.5,-71.86 57.5,-61.25"/>
<polygon fill="none" stroke="#63b8ff" points="57.5,-61.09 53.5,-55.09 57.5,-49.09 61.5,-55.09 57.5,-61.09"/>
</a>
</g>
<text text-anchor="middle" x="75.5" y="-70" font-family="Helvetica,sans-Serif" font-size="10.00" fill="grey"> +node</text>
</g>
<!-- Node2&#45;&gt;Node2 -->
<g id="edge4_Node000002_Node000002" class="edge">
<title>Node2&#45;&gt;Node2</title>
<g id="a_edge4_Node000002_Node000002"><a xlink:title=" ">
<path fill="none" stroke="#63b8ff" d="M106.58,-182.19C116.99,-180.5 124.5,-174.93 124.5,-165.5 124.5,-160.05 121.99,-155.89 117.86,-153.02"/>
<polygon fill="none" stroke="#63b8ff" points="117.82,-153 110.8,-154.65 106.58,-148.81 113.6,-147.16 117.82,-153"/>
</a>
</g>
<text text-anchor="middle" x="141.5" y="-163" font-family="Helvetica,sans-Serif" font-size="10.00" fill="grey"> +next</text>
</g>
<!-- Node3 -->
<g id="Node000003" class="node">
<title>Node3</title>
<g id="a_Node000003"><a xlink:title=" ">
<polygon fill="white" stroke="transparent" points="87,-331 28,-331 28,-282 87,-282 87,-331"/>
<text text-anchor="start" x="33.5" y="-318.5" font-family="Helvetica,sans-Serif" font-size="10.00">std::string</text>
<text text-anchor="start" x="56" y="-303.5" font-family="Helvetica,sans-Serif" font-size="10.00"> </text>
<text text-anchor="start" x="56" y="-288.5" font-family="Helvetica,sans-Serif" font-size="10.00"> </text>
<polygon fill="#666666" stroke="#666666" points="28.5,-313.5 28.5,-313.5 87.5,-313.5 87.5,-313.5 28.5,-313.5"/>
<polygon fill="#666666" stroke="#666666" points="28.5,-298.5 28.5,-298.5 87.5,-298.5 87.5,-298.5 28.5,-298.5"/>
<polygon fill="none" stroke="#666666" points="28,-282 28,-331 87,-331 87,-282 28,-282"/>
</a>
</g>
</g>
<!-- Node3&#45;&gt;Node2 -->
<g id="edge2_Node000002_Node000003" class="edge">
<title>Node3&#45;&gt;Node2</title>
<g id="a_edge2_Node000002_Node000003"><a xlink:title=" ">
<path fill="none" stroke="#63b8ff" d="M57.5,-281.92C57.5,-272.06 57.5,-259.97 57.5,-247.36"/>
<polygon fill="none" stroke="#63b8ff" points="57.5,-247.17 53.5,-241.17 57.5,-235.17 61.5,-241.17 57.5,-247.17"/>
</a>
</g>
<text text-anchor="middle" x="68" y="-256" font-family="Helvetica,sans-Serif" font-size="10.00" fill="grey"> +id</text>
</g>
<!-- Node4 -->
<g id="Node000004" class="node">
<title>Node4</title>
<g id="a_Node000004"><a xlink:title=" ">
<polygon fill="white" stroke="transparent" points="106.5,-428 8.5,-428 8.5,-368 106.5,-368 106.5,-428"/>
<text text-anchor="start" x="13.5" y="-416" font-family="Helvetica,sans-Serif" font-size="10.00">std::basic_string&lt;</text>
<text text-anchor="start" x="39" y="-405" font-family="Helvetica,sans-Serif" font-size="10.00"> Char &gt;</text>
<text text-anchor="start" x="55.5" y="-390" font-family="Helvetica,sans-Serif" font-size="10.00"> </text>
<text text-anchor="start" x="55.5" y="-375" font-family="Helvetica,sans-Serif" font-size="10.00"> </text>
<polygon fill="#666666" stroke="#666666" points="8.5,-400 8.5,-400 106.5,-400 106.5,-400 8.5,-400"/>
<polygon fill="#666666" stroke="#666666" points="8.5,-385 8.5,-385 106.5,-385 106.5,-385 8.5,-385"/>
<polygon fill="none" stroke="#666666" points="8.5,-368 8.5,-428 106.5,-428 106.5,-368 8.5,-368"/>
</a>
</g>
</g>
<!-- Node4&#45;&gt;Node3 -->
<g id="edge3_Node000003_Node000004" class="edge">
<title>Node4&#45;&gt;Node3</title>
<g id="a_edge3_Node000003_Node000004"><a xlink:title=" ">
<path fill="none" stroke="#63b8ff" d="M57.5,-357.41C57.5,-348.47 57.5,-339.25 57.5,-331.21"/>
<polygon fill="none" stroke="#63b8ff" points="54,-357.69 57.5,-367.69 61,-357.69 54,-357.69"/>
</a>
</g>
</g>
</g>
</svg>
</svg>

<style type='text/css'>
<![CDATA[
[data-mouse-over-selected='false'] { opacity: 0.7; }
[data-mouse-over-selected='true']  { opacity: 1.0; }
]]>
</style>
<script type="application/ecmascript"><![CDATA[
document.addEventListener('DOMContentLoaded', (event) => {
  highlightEdges();
  highlightAdjacentNodes();
});
]]></script>
</svg>
