<?xml version="1.0" encoding="UTF-8" standalone="no"?>
<!DOCTYPE svg PUBLIC "-//W3C//DTD SVG 1.1//EN"
 "http://www.w3.org/Graphics/SVG/1.1/DTD/svg11.dtd">
<!-- Generated by graphviz version 2.43.0 (0)
 -->
<!-- Title: Graph::Vertex Pages: 1 -->
<svg width="156pt" height="421pt"
 viewBox="0.00 0.00 155.50 421.00" xmlns="http://www.w3.org/2000/svg" xmlns:xlink="http://www.w3.org/1999/xlink">

<svg id="main" version="1.1" xmlns="http://www.w3.org/2000/svg" xmlns:xlink="http://www.w3.org/1999/xlink" xml:space="preserve" onload="init(evt)">
<style type="text/css"><![CDATA[
.node, .edge {opacity: 0.7;}
.node.selected, .edge.selected {opacity: 1;}
.edge:hover path { stroke: red; }
.edge:hover polygon { stroke: red; fill: red; }
]]></style>
<script type="application/ecmascript" xlink:href="svg.min.js"/>
<svg id="graph" class="graph">
<g id="graph0" class="graph" transform="scale(1 1) rotate(0) translate(4 417)">
<title>Graph::Vertex</title>
<!-- Node1 -->
<g id="Node000001" class="node">
<title>Node1</title>
<g id="a_Node000001"><a xlink:title="A vertex (node) in the graph.">
<polygon fill="#999999" stroke="transparent" points="87.5,-220 10.5,-220 10.5,-126 87.5,-126 87.5,-220"/>
<text text-anchor="start" x="16" y="-208" font-family="Helvetica,sans-Serif" font-size="10.00">Graph::Vertex</text>
<text text-anchor="start" x="16.5" y="-193" font-family="Helvetica,sans-Serif" font-size="10.00">+</text>
<text text-anchor="start" x="31" y="-193" font-family="Helvetica,sans-Serif" font-size="10.00">blocked</text>
<text text-anchor="start" x="16.5" y="-178" font-family="Helvetica,sans-Serif" font-size="10.00">+</text>
<text text-anchor="start" x="31" y="-178" font-family="Helvetica,sans-Serif" font-size="10.00">floor</text>
<text text-anchor="start" x="16.5" y="-163" font-family="Helvetica,sans-Serif" font-size="10.00">+</text>
<text text-anchor="start" x="31" y="-163" font-family="Helvetica,sans-Serif" font-size="10.00">occupants</text>
<text text-anchor="start" x="16.5" y="-148" font-family="Helvetica,sans-Serif" font-size="10.00">+</text>
<text text-anchor="start" x="31" y="-148" font-family="Helvetica,sans-Serif" font-size="10.00">type</text>
<text text-anchor="start" x="16.5" y="-133" font-family="Helvetica,sans-Serif" font-size="10.00">+</text>
<text text-anchor="start" x="31" y="-133" font-family="Helvetica,sans-Serif" font-size="10.00">Vertex()</text>
<polygon fill="#666666" stroke="#666666" points="11,-203 11,-203 88,-203 88,-203 11,-203"/>
<polygon fill="#666666" stroke="#666666" points="11,-143 11,-143 29,-143 29,-143 11,-143"/>
<polygon fill="#666666" stroke="#666666" points="29,-143 29,-143 88,-143 88,-143 29,-143"/>
<polygon fill="none" stroke="#666666" points="10.5,-126 10.5,-220 87.5,-220 87.5,-126 10.5,-126"/>
</a>
</g>
</g>
<!-- Node1&#45;&gt;Node1 -->
<g id="edge6_Node000001_Node000001" class="edge">
<title>Node1&#45;&gt;Node1</title>
<g id="a_edge6_Node000001_Node000001"><a xlink:title=" ">
<path fill="none" stroke="#63b8ff" d="M87.56,-186.01C97.77,-185.27 105.5,-180.93 105.5,-173 105.5,-168.66 103.19,-165.4 99.42,-163.21"/>
<polygon fill="none" stroke="#63b8ff" points="99.14,-163.14 92.3,-165.42 87.56,-159.99 94.39,-157.7 99.14,-163.14"/>
</a>
</g>
<text text-anchor="middle" x="122.5" y="-170.5" font-family="Helvetica,sans-Serif" font-size="10.00" fill="grey"> +next</text>
</g>
<!-- Node4 -->
<g id="Node000004" class="node">
<title>Node4</title>
<g id="a_Node000004"><a xlink:href="structGraph_1_1Edge.html" target="_top" xlink:title="A directed weighted edge between two vertices.">
<polygon fill="white" stroke="transparent" points="95.5,-79 2.5,-79 2.5,0 95.5,0 95.5,-79"/>
<text text-anchor="start" x="19.5" y="-66.5" font-family="Helvetica,sans-Serif" font-size="10.00">Graph::Edge</text>
<text text-anchor="start" x="7" y="-51.5" font-family="Helvetica,sans-Serif" font-size="10.00">+</text>
<text text-anchor="start" x="20" y="-51.5" font-family="Helvetica,sans-Serif" font-size="10.00">blocked</text>
<text text-anchor="start" x="7" y="-36.5" font-family="Helvetica,sans-Serif" font-size="10.00">+</text>
<text text-anchor="start" x="20" y="-36.5" font-family="Helvetica,sans-Serif" font-size="10.00">capacity</text>
<text text-anchor="start" x="7" y="-21.5" font-family="Helvetica,sans-Serif" font-size="10.00">+</text>
<text text-anchor="start" x="20" y="-21.5" font-family="Helvetica,sans-Serif" font-size="10.00">traversal_time</text>
<text text-anchor="start" x="7" y="-6.5" font-family="Helvetica,sans-Serif" font-size="10.00">+</text>
<text text-anchor="start" x="20" y="-6.5" font-family="Helvetica,sans-Serif" font-size="10.00">Edge()</text>
<polygon fill="#666666" stroke="#666666" points="3,-61.5 3,-61.5 96,-61.5 96,-61.5 3,-61.5"/>
<polygon fill="#666666" stroke="#666666" points="3,-16.5 3,-16.5 18,-16.5 18,-16.5 3,-16.5"/>
<polygon fill="#666666" stroke="#666666" points="18,-16.5 18,-16.5 96,-16.5 96,-16.5 18,-16.5"/>
<polygon fill="none" stroke="#666666" points="2.5,0 2.5,-79 95.5,-79 95.5,0 2.5,0"/>
</a>
</g>
</g>
<!-- Node1&#45;&gt;Node4 -->
<g id="edge4_Node000004_Node000001" class="edge">
<title>Node1&#45;&gt;Node4</title>
<g id="a_edge4_Node000004_Node000001"><a xlink:title=" ">
<path fill="none" stroke="#63b8ff" d="M25.44,-125.64C22.98,-116.27 22.01,-106.4 24,-97 24.45,-94.85 25,-92.68 25.61,-90.51"/>
<polygon fill="none" stroke="#63b8ff" points="25.65,-90.38 23.76,-83.42 29.46,-79 31.35,-85.96 25.65,-90.38"/>
</a>
</g>
<text text-anchor="middle" x="35" y="-100" font-family="Helvetica,sans-Serif" font-size="10.00" fill="grey"> +to</text>
</g>
<!-- Node2 -->
<g id="Node000002" class="node">
<title>Node2</title>
<g id="a_Node000002"><a xlink:title=" ">
<polygon fill="white" stroke="transparent" points="78.5,-316 19.5,-316 19.5,-267 78.5,-267 78.5,-316"/>
<text text-anchor="start" x="25" y="-303.5" font-family="Helvetica,sans-Serif" font-size="10.00">std::string</text>
<text text-anchor="start" x="47.5" y="-288.5" font-family="Helvetica,sans-Serif" font-size="10.00"> </text>
<text text-anchor="start" x="47.5" y="-273.5" font-family="Helvetica,sans-Serif" font-size="10.00"> </text>
<polygon fill="#666666" stroke="#666666" points="20,-298.5 20,-298.5 79,-298.5 79,-298.5 20,-298.5"/>
<polygon fill="#666666" stroke="#666666" points="20,-283.5 20,-283.5 79,-283.5 79,-283.5 20,-283.5"/>
<polygon fill="none" stroke="#666666" points="19.5,-267 19.5,-316 78.5,-316 78.5,-267 19.5,-267"/>
</a>
</g>
</g>
<!-- Node2&#45;&gt;Node1 -->
<g id="edge1_Node000001_Node000002" class="edge">
<title>Node2&#45;&gt;Node1</title>
<g id="a_edge1_Node000001_Node000002"><a xlink:title=" ">
<path fill="none" stroke="#63b8ff" d="M49,-266.92C49,-256.85 49,-244.6 49,-232.35"/>
<polygon fill="none" stroke="#63b8ff" points="49,-232.17 45,-226.17 49,-220.17 53,-226.17 49,-232.17"/>
</a>
</g>
<text text-anchor="middle" x="59.5" y="-241" font-family="Helvetica,sans-Serif" font-size="10.00" fill="grey"> +id</text>
</g>
<!-- Node3 -->
<g id="Node000003" class="node">
<title>Node3</title>
<g id="a_Node000003"><a xlink:title=" ">
<polygon fill="white" stroke="transparent" points="98,-413 0,-413 0,-353 98,-353 98,-413"/>
<text text-anchor="start" x="5" y="-401" font-family="Helvetica,sans-Serif" font-size="10.00">std::basic_string&lt;</text>
<text text-anchor="start" x="30.5" y="-390" font-family="Helvetica,sans-Serif" font-size="10.00"> Char &gt;</text>
<text text-anchor="start" x="47" y="-375" font-family="Helvetica,sans-Serif" font-size="10.00"> </text>
<text text-anchor="start" x="47" y="-360" font-family="Helvetica,sans-Serif" font-size="10.00"> </text>
<polygon fill="#666666" stroke="#666666" points="0,-385 0,-385 98,-385 98,-385 0,-385"/>
<polygon fill="#666666" stroke="#666666" points="0,-370 0,-370 98,-370 98,-370 0,-370"/>
<polygon fill="none" stroke="#666666" points="0,-353 0,-413 98,-413 98,-353 0,-353"/>
</a>
</g>
</g>
<!-- Node3&#45;&gt;Node2 -->
<g id="edge2_Node000002_Node000003" class="edge">
<title>Node3&#45;&gt;Node2</title>
<g id="a_edge2_Node000002_Node000003"><a xlink:title=" ">
<path fill="none" stroke="#63b8ff" d="M49,-342.41C49,-333.47 49,-324.25 49,-316.21"/>
<polygon fill="none" stroke="#63b8ff" points="45.5,-342.69 49,-352.69 52.5,-342.69 45.5,-342.69"/>
</a>
</g>
</g>
<!-- Node4&#45;&gt;Node1 -->
<g id="edge3_Node000001_Node000004" class="edge">
<title>Node4&#45;&gt;Node1</title>
<g id="a_edge3_Node000001_Node000004"><a xlink:title=" ">
<path fill="none" stroke="#63b8ff" d="M49.77,-79.1C49.87,-85.09 49.95,-91.21 50,-97 50.05,-102.42 50.05,-108.06 50.03,-113.71"/>
<polygon fill="none" stroke="#63b8ff" points="50.03,-113.99 53.98,-120.02 49.94,-125.99 45.98,-119.96 50.03,-113.99"/>
</a>
</g>
<text text-anchor="middle" x="80.5" y="-100" font-family="Helvetica,sans-Serif" font-size="10.00" fill="grey"> +adjacency</text>
</g>
<!-- Node4&#45;&gt;Node4 -->
<g id="edge5_Node000004_Node000004" class="edge">
<title>Node4&#45;&gt;Node4</title>
<g id="a_edge5_Node000004_Node000004"><a xlink:title=" ">
<path fill="none" stroke="#63b8ff" d="M95.67,-50.81C105.99,-49.75 113.5,-45.98 113.5,-39.5 113.5,-35.96 111.25,-33.22 107.53,-31.3"/>
<polygon fill="none" stroke="#63b8ff" points="107.28,-31.24 100.46,-33.58 95.67,-28.19 102.49,-25.84 107.28,-31.24"/>
</a>
</g>
<text text-anchor="middle" x="130.5" y="-37" font-family="Helvetica,sans-Serif" font-size="10.00" fill="grey"> +next</text>
</g>
</g>
</svg>
</svg>

<style type='text/css'>
<![CDATA[
[data-mouse-over-selected='false'] { opacity: 0.7; }
[data-mouse-over-selected='true']  { opacity: 1.0; }
]]>
</style>
<script type="application/ecmascript"><![CDATA[
document.addEventListener('DOMContentLoaded', (event) => {
  highlightEdges();
  highlightAdjacentNodes();
});
]]></script>
</svg>
