<?xml version="1.0" encoding="UTF-8" standalone="no"?>
<!DOCTYPE svg PUBLIC "-//W3C//DTD SVG 1.1//EN"
 "http://www.w3.org/Graphics/SVG/1.1/DTD/svg11.dtd">
<!-- Generated by graphviz version 2.43.0 (0)
 -->
<!-- Title: FireSimulator::EvacPath Pages: 1 -->
<svg width="179pt" height="648pt"
 viewBox="0.00 0.00 179.00 648.00" xmlns="http://www.w3.org/2000/svg" xmlns:xlink="http://www.w3.org/1999/xlink">
<g id="graph0" class="graph" transform="scale(1 1) rotate(0) translate(4 644)">
<title>FireSimulator::EvacPath</title>
<!-- Node1 -->
<g id="Node000001" class="node">
<title>Node1</title>
<g id="a_Node000001"><a xlink:title="Result of a fire&#45;aware evacuation path query.">
<polygon fill="#999999" stroke="transparent" points="128.5,-64 2.5,-64 2.5,0 128.5,0 128.5,-64"/>
<text text-anchor="start" x="7.5" y="-52" font-family="Helvetica,sans-Serif" font-size="10.00">FireSimulator::EvacPath</text>
<text text-anchor="start" x="19.5" y="-37" font-family="Helvetica,sans-Serif" font-size="10.00">+</text>
<text text-anchor="start" x="45.5" y="-37" font-family="Helvetica,sans-Serif" font-size="10.00">reachable</text>
<text text-anchor="start" x="19.5" y="-22" font-family="Helvetica,sans-Serif" font-size="10.00">+</text>
<text text-anchor="start" x="45.5" y="-22" font-family="Helvetica,sans-Serif" font-size="10.00">total_cost</text>
<text text-anchor="start" x="19.5" y="-7" font-family="Helvetica,sans-Serif" font-size="10.00">+</text>
<text text-anchor="start" x="45.5" y="-7" font-family="Helvetica,sans-Serif" font-size="10.00">EvacPath()</text>
<polygon fill="#666666" stroke="#666666" points="2.5,-47 2.5,-47 128.5,-47 128.5,-47 2.5,-47"/>
<polygon fill="#666666" stroke="#666666" points="2.5,-17 2.5,-17 43.5,-17 43.5,-17 2.5,-17"/>
<polygon fill="#666666" stroke="#666666" points="43.5,-17 43.5,-17 128.5,-17 128.5,-17 43.5,-17"/>
<polygon fill="none" stroke="#666666" points="2.5,0 2.5,-64 128.5,-64 128.5,0 2.5,0"/>
</a>
</g>
</g>
<!-- Node2 -->
<g id="Node000002" class="node">
<title>Node2</title>
<g id="a_Node000002"><a xlink:href="classLinkedList.html" target="_top" xlink:title=" ">
<polygon fill="white" stroke="transparent" points="131,-340 0,-340 0,-111 131,-111 131,-340"/>
<text text-anchor="start" x="5.5" y="-327.5" font-family="Helvetica,sans-Serif" font-size="10.00">LinkedList&lt; std::string &gt;</text>
<text text-anchor="start" x="18" y="-312.5" font-family="Helvetica,sans-Serif" font-size="10.00">&#45;</text>
<text text-anchor="start" x="39.5" y="-312.5" font-family="Helvetica,sans-Serif" font-size="10.00">size</text>
<text text-anchor="start" x="15.5" y="-297.5" font-family="Helvetica,sans-Serif" font-size="10.00">+</text>
<text text-anchor="start" x="39.5" y="-297.5" font-family="Helvetica,sans-Serif" font-size="10.00">clear()</text>
<text text-anchor="start" x="15.5" y="-282.5" font-family="Helvetica,sans-Serif" font-size="10.00">+</text>
<text text-anchor="start" x="39.5" y="-282.5" font-family="Helvetica,sans-Serif" font-size="10.00">get_size()</text>
<text text-anchor="start" x="15.5" y="-267.5" font-family="Helvetica,sans-Serif" font-size="10.00">+</text>
<text text-anchor="start" x="39.5" y="-267.5" font-family="Helvetica,sans-Serif" font-size="10.00">is_empty()</text>
<text text-anchor="start" x="15.5" y="-252.5" font-family="Helvetica,sans-Serif" font-size="10.00">+</text>
<text text-anchor="start" x="39.5" y="-252.5" font-family="Helvetica,sans-Serif" font-size="10.00">LinkedList()</text>
<text text-anchor="start" x="15.5" y="-237.5" font-family="Helvetica,sans-Serif" font-size="10.00">+</text>
<text text-anchor="start" x="39.5" y="-237.5" font-family="Helvetica,sans-Serif" font-size="10.00">LinkedList()</text>
<text text-anchor="start" x="15.5" y="-222.5" font-family="Helvetica,sans-Serif" font-size="10.00">+</text>
<text text-anchor="start" x="39.5" y="-222.5" font-family="Helvetica,sans-Serif" font-size="10.00">LinkedList()</text>
<text text-anchor="start" x="15.5" y="-207.5" font-family="Helvetica,sans-Serif" font-size="10.00">+</text>
<text text-anchor="start" x="39.5" y="-207.5" font-family="Helvetica,sans-Serif" font-size="10.00">operator=()</text>
<text text-anchor="start" x="15.5" y="-192.5" font-family="Helvetica,sans-Serif" font-size="10.00">+</text>
<text text-anchor="start" x="39.5" y="-192.5" font-family="Helvetica,sans-Serif" font-size="10.00">operator=()</text>
<text text-anchor="start" x="15.5" y="-177.5" font-family="Helvetica,sans-Serif" font-size="10.00">+</text>
<text text-anchor="start" x="39.5" y="-177.5" font-family="Helvetica,sans-Serif" font-size="10.00">pop_front()</text>
<text text-anchor="start" x="15.5" y="-162.5" font-family="Helvetica,sans-Serif" font-size="10.00">+</text>
<text text-anchor="start" x="39.5" y="-162.5" font-family="Helvetica,sans-Serif" font-size="10.00">push_back()</text>
<text text-anchor="start" x="15.5" y="-147.5" font-family="Helvetica,sans-Serif" font-size="10.00">+</text>
<text text-anchor="start" x="39.5" y="-147.5" font-family="Helvetica,sans-Serif" font-size="10.00">push_front()</text>
<text text-anchor="start" x="15.5" y="-132.5" font-family="Helvetica,sans-Serif" font-size="10.00">+</text>
<text text-anchor="start" x="39.5" y="-132.5" font-family="Helvetica,sans-Serif" font-size="10.00">remove()</text>
<text text-anchor="start" x="15.5" y="-117.5" font-family="Helvetica,sans-Serif" font-size="10.00">+</text>
<text text-anchor="start" x="39.5" y="-117.5" font-family="Helvetica,sans-Serif" font-size="10.00">~LinkedList()</text>
<polygon fill="#666666" stroke="#666666" points="0.5,-322.5 0.5,-322.5 131.5,-322.5 131.5,-322.5 0.5,-322.5"/>
<polygon fill="#666666" stroke="#666666" points="0.5,-307.5 0.5,-307.5 37.5,-307.5 37.5,-307.5 0.5,-307.5"/>
<polygon fill="#666666" stroke="#666666" points="37.5,-307.5 37.5,-307.5 131.5,-307.5 131.5,-307.5 37.5,-307.5"/>
<polygon fill="none" stroke="#666666" points="0,-111 0,-340 131,-340 131,-111 0,-111"/>
</a>
</g>
</g>
<!-- Node2&#45;&gt;Node1 -->
<g id="edge1_Node000001_Node000002" class="edge">
<title>Node2&#45;&gt;Node1</title>
<g id="a_edge1_Node000001_Node000002"><a xlink:title=" ">
<path fill="none" stroke="#63b8ff" d="M65.5,-110.89C65.5,-98.75 65.5,-87.01 65.5,-76.48"/>
<polygon fill="none" stroke="#63b8ff" points="65.5,-76.3 61.5,-70.3 65.5,-64.3 69.5,-70.3 65.5,-76.3"/>
</a>
</g>
<text text-anchor="middle" x="109.5" y="-85" font-family="Helvetica,sans-Serif" font-size="10.00" fill="grey"> +node_sequence</text>
</g>
<!-- Node3 -->
<g id="Node000003" class="node">
<title>Node3</title>
<g id="a_Node000003"><a xlink:href="structNode.html" target="_top" xlink:title=" ">
<polygon fill="white" stroke="transparent" points="119,-447 12,-447 12,-398 119,-398 119,-447"/>
<text text-anchor="start" x="17.5" y="-434.5" font-family="Helvetica,sans-Serif" font-size="10.00">Node&lt; std::string &gt;</text>
<text text-anchor="start" x="64" y="-419.5" font-family="Helvetica,sans-Serif" font-size="10.00"> </text>
<text text-anchor="start" x="29.5" y="-404.5" font-family="Helvetica,sans-Serif" font-size="10.00">+</text>
<text text-anchor="start" x="55.5" y="-404.5" font-family="Helvetica,sans-Serif" font-size="10.00">Node()</text>
<polygon fill="#666666" stroke="#666666" points="12.5,-429.5 12.5,-429.5 119.5,-429.5 119.5,-429.5 12.5,-429.5"/>
<polygon fill="#666666" stroke="#666666" points="12.5,-414.5 12.5,-414.5 119.5,-414.5 119.5,-414.5 12.5,-414.5"/>
<polygon fill="none" stroke="#666666" points="12,-398 12,-447 119,-447 119,-398 12,-398"/>
</a>
</g>
</g>
<!-- Node3&#45;&gt;Node2 -->
<g id="edge2_Node000002_Node000003" class="edge">
<title>Node3&#45;&gt;Node2</title>
<g id="a_edge2_Node000002_Node000003"><a xlink:title=" ">
<path fill="none" stroke="#63b8ff" d="M65.5,-397.98C65.5,-385.72 65.5,-369.66 65.5,-352.3"/>
<polygon fill="none" stroke="#63b8ff" points="65.5,-352.1 61.5,-346.1 65.5,-340.1 69.5,-346.1 65.5,-352.1"/>
</a>
</g>
<text text-anchor="middle" x="81" y="-372" font-family="Helvetica,sans-Serif" font-size="10.00" fill="grey"> &#45;head</text>
<text text-anchor="middle" x="81" y="-361" font-family="Helvetica,sans-Serif" font-size="10.00" fill="grey">&#45;tail</text>
</g>
<!-- Node3&#45;&gt;Node3 -->
<g id="edge5_Node000003_Node000003" class="edge">
<title>Node3&#45;&gt;Node3</title>
<g id="a_edge5_Node000003_Node000003"><a xlink:title=" ">
<path fill="none" stroke="#63b8ff" d="M119.13,-431.1C129.58,-430.1 137,-427.23 137,-422.5 137,-419.91 134.78,-417.88 131.06,-416.41"/>
<polygon fill="none" stroke="#63b8ff" points="130.88,-416.37 124.18,-419.05 119.13,-413.9 125.83,-411.22 130.88,-416.37"/>
</a>
</g>
<text text-anchor="middle" x="154" y="-420" font-family="Helvetica,sans-Serif" font-size="10.00" fill="grey"> +next</text>
</g>
<!-- Node4 -->
<g id="Node000004" class="node">
<title>Node4</title>
<g id="a_Node000004"><a xlink:title=" ">
<polygon fill="white" stroke="transparent" points="95,-543 36,-543 36,-494 95,-494 95,-543"/>
<text text-anchor="start" x="41.5" y="-530.5" font-family="Helvetica,sans-Serif" font-size="10.00">std::string</text>
<text text-anchor="start" x="64" y="-515.5" font-family="Helvetica,sans-Serif" font-size="10.00"> </text>
<text text-anchor="start" x="64" y="-500.5" font-family="Helvetica,sans-Serif" font-size="10.00"> </text>
<polygon fill="#666666" stroke="#666666" points="36.5,-525.5 36.5,-525.5 95.5,-525.5 95.5,-525.5 36.5,-525.5"/>
<polygon fill="#666666" stroke="#666666" points="36.5,-510.5 36.5,-510.5 95.5,-510.5 95.5,-510.5 36.5,-510.5"/>
<polygon fill="none" stroke="#666666" points="36,-494 36,-543 95,-543 95,-494 36,-494"/>
</a>
</g>
</g>
<!-- Node4&#45;&gt;Node3 -->
<g id="edge3_Node000003_Node000004" class="edge">
<title>Node4&#45;&gt;Node3</title>
<g id="a_edge3_Node000003_Node000004"><a xlink:title=" ">
<path fill="none" stroke="#63b8ff" d="M65.5,-493.78C65.5,-483.32 65.5,-470.79 65.5,-459.23"/>
<polygon fill="none" stroke="#63b8ff" points="65.5,-459.21 61.5,-453.21 65.5,-447.21 69.5,-453.21 65.5,-459.21"/>
</a>
</g>
<text text-anchor="middle" x="82.5" y="-468" font-family="Helvetica,sans-Serif" font-size="10.00" fill="grey"> +data</text>
</g>
<!-- Node5 -->
<g id="Node000005" class="node">
<title>Node5</title>
<g id="a_Node000005"><a xlink:title=" ">
<polygon fill="white" stroke="transparent" points="114.5,-640 16.5,-640 16.5,-580 114.5,-580 114.5,-640"/>
<text text-anchor="start" x="21.5" y="-628" font-family="Helvetica,sans-Serif" font-size="10.00">std::basic_string&lt;</text>
<text text-anchor="start" x="47" y="-617" font-family="Helvetica,sans-Serif" font-size="10.00"> Char &gt;</text>
<text text-anchor="start" x="63.5" y="-602" font-family="Helvetica,sans-Serif" font-size="10.00"> </text>
<text text-anchor="start" x="63.5" y="-587" font-family="Helvetica,sans-Serif" font-size="10.00"> </text>
<polygon fill="#666666" stroke="#666666" points="16.5,-612 16.5,-612 114.5,-612 114.5,-612 16.5,-612"/>
<polygon fill="#666666" stroke="#666666" points="16.5,-597 16.5,-597 114.5,-597 114.5,-597 16.5,-597"/>
<polygon fill="none" stroke="#666666" points="16.5,-580 16.5,-640 114.5,-640 114.5,-580 16.5,-580"/>
</a>
</g>
</g>
<!-- Node5&#45;&gt;Node4 -->
<g id="edge4_Node000004_Node000005" class="edge">
<title>Node5&#45;&gt;Node4</title>
<g id="a_edge4_Node000004_Node000005"><a xlink:title=" ">
<path fill="none" stroke="#63b8ff" d="M65.5,-569.41C65.5,-560.47 65.5,-551.25 65.5,-543.21"/>
<polygon fill="none" stroke="#63b8ff" points="62,-569.69 65.5,-579.69 69,-569.69 62,-569.69"/>
</a>
</g>
</g>
</g>
</svg>
