<?xml version="1.0" encoding="UTF-8" standalone="no"?>
<!DOCTYPE svg PUBLIC "-//W3C//DTD SVG 1.1//EN"
 "http://www.w3.org/Graphics/SVG/1.1/DTD/svg11.dtd">
<!-- Generated by graphviz version 2.43.0 (0)
 -->
<!-- Title: tests/unit/test_data_structures.cpp Pages: 1 -->
<svg width="698pt" height="203pt"
 viewBox="0.00 0.00 698.00 203.00" xmlns="http://www.w3.org/2000/svg" xmlns:xlink="http://www.w3.org/1999/xlink">
<g id="graph0" class="graph" transform="scale(1 1) rotate(0) translate(4 199)">
<title>tests/unit/test_data_structures.cpp</title>
<!-- Node1 -->
<g id="Node000001" class="node">
<title>Node1</title>
<g id="a_Node000001"><a xlink:title=" ">
<polygon fill="#999999" stroke="#666666" points="400.5,-195 289.5,-195 289.5,-165 400.5,-165 400.5,-195"/>
<text text-anchor="start" x="297.5" y="-183" font-family="Helvetica,sans-Serif" font-size="10.00">tests/unit/test_data</text>
<text text-anchor="middle" x="345" y="-172" font-family="Helvetica,sans-Serif" font-size="10.00">_structures.cpp</text>
</a>
</g>
</g>
<!-- Node2 -->
<g id="Node000002" class="node">
<title>Node2</title>
<g id="a_Node000002"><a xlink:title=" ">
<polygon fill="#e0e0e0" stroke="#999999" points="52,-129 0,-129 0,-110 52,-110 52,-129"/>
<text text-anchor="middle" x="26" y="-117" font-family="Helvetica,sans-Serif" font-size="10.00">cassert</text>
</a>
</g>
</g>
<!-- Node1&#45;&gt;Node2 -->
<g id="edge1_Node000001_Node000002" class="edge">
<title>Node1&#45;&gt;Node2</title>
<g id="a_edge1_Node000001_Node000002"><a xlink:title=" ">
<path fill="none" stroke="#63b8ff" d="M289.32,-169.56C232.93,-159.88 143.27,-144.13 66,-129 64.75,-128.75 63.47,-128.5 62.18,-128.24"/>
<polygon fill="#63b8ff" stroke="#63b8ff" points="62.73,-124.78 52.23,-126.2 61.32,-131.64 62.73,-124.78"/>
</a>
</g>
</g>
<!-- Node3 -->
<g id="Node000003" class="node">
<title>Node3</title>
<g id="a_Node000003"><a xlink:title=" ">
<polygon fill="#e0e0e0" stroke="#999999" points="173.5,-19 120.5,-19 120.5,0 173.5,0 173.5,-19"/>
<text text-anchor="middle" x="147" y="-7" font-family="Helvetica,sans-Serif" font-size="10.00">cstddef</text>
</a>
</g>
</g>
<!-- Node1&#45;&gt;Node3 -->
<g id="edge2_Node000001_Node000003" class="edge">
<title>Node1&#45;&gt;Node3</title>
<g id="a_edge2_Node000001_Node000003"><a xlink:title=" ">
<path fill="none" stroke="#63b8ff" d="M289.45,-175.67C224.42,-170.47 122.58,-157.85 99,-129 73.38,-97.65 108.63,-50.83 131.02,-26.49"/>
<polygon fill="#63b8ff" stroke="#63b8ff" points="133.65,-28.8 138.01,-19.15 128.58,-23.97 133.65,-28.8"/>
</a>
</g>
</g>
<!-- Node4 -->
<g id="Node000004" class="node">
<title>Node4</title>
<g id="a_Node000004"><a xlink:title=" ">
<polygon fill="#e0e0e0" stroke="#999999" points="168,-129 108,-129 108,-110 168,-110 168,-129"/>
<text text-anchor="middle" x="138" y="-117" font-family="Helvetica,sans-Serif" font-size="10.00">iostream</text>
</a>
</g>
</g>
<!-- Node1&#45;&gt;Node4 -->
<g id="edge3_Node000001_Node000004" class="edge">
<title>Node1&#45;&gt;Node4</title>
<g id="a_edge3_Node000001_Node000004"><a xlink:title=" ">
<path fill="none" stroke="#63b8ff" d="M295.42,-164.99C259.54,-154.85 211.67,-141.32 178.17,-131.85"/>
<polygon fill="#63b8ff" stroke="#63b8ff" points="178.84,-128.41 168.27,-129.05 176.94,-135.14 178.84,-128.41"/>
</a>
</g>
</g>
<!-- Node5 -->
<g id="Node000005" class="node">
<title>Node5</title>
<g id="a_Node000005"><a xlink:title=" ">
<polygon fill="#e0e0e0" stroke="#999999" points="416.5,-19 351.5,-19 351.5,0 416.5,0 416.5,-19"/>
<text text-anchor="middle" x="384" y="-7" font-family="Helvetica,sans-Serif" font-size="10.00">stdexcept</text>
</a>
</g>
</g>
<!-- Node1&#45;&gt;Node5 -->
<g id="edge4_Node000001_Node000005" class="edge">
<title>Node1&#45;&gt;Node5</title>
<g id="a_edge4_Node000001_Node000005"><a xlink:title=" ">
<path fill="none" stroke="#63b8ff" d="M397.88,-164.92C416.36,-157.31 435.37,-145.89 447,-129 465.69,-101.85 467.68,-84 452,-55 444.42,-40.98 430.3,-30.67 416.87,-23.53"/>
<polygon fill="#63b8ff" stroke="#63b8ff" points="418.3,-20.33 407.78,-19.08 415.23,-26.62 418.3,-20.33"/>
</a>
</g>
</g>
<!-- Node6 -->
<g id="Node000006" class="node">
<title>Node6</title>
<g id="a_Node000006"><a xlink:title=" ">
<polygon fill="#e0e0e0" stroke="#999999" points="443,-74 399,-74 399,-55 443,-55 443,-74"/>
<text text-anchor="middle" x="421" y="-62" font-family="Helvetica,sans-Serif" font-size="10.00">string</text>
</a>
</g>
</g>
<!-- Node1&#45;&gt;Node6 -->
<g id="edge5_Node000001_Node000006" class="edge">
<title>Node1&#45;&gt;Node6</title>
<g id="a_edge5_Node000001_Node000006"><a xlink:title=" ">
<path fill="none" stroke="#63b8ff" d="M386.84,-164.93C403.33,-157.09 420.56,-145.5 430,-129 437.85,-115.27 434.22,-97.23 429.43,-83.89"/>
<polygon fill="#63b8ff" stroke="#63b8ff" points="432.56,-82.3 425.54,-74.37 426.08,-84.95 432.56,-82.3"/>
</a>
</g>
</g>
<!-- Node7 -->
<g id="Node000007" class="node">
<title>Node7</title>
<g id="a_Node000007"><a xlink:title=" ">
<polygon fill="#e0e0e0" stroke="#999999" points="421.5,-129 376.5,-129 376.5,-110 421.5,-110 421.5,-129"/>
<text text-anchor="middle" x="399" y="-117" font-family="Helvetica,sans-Serif" font-size="10.00">utility</text>
</a>
</g>
</g>
<!-- Node1&#45;&gt;Node7 -->
<g id="edge6_Node000001_Node000007" class="edge">
<title>Node1&#45;&gt;Node7</title>
<g id="a_edge6_Node000001_Node000007"><a xlink:title=" ">
<path fill="none" stroke="#63b8ff" d="M358.07,-164.84C365.91,-156.35 375.91,-145.52 384.06,-136.69"/>
<polygon fill="#63b8ff" stroke="#63b8ff" points="386.7,-138.99 390.91,-129.27 381.55,-134.24 386.7,-138.99"/>
</a>
</g>
</g>
<!-- Node8 -->
<g id="Node000008" class="node">
<title>Node8</title>
<g id="a_Node000008"><a xlink:href="Graph_8h.html" target="_top" xlink:title="Adjacency&#45;list directed/undirected graph with Dijkstra shortest&#45;path.">
<polygon fill="white" stroke="#666666" points="358,-129 224,-129 224,-110 358,-110 358,-129"/>
<text text-anchor="middle" x="291" y="-117" font-family="Helvetica,sans-Serif" font-size="10.00">data_structures/Graph.h</text>
</a>
</g>
</g>
<!-- Node1&#45;&gt;Node8 -->
<g id="edge7_Node000001_Node000008" class="edge">
<title>Node1&#45;&gt;Node8</title>
<g id="a_edge7_Node000001_Node000008"><a xlink:title=" ">
<path fill="none" stroke="#63b8ff" d="M331.93,-164.84C324.09,-156.35 314.09,-145.52 305.94,-136.69"/>
<polygon fill="#63b8ff" stroke="#63b8ff" points="308.45,-134.24 299.09,-129.27 303.3,-138.99 308.45,-134.24"/>
</a>
</g>
</g>
<!-- Node10 -->
<g id="Node000010" class="node">
<title>Node10</title>
<g id="a_Node000010"><a xlink:href="LinkedList_8h.html" target="_top" xlink:title="Generic singly&#45;linked list with pointer&#45;based node storage.">
<polygon fill="white" stroke="#666666" points="590,-74 516,-74 516,-55 590,-55 590,-74"/>
<text text-anchor="middle" x="553" y="-62" font-family="Helvetica,sans-Serif" font-size="10.00">LinkedList.h</text>
</a>
</g>
</g>
<!-- Node1&#45;&gt;Node10 -->
<g id="edge17_Node000001_Node000010" class="edge">
<title>Node1&#45;&gt;Node10</title>
<g id="a_edge17_Node000001_Node000010"><a xlink:title=" ">
<path fill="none" stroke="#63b8ff" d="M400.85,-169.53C432.56,-162.21 471.81,-149.71 502,-129 519.43,-117.04 533.9,-97.4 542.92,-83.12"/>
<polygon fill="#63b8ff" stroke="#63b8ff" points="546.09,-84.62 548.26,-74.25 540.1,-81.01 546.09,-84.62"/>
</a>
</g>
</g>
<!-- Node12 -->
<g id="Node000012" class="node">
<title>Node12</title>
<g id="a_Node000012"><a xlink:href="priority__queue_8h.html" target="_top" xlink:title="Pointer&#45;based binary min&#45;heap priority queue.">
<polygon fill="white" stroke="#666666" points="253,-74 157,-74 157,-55 253,-55 253,-74"/>
<text text-anchor="middle" x="205" y="-62" font-family="Helvetica,sans-Serif" font-size="10.00">priority_queue.h</text>
</a>
</g>
</g>
<!-- Node1&#45;&gt;Node12 -->
<g id="edge20_Node000001_Node000012" class="edge">
<title>Node1&#45;&gt;Node12</title>
<g id="a_edge20_Node000001_Node000012"><a xlink:title=" ">
<path fill="none" stroke="#63b8ff" d="M289.36,-170.76C262.95,-163.96 233.24,-151.56 215,-129 205.02,-116.66 203.04,-98.44 203.26,-84.68"/>
<polygon fill="#63b8ff" stroke="#63b8ff" points="206.77,-84.57 203.82,-74.39 199.78,-84.18 206.77,-84.57"/>
</a>
</g>
</g>
<!-- Node13 -->
<g id="Node000013" class="node">
<title>Node13</title>
<g id="a_Node000013"><a xlink:href="Queue_8h.html" target="_top" xlink:title="Generic FIFO queue built on LinkedList.">
<polygon fill="white" stroke="#666666" points="690,-129 554,-129 554,-110 690,-110 690,-129"/>
<text text-anchor="middle" x="622" y="-117" font-family="Helvetica,sans-Serif" font-size="10.00">data_structures/Queue.h</text>
</a>
</g>
</g>
<!-- Node1&#45;&gt;Node13 -->
<g id="edge18_Node000001_Node000013" class="edge">
<title>Node1&#45;&gt;Node13</title>
<g id="a_edge18_Node000001_Node000013"><a xlink:title=" ">
<path fill="none" stroke="#63b8ff" d="M400.72,-167.23C450.72,-156.67 523.46,-141.31 571.72,-131.12"/>
<polygon fill="#63b8ff" stroke="#63b8ff" points="572.57,-134.52 581.63,-129.03 571.12,-127.67 572.57,-134.52"/>
</a>
</g>
</g>
<!-- Node8&#45;&gt;Node5 -->
<g id="edge9_Node000008_Node000005" class="edge">
<title>Node8&#45;&gt;Node5</title>
<g id="a_edge9_Node000008_Node000005"><a xlink:title=" ">
<path fill="none" stroke="#63b8ff" d="M291.63,-109.8C292.97,-96.66 297.16,-71.54 310,-55 320.71,-41.21 336.99,-30.75 351.56,-23.45"/>
<polygon fill="#63b8ff" stroke="#63b8ff" points="353.25,-26.53 360.81,-19.11 350.27,-20.19 353.25,-26.53"/>
</a>
</g>
</g>
<!-- Node8&#45;&gt;Node6 -->
<g id="edge10_Node000008_Node000006" class="edge">
<title>Node8&#45;&gt;Node6</title>
<g id="a_edge10_Node000008_Node000006"><a xlink:title=" ">
<path fill="none" stroke="#63b8ff" d="M311.89,-109.98C333.08,-101.34 366.13,-87.87 390.3,-78.02"/>
<polygon fill="#63b8ff" stroke="#63b8ff" points="391.79,-81.19 399.73,-74.17 389.15,-74.7 391.79,-81.19"/>
</a>
</g>
</g>
<!-- Node9 -->
<g id="Node000009" class="node">
<title>Node9</title>
<g id="a_Node000009"><a xlink:title=" ">
<polygon fill="#e0e0e0" stroke="#999999" points="363,-74 319,-74 319,-55 363,-55 363,-74"/>
<text text-anchor="middle" x="341" y="-62" font-family="Helvetica,sans-Serif" font-size="10.00">limits</text>
</a>
</g>
</g>
<!-- Node8&#45;&gt;Node9 -->
<g id="edge8_Node000008_Node000009" class="edge">
<title>Node8&#45;&gt;Node9</title>
<g id="a_edge8_Node000008_Node000009"><a xlink:title=" ">
<path fill="none" stroke="#63b8ff" d="M299.26,-109.75C306.46,-102.11 317.11,-90.82 325.85,-81.56"/>
<polygon fill="#63b8ff" stroke="#63b8ff" points="328.58,-83.76 332.9,-74.09 323.49,-78.96 328.58,-83.76"/>
</a>
</g>
</g>
<!-- Node8&#45;&gt;Node10 -->
<g id="edge11_Node000008_Node000010" class="edge">
<title>Node8&#45;&gt;Node10</title>
<g id="a_edge11_Node000008_Node000010"><a xlink:title=" ">
<path fill="none" stroke="#63b8ff" d="M333.09,-109.98C380.23,-100.45 456.43,-85.04 505.61,-75.09"/>
<polygon fill="#63b8ff" stroke="#63b8ff" points="506.57,-78.46 515.68,-73.05 505.18,-71.6 506.57,-78.46"/>
</a>
</g>
</g>
<!-- Node8&#45;&gt;Node12 -->
<g id="edge14_Node000008_Node000012" class="edge">
<title>Node8&#45;&gt;Node12</title>
<g id="a_edge14_Node000008_Node000012"><a xlink:title=" ">
<path fill="none" stroke="#63b8ff" d="M277.18,-109.98C263.85,-101.77 243.42,-89.18 227.69,-79.49"/>
<polygon fill="#63b8ff" stroke="#63b8ff" points="229.42,-76.44 219.07,-74.17 225.75,-82.4 229.42,-76.44"/>
</a>
</g>
</g>
<!-- Node10&#45;&gt;Node5 -->
<g id="edge12_Node000010_Node000005" class="edge">
<title>Node10&#45;&gt;Node5</title>
<g id="a_edge12_Node000010_Node000005"><a xlink:title=" ">
<path fill="none" stroke="#63b8ff" d="M525.85,-54.98C497.47,-46.09 452.77,-32.07 421.14,-22.15"/>
<polygon fill="#63b8ff" stroke="#63b8ff" points="421.95,-18.73 411.37,-19.08 419.86,-25.41 421.95,-18.73"/>
</a>
</g>
</g>
<!-- Node11 -->
<g id="Node000011" class="node">
<title>Node11</title>
<g id="a_Node000011"><a xlink:href="Node_8h.html" target="_top" xlink:title="Generic singly&#45;linked node used by LinkedList and Queue.">
<polygon fill="white" stroke="#666666" points="578.5,-19 527.5,-19 527.5,0 578.5,0 578.5,-19"/>
<text text-anchor="middle" x="553" y="-7" font-family="Helvetica,sans-Serif" font-size="10.00">Node.h</text>
</a>
</g>
</g>
<!-- Node10&#45;&gt;Node11 -->
<g id="edge13_Node000010_Node000011" class="edge">
<title>Node10&#45;&gt;Node11</title>
<g id="a_edge13_Node000010_Node000011"><a xlink:title=" ">
<path fill="none" stroke="#63b8ff" d="M553,-54.75C553,-47.8 553,-37.85 553,-29.13"/>
<polygon fill="#63b8ff" stroke="#63b8ff" points="556.5,-29.09 553,-19.09 549.5,-29.09 556.5,-29.09"/>
</a>
</g>
</g>
<!-- Node12&#45;&gt;Node3 -->
<g id="edge15_Node000012_Node000003" class="edge">
<title>Node12&#45;&gt;Node3</title>
<g id="a_edge15_Node000012_Node000003"><a xlink:title=" ">
<path fill="none" stroke="#63b8ff" d="M195.68,-54.98C187.19,-47.23 174.44,-35.58 164.12,-26.14"/>
<polygon fill="#63b8ff" stroke="#63b8ff" points="166.23,-23.33 156.49,-19.17 161.51,-28.5 166.23,-23.33"/>
</a>
</g>
</g>
<!-- Node12&#45;&gt;Node5 -->
<g id="edge16_Node000012_Node000005" class="edge">
<title>Node12&#45;&gt;Node5</title>
<g id="a_edge16_Node000012_Node000005"><a xlink:title=" ">
<path fill="none" stroke="#63b8ff" d="M233.76,-54.98C263.94,-46.05 311.57,-31.94 345.1,-22.02"/>
<polygon fill="#63b8ff" stroke="#63b8ff" points="346.42,-25.28 355.02,-19.08 344.43,-18.57 346.42,-25.28"/>
</a>
</g>
</g>
<!-- Node13&#45;&gt;Node10 -->
<g id="edge19_Node000013_Node000010" class="edge">
<title>Node13&#45;&gt;Node10</title>
<g id="a_edge19_Node000013_Node000010"><a xlink:title=" ">
<path fill="none" stroke="#63b8ff" d="M610.91,-109.98C600.51,-102 584.74,-89.88 572.28,-80.31"/>
<polygon fill="#63b8ff" stroke="#63b8ff" points="574.35,-77.49 564.29,-74.17 570.09,-83.04 574.35,-77.49"/>
</a>
</g>
</g>
</g>
</svg>
