<?xml version="1.0" encoding="UTF-8" standalone="no"?>
<!DOCTYPE svg PUBLIC "-//W3C//DTD SVG 1.1//EN"
 "http://www.w3.org/Graphics/SVG/1.1/DTD/svg11.dtd">
<!-- Generated by graphviz version 2.43.0 (0)
 -->
<!-- Title: tests/edge_cases/test_boundary.cpp Pages: 1 -->
<!--zoomable 313 -->

<svg id="main" version="1.1" xmlns="http://www.w3.org/2000/svg" xmlns:xlink="http://www.w3.org/1999/xlink" xml:space="preserve" onload="init(evt)">
<style type="text/css"><![CDATA[
.node, .edge {opacity: 0.7;}
.node.selected, .edge.selected {opacity: 1;}
.edge:hover path { stroke: red; }
.edge:hover polygon { stroke: red; fill: red; }
]]></style>

<defs>
  <circle id="rim" cx="0" cy="0" r="7"/>
  <circle id="rim2" cx="0" cy="0" r="3.5"/>
  <g id="zoomPlus">
    <use xlink:href="#rim" fill="#404040"><set attributeName="fill" to="#808080" begin="zoomplus.mouseover" end="zoomplus.mouseout"/></use>
    <path d="M-4,0h8M0,-4v8" fill="none" stroke="white" stroke-width="1.5" pointer-events="none"/>
  </g>
  <g id="zoomMin">
    <use xlink:href="#rim" fill="#404040"><set attributeName="fill" to="#808080" begin="zoomminus.mouseover" end="zoomminus.mouseout"/></use>
    <path d="M-4,0h8" fill="none" stroke="white" stroke-width="1.5" pointer-events="none"/>
  </g>
  <g id="arrowUp" transform="translate(30 24)">
    <use xlink:href="#rim"/>
    <path pointer-events="none" fill="none" stroke="white" stroke-width="1.5" d="M0,-3.0v7 M-2.5,-0.5L0,-3.0L2.5,-0.5"/>
  </g>
  <g id="arrowRight" transform="rotate(90) translate(36 -43)">
    <use xlink:href="#rim"/>
    <path pointer-events="none" fill="none" stroke="white" stroke-width="1.5" d="M0,-3.0v7 M-2.5,-0.5L0,-3.0L2.5,-0.5"/>
  </g>
  <g id="arrowDown" transform="rotate(180) translate(-30 -48)">
    <use xlink:href="#rim"/>
    <path pointer-events="none" fill="none" stroke="white" stroke-width="1.5" d="M0,-3.0v7 M-2.5,-0.5L0,-3.0L2.5,-0.5"/>
  </g>
  <g id="arrowLeft" transform="rotate(270) translate(-36 17)">
    <use xlink:href="#rim"/>
    <path pointer-events="none" fill="none" stroke="white" stroke-width="1.5" d="M0,-3.0v7 M-2.5,-0.5L0,-3.0L2.5,-0.5"/>
  </g>
  <g id="resetDef">
    <use xlink:href="#rim2" fill="#404040"><set attributeName="fill" to="#808080" begin="reset.mouseover" end="reset.mouseout"/></use>
  </g>
</defs>
<script type="application/ecmascript">
var viewWidth = 813;
var viewHeight = 313;
var sectionId = 'dynsection-0';
</script>
<script type="application/ecmascript" xlink:href="svg.min.js"/>
<svg id="graph" class="graph">
<g id="viewport">
<title>tests/edge_cases/test_boundary.cpp</title>
<!-- Node1 -->
<g id="Node000001" class="node">
<title>Node1</title>
<g id="a_Node000001"><a xlink:title="Edge&#45;case and boundary tests for all custom data structures and the simulator.">
<polygon fill="#999999" stroke="#666666" points="295,-305 173,-305 173,-275 295,-275 295,-305"/>
<text text-anchor="start" x="181" y="-293" font-family="Helvetica,sans-Serif" font-size="10.00">tests/edge_cases/test</text>
<text text-anchor="middle" x="234" y="-282" font-family="Helvetica,sans-Serif" font-size="10.00">_boundary.cpp</text>
</a>
</g>
</g>
<!-- Node2 -->
<g id="Node000002" class="node">
<title>Node2</title>
<g id="a_Node000002"><a xlink:title=" ">
<polygon fill="#e0e0e0" stroke="#999999" points="52,-239 0,-239 0,-220 52,-220 52,-239"/>
<text text-anchor="middle" x="26" y="-227" font-family="Helvetica,sans-Serif" font-size="10.00">cassert</text>
</a>
</g>
</g>
<!-- Node1&#45;&gt;Node2 -->
<g id="edge1_Node000001_Node000002" class="edge">
<title>Node1&#45;&gt;Node2</title>
<g id="a_edge1_Node000001_Node000002"><a xlink:title=" ">
<path fill="none" stroke="#63b8ff" d="M184.18,-274.99C146.6,-264.42 95.93,-250.17 62.17,-240.67"/>
<polygon fill="#63b8ff" stroke="#63b8ff" points="62.85,-237.23 52.27,-237.89 60.95,-243.97 62.85,-237.23"/>
</a>
</g>
</g>
<!-- Node3 -->
<g id="Node000003" class="node">
<title>Node3</title>
<g id="a_Node000003"><a xlink:title=" ">
<polygon fill="#e0e0e0" stroke="#999999" points="130,-239 70,-239 70,-220 130,-220 130,-239"/>
<text text-anchor="middle" x="100" y="-227" font-family="Helvetica,sans-Serif" font-size="10.00">iostream</text>
</a>
</g>
</g>
<!-- Node1&#45;&gt;Node3 -->
<g id="edge2_Node000001_Node000003" class="edge">
<title>Node1&#45;&gt;Node3</title>
<g id="a_edge2_Node000001_Node000003"><a xlink:title=" ">
<path fill="none" stroke="#63b8ff" d="M201.9,-274.99C179.75,-265.31 150.52,-252.56 129.05,-243.18"/>
<polygon fill="#63b8ff" stroke="#63b8ff" points="130.35,-239.93 119.79,-239.14 127.55,-246.35 130.35,-239.93"/>
</a>
</g>
</g>
<!-- Node4 -->
<g id="Node000004" class="node">
<title>Node4</title>
<g id="a_Node000004"><a xlink:title=" ">
<polygon fill="#e0e0e0" stroke="#999999" points="439.5,-19 374.5,-19 374.5,0 439.5,0 439.5,-19"/>
<text text-anchor="middle" x="407" y="-7" font-family="Helvetica,sans-Serif" font-size="10.00">stdexcept</text>
</a>
</g>
</g>
<!-- Node1&#45;&gt;Node4 -->
<g id="edge3_Node000001_Node000004" class="edge">
<title>Node1&#45;&gt;Node4</title>
<g id="a_edge3_Node000001_Node000004"><a xlink:title=" ">
<path fill="none" stroke="#63b8ff" d="M225.94,-274.82C214.79,-253.82 196,-212.9 196,-175.5 196,-175.5 196,-175.5 196,-118.5 196,-88 198.86,-74.86 222,-55 243.08,-36.91 316.29,-23.39 364.05,-16.23"/>
<polygon fill="#63b8ff" stroke="#63b8ff" points="364.73,-19.67 374.12,-14.76 363.72,-12.75 364.73,-19.67"/>
</a>
</g>
</g>
<!-- Node5 -->
<g id="Node000005" class="node">
<title>Node5</title>
<g id="a_Node000005"><a xlink:title=" ">
<polygon fill="#e0e0e0" stroke="#999999" points="402,-74 358,-74 358,-55 402,-55 402,-74"/>
<text text-anchor="middle" x="380" y="-62" font-family="Helvetica,sans-Serif" font-size="10.00">string</text>
</a>
</g>
</g>
<!-- Node1&#45;&gt;Node5 -->
<g id="edge4_Node000001_Node000005" class="edge">
<title>Node1&#45;&gt;Node5</title>
<g id="a_edge4_Node000001_Node000005"><a xlink:title=" ">
<path fill="none" stroke="#63b8ff" d="M242.34,-274.88C250.68,-260.85 263.97,-238.78 276,-220 308.43,-169.36 348.63,-110.76 368.19,-82.49"/>
<polygon fill="#63b8ff" stroke="#63b8ff" points="371.17,-84.33 374,-74.12 365.42,-80.34 371.17,-84.33"/>
</a>
</g>
</g>
<!-- Node6 -->
<g id="Node000006" class="node">
<title>Node6</title>
<g id="a_Node000006"><a xlink:href="Graph_8h.html" target="_top" xlink:title="Adjacency&#45;list directed/undirected graph with Dijkstra shortest&#45;path.">
<polygon fill="white" stroke="#666666" points="549,-129 415,-129 415,-110 549,-110 549,-129"/>
<text text-anchor="middle" x="482" y="-117" font-family="Helvetica,sans-Serif" font-size="10.00">data_structures/Graph.h</text>
</a>
</g>
</g>
<!-- Node1&#45;&gt;Node6 -->
<g id="edge5_Node000001_Node000006" class="edge">
<title>Node1&#45;&gt;Node6</title>
<g id="a_edge5_Node000001_Node000006"><a xlink:title=" ">
<path fill="none" stroke="#63b8ff" d="M245.95,-274.9C267.87,-249.78 316.96,-196.96 368,-165 390.75,-150.76 418.8,-139.74 441.38,-132.23"/>
<polygon fill="#63b8ff" stroke="#63b8ff" points="442.57,-135.52 451.02,-129.12 440.42,-128.86 442.57,-135.52"/>
</a>
</g>
</g>
<!-- Node8 -->
<g id="Node000008" class="node">
<title>Node8</title>
<g id="a_Node000008"><a xlink:href="LinkedList_8h.html" target="_top" xlink:title="Generic singly&#45;linked list with pointer&#45;based node storage.">
<polygon fill="white" stroke="#666666" points="664,-74 590,-74 590,-55 664,-55 664,-74"/>
<text text-anchor="middle" x="627" y="-62" font-family="Helvetica,sans-Serif" font-size="10.00">LinkedList.h</text>
</a>
</g>
</g>
<!-- Node1&#45;&gt;Node8 -->
<g id="edge15_Node000001_Node000008" class="edge">
<title>Node1&#45;&gt;Node8</title>
<g id="a_edge15_Node000001_Node000008"><a xlink:title=" ">
<path fill="none" stroke="#63b8ff" d="M295.33,-287.65C369.85,-284.45 498.59,-273.83 603,-239 698.13,-207.27 749.24,-215.48 800,-129 828.71,-80.09 734.73,-68.47 674.19,-65.95"/>
<polygon fill="#63b8ff" stroke="#63b8ff" points="674.17,-62.44 664.05,-65.59 673.93,-69.44 674.17,-62.44"/>
</a>
</g>
</g>
<!-- Node10 -->
<g id="Node000010" class="node">
<title>Node10</title>
<g id="a_Node000010"><a xlink:href="priority__queue_8h.html" target="_top" xlink:title="Pointer&#45;based binary min&#45;heap priority queue.">
<polygon fill="white" stroke="#666666" points="327,-74 231,-74 231,-55 327,-55 327,-74"/>
<text text-anchor="middle" x="279" y="-62" font-family="Helvetica,sans-Serif" font-size="10.00">priority_queue.h</text>
</a>
</g>
</g>
<!-- Node1&#45;&gt;Node10 -->
<g id="edge18_Node000001_Node000010" class="edge">
<title>Node1&#45;&gt;Node10</title>
<g id="a_edge18_Node000001_Node000010"><a xlink:title=" ">
<path fill="none" stroke="#63b8ff" d="M212.44,-274.86C201.08,-266.05 188.23,-253.63 182,-239 178.69,-231.23 180.6,-228.33 182,-220 190.56,-168.99 189.59,-151.84 220,-110 229.02,-97.6 242.48,-87.07 254.26,-79.38"/>
<polygon fill="#63b8ff" stroke="#63b8ff" points="256.19,-82.3 262.85,-74.06 252.51,-76.35 256.19,-82.3"/>
</a>
</g>
</g>
<!-- Node12 -->
<g id="Node000012" class="node">
<title>Node12</title>
<g id="a_Node000012"><a xlink:href="Queue_8h.html" target="_top" xlink:title="Generic FIFO queue built on LinkedList.">
<polygon fill="white" stroke="#666666" points="791,-129 655,-129 655,-110 791,-110 791,-129"/>
<text text-anchor="middle" x="723" y="-117" font-family="Helvetica,sans-Serif" font-size="10.00">data_structures/Queue.h</text>
</a>
</g>
</g>
<!-- Node1&#45;&gt;Node12 -->
<g id="edge16_Node000001_Node000012" class="edge">
<title>Node1&#45;&gt;Node12</title>
<g id="a_edge16_Node000001_Node000012"><a xlink:title=" ">
<path fill="none" stroke="#63b8ff" d="M295.01,-285.82C362.31,-280.92 473.14,-268.75 564,-239 614.07,-222.61 627.85,-216.89 669,-184 685.72,-170.64 701.14,-151.53 711.18,-137.76"/>
<polygon fill="#63b8ff" stroke="#63b8ff" points="714.31,-139.41 717.23,-129.23 708.59,-135.37 714.31,-139.41"/>
</a>
</g>
</g>
<!-- Node13 -->
<g id="Node000013" class="node">
<title>Node13</title>
<g id="a_Node000013"><a xlink:href="FireSimulator_8h.html" target="_top" xlink:title="Core fire&#45;evacuation simulation engine.">
<polygon fill="white" stroke="#666666" points="554.5,-239 409.5,-239 409.5,-220 554.5,-220 554.5,-239"/>
<text text-anchor="middle" x="482" y="-227" font-family="Helvetica,sans-Serif" font-size="10.00">simulation/FireSimulator.h</text>
</a>
</g>
</g>
<!-- Node1&#45;&gt;Node13 -->
<g id="edge19_Node000001_Node000013" class="edge">
<title>Node1&#45;&gt;Node13</title>
<g id="a_edge19_Node000001_Node000013"><a xlink:title=" ">
<path fill="none" stroke="#63b8ff" d="M293.4,-274.99C337.13,-264.67 395.72,-250.85 435.93,-241.37"/>
<polygon fill="#63b8ff" stroke="#63b8ff" points="436.81,-244.76 445.74,-239.05 435.2,-237.94 436.81,-244.76"/>
</a>
</g>
</g>
<!-- Node6&#45;&gt;Node4 -->
<g id="edge7_Node000006_Node000004" class="edge">
<title>Node6&#45;&gt;Node4</title>
<g id="a_edge7_Node000006_Node000004"><a xlink:title=" ">
<path fill="none" stroke="#63b8ff" d="M475.86,-109.66C463.38,-91.69 434.88,-50.64 418.72,-27.38"/>
<polygon fill="#63b8ff" stroke="#63b8ff" points="421.59,-25.38 413.01,-19.16 415.84,-29.37 421.59,-25.38"/>
</a>
</g>
</g>
<!-- Node6&#45;&gt;Node5 -->
<g id="edge8_Node000006_Node000005" class="edge">
<title>Node6&#45;&gt;Node5</title>
<g id="a_edge8_Node000006_Node000005"><a xlink:title=" ">
<path fill="none" stroke="#63b8ff" d="M465.61,-109.98C449.43,-101.57 424.43,-88.59 405.62,-78.81"/>
<polygon fill="#63b8ff" stroke="#63b8ff" points="407.17,-75.68 396.69,-74.17 403.95,-81.89 407.17,-75.68"/>
</a>
</g>
</g>
<!-- Node7 -->
<g id="Node000007" class="node">
<title>Node7</title>
<g id="a_Node000007"><a xlink:title=" ">
<polygon fill="#e0e0e0" stroke="#999999" points="552,-74 508,-74 508,-55 552,-55 552,-74"/>
<text text-anchor="middle" x="530" y="-62" font-family="Helvetica,sans-Serif" font-size="10.00">limits</text>
</a>
</g>
</g>
<!-- Node6&#45;&gt;Node7 -->
<g id="edge6_Node000006_Node000007" class="edge">
<title>Node6&#45;&gt;Node7</title>
<g id="a_edge6_Node000006_Node000007"><a xlink:title=" ">
<path fill="none" stroke="#63b8ff" d="M489.93,-109.75C496.85,-102.11 507.07,-90.82 515.45,-81.56"/>
<polygon fill="#63b8ff" stroke="#63b8ff" points="518.1,-83.85 522.22,-74.09 512.91,-79.15 518.1,-83.85"/>
</a>
</g>
</g>
<!-- Node6&#45;&gt;Node8 -->
<g id="edge9_Node000006_Node000008" class="edge">
<title>Node6&#45;&gt;Node8</title>
<g id="a_edge9_Node000006_Node000008"><a xlink:title=" ">
<path fill="none" stroke="#63b8ff" d="M505.3,-109.98C529.25,-101.23 566.78,-87.51 593.83,-77.62"/>
<polygon fill="#63b8ff" stroke="#63b8ff" points="595.09,-80.89 603.28,-74.17 592.69,-74.32 595.09,-80.89"/>
</a>
</g>
</g>
<!-- Node6&#45;&gt;Node10 -->
<g id="edge12_Node000006_Node000010" class="edge">
<title>Node6&#45;&gt;Node10</title>
<g id="a_edge12_Node000006_Node000010"><a xlink:title=" ">
<path fill="none" stroke="#63b8ff" d="M449.38,-109.98C414.71,-100.93 359.74,-86.58 321.65,-76.64"/>
<polygon fill="#63b8ff" stroke="#63b8ff" points="322.43,-73.22 311.87,-74.08 320.66,-79.99 322.43,-73.22"/>
</a>
</g>
</g>
<!-- Node8&#45;&gt;Node4 -->
<g id="edge10_Node000008_Node000004" class="edge">
<title>Node8&#45;&gt;Node4</title>
<g id="a_edge10_Node000008_Node000004"><a xlink:title=" ">
<path fill="none" stroke="#63b8ff" d="M591.65,-54.98C552.94,-45.66 490.87,-30.71 449.52,-20.74"/>
<polygon fill="#63b8ff" stroke="#63b8ff" points="450.29,-17.33 439.75,-18.39 448.65,-24.13 450.29,-17.33"/>
</a>
</g>
</g>
<!-- Node9 -->
<g id="Node000009" class="node">
<title>Node9</title>
<g id="a_Node000009"><a xlink:href="Node_8h.html" target="_top" xlink:title="Generic singly&#45;linked node used by LinkedList and Queue.">
<polygon fill="white" stroke="#666666" points="652.5,-19 601.5,-19 601.5,0 652.5,0 652.5,-19"/>
<text text-anchor="middle" x="627" y="-7" font-family="Helvetica,sans-Serif" font-size="10.00">Node.h</text>
</a>
</g>
</g>
<!-- Node8&#45;&gt;Node9 -->
<g id="edge11_Node000008_Node000009" class="edge">
<title>Node8&#45;&gt;Node9</title>
<g id="a_edge11_Node000008_Node000009"><a xlink:title=" ">
<path fill="none" stroke="#63b8ff" d="M627,-54.75C627,-47.8 627,-37.85 627,-29.13"/>
<polygon fill="#63b8ff" stroke="#63b8ff" points="630.5,-29.09 627,-19.09 623.5,-29.09 630.5,-29.09"/>
</a>
</g>
</g>
<!-- Node10&#45;&gt;Node4 -->
<g id="edge14_Node000010_Node000004" class="edge">
<title>Node10&#45;&gt;Node4</title>
<g id="a_edge14_Node000010_Node000004"><a xlink:title=" ">
<path fill="none" stroke="#63b8ff" d="M299.57,-54.98C320.43,-46.34 352.97,-32.87 376.77,-23.02"/>
<polygon fill="#63b8ff" stroke="#63b8ff" points="378.16,-26.23 386.06,-19.17 375.48,-19.76 378.16,-26.23"/>
</a>
</g>
</g>
<!-- Node11 -->
<g id="Node000011" class="node">
<title>Node11</title>
<g id="a_Node000011"><a xlink:title=" ">
<polygon fill="#e0e0e0" stroke="#999999" points="305.5,-19 252.5,-19 252.5,0 305.5,0 305.5,-19"/>
<text text-anchor="middle" x="279" y="-7" font-family="Helvetica,sans-Serif" font-size="10.00">cstddef</text>
</a>
</g>
</g>
<!-- Node10&#45;&gt;Node11 -->
<g id="edge13_Node000010_Node000011" class="edge">
<title>Node10&#45;&gt;Node11</title>
<g id="a_edge13_Node000010_Node000011"><a xlink:title=" ">
<path fill="none" stroke="#63b8ff" d="M279,-54.75C279,-47.8 279,-37.85 279,-29.13"/>
<polygon fill="#63b8ff" stroke="#63b8ff" points="282.5,-29.09 279,-19.09 275.5,-29.09 282.5,-29.09"/>
</a>
</g>
</g>
<!-- Node12&#45;&gt;Node8 -->
<g id="edge17_Node000012_Node000008" class="edge">
<title>Node12&#45;&gt;Node8</title>
<g id="a_edge17_Node000012_Node000008"><a xlink:title=" ">
<path fill="none" stroke="#63b8ff" d="M707.58,-109.98C692.55,-101.69 669.46,-88.94 651.84,-79.22"/>
<polygon fill="#63b8ff" stroke="#63b8ff" points="653.15,-75.94 642.7,-74.17 649.77,-82.07 653.15,-75.94"/>
</a>
</g>
</g>
<!-- Node13&#45;&gt;Node5 -->
<g id="edge20_Node000013_Node000005" class="edge">
<title>Node13&#45;&gt;Node5</title>
<g id="a_edge20_Node000013_Node000005"><a xlink:title=" ">
<path fill="none" stroke="#63b8ff" d="M424.43,-219.99C403.05,-213.73 380.88,-202.86 368,-184 347.28,-153.67 361.09,-108.38 371.49,-83.49"/>
<polygon fill="#63b8ff" stroke="#63b8ff" points="374.77,-84.74 375.63,-74.18 368.37,-81.9 374.77,-84.74"/>
</a>
</g>
</g>
<!-- Node13&#45;&gt;Node6 -->
<g id="edge26_Node000013_Node000006" class="edge">
<title>Node13&#45;&gt;Node6</title>
<g id="a_edge26_Node000013_Node000006"><a xlink:title=" ">
<path fill="none" stroke="#63b8ff" d="M497.18,-219.98C515.3,-208.61 541.99,-187.28 532,-165 526.5,-152.74 515.77,-142.48 505.65,-134.91"/>
<polygon fill="#63b8ff" stroke="#63b8ff" points="507.64,-132.03 497.43,-129.2 503.65,-137.78 507.64,-132.03"/>
</a>
</g>
</g>
<!-- Node13&#45;&gt;Node7 -->
<g id="edge21_Node000013_Node000007" class="edge">
<title>Node13&#45;&gt;Node7</title>
<g id="a_edge21_Node000013_Node000007"><a xlink:title=" ">
<path fill="none" stroke="#63b8ff" d="M501.9,-219.99C516.67,-212.62 536.07,-200.54 547,-184 565.33,-156.26 567.21,-141.95 558,-110 555.13,-100.06 549.32,-90.2 543.72,-82.29"/>
<polygon fill="#63b8ff" stroke="#63b8ff" points="546.5,-80.16 537.67,-74.3 540.92,-84.39 546.5,-80.16"/>
</a>
</g>
</g>
<!-- Node13&#45;&gt;Node8 -->
<g id="edge23_Node000013_Node000008" class="edge">
<title>Node13&#45;&gt;Node8</title>
<g id="a_edge23_Node000013_Node000008"><a xlink:title=" ">
<path fill="none" stroke="#63b8ff" d="M506.95,-219.95C525.14,-212.7 549.41,-200.79 566,-184 594.9,-154.75 613.07,-109.01 621.48,-83.77"/>
<polygon fill="#63b8ff" stroke="#63b8ff" points="624.89,-84.62 624.58,-74.03 618.21,-82.5 624.89,-84.62"/>
</a>
</g>
</g>
<!-- Node13&#45;&gt;Node10 -->
<g id="edge25_Node000013_Node000010" class="edge">
<title>Node13&#45;&gt;Node10</title>
<g id="a_edge25_Node000013_Node000010"><a xlink:title=" ">
<path fill="none" stroke="#63b8ff" d="M435.18,-219.93C409.47,-213.4 378.19,-202.32 355,-184 320.45,-156.7 296.89,-109.13 285.96,-83.34"/>
<polygon fill="#63b8ff" stroke="#63b8ff" points="289.18,-81.98 282.17,-74.04 282.7,-84.62 289.18,-81.98"/>
</a>
</g>
</g>
<!-- Node13&#45;&gt;Node12 -->
<g id="edge24_Node000013_Node000012" class="edge">
<title>Node13&#45;&gt;Node12</title>
<g id="a_edge24_Node000013_Node000012"><a xlink:title=" ">
<path fill="none" stroke="#63b8ff" d="M530.74,-219.95C563.16,-213.06 606.04,-201.58 641,-184 665.97,-171.44 690.82,-150.76 706.5,-136.43"/>
<polygon fill="#63b8ff" stroke="#63b8ff" points="709.3,-138.6 714.21,-129.21 704.52,-133.49 709.3,-138.6"/>
</a>
</g>
</g>
<!-- Node14 -->
<g id="Node000014" class="node">
<title>Node14</title>
<g id="a_Node000014"><a xlink:title=" ">
<polygon fill="#e0e0e0" stroke="#999999" points="423.5,-184 376.5,-184 376.5,-165 423.5,-165 423.5,-184"/>
<text text-anchor="middle" x="400" y="-172" font-family="Helvetica,sans-Serif" font-size="10.00">cmath</text>
</a>
</g>
</g>
<!-- Node13&#45;&gt;Node14 -->
<g id="edge22_Node000013_Node000014" class="edge">
<title>Node13&#45;&gt;Node14</title>
<g id="a_edge22_Node000013_Node000014"><a xlink:title=" ">
<path fill="none" stroke="#63b8ff" d="M468.83,-219.98C456.23,-211.84 437,-199.41 422.06,-189.76"/>
<polygon fill="#63b8ff" stroke="#63b8ff" points="423.71,-186.66 413.41,-184.17 419.91,-192.54 423.71,-186.66"/>
</a>
</g>
</g>
<!-- Node15 -->
<g id="Node000015" class="node">
<title>Node15</title>
<g id="a_Node000015"><a xlink:href="SimEntities_8h.html" target="_top" xlink:title="Per&#45;tick simulation entities: CellNode, Corridor, Person, WaitingQueue.">
<polygon fill="white" stroke="#666666" points="522.5,-184 441.5,-184 441.5,-165 522.5,-165 522.5,-184"/>
<text text-anchor="middle" x="482" y="-172" font-family="Helvetica,sans-Serif" font-size="10.00">SimEntities.h</text>
</a>
</g>
</g>
<!-- Node13&#45;&gt;Node15 -->
<g id="edge27_Node000013_Node000015" class="edge">
<title>Node13&#45;&gt;Node15</title>
<g id="a_edge27_Node000013_Node000015"><a xlink:title=" ">
<path fill="none" stroke="#63b8ff" d="M482,-219.75C482,-212.8 482,-202.85 482,-194.13"/>
<polygon fill="#63b8ff" stroke="#63b8ff" points="485.5,-194.09 482,-184.09 478.5,-194.09 485.5,-194.09"/>
</a>
</g>
</g>
<!-- Node15&#45;&gt;Node5 -->
<g id="edge28_Node000015_Node000005" class="edge">
<title>Node15&#45;&gt;Node5</title>
<g id="a_edge28_Node000015_Node000005"><a xlink:title=" ">
<path fill="none" stroke="#63b8ff" d="M459.38,-164.95C442.68,-157.63 420.43,-145.63 406,-129 394.79,-116.08 387.97,-97.67 384.15,-84"/>
<polygon fill="#63b8ff" stroke="#63b8ff" points="387.53,-83.09 381.7,-74.25 380.74,-84.8 387.53,-83.09"/>
</a>
</g>
</g>
<!-- Node15&#45;&gt;Node6 -->
<g id="edge30_Node000015_Node000006" class="edge">
<title>Node15&#45;&gt;Node6</title>
<g id="a_edge30_Node000015_Node000006"><a xlink:title=" ">
<path fill="none" stroke="#63b8ff" d="M482,-164.75C482,-157.8 482,-147.85 482,-139.13"/>
<polygon fill="#63b8ff" stroke="#63b8ff" points="485.5,-139.09 482,-129.09 478.5,-139.09 485.5,-139.09"/>
</a>
</g>
</g>
<!-- Node15&#45;&gt;Node12 -->
<g id="edge29_Node000015_Node000012" class="edge">
<title>Node15&#45;&gt;Node12</title>
<g id="a_edge29_Node000015_Node000012"><a xlink:title=" ">
<path fill="none" stroke="#63b8ff" d="M520.72,-164.98C562.41,-155.82 628.82,-141.21 674.09,-131.26"/>
<polygon fill="#63b8ff" stroke="#63b8ff" points="674.96,-134.65 683.98,-129.08 673.46,-127.81 674.96,-134.65"/>
</a>
</g>
</g>
</g>
</svg>

<g id="navigator" transform="translate(0 0)" fill="#404254">
  <rect fill="#f2f5e9" fill-opacity="0.5" stroke="#606060" stroke-width=".5" x="0" y="0" width="60" height="60"/>
  <use id="zoomplus" xlink:href="#zoomPlus" x="17" y="9" onmousedown="handleZoom(evt,'in')"/>
  <use id="zoomminus" xlink:href="#zoomMin" x="42" y="9" onmousedown="handleZoom(evt,'out')"/>
  <use id="reset" xlink:href="#resetDef" x="30" y="36" onmousedown="handleReset()"/>
   <use id="arrowup" xlink:href="#arrowUp" x="0" y="0" onmousedown="handlePan(0,-1)"/>
  <use id="arrowright" xlink:href="#arrowRight" x="0" y="0" onmousedown="handlePan(1,0)"/>
  <use id="arrowdown" xlink:href="#arrowDown" x="0" y="0" onmousedown="handlePan(0,1)"/>
  <use id="arrowleft" xlink:href="#arrowLeft" x="0" y="0" onmousedown="handlePan(-1,0)"/>
</g>
<svg viewBox="0 0 15 15" width="100%" height="30px" preserveAspectRatio="xMaxYMin meet">
 <g id="arrow_out" transform="scale(0.3 0.3)">
  <a xlink:href="test__boundary_8cpp__incl_org.svg" target="_base">
   <rect id="button" ry="5" rx="5" y="6" x="6" height="38" width="38"
        fill="#f2f5e9" fill-opacity="0.5" stroke="#606060" stroke-width="1.0"/>
   <path id="arrow"
     d="M 11.500037,31.436501 C 11.940474,20.09759 22.043105,11.32322 32.158766,21.979434 L 37.068811,17.246167 C 37.068811,17.246167 37.088388,32 37.088388,32 L 22.160133,31.978069 C 22.160133,31.978069 26.997745,27.140456 26.997745,27.140456 C 18.528582,18.264221 13.291696,25.230495 11.500037,31.436501 z"
     style="fill:#404040;"/>
  </a>
 </g>
</svg>

<style type='text/css'>
<![CDATA[
[data-mouse-over-selected='false'] { opacity: 0.7; }
[data-mouse-over-selected='true']  { opacity: 1.0; }
]]>
</style>
<script type="application/ecmascript"><![CDATA[
document.addEventListener('DOMContentLoaded', (event) => {
  highlightEdges();
  highlightAdjacentNodes();
});
]]></script>
</svg>
