<?xml version="1.0" encoding="UTF-8" standalone="no"?>
<!DOCTYPE svg PUBLIC "-//W3C//DTD SVG 1.1//EN"
 "http://www.w3.org/Graphics/SVG/1.1/DTD/svg11.dtd">
<!-- Generated by graphviz version 2.43.0 (0)
 -->
<!-- Title: tests/integration/test_graph_workflow.cpp Pages: 1 -->
<svg width="482pt" height="203pt"
 viewBox="0.00 0.00 482.00 203.00" xmlns="http://www.w3.org/2000/svg" xmlns:xlink="http://www.w3.org/1999/xlink">
<g id="graph0" class="graph" transform="scale(1 1) rotate(0) translate(4 199)">
<title>tests/integration/test_graph_workflow.cpp</title>
<!-- Node1 -->
<g id="Node000001" class="node">
<title>Node1</title>
<g id="a_Node000001"><a xlink:title=" ">
<polygon fill="#999999" stroke="#666666" points="188.5,-195 69.5,-195 69.5,-165 188.5,-165 188.5,-195"/>
<text text-anchor="start" x="77.5" y="-183" font-family="Helvetica,sans-Serif" font-size="10.00">tests/integration/test</text>
<text text-anchor="middle" x="129" y="-172" font-family="Helvetica,sans-Serif" font-size="10.00">_graph_workflow.cpp</text>
</a>
</g>
</g>
<!-- Node2 -->
<g id="Node000002" class="node">
<title>Node2</title>
<g id="a_Node000002"><a xlink:title=" ">
<polygon fill="#e0e0e0" stroke="#999999" points="52,-129 0,-129 0,-110 52,-110 52,-129"/>
<text text-anchor="middle" x="26" y="-117" font-family="Helvetica,sans-Serif" font-size="10.00">cassert</text>
</a>
</g>
</g>
<!-- Node1&#45;&gt;Node2 -->
<g id="edge1_Node000001_Node000002" class="edge">
<title>Node1&#45;&gt;Node2</title>
<g id="a_edge1_Node000001_Node000002"><a xlink:title=" ">
<path fill="none" stroke="#63b8ff" d="M104.33,-164.99C87.91,-155.66 66.45,-143.47 50.14,-134.21"/>
<polygon fill="#63b8ff" stroke="#63b8ff" points="51.63,-131.03 41.21,-129.14 48.18,-137.12 51.63,-131.03"/>
</a>
</g>
</g>
<!-- Node3 -->
<g id="Node000003" class="node">
<title>Node3</title>
<g id="a_Node000003"><a xlink:title=" ">
<polygon fill="#e0e0e0" stroke="#999999" points="130,-129 70,-129 70,-110 130,-110 130,-129"/>
<text text-anchor="middle" x="100" y="-117" font-family="Helvetica,sans-Serif" font-size="10.00">iostream</text>
</a>
</g>
</g>
<!-- Node1&#45;&gt;Node3 -->
<g id="edge2_Node000001_Node000003" class="edge">
<title>Node1&#45;&gt;Node3</title>
<g id="a_edge2_Node000001_Node000003"><a xlink:title=" ">
<path fill="none" stroke="#63b8ff" d="M121.98,-164.84C118.03,-156.87 113.06,-146.84 108.84,-138.33"/>
<polygon fill="#63b8ff" stroke="#63b8ff" points="111.92,-136.67 104.35,-129.27 105.65,-139.78 111.92,-136.67"/>
</a>
</g>
</g>
<!-- Node4 -->
<g id="Node000004" class="node">
<title>Node4</title>
<g id="a_Node000004"><a xlink:title=" ">
<polygon fill="#e0e0e0" stroke="#999999" points="168,-74 124,-74 124,-55 168,-55 168,-74"/>
<text text-anchor="middle" x="146" y="-62" font-family="Helvetica,sans-Serif" font-size="10.00">string</text>
</a>
</g>
</g>
<!-- Node1&#45;&gt;Node4 -->
<g id="edge3_Node000001_Node000004" class="edge">
<title>Node1&#45;&gt;Node4</title>
<g id="a_edge3_Node000001_Node000004"><a xlink:title=" ">
<path fill="none" stroke="#63b8ff" d="M132.22,-164.62C134.37,-154.66 137.13,-141.07 139,-129 141.31,-114.06 143.15,-97.03 144.36,-84.37"/>
<polygon fill="#63b8ff" stroke="#63b8ff" points="147.87,-84.44 145.29,-74.16 140.89,-83.8 147.87,-84.44"/>
</a>
</g>
</g>
<!-- Node5 -->
<g id="Node000005" class="node">
<title>Node5</title>
<g id="a_Node000005"><a xlink:href="Graph_8h.html" target="_top" xlink:title="Adjacency&#45;list directed/undirected graph with Dijkstra shortest&#45;path.">
<polygon fill="white" stroke="#666666" points="332,-129 198,-129 198,-110 332,-110 332,-129"/>
<text text-anchor="middle" x="265" y="-117" font-family="Helvetica,sans-Serif" font-size="10.00">data_structures/Graph.h</text>
</a>
</g>
</g>
<!-- Node1&#45;&gt;Node5 -->
<g id="edge4_Node000001_Node000005" class="edge">
<title>Node1&#45;&gt;Node5</title>
<g id="a_edge4_Node000001_Node000005"><a xlink:title=" ">
<path fill="none" stroke="#63b8ff" d="M161.58,-164.99C184.06,-155.31 213.72,-142.56 235.51,-133.18"/>
<polygon fill="#63b8ff" stroke="#63b8ff" points="237.11,-136.31 244.92,-129.14 234.35,-129.88 237.11,-136.31"/>
</a>
</g>
</g>
<!-- Node5&#45;&gt;Node4 -->
<g id="edge7_Node000005_Node000004" class="edge">
<title>Node5&#45;&gt;Node4</title>
<g id="a_edge7_Node000005_Node000004"><a xlink:title=" ">
<path fill="none" stroke="#63b8ff" d="M245.88,-109.98C226.65,-101.42 196.77,-88.11 174.69,-78.28"/>
<polygon fill="#63b8ff" stroke="#63b8ff" points="176.03,-75.04 165.47,-74.17 173.18,-81.44 176.03,-75.04"/>
</a>
</g>
</g>
<!-- Node6 -->
<g id="Node000006" class="node">
<title>Node6</title>
<g id="a_Node000006"><a xlink:title=" ">
<polygon fill="#e0e0e0" stroke="#999999" points="474,-74 430,-74 430,-55 474,-55 474,-74"/>
<text text-anchor="middle" x="452" y="-62" font-family="Helvetica,sans-Serif" font-size="10.00">limits</text>
</a>
</g>
</g>
<!-- Node5&#45;&gt;Node6 -->
<g id="edge5_Node000005_Node000006" class="edge">
<title>Node5&#45;&gt;Node6</title>
<g id="a_edge5_Node000005_Node000006"><a xlink:title=" ">
<path fill="none" stroke="#63b8ff" d="M295.04,-109.98C329.34,-100.26 385.21,-84.43 420.22,-74.51"/>
<polygon fill="#63b8ff" stroke="#63b8ff" points="421.27,-77.85 429.93,-71.75 419.36,-71.11 421.27,-77.85"/>
</a>
</g>
</g>
<!-- Node7 -->
<g id="Node000007" class="node">
<title>Node7</title>
<g id="a_Node000007"><a xlink:title=" ">
<polygon fill="#e0e0e0" stroke="#999999" points="320.5,-19 255.5,-19 255.5,0 320.5,0 320.5,-19"/>
<text text-anchor="middle" x="288" y="-7" font-family="Helvetica,sans-Serif" font-size="10.00">stdexcept</text>
</a>
</g>
</g>
<!-- Node5&#45;&gt;Node7 -->
<g id="edge6_Node000005_Node000007" class="edge">
<title>Node5&#45;&gt;Node7</title>
<g id="a_edge6_Node000005_Node000007"><a xlink:title=" ">
<path fill="none" stroke="#63b8ff" d="M266.88,-109.66C270.62,-92.09 279.07,-52.45 284.07,-28.95"/>
<polygon fill="#63b8ff" stroke="#63b8ff" points="287.5,-29.67 286.16,-19.16 280.65,-28.21 287.5,-29.67"/>
</a>
</g>
</g>
<!-- Node8 -->
<g id="Node000008" class="node">
<title>Node8</title>
<g id="a_Node000008"><a xlink:href="LinkedList_8h.html" target="_top" xlink:title="Generic singly&#45;linked list with pointer&#45;based node storage.">
<polygon fill="white" stroke="#666666" points="260,-74 186,-74 186,-55 260,-55 260,-74"/>
<text text-anchor="middle" x="223" y="-62" font-family="Helvetica,sans-Serif" font-size="10.00">LinkedList.h</text>
</a>
</g>
</g>
<!-- Node5&#45;&gt;Node8 -->
<g id="edge8_Node000005_Node000008" class="edge">
<title>Node5&#45;&gt;Node8</title>
<g id="a_edge8_Node000005_Node000008"><a xlink:title=" ">
<path fill="none" stroke="#63b8ff" d="M258.06,-109.75C252.13,-102.26 243.43,-91.28 236.18,-82.13"/>
<polygon fill="#63b8ff" stroke="#63b8ff" points="238.76,-79.75 229.81,-74.09 233.27,-84.1 238.76,-79.75"/>
</a>
</g>
</g>
<!-- Node10 -->
<g id="Node000010" class="node">
<title>Node10</title>
<g id="a_Node000010"><a xlink:href="priority__queue_8h.html" target="_top" xlink:title="Pointer&#45;based binary min&#45;heap priority queue.">
<polygon fill="white" stroke="#666666" points="412,-74 316,-74 316,-55 412,-55 412,-74"/>
<text text-anchor="middle" x="364" y="-62" font-family="Helvetica,sans-Serif" font-size="10.00">priority_queue.h</text>
</a>
</g>
</g>
<!-- Node5&#45;&gt;Node10 -->
<g id="edge11_Node000005_Node000010" class="edge">
<title>Node5&#45;&gt;Node10</title>
<g id="a_edge11_Node000005_Node000010"><a xlink:title=" ">
<path fill="none" stroke="#63b8ff" d="M280.91,-109.98C296.55,-101.61 320.66,-88.7 338.88,-78.95"/>
<polygon fill="#63b8ff" stroke="#63b8ff" points="340.64,-81.98 347.8,-74.17 337.34,-75.8 340.64,-81.98"/>
</a>
</g>
</g>
<!-- Node8&#45;&gt;Node7 -->
<g id="edge9_Node000008_Node000007" class="edge">
<title>Node8&#45;&gt;Node7</title>
<g id="a_edge9_Node000008_Node000007"><a xlink:title=" ">
<path fill="none" stroke="#63b8ff" d="M233.44,-54.98C243.15,-47.07 257.82,-35.11 269.5,-25.58"/>
<polygon fill="#63b8ff" stroke="#63b8ff" points="271.83,-28.2 277.37,-19.17 267.4,-22.78 271.83,-28.2"/>
</a>
</g>
</g>
<!-- Node9 -->
<g id="Node000009" class="node">
<title>Node9</title>
<g id="a_Node000009"><a xlink:href="Node_8h.html" target="_top" xlink:title="Generic singly&#45;linked node used by LinkedList and Queue.">
<polygon fill="white" stroke="#666666" points="237.5,-19 186.5,-19 186.5,0 237.5,0 237.5,-19"/>
<text text-anchor="middle" x="212" y="-7" font-family="Helvetica,sans-Serif" font-size="10.00">Node.h</text>
</a>
</g>
</g>
<!-- Node8&#45;&gt;Node9 -->
<g id="edge10_Node000008_Node000009" class="edge">
<title>Node8&#45;&gt;Node9</title>
<g id="a_edge10_Node000008_Node000009"><a xlink:title=" ">
<path fill="none" stroke="#63b8ff" d="M221.18,-54.75C219.74,-47.8 217.68,-37.85 215.87,-29.13"/>
<polygon fill="#63b8ff" stroke="#63b8ff" points="219.24,-28.17 213.78,-19.09 212.39,-29.59 219.24,-28.17"/>
</a>
</g>
</g>
<!-- Node10&#45;&gt;Node7 -->
<g id="edge13_Node000010_Node000007" class="edge">
<title>Node10&#45;&gt;Node7</title>
<g id="a_edge13_Node000010_Node000007"><a xlink:title=" ">
<path fill="none" stroke="#63b8ff" d="M351.79,-54.98C340.22,-46.92 322.62,-34.65 308.84,-25.03"/>
<polygon fill="#63b8ff" stroke="#63b8ff" points="310.64,-22.02 300.43,-19.17 306.63,-27.76 310.64,-22.02"/>
</a>
</g>
</g>
<!-- Node11 -->
<g id="Node000011" class="node">
<title>Node11</title>
<g id="a_Node000011"><a xlink:title=" ">
<polygon fill="#e0e0e0" stroke="#999999" points="391.5,-19 338.5,-19 338.5,0 391.5,0 391.5,-19"/>
<text text-anchor="middle" x="365" y="-7" font-family="Helvetica,sans-Serif" font-size="10.00">cstddef</text>
</a>
</g>
</g>
<!-- Node10&#45;&gt;Node11 -->
<g id="edge12_Node000010_Node000011" class="edge">
<title>Node10&#45;&gt;Node11</title>
<g id="a_edge12_Node000010_Node000011"><a xlink:title=" ">
<path fill="none" stroke="#63b8ff" d="M364.17,-54.75C364.3,-47.8 364.48,-37.85 364.65,-29.13"/>
<polygon fill="#63b8ff" stroke="#63b8ff" points="368.15,-29.15 364.84,-19.09 361.15,-29.02 368.15,-29.15"/>
</a>
</g>
</g>
</g>
</svg>
