<?xml version="1.0" encoding="UTF-8" standalone="no"?>
<!DOCTYPE svg PUBLIC "-//W3C//DTD SVG 1.1//EN"
 "http://www.w3.org/Graphics/SVG/1.1/DTD/svg11.dtd">
<!-- Generated by graphviz version 2.43.0 (0)
 -->
<!-- Title: tests/performance/test_performance.cpp Pages: 1 -->
<svg width="976pt" height="313pt"
 viewBox="0.00 0.00 976.00 313.00" xmlns="http://www.w3.org/2000/svg" xmlns:xlink="http://www.w3.org/1999/xlink">
<g id="graph0" class="graph" transform="scale(1 1) rotate(0) translate(4 309)">
<title>tests/performance/test_performance.cpp</title>
<!-- Node1 -->
<g id="Node000001" class="node">
<title>Node1</title>
<g id="a_Node000001"><a xlink:title="Performance benchmarks for the custom data structures and simulation engine.">
<polygon fill="#999999" stroke="#666666" points="469,-305 341,-305 341,-275 469,-275 469,-305"/>
<text text-anchor="start" x="349" y="-293" font-family="Helvetica,sans-Serif" font-size="10.00">tests/performance/test</text>
<text text-anchor="middle" x="405" y="-282" font-family="Helvetica,sans-Serif" font-size="10.00">_performance.cpp</text>
</a>
</g>
</g>
<!-- Node2 -->
<g id="Node000002" class="node">
<title>Node2</title>
<g id="a_Node000002"><a xlink:title=" ">
<polygon fill="#e0e0e0" stroke="#999999" points="52,-239 0,-239 0,-220 52,-220 52,-239"/>
<text text-anchor="middle" x="26" y="-227" font-family="Helvetica,sans-Serif" font-size="10.00">cassert</text>
</a>
</g>
</g>
<!-- Node1&#45;&gt;Node2 -->
<g id="edge1_Node000001_Node000002" class="edge">
<title>Node1&#45;&gt;Node2</title>
<g id="a_edge1_Node000001_Node000002"><a xlink:title=" ">
<path fill="none" stroke="#63b8ff" d="M340.98,-281.52C273.84,-273.27 165.08,-258.73 62.25,-239.09"/>
<polygon fill="#63b8ff" stroke="#63b8ff" points="62.8,-235.63 52.32,-237.17 61.47,-242.5 62.8,-235.63"/>
</a>
</g>
</g>
<!-- Node3 -->
<g id="Node000003" class="node">
<title>Node3</title>
<g id="a_Node000003"><a xlink:title=" ">
<polygon fill="#e0e0e0" stroke="#999999" points="120,-239 70,-239 70,-220 120,-220 120,-239"/>
<text text-anchor="middle" x="95" y="-227" font-family="Helvetica,sans-Serif" font-size="10.00">chrono</text>
</a>
</g>
</g>
<!-- Node1&#45;&gt;Node3 -->
<g id="edge2_Node000001_Node000003" class="edge">
<title>Node1&#45;&gt;Node3</title>
<g id="a_edge2_Node000001_Node000003"><a xlink:title=" ">
<path fill="none" stroke="#63b8ff" d="M340.82,-277.76C285.84,-267.99 204.59,-253.2 134,-239 132.74,-238.75 131.46,-238.48 130.16,-238.22"/>
<polygon fill="#63b8ff" stroke="#63b8ff" points="130.66,-234.75 120.15,-236.11 129.21,-241.59 130.66,-234.75"/>
</a>
</g>
</g>
<!-- Node4 -->
<g id="Node000004" class="node">
<title>Node4</title>
<g id="a_Node000004"><a xlink:title=" ">
<polygon fill="#e0e0e0" stroke="#999999" points="212.5,-19 159.5,-19 159.5,0 212.5,0 212.5,-19"/>
<text text-anchor="middle" x="186" y="-7" font-family="Helvetica,sans-Serif" font-size="10.00">cstddef</text>
</a>
</g>
</g>
<!-- Node1&#45;&gt;Node4 -->
<g id="edge3_Node000001_Node000004" class="edge">
<title>Node1&#45;&gt;Node4</title>
<g id="a_edge3_Node000001_Node000004"><a xlink:title=" ">
<path fill="none" stroke="#63b8ff" d="M340.81,-287.51C264.69,-281.92 148,-259.64 148,-175.5 148,-175.5 148,-175.5 148,-118.5 148,-85.02 164.45,-48.84 175.7,-28.01"/>
<polygon fill="#63b8ff" stroke="#63b8ff" points="178.87,-29.53 180.72,-19.1 172.76,-26.1 178.87,-29.53"/>
</a>
</g>
</g>
<!-- Node5 -->
<g id="Node000005" class="node">
<title>Node5</title>
<g id="a_Node000005"><a xlink:title=" ">
<polygon fill="#e0e0e0" stroke="#999999" points="889.5,-239 824.5,-239 824.5,-220 889.5,-220 889.5,-239"/>
<text text-anchor="middle" x="857" y="-227" font-family="Helvetica,sans-Serif" font-size="10.00">functional</text>
</a>
</g>
</g>
<!-- Node1&#45;&gt;Node5 -->
<g id="edge4_Node000001_Node000005" class="edge">
<title>Node1&#45;&gt;Node5</title>
<g id="a_edge4_Node000001_Node000005"><a xlink:title=" ">
<path fill="none" stroke="#63b8ff" d="M469.33,-282.18C549.35,-273.45 690.05,-257.24 810,-239 811.46,-238.78 812.94,-238.55 814.44,-238.31"/>
<polygon fill="#63b8ff" stroke="#63b8ff" points="815.14,-241.74 824.42,-236.64 813.98,-234.83 815.14,-241.74"/>
</a>
</g>
</g>
<!-- Node6 -->
<g id="Node000006" class="node">
<title>Node6</title>
<g id="a_Node000006"><a xlink:title=" ">
<polygon fill="#e0e0e0" stroke="#999999" points="968,-239 908,-239 908,-220 968,-220 968,-239"/>
<text text-anchor="middle" x="938" y="-227" font-family="Helvetica,sans-Serif" font-size="10.00">iostream</text>
</a>
</g>
</g>
<!-- Node1&#45;&gt;Node6 -->
<g id="edge5_Node000001_Node000006" class="edge">
<title>Node1&#45;&gt;Node6</title>
<g id="a_edge5_Node000001_Node000006"><a xlink:title=" ">
<path fill="none" stroke="#63b8ff" d="M469.25,-284.84C561.85,-278.33 738.34,-263.98 897.84,-239.01"/>
<polygon fill="#63b8ff" stroke="#63b8ff" points="898.5,-242.45 907.83,-237.43 897.41,-235.54 898.5,-242.45"/>
</a>
</g>
</g>
<!-- Node7 -->
<g id="Node000007" class="node">
<title>Node7</title>
<g id="a_Node000007"><a xlink:title=" ">
<polygon fill="#e0e0e0" stroke="#999999" points="531,-74 487,-74 487,-55 531,-55 531,-74"/>
<text text-anchor="middle" x="509" y="-62" font-family="Helvetica,sans-Serif" font-size="10.00">string</text>
</a>
</g>
</g>
<!-- Node1&#45;&gt;Node7 -->
<g id="edge6_Node000001_Node000007" class="edge">
<title>Node1&#45;&gt;Node7</title>
<g id="a_edge6_Node000001_Node000007"><a xlink:title=" ">
<path fill="none" stroke="#63b8ff" d="M469.28,-282.75C510.23,-276.46 563.08,-263.93 604,-239 659.67,-205.09 677.96,-189.97 701,-129 703.99,-121.1 706.25,-116.61 701,-110 691.04,-97.47 593.07,-79.48 541.07,-70.71"/>
<polygon fill="#63b8ff" stroke="#63b8ff" points="541.45,-67.23 531.01,-69.03 540.3,-74.13 541.45,-67.23"/>
</a>
</g>
</g>
<!-- Node8 -->
<g id="Node000008" class="node">
<title>Node8</title>
<g id="a_Node000008"><a xlink:title=" ">
<polygon fill="#e0e0e0" stroke="#999999" points="334,-74 290,-74 290,-55 334,-55 334,-74"/>
<text text-anchor="middle" x="312" y="-62" font-family="Helvetica,sans-Serif" font-size="10.00">limits</text>
</a>
</g>
</g>
<!-- Node1&#45;&gt;Node8 -->
<g id="edge7_Node000001_Node000008" class="edge">
<title>Node1&#45;&gt;Node8</title>
<g id="a_edge7_Node000001_Node000008"><a xlink:title=" ">
<path fill="none" stroke="#63b8ff" d="M392.5,-274.89C370.1,-248.51 323.95,-188.96 308,-129 304.09,-114.3 305.54,-97.05 307.72,-84.24"/>
<polygon fill="#63b8ff" stroke="#63b8ff" points="311.18,-84.79 309.7,-74.3 304.31,-83.42 311.18,-84.79"/>
</a>
</g>
</g>
<!-- Node9 -->
<g id="Node000009" class="node">
<title>Node9</title>
<g id="a_Node000009"><a xlink:href="Graph_8h.html" target="_top" xlink:title="Adjacency&#45;list directed/undirected graph with Dijkstra shortest&#45;path.">
<polygon fill="white" stroke="#666666" points="462,-129 328,-129 328,-110 462,-110 462,-129"/>
<text text-anchor="middle" x="395" y="-117" font-family="Helvetica,sans-Serif" font-size="10.00">data_structures/Graph.h</text>
</a>
</g>
</g>
<!-- Node1&#45;&gt;Node9 -->
<g id="edge8_Node000001_Node000009" class="edge">
<title>Node1&#45;&gt;Node9</title>
<g id="a_edge8_Node000001_Node000009"><a xlink:title=" ">
<path fill="none" stroke="#63b8ff" d="M394.93,-274.92C388.7,-265.31 381.29,-252.01 378,-239 369.21,-204.21 380.01,-162.45 387.97,-138.94"/>
<polygon fill="#63b8ff" stroke="#63b8ff" points="391.37,-139.84 391.45,-129.25 384.78,-137.47 391.37,-139.84"/>
</a>
</g>
</g>
<!-- Node11 -->
<g id="Node000011" class="node">
<title>Node11</title>
<g id="a_Node000011"><a xlink:href="LinkedList_8h.html" target="_top" xlink:title="Generic singly&#45;linked list with pointer&#45;based node storage.">
<polygon fill="white" stroke="#666666" points="661,-74 587,-74 587,-55 661,-55 661,-74"/>
<text text-anchor="middle" x="624" y="-62" font-family="Helvetica,sans-Serif" font-size="10.00">LinkedList.h</text>
</a>
</g>
</g>
<!-- Node1&#45;&gt;Node11 -->
<g id="edge18_Node000001_Node000011" class="edge">
<title>Node1&#45;&gt;Node11</title>
<g id="a_edge18_Node000001_Node000011"><a xlink:title=" ">
<path fill="none" stroke="#63b8ff" d="M469.14,-283.75C516.32,-277.82 580.87,-265.31 632,-239 664.46,-222.3 671.89,-213.78 693,-184 712.92,-155.9 734.3,-139.18 716,-110 705.9,-93.89 688.13,-83.47 670.89,-76.8"/>
<polygon fill="#63b8ff" stroke="#63b8ff" points="672.01,-73.49 661.42,-73.47 669.69,-80.09 672.01,-73.49"/>
</a>
</g>
</g>
<!-- Node13 -->
<g id="Node000013" class="node">
<title>Node13</title>
<g id="a_Node000013"><a xlink:href="priority__queue_8h.html" target="_top" xlink:title="Pointer&#45;based binary min&#45;heap priority queue.">
<polygon fill="white" stroke="#666666" points="272,-74 176,-74 176,-55 272,-55 272,-74"/>
<text text-anchor="middle" x="224" y="-62" font-family="Helvetica,sans-Serif" font-size="10.00">priority_queue.h</text>
</a>
</g>
</g>
<!-- Node1&#45;&gt;Node13 -->
<g id="edge21_Node000001_Node000013" class="edge">
<title>Node1&#45;&gt;Node13</title>
<g id="a_edge21_Node000001_Node000013"><a xlink:title=" ">
<path fill="none" stroke="#63b8ff" d="M386.99,-274.92C375.13,-265.32 359.55,-252.02 347,-239 303.55,-193.92 293.79,-181.05 259,-129 249.17,-114.3 239.6,-96.62 232.95,-83.65"/>
<polygon fill="#63b8ff" stroke="#63b8ff" points="235.92,-81.77 228.3,-74.4 229.67,-84.91 235.92,-81.77"/>
</a>
</g>
</g>
<!-- Node14 -->
<g id="Node000014" class="node">
<title>Node14</title>
<g id="a_Node000014"><a xlink:href="Queue_8h.html" target="_top" xlink:title="Generic FIFO queue built on LinkedList.">
<polygon fill="white" stroke="#666666" points="692,-129 556,-129 556,-110 692,-110 692,-129"/>
<text text-anchor="middle" x="624" y="-117" font-family="Helvetica,sans-Serif" font-size="10.00">data_structures/Queue.h</text>
</a>
</g>
</g>
<!-- Node1&#45;&gt;Node14 -->
<g id="edge19_Node000001_Node000014" class="edge">
<title>Node1&#45;&gt;Node14</title>
<g id="a_edge19_Node000001_Node000014"><a xlink:title=" ">
<path fill="none" stroke="#63b8ff" d="M469.06,-279.84C523.73,-268.13 598.51,-241.92 631,-184 638.71,-170.26 635.71,-152.22 631.51,-138.88"/>
<polygon fill="#63b8ff" stroke="#63b8ff" points="634.76,-137.58 628.07,-129.36 628.18,-139.96 634.76,-137.58"/>
</a>
</g>
</g>
<!-- Node15 -->
<g id="Node000015" class="node">
<title>Node15</title>
<g id="a_Node000015"><a xlink:href="FireSimulator_8h.html" target="_top" xlink:title="Core fire&#45;evacuation simulation engine.">
<polygon fill="white" stroke="#666666" points="531.5,-239 386.5,-239 386.5,-220 531.5,-220 531.5,-239"/>
<text text-anchor="middle" x="459" y="-227" font-family="Helvetica,sans-Serif" font-size="10.00">simulation/FireSimulator.h</text>
</a>
</g>
</g>
<!-- Node1&#45;&gt;Node15 -->
<g id="edge22_Node000001_Node000015" class="edge">
<title>Node1&#45;&gt;Node15</title>
<g id="a_edge22_Node000001_Node000015"><a xlink:title=" ">
<path fill="none" stroke="#63b8ff" d="M418.07,-274.84C425.91,-266.35 435.91,-255.52 444.06,-246.69"/>
<polygon fill="#63b8ff" stroke="#63b8ff" points="446.7,-248.99 450.91,-239.27 441.55,-244.24 446.7,-248.99"/>
</a>
</g>
</g>
<!-- Node9&#45;&gt;Node7 -->
<g id="edge11_Node000009_Node000007" class="edge">
<title>Node9&#45;&gt;Node7</title>
<g id="a_edge11_Node000009_Node000007"><a xlink:title=" ">
<path fill="none" stroke="#63b8ff" d="M413.32,-109.98C431.66,-101.46 460.11,-88.23 481.23,-78.41"/>
<polygon fill="#63b8ff" stroke="#63b8ff" points="482.76,-81.56 490.35,-74.17 479.81,-75.21 482.76,-81.56"/>
</a>
</g>
</g>
<!-- Node9&#45;&gt;Node8 -->
<g id="edge9_Node000009_Node000008" class="edge">
<title>Node9&#45;&gt;Node8</title>
<g id="a_edge9_Node000009_Node000008"><a xlink:title=" ">
<path fill="none" stroke="#63b8ff" d="M381.66,-109.98C368.91,-101.84 349.45,-89.41 334.33,-79.76"/>
<polygon fill="#63b8ff" stroke="#63b8ff" points="335.89,-76.6 325.58,-74.17 332.12,-82.5 335.89,-76.6"/>
</a>
</g>
</g>
<!-- Node10 -->
<g id="Node000010" class="node">
<title>Node10</title>
<g id="a_Node000010"><a xlink:title=" ">
<polygon fill="#e0e0e0" stroke="#999999" points="427.5,-19 362.5,-19 362.5,0 427.5,0 427.5,-19"/>
<text text-anchor="middle" x="395" y="-7" font-family="Helvetica,sans-Serif" font-size="10.00">stdexcept</text>
</a>
</g>
</g>
<!-- Node9&#45;&gt;Node10 -->
<g id="edge10_Node000009_Node000010" class="edge">
<title>Node9&#45;&gt;Node10</title>
<g id="a_edge10_Node000009_Node000010"><a xlink:title=" ">
<path fill="none" stroke="#63b8ff" d="M395,-109.66C395,-92.17 395,-52.8 395,-29.27"/>
<polygon fill="#63b8ff" stroke="#63b8ff" points="398.5,-29.16 395,-19.16 391.5,-29.16 398.5,-29.16"/>
</a>
</g>
</g>
<!-- Node9&#45;&gt;Node11 -->
<g id="edge12_Node000009_Node000011" class="edge">
<title>Node9&#45;&gt;Node11</title>
<g id="a_edge12_Node000009_Node000011"><a xlink:title=" ">
<path fill="none" stroke="#63b8ff" d="M431.79,-109.98C471.24,-100.86 533.98,-86.33 576.98,-76.38"/>
<polygon fill="#63b8ff" stroke="#63b8ff" points="577.97,-79.75 586.92,-74.08 576.39,-72.93 577.97,-79.75"/>
</a>
</g>
</g>
<!-- Node9&#45;&gt;Node13 -->
<g id="edge15_Node000009_Node000013" class="edge">
<title>Node9&#45;&gt;Node13</title>
<g id="a_edge15_Node000009_Node000013"><a xlink:title=" ">
<path fill="none" stroke="#63b8ff" d="M367.53,-109.98C338.82,-101.09 293.58,-87.07 261.58,-77.15"/>
<polygon fill="#63b8ff" stroke="#63b8ff" points="262.28,-73.7 251.69,-74.08 260.2,-80.39 262.28,-73.7"/>
</a>
</g>
</g>
<!-- Node11&#45;&gt;Node10 -->
<g id="edge13_Node000011_Node000010" class="edge">
<title>Node11&#45;&gt;Node10</title>
<g id="a_edge13_Node000011_Node000010"><a xlink:title=" ">
<path fill="none" stroke="#63b8ff" d="M587.21,-54.98C546.36,-45.53 480.52,-30.29 437.5,-20.34"/>
<polygon fill="#63b8ff" stroke="#63b8ff" points="438.15,-16.9 427.62,-18.05 436.58,-23.71 438.15,-16.9"/>
</a>
</g>
</g>
<!-- Node12 -->
<g id="Node000012" class="node">
<title>Node12</title>
<g id="a_Node000012"><a xlink:href="Node_8h.html" target="_top" xlink:title="Generic singly&#45;linked node used by LinkedList and Queue.">
<polygon fill="white" stroke="#666666" points="649.5,-19 598.5,-19 598.5,0 649.5,0 649.5,-19"/>
<text text-anchor="middle" x="624" y="-7" font-family="Helvetica,sans-Serif" font-size="10.00">Node.h</text>
</a>
</g>
</g>
<!-- Node11&#45;&gt;Node12 -->
<g id="edge14_Node000011_Node000012" class="edge">
<title>Node11&#45;&gt;Node12</title>
<g id="a_edge14_Node000011_Node000012"><a xlink:title=" ">
<path fill="none" stroke="#63b8ff" d="M624,-54.75C624,-47.8 624,-37.85 624,-29.13"/>
<polygon fill="#63b8ff" stroke="#63b8ff" points="627.5,-29.09 624,-19.09 620.5,-29.09 627.5,-29.09"/>
</a>
</g>
</g>
<!-- Node13&#45;&gt;Node4 -->
<g id="edge16_Node000013_Node000004" class="edge">
<title>Node13&#45;&gt;Node4</title>
<g id="a_edge16_Node000013_Node000004"><a xlink:title=" ">
<path fill="none" stroke="#63b8ff" d="M217.73,-54.75C212.41,-47.34 204.64,-36.5 198.12,-27.41"/>
<polygon fill="#63b8ff" stroke="#63b8ff" points="200.83,-25.18 192.16,-19.09 195.14,-29.26 200.83,-25.18"/>
</a>
</g>
</g>
<!-- Node13&#45;&gt;Node10 -->
<g id="edge17_Node000013_Node000010" class="edge">
<title>Node13&#45;&gt;Node10</title>
<g id="a_edge17_Node000013_Node000010"><a xlink:title=" ">
<path fill="none" stroke="#63b8ff" d="M251.47,-54.98C280.18,-46.09 325.42,-32.07 357.42,-22.15"/>
<polygon fill="#63b8ff" stroke="#63b8ff" points="358.8,-25.39 367.31,-19.08 356.72,-18.7 358.8,-25.39"/>
</a>
</g>
</g>
<!-- Node14&#45;&gt;Node11 -->
<g id="edge20_Node000014_Node000011" class="edge">
<title>Node14&#45;&gt;Node11</title>
<g id="a_edge20_Node000014_Node000011"><a xlink:title=" ">
<path fill="none" stroke="#63b8ff" d="M624,-109.75C624,-102.8 624,-92.85 624,-84.13"/>
<polygon fill="#63b8ff" stroke="#63b8ff" points="627.5,-84.09 624,-74.09 620.5,-84.09 627.5,-84.09"/>
</a>
</g>
</g>
<!-- Node15&#45;&gt;Node7 -->
<g id="edge23_Node000015_Node000007" class="edge">
<title>Node15&#45;&gt;Node7</title>
<g id="a_edge23_Node000015_Node000007"><a xlink:title=" ">
<path fill="none" stroke="#63b8ff" d="M474.43,-219.8C486.35,-212.11 501.96,-199.69 509,-184 523.69,-151.27 518.36,-108.14 513.48,-83.97"/>
<polygon fill="#63b8ff" stroke="#63b8ff" points="516.86,-83.04 511.27,-74.03 510.02,-84.55 516.86,-83.04"/>
</a>
</g>
</g>
<!-- Node15&#45;&gt;Node8 -->
<g id="edge24_Node000015_Node000008" class="edge">
<title>Node15&#45;&gt;Node8</title>
<g id="a_edge24_Node000015_Node000008"><a xlink:title=" ">
<path fill="none" stroke="#63b8ff" d="M437.3,-219.98C405.33,-206.17 346.42,-175.66 319,-129 311.18,-115.69 309.79,-98.08 310.16,-84.78"/>
<polygon fill="#63b8ff" stroke="#63b8ff" points="313.67,-84.62 310.81,-74.42 306.69,-84.18 313.67,-84.62"/>
</a>
</g>
</g>
<!-- Node15&#45;&gt;Node9 -->
<g id="edge29_Node000015_Node000009" class="edge">
<title>Node15&#45;&gt;Node9</title>
<g id="a_edge29_Node000015_Node000009"><a xlink:title=" ">
<path fill="none" stroke="#63b8ff" d="M445.7,-219.88C434.48,-211.91 418.87,-199.05 410,-184 401.99,-170.42 398.26,-152.83 396.52,-139.61"/>
<polygon fill="#63b8ff" stroke="#63b8ff" points="399.96,-138.91 395.44,-129.32 393,-139.63 399.96,-138.91"/>
</a>
</g>
</g>
<!-- Node15&#45;&gt;Node11 -->
<g id="edge26_Node000015_Node000011" class="edge">
<title>Node15&#45;&gt;Node11</title>
<g id="a_edge26_Node000015_Node000011"><a xlink:title=" ">
<path fill="none" stroke="#63b8ff" d="M531.72,-223.28C591.42,-214.46 670.87,-191 701,-129 712.08,-106.2 685.35,-88.72 660.4,-77.93"/>
<polygon fill="#63b8ff" stroke="#63b8ff" points="661.59,-74.63 651.01,-74.12 658.96,-81.12 661.59,-74.63"/>
</a>
</g>
</g>
<!-- Node15&#45;&gt;Node13 -->
<g id="edge28_Node000015_Node000013" class="edge">
<title>Node15&#45;&gt;Node13</title>
<g id="a_edge28_Node000015_Node000013"><a xlink:title=" ">
<path fill="none" stroke="#63b8ff" d="M427.69,-219.85C404.08,-212.48 371.51,-200.46 346,-184 300.72,-154.79 258,-107.01 237.2,-81.98"/>
<polygon fill="#63b8ff" stroke="#63b8ff" points="239.83,-79.66 230.79,-74.14 234.41,-84.1 239.83,-79.66"/>
</a>
</g>
</g>
<!-- Node15&#45;&gt;Node14 -->
<g id="edge27_Node000015_Node000014" class="edge">
<title>Node15&#45;&gt;Node14</title>
<g id="a_edge27_Node000015_Node000014"><a xlink:title=" ">
<path fill="none" stroke="#63b8ff" d="M531.81,-223.91C560.98,-218.33 592.48,-206.91 613,-184 623.84,-171.9 625.92,-153.1 625.69,-139.09"/>
<polygon fill="#63b8ff" stroke="#63b8ff" points="629.19,-138.9 625.14,-129.1 622.2,-139.28 629.19,-138.9"/>
</a>
</g>
</g>
<!-- Node16 -->
<g id="Node000016" class="node">
<title>Node16</title>
<g id="a_Node000016"><a xlink:title=" ">
<polygon fill="#e0e0e0" stroke="#999999" points="603.5,-184 556.5,-184 556.5,-165 603.5,-165 603.5,-184"/>
<text text-anchor="middle" x="580" y="-172" font-family="Helvetica,sans-Serif" font-size="10.00">cmath</text>
</a>
</g>
</g>
<!-- Node15&#45;&gt;Node16 -->
<g id="edge25_Node000015_Node000016" class="edge">
<title>Node15&#45;&gt;Node16</title>
<g id="a_edge25_Node000015_Node000016"><a xlink:title=" ">
<path fill="none" stroke="#63b8ff" d="M478.44,-219.98C497.99,-211.42 528.38,-198.11 550.82,-188.28"/>
<polygon fill="#63b8ff" stroke="#63b8ff" points="552.45,-191.39 560.21,-184.17 549.64,-184.98 552.45,-191.39"/>
</a>
</g>
</g>
<!-- Node17 -->
<g id="Node000017" class="node">
<title>Node17</title>
<g id="a_Node000017"><a xlink:href="SimEntities_8h.html" target="_top" xlink:title="Per&#45;tick simulation entities: CellNode, Corridor, Person, WaitingQueue.">
<polygon fill="white" stroke="#666666" points="499.5,-184 418.5,-184 418.5,-165 499.5,-165 499.5,-184"/>
<text text-anchor="middle" x="459" y="-172" font-family="Helvetica,sans-Serif" font-size="10.00">SimEntities.h</text>
</a>
</g>
</g>
<!-- Node15&#45;&gt;Node17 -->
<g id="edge30_Node000015_Node000017" class="edge">
<title>Node15&#45;&gt;Node17</title>
<g id="a_edge30_Node000015_Node000017"><a xlink:title=" ">
<path fill="none" stroke="#63b8ff" d="M459,-219.75C459,-212.8 459,-202.85 459,-194.13"/>
<polygon fill="#63b8ff" stroke="#63b8ff" points="462.5,-194.09 459,-184.09 455.5,-194.09 462.5,-194.09"/>
</a>
</g>
</g>
<!-- Node17&#45;&gt;Node7 -->
<g id="edge31_Node000017_Node000007" class="edge">
<title>Node17&#45;&gt;Node7</title>
<g id="a_edge31_Node000017_Node000007"><a xlink:title=" ">
<path fill="none" stroke="#63b8ff" d="M463.09,-164.66C471.3,-146.93 489.91,-106.73 500.75,-83.32"/>
<polygon fill="#63b8ff" stroke="#63b8ff" points="503.97,-84.7 504.99,-74.16 497.61,-81.76 503.97,-84.7"/>
</a>
</g>
</g>
<!-- Node17&#45;&gt;Node9 -->
<g id="edge33_Node000017_Node000009" class="edge">
<title>Node17&#45;&gt;Node9</title>
<g id="a_edge33_Node000017_Node000009"><a xlink:title=" ">
<path fill="none" stroke="#63b8ff" d="M448.72,-164.98C439.16,-157.07 424.72,-145.11 413.22,-135.58"/>
<polygon fill="#63b8ff" stroke="#63b8ff" points="415.4,-132.85 405.47,-129.17 410.94,-138.24 415.4,-132.85"/>
</a>
</g>
</g>
<!-- Node17&#45;&gt;Node14 -->
<g id="edge32_Node000017_Node000014" class="edge">
<title>Node17&#45;&gt;Node14</title>
<g id="a_edge32_Node000017_Node000014"><a xlink:title=" ">
<path fill="none" stroke="#63b8ff" d="M485.51,-164.98C513.21,-156.09 556.86,-142.07 587.74,-132.15"/>
<polygon fill="#63b8ff" stroke="#63b8ff" points="588.83,-135.47 597.28,-129.08 586.69,-128.81 588.83,-135.47"/>
</a>
</g>
</g>
</g>
</svg>
