<?xml version="1.0" encoding="UTF-8" standalone="no"?>
<!DOCTYPE svg PUBLIC "-//W3C//DTD SVG 1.1//EN"
 "http://www.w3.org/Graphics/SVG/1.1/DTD/svg11.dtd">
<!-- Generated by graphviz version 2.43.0 (0)
 -->
<!-- Title: tests/unit/test_fire_simulator.cpp Pages: 1 -->
<!--zoomable 324 -->

<svg id="main" version="1.1" xmlns="http://www.w3.org/2000/svg" xmlns:xlink="http://www.w3.org/1999/xlink" xml:space="preserve" onload="init(evt)">
<style type="text/css"><![CDATA[
.node, .edge {opacity: 0.7;}
.node.selected, .edge.selected {opacity: 1;}
.edge:hover path { stroke: red; }
.edge:hover polygon { stroke: red; fill: red; }
]]></style>

<defs>
  <circle id="rim" cx="0" cy="0" r="7"/>
  <circle id="rim2" cx="0" cy="0" r="3.5"/>
  <g id="zoomPlus">
    <use xlink:href="#rim" fill="#404040"><set attributeName="fill" to="#808080" begin="zoomplus.mouseover" end="zoomplus.mouseout"/></use>
    <path d="M-4,0h8M0,-4v8" fill="none" stroke="white" stroke-width="1.5" pointer-events="none"/>
  </g>
  <g id="zoomMin">
    <use xlink:href="#rim" fill="#404040"><set attributeName="fill" to="#808080" begin="zoomminus.mouseover" end="zoomminus.mouseout"/></use>
    <path d="M-4,0h8" fill="none" stroke="white" stroke-width="1.5" pointer-events="none"/>
  </g>
  <g id="arrowUp" transform="translate(30 24)">
    <use xlink:href="#rim"/>
    <path pointer-events="none" fill="none" stroke="white" stroke-width="1.5" d="M0,-3.0v7 M-2.5,-0.5L0,-3.0L2.5,-0.5"/>
  </g>
  <g id="arrowRight" transform="rotate(90) translate(36 -43)">
    <use xlink:href="#rim"/>
    <path pointer-events="none" fill="none" stroke="white" stroke-width="1.5" d="M0,-3.0v7 M-2.5,-0.5L0,-3.0L2.5,-0.5"/>
  </g>
  <g id="arrowDown" transform="rotate(180) translate(-30 -48)">
    <use xlink:href="#rim"/>
    <path pointer-events="none" fill="none" stroke="white" stroke-width="1.5" d="M0,-3.0v7 M-2.5,-0.5L0,-3.0L2.5,-0.5"/>
  </g>
  <g id="arrowLeft" transform="rotate(270) translate(-36 17)">
    <use xlink:href="#rim"/>
    <path pointer-events="none" fill="none" stroke="white" stroke-width="1.5" d="M0,-3.0v7 M-2.5,-0.5L0,-3.0L2.5,-0.5"/>
  </g>
  <g id="resetDef">
    <use xlink:href="#rim2" fill="#404040"><set attributeName="fill" to="#808080" begin="reset.mouseover" end="reset.mouseout"/></use>
  </g>
</defs>
<script type="application/ecmascript">
var viewWidth = 596;
var viewHeight = 324;
var sectionId = 'dynsection-0';
</script>
<script type="application/ecmascript" xlink:href="svg.min.js"/>
<svg id="graph" class="graph">
<g id="viewport">
<title>tests/unit/test_fire_simulator.cpp</title>
<!-- Node1 -->
<g id="Node000001" class="node">
<title>Node1</title>
<g id="a_Node000001"><a xlink:title=" ">
<polygon fill="#999999" stroke="#666666" points="298.5,-316 193.5,-316 193.5,-286 298.5,-286 298.5,-316"/>
<text text-anchor="start" x="201.5" y="-304" font-family="Helvetica,sans-Serif" font-size="10.00">tests/unit/test_fire</text>
<text text-anchor="middle" x="246" y="-293" font-family="Helvetica,sans-Serif" font-size="10.00">_simulator.cpp</text>
</a>
</g>
</g>
<!-- Node2 -->
<g id="Node000002" class="node">
<title>Node2</title>
<g id="a_Node000002"><a xlink:title=" ">
<polygon fill="#e0e0e0" stroke="#999999" points="52,-250 0,-250 0,-231 52,-231 52,-250"/>
<text text-anchor="middle" x="26" y="-238" font-family="Helvetica,sans-Serif" font-size="10.00">cassert</text>
</a>
</g>
</g>
<!-- Node1&#45;&gt;Node2 -->
<g id="edge1_Node000001_Node000002" class="edge">
<title>Node1&#45;&gt;Node2</title>
<g id="a_edge1_Node000001_Node000002"><a xlink:title=" ">
<path fill="none" stroke="#63b8ff" d="M193.3,-285.99C152.81,-275.22 97.94,-260.63 62.26,-251.14"/>
<polygon fill="#63b8ff" stroke="#63b8ff" points="62.85,-247.68 52.29,-248.49 61.05,-254.44 62.85,-247.68"/>
</a>
</g>
</g>
<!-- Node3 -->
<g id="Node000003" class="node">
<title>Node3</title>
<g id="a_Node000003"><a xlink:title=" ">
<polygon fill="#e0e0e0" stroke="#999999" points="191.5,-19 138.5,-19 138.5,0 191.5,0 191.5,-19"/>
<text text-anchor="middle" x="165" y="-7" font-family="Helvetica,sans-Serif" font-size="10.00">cstddef</text>
</a>
</g>
</g>
<!-- Node1&#45;&gt;Node3 -->
<g id="edge2_Node000001_Node000003" class="edge">
<title>Node1&#45;&gt;Node3</title>
<g id="a_edge2_Node000001_Node000003"><a xlink:title=" ">
<path fill="none" stroke="#63b8ff" d="M193.32,-294.21C162,-288.12 123.69,-275.62 99,-250 78.56,-228.79 80,-215.96 80,-186.5 80,-186.5 80,-186.5 80,-124 80,-81.5 118.66,-44.7 143.83,-25.25"/>
<polygon fill="#63b8ff" stroke="#63b8ff" points="146.15,-27.88 152.09,-19.11 141.98,-22.26 146.15,-27.88"/>
</a>
</g>
</g>
<!-- Node4 -->
<g id="Node000004" class="node">
<title>Node4</title>
<g id="a_Node000004"><a xlink:title=" ">
<polygon fill="#e0e0e0" stroke="#999999" points="168,-250 108,-250 108,-231 168,-231 168,-250"/>
<text text-anchor="middle" x="138" y="-238" font-family="Helvetica,sans-Serif" font-size="10.00">iostream</text>
</a>
</g>
</g>
<!-- Node1&#45;&gt;Node4 -->
<g id="edge3_Node000001_Node000004" class="edge">
<title>Node1&#45;&gt;Node4</title>
<g id="a_edge3_Node000001_Node000004"><a xlink:title=" ">
<path fill="none" stroke="#63b8ff" d="M220.13,-285.99C202.76,-276.58 179.99,-264.24 162.83,-254.95"/>
<polygon fill="#63b8ff" stroke="#63b8ff" points="164.41,-251.82 153.95,-250.14 161.08,-257.98 164.41,-251.82"/>
</a>
</g>
</g>
<!-- Node5 -->
<g id="Node000005" class="node">
<title>Node5</title>
<g id="a_Node000005"><a xlink:title=" ">
<polygon fill="#e0e0e0" stroke="#999999" points="184,-74 140,-74 140,-55 184,-55 184,-74"/>
<text text-anchor="middle" x="162" y="-62" font-family="Helvetica,sans-Serif" font-size="10.00">string</text>
</a>
</g>
</g>
<!-- Node1&#45;&gt;Node5 -->
<g id="edge4_Node000001_Node000005" class="edge">
<title>Node1&#45;&gt;Node5</title>
<g id="a_edge4_Node000001_Node000005"><a xlink:title=" ">
<path fill="none" stroke="#63b8ff" d="M235.71,-285.69C229.1,-275.98 220.7,-262.66 215,-250 188.93,-192.12 172.31,-118.24 165.52,-84.2"/>
<polygon fill="#63b8ff" stroke="#63b8ff" points="168.93,-83.42 163.59,-74.27 162.06,-84.75 168.93,-83.42"/>
</a>
</g>
</g>
<!-- Node6 -->
<g id="Node000006" class="node">
<title>Node6</title>
<g id="a_Node000006"><a xlink:href="Graph_8h.html" target="_top" xlink:title="Adjacency&#45;list directed/undirected graph with Dijkstra shortest&#45;path.">
<polygon fill="white" stroke="#666666" points="438,-134.5 304,-134.5 304,-115.5 438,-115.5 438,-134.5"/>
<text text-anchor="middle" x="371" y="-122.5" font-family="Helvetica,sans-Serif" font-size="10.00">data_structures/Graph.h</text>
</a>
</g>
</g>
<!-- Node1&#45;&gt;Node6 -->
<g id="edge5_Node000001_Node000006" class="edge">
<title>Node1&#45;&gt;Node6</title>
<g id="a_edge5_Node000001_Node000006"><a xlink:title=" ">
<path fill="none" stroke="#63b8ff" d="M298.96,-293.04C353.02,-282.59 432.75,-256.93 460,-195 471.74,-168.31 439.6,-149.3 410.71,-138.08"/>
<polygon fill="#63b8ff" stroke="#63b8ff" points="411.71,-134.72 401.11,-134.57 409.3,-141.29 411.71,-134.72"/>
</a>
</g>
</g>
<!-- Node9 -->
<g id="Node000009" class="node">
<title>Node9</title>
<g id="a_Node000009"><a xlink:href="LinkedList_8h.html" target="_top" xlink:title="Generic singly&#45;linked list with pointer&#45;based node storage.">
<polygon fill="white" stroke="#666666" points="544,-74 470,-74 470,-55 544,-55 544,-74"/>
<text text-anchor="middle" x="507" y="-62" font-family="Helvetica,sans-Serif" font-size="10.00">LinkedList.h</text>
</a>
</g>
</g>
<!-- Node1&#45;&gt;Node9 -->
<g id="edge15_Node000001_Node000009" class="edge">
<title>Node1&#45;&gt;Node9</title>
<g id="a_edge15_Node000001_Node000009"><a xlink:title=" ">
<path fill="none" stroke="#63b8ff" d="M298.77,-294.45C379.6,-282.65 530.25,-246.68 583,-140 588.91,-128.05 589.63,-121.57 583,-110 574.64,-95.42 559.45,-85.16 544.83,-78.19"/>
<polygon fill="#63b8ff" stroke="#63b8ff" points="545.95,-74.86 535.39,-74.08 543.16,-81.28 545.95,-74.86"/>
</a>
</g>
</g>
<!-- Node12 -->
<g id="Node000012" class="node">
<title>Node12</title>
<g id="a_Node000012"><a xlink:href="FireSimulator_8h.html" target="_top" xlink:title="Core fire&#45;evacuation simulation engine.">
<polygon fill="white" stroke="#666666" points="369.5,-250 224.5,-250 224.5,-231 369.5,-231 369.5,-250"/>
<text text-anchor="middle" x="297" y="-238" font-family="Helvetica,sans-Serif" font-size="10.00">simulation/FireSimulator.h</text>
</a>
</g>
</g>
<!-- Node1&#45;&gt;Node12 -->
<g id="edge16_Node000001_Node000012" class="edge">
<title>Node1&#45;&gt;Node12</title>
<g id="a_edge16_Node000001_Node000012"><a xlink:title=" ">
<path fill="none" stroke="#63b8ff" d="M258.35,-285.84C265.67,-277.43 275,-266.74 282.65,-257.96"/>
<polygon fill="#63b8ff" stroke="#63b8ff" points="285.42,-260.1 289.36,-250.27 280.15,-255.5 285.42,-260.1"/>
</a>
</g>
</g>
<!-- Node15 -->
<g id="Node000015" class="node">
<title>Node15</title>
<g id="a_Node000015"><a xlink:href="SimEntities_8h.html" target="_top" xlink:title="Per&#45;tick simulation entities: CellNode, Corridor, Person, WaitingQueue.">
<polygon fill="white" stroke="#666666" points="451.5,-195 370.5,-195 370.5,-176 451.5,-176 451.5,-195"/>
<text text-anchor="middle" x="411" y="-183" font-family="Helvetica,sans-Serif" font-size="10.00">SimEntities.h</text>
</a>
</g>
</g>
<!-- Node1&#45;&gt;Node15 -->
<g id="edge29_Node000001_Node000015" class="edge">
<title>Node1&#45;&gt;Node15</title>
<g id="a_edge29_Node000001_Node000015"><a xlink:title=" ">
<path fill="none" stroke="#63b8ff" d="M298.6,-289.48C324.89,-282.05 355.75,-269.78 378,-250 391.61,-237.9 400.46,-218.83 405.53,-204.74"/>
<polygon fill="#63b8ff" stroke="#63b8ff" points="408.89,-205.73 408.69,-195.14 402.24,-203.54 408.89,-205.73"/>
</a>
</g>
</g>
<!-- Node6&#45;&gt;Node5 -->
<g id="edge8_Node000006_Node000005" class="edge">
<title>Node6&#45;&gt;Node5</title>
<g id="a_edge8_Node000006_Node000005"><a xlink:title=" ">
<path fill="none" stroke="#63b8ff" d="M340.61,-115.49C301.45,-104.53 233.68,-85.56 193.84,-74.41"/>
<polygon fill="#63b8ff" stroke="#63b8ff" points="194.67,-71.01 184.1,-71.69 192.79,-77.75 194.67,-71.01"/>
</a>
</g>
</g>
<!-- Node7 -->
<g id="Node000007" class="node">
<title>Node7</title>
<g id="a_Node000007"><a xlink:title=" ">
<polygon fill="#e0e0e0" stroke="#999999" points="360,-74 316,-74 316,-55 360,-55 360,-74"/>
<text text-anchor="middle" x="338" y="-62" font-family="Helvetica,sans-Serif" font-size="10.00">limits</text>
</a>
</g>
</g>
<!-- Node6&#45;&gt;Node7 -->
<g id="edge6_Node000006_Node000007" class="edge">
<title>Node6&#45;&gt;Node7</title>
<g id="a_edge6_Node000006_Node000007"><a xlink:title=" ">
<path fill="none" stroke="#63b8ff" d="M366.13,-115.37C361.35,-106.9 353.93,-93.74 347.91,-83.07"/>
<polygon fill="#63b8ff" stroke="#63b8ff" points="350.85,-81.16 342.89,-74.17 344.75,-84.6 350.85,-81.16"/>
</a>
</g>
</g>
<!-- Node8 -->
<g id="Node000008" class="node">
<title>Node8</title>
<g id="a_Node000008"><a xlink:title=" ">
<polygon fill="#e0e0e0" stroke="#999999" points="420.5,-19 355.5,-19 355.5,0 420.5,0 420.5,-19"/>
<text text-anchor="middle" x="388" y="-7" font-family="Helvetica,sans-Serif" font-size="10.00">stdexcept</text>
</a>
</g>
</g>
<!-- Node6&#45;&gt;Node8 -->
<g id="edge7_Node000006_Node000008" class="edge">
<title>Node6&#45;&gt;Node8</title>
<g id="a_edge7_Node000006_Node000008"><a xlink:title=" ">
<path fill="none" stroke="#63b8ff" d="M372.28,-115.47C375.01,-97.23 381.47,-54.07 385.21,-29.14"/>
<polygon fill="#63b8ff" stroke="#63b8ff" points="388.69,-29.54 386.71,-19.13 381.76,-28.5 388.69,-29.54"/>
</a>
</g>
</g>
<!-- Node6&#45;&gt;Node9 -->
<g id="edge9_Node000006_Node000009" class="edge">
<title>Node6&#45;&gt;Node9</title>
<g id="a_edge9_Node000006_Node000009"><a xlink:title=" ">
<path fill="none" stroke="#63b8ff" d="M390.78,-115.49C413.64,-105.66 451.49,-89.38 477.76,-78.08"/>
<polygon fill="#63b8ff" stroke="#63b8ff" points="479.4,-81.18 487.2,-74.02 476.63,-74.75 479.4,-81.18"/>
</a>
</g>
</g>
<!-- Node11 -->
<g id="Node000011" class="node">
<title>Node11</title>
<g id="a_Node000011"><a xlink:href="priority__queue_8h.html" target="_top" xlink:title="Pointer&#45;based binary min&#45;heap priority queue.">
<polygon fill="white" stroke="#666666" points="298,-74 202,-74 202,-55 298,-55 298,-74"/>
<text text-anchor="middle" x="250" y="-62" font-family="Helvetica,sans-Serif" font-size="10.00">priority_queue.h</text>
</a>
</g>
</g>
<!-- Node6&#45;&gt;Node11 -->
<g id="edge12_Node000006_Node000011" class="edge">
<title>Node6&#45;&gt;Node11</title>
<g id="a_edge12_Node000006_Node000011"><a xlink:title=" ">
<path fill="none" stroke="#63b8ff" d="M353.41,-115.49C333.24,-105.75 299.98,-89.66 276.64,-78.38"/>
<polygon fill="#63b8ff" stroke="#63b8ff" points="278.14,-75.22 267.62,-74.02 275.1,-81.52 278.14,-75.22"/>
</a>
</g>
</g>
<!-- Node9&#45;&gt;Node8 -->
<g id="edge10_Node000009_Node000008" class="edge">
<title>Node9&#45;&gt;Node8</title>
<g id="a_edge10_Node000009_Node000008"><a xlink:title=" ">
<path fill="none" stroke="#63b8ff" d="M487.88,-54.98C468.65,-46.42 438.77,-33.11 416.69,-23.28"/>
<polygon fill="#63b8ff" stroke="#63b8ff" points="418.03,-20.04 407.47,-19.17 415.18,-26.44 418.03,-20.04"/>
</a>
</g>
</g>
<!-- Node10 -->
<g id="Node000010" class="node">
<title>Node10</title>
<g id="a_Node000010"><a xlink:href="Node_8h.html" target="_top" xlink:title="Generic singly&#45;linked node used by LinkedList and Queue.">
<polygon fill="white" stroke="#666666" points="532.5,-19 481.5,-19 481.5,0 532.5,0 532.5,-19"/>
<text text-anchor="middle" x="507" y="-7" font-family="Helvetica,sans-Serif" font-size="10.00">Node.h</text>
</a>
</g>
</g>
<!-- Node9&#45;&gt;Node10 -->
<g id="edge11_Node000009_Node000010" class="edge">
<title>Node9&#45;&gt;Node10</title>
<g id="a_edge11_Node000009_Node000010"><a xlink:title=" ">
<path fill="none" stroke="#63b8ff" d="M507,-54.75C507,-47.8 507,-37.85 507,-29.13"/>
<polygon fill="#63b8ff" stroke="#63b8ff" points="510.5,-29.09 507,-19.09 503.5,-29.09 510.5,-29.09"/>
</a>
</g>
</g>
<!-- Node11&#45;&gt;Node3 -->
<g id="edge13_Node000011_Node000003" class="edge">
<title>Node11&#45;&gt;Node3</title>
<g id="a_edge13_Node000011_Node000003"><a xlink:title=" ">
<path fill="none" stroke="#63b8ff" d="M236.34,-54.98C223.16,-46.77 202.97,-34.18 187.43,-24.49"/>
<polygon fill="#63b8ff" stroke="#63b8ff" points="189.24,-21.49 178.91,-19.17 185.54,-27.43 189.24,-21.49"/>
</a>
</g>
</g>
<!-- Node11&#45;&gt;Node8 -->
<g id="edge14_Node000011_Node000008" class="edge">
<title>Node11&#45;&gt;Node8</title>
<g id="a_edge14_Node000011_Node000008"><a xlink:title=" ">
<path fill="none" stroke="#63b8ff" d="M272.17,-54.98C294.77,-46.3 330.06,-32.75 355.75,-22.88"/>
<polygon fill="#63b8ff" stroke="#63b8ff" points="357.34,-26.02 365.42,-19.17 354.83,-19.49 357.34,-26.02"/>
</a>
</g>
</g>
<!-- Node12&#45;&gt;Node5 -->
<g id="edge17_Node000012_Node000005" class="edge">
<title>Node12&#45;&gt;Node5</title>
<g id="a_edge17_Node000012_Node000005"><a xlink:title=" ">
<path fill="none" stroke="#63b8ff" d="M283.72,-230.7C271.86,-222.42 254.5,-209.2 242,-195 210.39,-159.11 183.49,-109.24 170.44,-83.1"/>
<polygon fill="#63b8ff" stroke="#63b8ff" points="173.54,-81.47 166,-74.03 167.26,-84.55 173.54,-81.47"/>
</a>
</g>
</g>
<!-- Node12&#45;&gt;Node6 -->
<g id="edge24_Node000012_Node000006" class="edge">
<title>Node12&#45;&gt;Node6</title>
<g id="a_edge24_Node000012_Node000006"><a xlink:title=" ">
<path fill="none" stroke="#63b8ff" d="M302.56,-230.97C314.67,-212.4 343.61,-168.01 359.71,-143.32"/>
<polygon fill="#63b8ff" stroke="#63b8ff" points="362.84,-144.92 365.37,-134.63 356.98,-141.1 362.84,-144.92"/>
</a>
</g>
</g>
<!-- Node12&#45;&gt;Node7 -->
<g id="edge18_Node000012_Node000007" class="edge">
<title>Node12&#45;&gt;Node7</title>
<g id="a_edge18_Node000012_Node000007"><a xlink:title=" ">
<path fill="none" stroke="#63b8ff" d="M285.36,-230.73C275.69,-222.67 262.65,-209.74 257,-195 253.98,-187.12 254.82,-184.16 257,-176 267.47,-136.85 299.88,-100.86 320.39,-81.17"/>
<polygon fill="#63b8ff" stroke="#63b8ff" points="322.92,-83.6 327.85,-74.22 318.15,-78.48 322.92,-83.6"/>
</a>
</g>
</g>
<!-- Node12&#45;&gt;Node9 -->
<g id="edge20_Node000012_Node000009" class="edge">
<title>Node12&#45;&gt;Node9</title>
<g id="a_edge20_Node000012_Node000009"><a xlink:title=" ">
<path fill="none" stroke="#63b8ff" d="M369.62,-237.43C436.16,-231.01 529.78,-209.32 567,-140 573.31,-128.25 572.99,-121.91 567,-110 560.31,-96.71 547.56,-86.39 535.53,-79.05"/>
<polygon fill="#63b8ff" stroke="#63b8ff" points="537.01,-75.87 526.58,-74.02 533.58,-81.97 537.01,-75.87"/>
</a>
</g>
</g>
<!-- Node12&#45;&gt;Node11 -->
<g id="edge23_Node000012_Node000011" class="edge">
<title>Node12&#45;&gt;Node11</title>
<g id="a_edge23_Node000012_Node000011"><a xlink:title=" ">
<path fill="none" stroke="#63b8ff" d="M283.57,-230.73C272.8,-222.83 258.47,-210.16 252,-195 236.32,-158.25 241.45,-110.12 246.05,-84.12"/>
<polygon fill="#63b8ff" stroke="#63b8ff" points="249.51,-84.62 247.99,-74.14 242.64,-83.29 249.51,-84.62"/>
</a>
</g>
</g>
<!-- Node13 -->
<g id="Node000013" class="node">
<title>Node13</title>
<g id="a_Node000013"><a xlink:title=" ">
<polygon fill="#e0e0e0" stroke="#999999" points="313.5,-195 266.5,-195 266.5,-176 313.5,-176 313.5,-195"/>
<text text-anchor="middle" x="290" y="-183" font-family="Helvetica,sans-Serif" font-size="10.00">cmath</text>
</a>
</g>
</g>
<!-- Node12&#45;&gt;Node13 -->
<g id="edge19_Node000012_Node000013" class="edge">
<title>Node12&#45;&gt;Node13</title>
<g id="a_edge19_Node000012_Node000013"><a xlink:title=" ">
<path fill="none" stroke="#63b8ff" d="M295.84,-230.75C294.93,-223.8 293.61,-213.85 292.46,-205.13"/>
<polygon fill="#63b8ff" stroke="#63b8ff" points="295.91,-204.54 291.13,-195.09 288.97,-205.46 295.91,-204.54"/>
</a>
</g>
</g>
<!-- Node14 -->
<g id="Node000014" class="node">
<title>Node14</title>
<g id="a_Node000014"><a xlink:href="Queue_8h.html" target="_top" xlink:title="Generic FIFO queue built on LinkedList.">
<polygon fill="white" stroke="#666666" points="557.5,-140 456.5,-140 456.5,-110 557.5,-110 557.5,-140"/>
<text text-anchor="start" x="464.5" y="-128" font-family="Helvetica,sans-Serif" font-size="10.00">../data_structures</text>
<text text-anchor="middle" x="507" y="-117" font-family="Helvetica,sans-Serif" font-size="10.00">/Queue.h</text>
</a>
</g>
</g>
<!-- Node12&#45;&gt;Node14 -->
<g id="edge21_Node000012_Node000014" class="edge">
<title>Node12&#45;&gt;Node14</title>
<g id="a_edge21_Node000012_Node000014"><a xlink:title=" ">
<path fill="none" stroke="#63b8ff" d="M369.54,-230.96C399.64,-224.69 433.61,-213.83 460,-195 476.16,-183.47 488.49,-164.52 496.45,-149.39"/>
<polygon fill="#63b8ff" stroke="#63b8ff" points="499.74,-150.64 501.05,-140.12 493.47,-147.52 499.74,-150.64"/>
</a>
</g>
</g>
<!-- Node12&#45;&gt;Node15 -->
<g id="edge25_Node000012_Node000015" class="edge">
<title>Node12&#45;&gt;Node15</title>
<g id="a_edge25_Node000012_Node000015"><a xlink:title=" ">
<path fill="none" stroke="#63b8ff" d="M315.32,-230.98C333.66,-222.46 362.11,-209.23 383.23,-199.41"/>
<polygon fill="#63b8ff" stroke="#63b8ff" points="384.76,-202.56 392.35,-195.17 381.81,-196.21 384.76,-202.56"/>
</a>
</g>
</g>
<!-- Node14&#45;&gt;Node9 -->
<g id="edge22_Node000014_Node000009" class="edge">
<title>Node14&#45;&gt;Node9</title>
<g id="a_edge22_Node000014_Node000009"><a xlink:title=" ">
<path fill="none" stroke="#63b8ff" d="M507,-109.84C507,-102.21 507,-92.7 507,-84.45"/>
<polygon fill="#63b8ff" stroke="#63b8ff" points="510.5,-84.27 507,-74.27 503.5,-84.27 510.5,-84.27"/>
</a>
</g>
</g>
<!-- Node15&#45;&gt;Node5 -->
<g id="edge26_Node000015_Node000005" class="edge">
<title>Node15&#45;&gt;Node5</title>
<g id="a_edge26_Node000015_Node000005"><a xlink:title=" ">
<path fill="none" stroke="#63b8ff" d="M385.67,-175.97C361.88,-167.69 325.47,-154.29 295,-140 254.88,-121.19 210.34,-95.11 184.33,-79.32"/>
<polygon fill="#63b8ff" stroke="#63b8ff" points="185.99,-76.23 175.63,-74.01 182.34,-82.21 185.99,-76.23"/>
</a>
</g>
</g>
<!-- Node15&#45;&gt;Node6 -->
<g id="edge28_Node000015_Node000006" class="edge">
<title>Node15&#45;&gt;Node6</title>
<g id="a_edge28_Node000015_Node000006"><a xlink:title=" ">
<path fill="none" stroke="#63b8ff" d="M405.1,-175.87C399.25,-167.31 390.13,-153.97 382.79,-143.24"/>
<polygon fill="#63b8ff" stroke="#63b8ff" points="385.46,-140.95 376.93,-134.67 379.68,-144.9 385.46,-140.95"/>
</a>
</g>
</g>
<!-- Node15&#45;&gt;Node14 -->
<g id="edge27_Node000015_Node000014" class="edge">
<title>Node15&#45;&gt;Node14</title>
<g id="a_edge27_Node000015_Node000014"><a xlink:title=" ">
<path fill="none" stroke="#63b8ff" d="M425.17,-175.87C438.19,-167.93 457.98,-155.87 474.84,-145.6"/>
<polygon fill="#63b8ff" stroke="#63b8ff" points="477.12,-148.31 483.84,-140.11 473.48,-142.33 477.12,-148.31"/>
</a>
</g>
</g>
</g>
</svg>

<g id="navigator" transform="translate(0 0)" fill="#404254">
  <rect fill="#f2f5e9" fill-opacity="0.5" stroke="#606060" stroke-width=".5" x="0" y="0" width="60" height="60"/>
  <use id="zoomplus" xlink:href="#zoomPlus" x="17" y="9" onmousedown="handleZoom(evt,'in')"/>
  <use id="zoomminus" xlink:href="#zoomMin" x="42" y="9" onmousedown="handleZoom(evt,'out')"/>
  <use id="reset" xlink:href="#resetDef" x="30" y="36" onmousedown="handleReset()"/>
   <use id="arrowup" xlink:href="#arrowUp" x="0" y="0" onmousedown="handlePan(0,-1)"/>
  <use id="arrowright" xlink:href="#arrowRight" x="0" y="0" onmousedown="handlePan(1,0)"/>
  <use id="arrowdown" xlink:href="#arrowDown" x="0" y="0" onmousedown="handlePan(0,1)"/>
  <use id="arrowleft" xlink:href="#arrowLeft" x="0" y="0" onmousedown="handlePan(-1,0)"/>
</g>
<svg viewBox="0 0 15 15" width="100%" height="30px" preserveAspectRatio="xMaxYMin meet">
 <g id="arrow_out" transform="scale(0.3 0.3)">
  <a xlink:href="test__fire__simulator_8cpp__incl_org.svg" target="_base">
   <rect id="button" ry="5" rx="5" y="6" x="6" height="38" width="38"
        fill="#f2f5e9" fill-opacity="0.5" stroke="#606060" stroke-width="1.0"/>
   <path id="arrow"
     d="M 11.500037,31.436501 C 11.940474,20.09759 22.043105,11.32322 32.158766,21.979434 L 37.068811,17.246167 C 37.068811,17.246167 37.088388,32 37.088388,32 L 22.160133,31.978069 C 22.160133,31.978069 26.997745,27.140456 26.997745,27.140456 C 18.528582,18.264221 13.291696,25.230495 11.500037,31.436501 z"
     style="fill:#404040;"/>
  </a>
 </g>
</svg>

<style type='text/css'>
<![CDATA[
[data-mouse-over-selected='false'] { opacity: 0.7; }
[data-mouse-over-selected='true']  { opacity: 1.0; }
]]>
</style>
<script type="application/ecmascript"><![CDATA[
document.addEventListener('DOMContentLoaded', (event) => {
  highlightEdges();
  highlightAdjacentNodes();
});
]]></script>
</svg>
